M48
; DRILL file {KiCad 7.0.10} date Sat Mar 23 21:53:36 2024
; FORMAT={-:-/ absolute / inch / decimal}
; #@! TF.CreationDate,2024-03-23T21:53:36+01:00
; #@! TF.GenerationSoftware,Kicad,Pcbnew,7.0.10
; #@! TF.FileFunction,Plated,1,2,PTH
FMAT,2
INCH
; #@! TA.AperFunction,Plated,PTH,ViaDrill
T1C0.0157
%
G90
G05
T1
X1.8Y-3.9
X1.9966Y-3.2084
X2.014Y-3.134
X2.0369Y-3.0012
X2.0864Y-3.1201
X2.1119Y-2.8203
X2.138Y-3.1312
X2.215Y-2.9214
X2.2476Y-3.0928
X2.2539Y-2.8853
X2.2611Y-3.1729
X2.2771Y-3.3971
X2.2943Y-3.0571
X2.2996Y-2.8998
X2.33Y-2.275
X2.3504Y-3.144
X2.3918Y-3.0792
X2.4059Y-2.8441
X2.4371Y-3.0691
X2.4558Y-2.9765
X2.4806Y-3.1656
X2.5064Y-2.9361
X2.5071Y-2.724
X2.5147Y-2.6263
X2.5264Y-4.01
X2.535Y-2.7881
X2.5832Y-2.6334
X2.655Y-2.275
X2.7632Y-2.6045
X2.8202Y-2.9382
X2.914Y-2.8189
X2.9309Y-2.9536
X2.9464Y-2.8908
X2.9525Y-2.7847
X2.9601Y-3.0897
X2.9765Y-2.6318
X2.9959Y-2.9873
X3.0297Y-3.2424
X3.035Y-2.275
X3.0612Y-2.9198
X3.0699Y-3.3887
X3.1115Y-2.7316
X3.1263Y-3.379
X3.165Y-2.545
X3.1658Y-3.3569
X3.1898Y-2.76
X3.2445Y-3.3121
X3.3Y-2.755
X3.3184Y-2.9565
X3.3233Y-3.2602
X3.3528Y-3.4308
X3.3775Y-2.6802
X3.3787Y-2.967
X3.3858Y-2.9266
X3.3893Y-3.206
X3.4389Y-3.3031
X3.4425Y-3.1683
X3.4568Y-2.6698
X3.4578Y-2.7101
X3.4585Y-2.7902
X3.569Y-2.7797
X3.5709Y-2.7193
X3.68Y-3.905
M30
