%TF.GenerationSoftware,KiCad,Pcbnew,7.0.10*%
%TF.CreationDate,2024-03-23T21:53:34+01:00*%
%TF.ProjectId,gb-cart-sst39sf010,67622d63-6172-4742-9d73-737433397366,rev?*%
%TF.SameCoordinates,Original*%
%TF.FileFunction,Soldermask,Top*%
%TF.FilePolarity,Negative*%
%FSLAX46Y46*%
G04 Gerber Fmt 4.6, Leading zero omitted, Abs format (unit mm)*
G04 Created by KiCad (PCBNEW 7.0.10) date 2024-03-23 21:53:34*
%MOMM*%
%LPD*%
G01*
G04 APERTURE LIST*
G04 Aperture macros list*
%AMRoundRect*
0 Rectangle with rounded corners*
0 $1 Rounding radius*
0 $2 $3 $4 $5 $6 $7 $8 $9 X,Y pos of 4 corners*
0 Add a 4 corners polygon primitive as box body*
4,1,4,$2,$3,$4,$5,$6,$7,$8,$9,$2,$3,0*
0 Add four circle primitives for the rounded corners*
1,1,$1+$1,$2,$3*
1,1,$1+$1,$4,$5*
1,1,$1+$1,$6,$7*
1,1,$1+$1,$8,$9*
0 Add four rect primitives between the rounded corners*
20,1,$1+$1,$2,$3,$4,$5,0*
20,1,$1+$1,$4,$5,$6,$7,0*
20,1,$1+$1,$6,$7,$8,$9,0*
20,1,$1+$1,$8,$9,$2,$3,0*%
G04 Aperture macros list end*
%ADD10RoundRect,0.075000X-0.700000X-0.075000X0.700000X-0.075000X0.700000X0.075000X-0.700000X0.075000X0*%
%ADD11RoundRect,0.250000X-0.337500X-0.475000X0.337500X-0.475000X0.337500X0.475000X-0.337500X0.475000X0*%
%ADD12RoundRect,0.250000X0.337500X0.475000X-0.337500X0.475000X-0.337500X-0.475000X0.337500X-0.475000X0*%
%ADD13R,1.300000X6.000000*%
%ADD14R,1.000000X5.500000*%
%ADD15RoundRect,0.250000X-0.350000X-0.450000X0.350000X-0.450000X0.350000X0.450000X-0.350000X0.450000X0*%
%ADD16C,7.200000*%
%ADD17C,2.300000*%
%ADD18RoundRect,0.150000X-0.150000X-0.587500X0.150000X-0.587500X0.150000X0.587500X-0.150000X0.587500X0*%
%ADD19RoundRect,0.150000X-0.587500X-0.150000X0.587500X-0.150000X0.587500X0.150000X-0.587500X0.150000X0*%
%ADD20C,1.500000*%
G04 APERTURE END LIST*
D10*
%TO.C,U3*%
X76379000Y-67624000D03*
X76379000Y-68124000D03*
X76379000Y-68624000D03*
X76379000Y-69124000D03*
X76379000Y-69624000D03*
X76379000Y-70124000D03*
X76379000Y-70624000D03*
X76379000Y-71124000D03*
X76379000Y-71624000D03*
X76379000Y-72124000D03*
X76379000Y-72624000D03*
X76379000Y-73124000D03*
X76379000Y-73624000D03*
X76379000Y-74124000D03*
X76379000Y-74624000D03*
X76379000Y-75124000D03*
X89229000Y-75124000D03*
X89229000Y-74624000D03*
X89229000Y-74124000D03*
X89229000Y-73624000D03*
X89229000Y-73124000D03*
X89229000Y-72624000D03*
X89229000Y-72124000D03*
X89229000Y-71624000D03*
X89229000Y-71124000D03*
X89229000Y-70624000D03*
X89229000Y-70124000D03*
X89229000Y-69624000D03*
X89229000Y-69124000D03*
X89229000Y-68624000D03*
X89229000Y-68124000D03*
X89229000Y-67624000D03*
%TD*%
D11*
%TO.C,C2*%
X81745000Y-64643000D03*
X83820000Y-64643000D03*
%TD*%
D12*
%TO.C,C1*%
X57806500Y-57785000D03*
X55731500Y-57785000D03*
%TD*%
D13*
%TO.C,U2*%
X45688000Y-109902000D03*
D14*
X47338000Y-109652000D03*
X48838000Y-109652000D03*
X50338000Y-109652000D03*
X51838000Y-109652000D03*
X53338000Y-109652000D03*
X54838000Y-109652000D03*
X56338000Y-109652000D03*
X57838000Y-109652000D03*
X59338000Y-109652000D03*
X60838000Y-109652000D03*
X62338000Y-109652000D03*
X63838000Y-109652000D03*
X65338000Y-109652000D03*
X66838000Y-109652000D03*
X68338000Y-109652000D03*
X69838000Y-109652000D03*
X71338000Y-109652000D03*
X72838000Y-109652000D03*
X74338000Y-109652000D03*
X75838000Y-109652000D03*
X77338000Y-109652000D03*
X78838000Y-109652000D03*
X80338000Y-109652000D03*
X81838000Y-109652000D03*
X83338000Y-109652000D03*
X84838000Y-109652000D03*
X86338000Y-109652000D03*
X87838000Y-109652000D03*
X89338000Y-109652000D03*
X90838000Y-109652000D03*
D13*
X92488000Y-109902000D03*
%TD*%
D15*
%TO.C,R1*%
X63920500Y-57785000D03*
X65920500Y-57785000D03*
%TD*%
D16*
%TO.C,H1*%
X69062600Y-98526600D03*
%TD*%
D17*
%TO.C,H2*%
X69088200Y-73569200D03*
%TD*%
D18*
%TO.C,U1*%
X56896000Y-61742500D03*
X55626000Y-61742500D03*
X54356000Y-61742500D03*
X53086000Y-61742500D03*
D19*
X51333500Y-63500000D03*
X51333500Y-64770000D03*
X51333500Y-66040000D03*
X51333500Y-67310000D03*
X51333500Y-68580000D03*
X51333500Y-69850000D03*
X51333500Y-71120000D03*
X51333500Y-72390000D03*
X51333500Y-73660000D03*
D18*
X53086000Y-75417500D03*
X54356000Y-75417500D03*
X55626000Y-75417500D03*
X56896000Y-75417500D03*
X58166000Y-75417500D03*
X59436000Y-75417500D03*
X60706000Y-75417500D03*
D19*
X62458500Y-73660000D03*
X62458500Y-72390000D03*
X62458500Y-71120000D03*
X62458500Y-69850000D03*
X62458500Y-68580000D03*
X62458500Y-67310000D03*
X62458500Y-66040000D03*
X62458500Y-64770000D03*
X62458500Y-63500000D03*
D18*
X60706000Y-61742500D03*
X59436000Y-61742500D03*
X58166000Y-61742500D03*
%TD*%
D20*
%TO.C,TP2*%
X83947000Y-57785000D03*
%TD*%
%TO.C,TP1*%
X79248000Y-57785000D03*
%TD*%
M02*
