%TF.GenerationSoftware,KiCad,Pcbnew,7.0.10*%
%TF.CreationDate,2024-03-23T21:53:34+01:00*%
%TF.ProjectId,gb-cart-sst39sf010,67622d63-6172-4742-9d73-737433397366,rev?*%
%TF.SameCoordinates,Original*%
%TF.FileFunction,Copper,L2,Bot*%
%TF.FilePolarity,Positive*%
%FSLAX46Y46*%
G04 Gerber Fmt 4.6, Leading zero omitted, Abs format (unit mm)*
G04 Created by KiCad (PCBNEW 7.0.10) date 2024-03-23 21:53:34*
%MOMM*%
%LPD*%
G01*
G04 APERTURE LIST*
%TA.AperFunction,ViaPad*%
%ADD10C,0.800000*%
%TD*%
%TA.AperFunction,Conductor*%
%ADD11C,0.250000*%
%TD*%
G04 APERTURE END LIST*
D10*
%TO.N,A15*%
X61109200Y-72239200D03*
X74016000Y-71601100D03*
X87828900Y-68835500D03*
%TO.N,A12*%
X77755500Y-74164100D03*
X71632800Y-74629700D03*
%TO.N,A7*%
X63663500Y-74576300D03*
X74838400Y-73426200D03*
%TO.N,A6*%
X62378300Y-75602800D03*
X74444600Y-75020600D03*
%TO.N,A5*%
X60751200Y-78212300D03*
X75187500Y-78478700D03*
%TO.N,A4*%
X58410600Y-73655200D03*
X76095900Y-75877900D03*
%TO.N,A3*%
X57838000Y-86286300D03*
X51156000Y-79604300D03*
X77974500Y-86074200D03*
%TO.N,A2*%
X57433200Y-80592700D03*
X53641800Y-71636400D03*
X85819400Y-75360800D03*
%TO.N,A1*%
X57250200Y-73286100D03*
X85998800Y-74336900D03*
%TO.N,A0*%
X56260900Y-74203500D03*
X84288500Y-75094600D03*
%TO.N,D0*%
X51738400Y-76230500D03*
X76953800Y-82357800D03*
%TO.N,D1*%
X79407500Y-85827500D03*
X52995700Y-79249600D03*
%TO.N,D2*%
X54304700Y-79532800D03*
X80411800Y-85266000D03*
%TO.N,D3*%
X57088100Y-78558100D03*
X82410400Y-84126400D03*
%TO.N,D4*%
X84411100Y-82808600D03*
X58274500Y-77649300D03*
X87844800Y-70872100D03*
%TO.N,D5*%
X90653800Y-70605000D03*
X85160800Y-87142100D03*
X59698900Y-79857700D03*
%TO.N,D6*%
X61902900Y-77954300D03*
X86088500Y-81433500D03*
%TO.N,D7*%
X63006700Y-80406800D03*
X87348100Y-83897500D03*
X90701100Y-69071300D03*
%TO.N,A10*%
X64388600Y-70817400D03*
X85787300Y-68077700D03*
%TO.N,RD*%
X63679100Y-69189600D03*
X87803100Y-67814100D03*
X50713200Y-81492300D03*
%TO.N,A11*%
X65613000Y-66887700D03*
X75603600Y-66848600D03*
%TO.N,A8*%
X63873300Y-66708700D03*
X70184600Y-66155200D03*
X64170600Y-101853600D03*
%TO.N,WR*%
X87438600Y-80474400D03*
X74994000Y-70731200D03*
X79032100Y-69382100D03*
%TO.N,VCC*%
X67437000Y-57785000D03*
X80391000Y-64643000D03*
X77089000Y-57785000D03*
X45720000Y-99060000D03*
X93472000Y-99187000D03*
X59182000Y-57785000D03*
%TO.N,GND*%
X83820000Y-69977000D03*
X81020000Y-70104000D03*
%TD*%
D11*
%TO.N,A15*%
X85477900Y-68835500D02*
X87828900Y-68835500D01*
X85299100Y-68656700D02*
X85477900Y-68835500D01*
X76018400Y-68656700D02*
X85299100Y-68656700D01*
X73545000Y-71130100D02*
X76018400Y-68656700D01*
X66581700Y-71130100D02*
X73545000Y-71130100D01*
X65472600Y-72239200D02*
X66581700Y-71130100D01*
X61109200Y-72239200D02*
X65472600Y-72239200D01*
X73545000Y-71130100D02*
X74016000Y-71601100D01*
%TO.N,A12*%
X72098300Y-74164200D02*
X71632800Y-74629700D01*
X77755500Y-74164200D02*
X72098300Y-74164200D01*
X77755500Y-74164100D02*
X77755500Y-74164200D01*
%TO.N,A7*%
X64382800Y-75295600D02*
X63663500Y-74576300D01*
X69941200Y-75295600D02*
X64382800Y-75295600D01*
X71810600Y-73426200D02*
X69941200Y-75295600D01*
X74838400Y-73426200D02*
X71810600Y-73426200D01*
%TO.N,A6*%
X62533000Y-75757500D02*
X62378300Y-75602800D01*
X73707700Y-75757500D02*
X62533000Y-75757500D01*
X74444600Y-75020600D02*
X73707700Y-75757500D01*
%TO.N,A5*%
X74986600Y-78679600D02*
X75187500Y-78478700D01*
X61218500Y-78679600D02*
X74986600Y-78679600D01*
X60751200Y-78212300D02*
X61218500Y-78679600D01*
%TO.N,A4*%
X75645500Y-76328300D02*
X76095900Y-75877900D01*
X61360400Y-76328300D02*
X75645500Y-76328300D01*
X58687300Y-73655200D02*
X61360400Y-76328300D01*
X58410600Y-73655200D02*
X58687300Y-73655200D01*
%TO.N,A3*%
X58050100Y-86074200D02*
X57838000Y-86286300D01*
X77974500Y-86074200D02*
X58050100Y-86074200D01*
X57838000Y-86286300D02*
X51156000Y-79604300D01*
%TO.N,A2*%
X56362800Y-76924100D02*
X56508200Y-76778700D01*
X56362800Y-79522300D02*
X56362800Y-76924100D01*
X57433200Y-80592700D02*
X56362800Y-79522300D01*
X53641800Y-73912300D02*
X53641800Y-71636400D01*
X56508200Y-76778700D02*
X53641800Y-73912300D01*
X83951300Y-77228900D02*
X85819400Y-75360800D01*
X60762200Y-77228900D02*
X83951300Y-77228900D01*
X60312000Y-76778700D02*
X60762200Y-77228900D01*
X56508200Y-76778700D02*
X60312000Y-76778700D01*
%TO.N,A1*%
X57606400Y-72929900D02*
X57250200Y-73286100D01*
X58711100Y-72929900D02*
X57606400Y-72929900D01*
X58800100Y-73018900D02*
X58711100Y-72929900D01*
X65525000Y-73018900D02*
X58800100Y-73018900D01*
X66717600Y-71826300D02*
X65525000Y-73018900D01*
X73195800Y-71826300D02*
X66717600Y-71826300D01*
X73826100Y-72456600D02*
X73195800Y-71826300D01*
X84118500Y-72456600D02*
X73826100Y-72456600D01*
X85998800Y-74336900D02*
X84118500Y-72456600D01*
%TO.N,A0*%
X82604500Y-76778600D02*
X84288500Y-75094600D01*
X60948800Y-76778600D02*
X82604500Y-76778600D01*
X60498500Y-76328300D02*
X60948800Y-76778600D01*
X58385700Y-76328300D02*
X60498500Y-76328300D01*
X56260900Y-74203500D02*
X58385700Y-76328300D01*
%TO.N,D0*%
X52028200Y-76230500D02*
X51738400Y-76230500D01*
X58307200Y-82509500D02*
X52028200Y-76230500D01*
X58307200Y-82509600D02*
X58307200Y-82509500D01*
X76802000Y-82509600D02*
X58307200Y-82509600D01*
X76953800Y-82357800D02*
X76802000Y-82509600D01*
%TO.N,D1*%
X78921900Y-85341900D02*
X79407500Y-85827500D01*
X59088000Y-85341900D02*
X78921900Y-85341900D01*
X52995700Y-79249600D02*
X59088000Y-85341900D01*
%TO.N,D2*%
X78357300Y-83211500D02*
X80411800Y-85266000D01*
X57983400Y-83211500D02*
X78357300Y-83211500D01*
X54304700Y-79532800D02*
X57983400Y-83211500D01*
%TO.N,D3*%
X57584300Y-79054300D02*
X57088100Y-78558100D01*
X57584300Y-79054400D02*
X57584300Y-79054300D01*
X59921500Y-79054400D02*
X57584300Y-79054400D01*
X60548600Y-79681500D02*
X59921500Y-79054400D01*
X77965500Y-79681500D02*
X60548600Y-79681500D01*
X82410400Y-84126400D02*
X77965500Y-79681500D01*
%TO.N,D4*%
X81143000Y-79231200D02*
X84411100Y-82499300D01*
X60735200Y-79231200D02*
X81143000Y-79231200D01*
X59153300Y-77649300D02*
X60735200Y-79231200D01*
X58274500Y-77649300D02*
X59153300Y-77649300D01*
X88195100Y-71222400D02*
X87844800Y-70872100D01*
X88195100Y-80781100D02*
X88195100Y-71222400D01*
X86476900Y-82499300D02*
X88195100Y-80781100D01*
X84411100Y-82499300D02*
X86476900Y-82499300D01*
X84411100Y-82808600D02*
X84411100Y-82499300D01*
%TO.N,D5*%
X90653800Y-81649100D02*
X85160800Y-87142100D01*
X90653800Y-70605000D02*
X90653800Y-81649100D01*
X60973500Y-81132300D02*
X59698900Y-79857700D01*
X63795700Y-81132300D02*
X60973500Y-81132300D01*
X63869000Y-81059000D02*
X63795700Y-81132300D01*
X77230600Y-81059000D02*
X63869000Y-81059000D01*
X83313700Y-87142100D02*
X77230600Y-81059000D01*
X85160800Y-87142100D02*
X83313700Y-87142100D01*
%TO.N,D6*%
X62105000Y-77752200D02*
X61902900Y-77954300D01*
X82407200Y-77752200D02*
X62105000Y-77752200D01*
X86088500Y-81433500D02*
X82407200Y-77752200D01*
%TO.N,D7*%
X89892800Y-69879600D02*
X90701100Y-69071300D01*
X89892800Y-81352800D02*
X89892800Y-69879600D01*
X87348100Y-83897500D02*
X89892800Y-81352800D01*
X77215300Y-80406800D02*
X63006700Y-80406800D01*
X81684500Y-84876000D02*
X77215300Y-80406800D01*
X86369600Y-84876000D02*
X81684500Y-84876000D01*
X87348100Y-83897500D02*
X86369600Y-84876000D01*
%TO.N,A10*%
X67128300Y-68077700D02*
X64388600Y-70817400D01*
X85787300Y-68077700D02*
X67128300Y-68077700D01*
%TO.N,RD*%
X50420600Y-81199700D02*
X50713200Y-81492300D01*
X50420600Y-73817200D02*
X50420600Y-81199700D01*
X55048200Y-69189600D02*
X50420600Y-73817200D01*
X63679100Y-69189600D02*
X55048200Y-69189600D01*
X65254300Y-67614400D02*
X63679100Y-69189600D01*
X84292300Y-67614400D02*
X65254300Y-67614400D01*
X84561400Y-67345300D02*
X84292300Y-67614400D01*
X87334300Y-67345300D02*
X84561400Y-67345300D01*
X87803100Y-67814100D02*
X87334300Y-67345300D01*
%TO.N,A11*%
X75564500Y-66887700D02*
X75603600Y-66848600D01*
X65613000Y-66887700D02*
X75564500Y-66887700D01*
%TO.N,A8*%
X64426800Y-66155200D02*
X63873300Y-66708700D01*
X70184600Y-66155200D02*
X64426800Y-66155200D01*
X49970200Y-87653200D02*
X64170600Y-101853600D01*
X49970200Y-73589000D02*
X49970200Y-87653200D01*
X56850500Y-66708700D02*
X49970200Y-73589000D01*
X63873300Y-66708700D02*
X56850500Y-66708700D01*
%TO.N,WR*%
X77683000Y-70731200D02*
X74994000Y-70731200D01*
X79032100Y-69382100D02*
X77683000Y-70731200D01*
X87438600Y-74683800D02*
X87438600Y-80474400D01*
X84103000Y-71348200D02*
X87438600Y-74683800D01*
X80998200Y-71348200D02*
X84103000Y-71348200D01*
X79032100Y-69382100D02*
X80998200Y-71348200D01*
%TO.N,VCC*%
X67437000Y-54483000D02*
X67183000Y-54229000D01*
X67437000Y-57785000D02*
X67437000Y-54483000D01*
X59563000Y-54229000D02*
X67183000Y-54229000D01*
X67183000Y-54229000D02*
X76581000Y-54229000D01*
X80391000Y-54610000D02*
X80010000Y-54229000D01*
X80391000Y-64643000D02*
X80391000Y-54610000D01*
X76581000Y-54229000D02*
X80010000Y-54229000D01*
X77089000Y-54737000D02*
X76581000Y-54229000D01*
X77089000Y-57785000D02*
X77089000Y-54737000D01*
X48006000Y-54229000D02*
X59436000Y-54229000D01*
X45720000Y-56515000D02*
X48006000Y-54229000D01*
X45720000Y-99060000D02*
X45720000Y-56515000D01*
X92456000Y-98171000D02*
X93472000Y-99187000D01*
X92456000Y-58674000D02*
X92456000Y-98171000D01*
X88011000Y-54229000D02*
X92456000Y-58674000D01*
X80010000Y-54229000D02*
X88011000Y-54229000D01*
X59436000Y-54229000D02*
X59563000Y-54229000D01*
X59182000Y-54483000D02*
X59436000Y-54229000D01*
X59182000Y-57785000D02*
X59182000Y-54483000D01*
X59436000Y-54229000D02*
X59563000Y-54229000D01*
%TO.N,GND*%
X83693000Y-70104000D02*
X83820000Y-69977000D01*
X81020000Y-70104000D02*
X83693000Y-70104000D01*
%TD*%
%TA.AperFunction,Conductor*%
%TO.N,VCC*%
G36*
X90296059Y-52978561D02*
G01*
X90381682Y-52989833D01*
X90412949Y-52998211D01*
X90458203Y-53016955D01*
X90485169Y-53028125D01*
X90513197Y-53044307D01*
X90575217Y-53091896D01*
X90598105Y-53114784D01*
X90645690Y-53176798D01*
X90661875Y-53204832D01*
X90691788Y-53277050D01*
X90700166Y-53308316D01*
X90711439Y-53393939D01*
X90712500Y-53410125D01*
X90712500Y-55456647D01*
X90710617Y-55478175D01*
X90708876Y-55488048D01*
X90710616Y-55497915D01*
X90711781Y-55511238D01*
X90713217Y-55519384D01*
X90716676Y-55532292D01*
X90718418Y-55542170D01*
X90721935Y-55548261D01*
X90726452Y-55553645D01*
X90735133Y-55558657D01*
X90752840Y-55571056D01*
X90760519Y-55577500D01*
X90767118Y-55579901D01*
X90774045Y-55581122D01*
X90774048Y-55581124D01*
X90783918Y-55579383D01*
X90805448Y-55577500D01*
X94263469Y-55577500D01*
X94279874Y-55577500D01*
X94296059Y-55578561D01*
X94381682Y-55589833D01*
X94412949Y-55598211D01*
X94458203Y-55616955D01*
X94485169Y-55628125D01*
X94513197Y-55644307D01*
X94575217Y-55691896D01*
X94598105Y-55714784D01*
X94645690Y-55776798D01*
X94661875Y-55804832D01*
X94691788Y-55877050D01*
X94700166Y-55908316D01*
X94711439Y-55993939D01*
X94712500Y-56010125D01*
X94712500Y-104793874D01*
X94711439Y-104810060D01*
X94700166Y-104895683D01*
X94691788Y-104926949D01*
X94661875Y-104999167D01*
X94645690Y-105027201D01*
X94598105Y-105089215D01*
X94575215Y-105112105D01*
X94513201Y-105159690D01*
X94485167Y-105175875D01*
X94412949Y-105205788D01*
X94381683Y-105214166D01*
X94306253Y-105224097D01*
X94296058Y-105225439D01*
X94279874Y-105226500D01*
X93733352Y-105226500D01*
X93711818Y-105224616D01*
X93701952Y-105222876D01*
X93701951Y-105222876D01*
X93698217Y-105223534D01*
X93692081Y-105224616D01*
X93678767Y-105225781D01*
X93670620Y-105227217D01*
X93657711Y-105230675D01*
X93647827Y-105232418D01*
X93641740Y-105235932D01*
X93636354Y-105240452D01*
X93631338Y-105249139D01*
X93618949Y-105266832D01*
X93612500Y-105274517D01*
X93610098Y-105281118D01*
X93608876Y-105288048D01*
X93610616Y-105297915D01*
X93612500Y-105319447D01*
X93612500Y-112995907D01*
X93611903Y-113008062D01*
X93597854Y-113150697D01*
X93593112Y-113174537D01*
X93553283Y-113305837D01*
X93543980Y-113328295D01*
X93479304Y-113449296D01*
X93465799Y-113469508D01*
X93378757Y-113575569D01*
X93361569Y-113592757D01*
X93255508Y-113679799D01*
X93235296Y-113693304D01*
X93114295Y-113757980D01*
X93091837Y-113767283D01*
X92960537Y-113807112D01*
X92936697Y-113811854D01*
X92832220Y-113822144D01*
X92794060Y-113825903D01*
X92781907Y-113826500D01*
X45394093Y-113826500D01*
X45381939Y-113825903D01*
X45321875Y-113819987D01*
X45239302Y-113811854D01*
X45215462Y-113807112D01*
X45084162Y-113767283D01*
X45061704Y-113757980D01*
X44940703Y-113693304D01*
X44920491Y-113679799D01*
X44814430Y-113592757D01*
X44797242Y-113575569D01*
X44710200Y-113469508D01*
X44696695Y-113449296D01*
X44632019Y-113328295D01*
X44622716Y-113305837D01*
X44607429Y-113255442D01*
X44582885Y-113174531D01*
X44578146Y-113150703D01*
X44564097Y-113008061D01*
X44563500Y-112995907D01*
X44563500Y-105347352D01*
X44565384Y-105325818D01*
X44567122Y-105315955D01*
X44567124Y-105315952D01*
X44565384Y-105306083D01*
X44564218Y-105292761D01*
X44562781Y-105284611D01*
X44559322Y-105271699D01*
X44557581Y-105261829D01*
X44557581Y-105261828D01*
X44557579Y-105261827D01*
X44554061Y-105255733D01*
X44549549Y-105250355D01*
X44540866Y-105245342D01*
X44523161Y-105232945D01*
X44515480Y-105226500D01*
X44508879Y-105224097D01*
X44501952Y-105222876D01*
X44501951Y-105222876D01*
X44498217Y-105223534D01*
X44492081Y-105224616D01*
X44470552Y-105226500D01*
X43896126Y-105226500D01*
X43879941Y-105225439D01*
X43869747Y-105224097D01*
X43794316Y-105214166D01*
X43763050Y-105205788D01*
X43690832Y-105175875D01*
X43662800Y-105159691D01*
X43600782Y-105112103D01*
X43577896Y-105089217D01*
X43530307Y-105027197D01*
X43514124Y-104999167D01*
X43484211Y-104926949D01*
X43475833Y-104895682D01*
X43464561Y-104810059D01*
X43463500Y-104793874D01*
X43463500Y-73568942D01*
X49331980Y-73568942D01*
X49336150Y-73613057D01*
X49336700Y-73624726D01*
X49336700Y-87569566D01*
X49334961Y-87585313D01*
X49335232Y-87585339D01*
X49334498Y-87593105D01*
X49334498Y-87593108D01*
X49334498Y-87593109D01*
X49334667Y-87598470D01*
X49336639Y-87661216D01*
X49336700Y-87665112D01*
X49336700Y-87693059D01*
X49337218Y-87697158D01*
X49338134Y-87708798D01*
X49339526Y-87753089D01*
X49339527Y-87753091D01*
X49345222Y-87772695D01*
X49349167Y-87791742D01*
X49351726Y-87811997D01*
X49351727Y-87812000D01*
X49351728Y-87812004D01*
X49368038Y-87853200D01*
X49371821Y-87864249D01*
X49384181Y-87906792D01*
X49394572Y-87924362D01*
X49403132Y-87941835D01*
X49410647Y-87960817D01*
X49436691Y-87996663D01*
X49443105Y-88006427D01*
X49465658Y-88044562D01*
X49465662Y-88044566D01*
X49480089Y-88058993D01*
X49492726Y-88073788D01*
X49504728Y-88090307D01*
X49537407Y-88117342D01*
X49538868Y-88118550D01*
X49547509Y-88126413D01*
X63223978Y-101802882D01*
X63257463Y-101864205D01*
X63259618Y-101877601D01*
X63261720Y-101897598D01*
X63277058Y-102043528D01*
X63277059Y-102043531D01*
X63336070Y-102225149D01*
X63336073Y-102225156D01*
X63431560Y-102390544D01*
X63559347Y-102532466D01*
X63713848Y-102644718D01*
X63888312Y-102722394D01*
X64075113Y-102762100D01*
X64266087Y-102762100D01*
X64452888Y-102722394D01*
X64627352Y-102644718D01*
X64781853Y-102532466D01*
X64909640Y-102390544D01*
X65005127Y-102225156D01*
X65064142Y-102043528D01*
X65084104Y-101853600D01*
X65064142Y-101663672D01*
X65005127Y-101482044D01*
X64909640Y-101316656D01*
X64781853Y-101174734D01*
X64627352Y-101062482D01*
X64452888Y-100984806D01*
X64452886Y-100984805D01*
X64266087Y-100945100D01*
X64209367Y-100945100D01*
X64142328Y-100925415D01*
X64121686Y-100908781D01*
X61934781Y-98721876D01*
X65212100Y-98721876D01*
X65251611Y-99110417D01*
X65330230Y-99492982D01*
X65330231Y-99492988D01*
X65447141Y-99865608D01*
X65601158Y-100224512D01*
X65790697Y-100565994D01*
X66013806Y-100886545D01*
X66261209Y-101174734D01*
X66268199Y-101182876D01*
X66551267Y-101451952D01*
X66551271Y-101451955D01*
X66551272Y-101451956D01*
X66590150Y-101482050D01*
X66860105Y-101691011D01*
X66986671Y-101769900D01*
X67191535Y-101897593D01*
X67191544Y-101897598D01*
X67542182Y-102069594D01*
X67542189Y-102069596D01*
X67542190Y-102069597D01*
X67908412Y-102205231D01*
X67908414Y-102205231D01*
X67908421Y-102205234D01*
X68286504Y-102303127D01*
X68672551Y-102362267D01*
X68965034Y-102377100D01*
X68965050Y-102377100D01*
X69160150Y-102377100D01*
X69160166Y-102377100D01*
X69452649Y-102362267D01*
X69838696Y-102303127D01*
X70216779Y-102205234D01*
X70583018Y-102069594D01*
X70933656Y-101897598D01*
X71265095Y-101691011D01*
X71573933Y-101451952D01*
X71857001Y-101182876D01*
X72111395Y-100886543D01*
X72334504Y-100565993D01*
X72524039Y-100224517D01*
X72678055Y-99865617D01*
X72794971Y-99492978D01*
X72873588Y-99110422D01*
X72913100Y-98721875D01*
X72913100Y-98331325D01*
X72873588Y-97942778D01*
X72794971Y-97560222D01*
X72678055Y-97187583D01*
X72524039Y-96828683D01*
X72334504Y-96487207D01*
X72111395Y-96166657D01*
X72111393Y-96166654D01*
X71857001Y-95870324D01*
X71573933Y-95601248D01*
X71265095Y-95362189D01*
X70933664Y-95155606D01*
X70933655Y-95155601D01*
X70583022Y-94983608D01*
X70583009Y-94983602D01*
X70216787Y-94847968D01*
X70143064Y-94828879D01*
X69838696Y-94750073D01*
X69838693Y-94750072D01*
X69838691Y-94750072D01*
X69452648Y-94690932D01*
X69221819Y-94679226D01*
X69160166Y-94676100D01*
X68965034Y-94676100D01*
X68915711Y-94678601D01*
X68672551Y-94690932D01*
X68286508Y-94750072D01*
X67908413Y-94847968D01*
X67908412Y-94847968D01*
X67542190Y-94983602D01*
X67542177Y-94983608D01*
X67191544Y-95155601D01*
X67191535Y-95155606D01*
X66860104Y-95362189D01*
X66551272Y-95601243D01*
X66268198Y-95870324D01*
X66013806Y-96166654D01*
X65790697Y-96487205D01*
X65601158Y-96828687D01*
X65447141Y-97187591D01*
X65330231Y-97560211D01*
X65330230Y-97560217D01*
X65251611Y-97942782D01*
X65212100Y-98331323D01*
X65212100Y-98721876D01*
X61934781Y-98721876D01*
X50640019Y-87427114D01*
X50606534Y-87365791D01*
X50603700Y-87339433D01*
X50603700Y-82524800D01*
X50623385Y-82457761D01*
X50676189Y-82412006D01*
X50727700Y-82400800D01*
X50808687Y-82400800D01*
X50995488Y-82361094D01*
X51169952Y-82283418D01*
X51324453Y-82171166D01*
X51452240Y-82029244D01*
X51547727Y-81863856D01*
X51606742Y-81682228D01*
X51626704Y-81492300D01*
X51606742Y-81302372D01*
X51597204Y-81273020D01*
X51595208Y-81203182D01*
X51631287Y-81143348D01*
X51693987Y-81112519D01*
X51763402Y-81120481D01*
X51802816Y-81147021D01*
X56891379Y-86235584D01*
X56924864Y-86296907D01*
X56927018Y-86310299D01*
X56944458Y-86476228D01*
X56944459Y-86476231D01*
X57003470Y-86657849D01*
X57003473Y-86657856D01*
X57098960Y-86823244D01*
X57226747Y-86965166D01*
X57381248Y-87077418D01*
X57555712Y-87155094D01*
X57742513Y-87194800D01*
X57933487Y-87194800D01*
X58120288Y-87155094D01*
X58294752Y-87077418D01*
X58449253Y-86965166D01*
X58577040Y-86823244D01*
X58598307Y-86786408D01*
X58607954Y-86769700D01*
X58658521Y-86721484D01*
X58715341Y-86707700D01*
X77267191Y-86707700D01*
X77334230Y-86727385D01*
X77359340Y-86748727D01*
X77363247Y-86753066D01*
X77517748Y-86865318D01*
X77692212Y-86942994D01*
X77879013Y-86982700D01*
X78069987Y-86982700D01*
X78256788Y-86942994D01*
X78431252Y-86865318D01*
X78585753Y-86753066D01*
X78713540Y-86611144D01*
X78713541Y-86611140D01*
X78717362Y-86605884D01*
X78719158Y-86607189D01*
X78762302Y-86566049D01*
X78830908Y-86552823D01*
X78892011Y-86575943D01*
X78950748Y-86618618D01*
X79125212Y-86696294D01*
X79312013Y-86736000D01*
X79502987Y-86736000D01*
X79689788Y-86696294D01*
X79864252Y-86618618D01*
X80018753Y-86506366D01*
X80146540Y-86364444D01*
X80199159Y-86273305D01*
X80220409Y-86236500D01*
X80270976Y-86188284D01*
X80327796Y-86174500D01*
X80507287Y-86174500D01*
X80694088Y-86134794D01*
X80868552Y-86057118D01*
X81023053Y-85944866D01*
X81029193Y-85938045D01*
X81088676Y-85901394D01*
X81158533Y-85902720D01*
X81209028Y-85933332D01*
X82806610Y-87530914D01*
X82816516Y-87543278D01*
X82816726Y-87543105D01*
X82821697Y-87549113D01*
X82821700Y-87549118D01*
X82871402Y-87595790D01*
X82874166Y-87598470D01*
X82893924Y-87618229D01*
X82893928Y-87618232D01*
X82893931Y-87618235D01*
X82897199Y-87620770D01*
X82906079Y-87628354D01*
X82938379Y-87658686D01*
X82938383Y-87658689D01*
X82956263Y-87668518D01*
X82972527Y-87679201D01*
X82988660Y-87691714D01*
X83029319Y-87709309D01*
X83039810Y-87714448D01*
X83078640Y-87735795D01*
X83098418Y-87740873D01*
X83116819Y-87747173D01*
X83135555Y-87755281D01*
X83179330Y-87762213D01*
X83190745Y-87764578D01*
X83233670Y-87775600D01*
X83254084Y-87775600D01*
X83273483Y-87777127D01*
X83293643Y-87780320D01*
X83337757Y-87776150D01*
X83349426Y-87775600D01*
X84453491Y-87775600D01*
X84520530Y-87795285D01*
X84545640Y-87816627D01*
X84549547Y-87820966D01*
X84704048Y-87933218D01*
X84878512Y-88010894D01*
X85065313Y-88050600D01*
X85256287Y-88050600D01*
X85443088Y-88010894D01*
X85617552Y-87933218D01*
X85772053Y-87820966D01*
X85899840Y-87679044D01*
X85995327Y-87513656D01*
X86054342Y-87332028D01*
X86071781Y-87166097D01*
X86098364Y-87101487D01*
X86107411Y-87091391D01*
X91042617Y-82156186D01*
X91054978Y-82146285D01*
X91054804Y-82146075D01*
X91060813Y-82141102D01*
X91060818Y-82141100D01*
X91107490Y-82091397D01*
X91110139Y-82088664D01*
X91129935Y-82068870D01*
X91132472Y-82065598D01*
X91140051Y-82056724D01*
X91170386Y-82024421D01*
X91180219Y-82006532D01*
X91190902Y-81990269D01*
X91203414Y-81974141D01*
X91221007Y-81933481D01*
X91226150Y-81922985D01*
X91247493Y-81884164D01*
X91247493Y-81884163D01*
X91247495Y-81884160D01*
X91252574Y-81864373D01*
X91258870Y-81845985D01*
X91266981Y-81827245D01*
X91273913Y-81783472D01*
X91276278Y-81772053D01*
X91287300Y-81729130D01*
X91287300Y-81708715D01*
X91288827Y-81689314D01*
X91289949Y-81682231D01*
X91292020Y-81669157D01*
X91287850Y-81625042D01*
X91287300Y-81613373D01*
X91287300Y-71306756D01*
X91306985Y-71239717D01*
X91319146Y-71223788D01*
X91392840Y-71141944D01*
X91488327Y-70976556D01*
X91547342Y-70794928D01*
X91567304Y-70605000D01*
X91547342Y-70415072D01*
X91488327Y-70233444D01*
X91392840Y-70068056D01*
X91280126Y-69942874D01*
X91249896Y-69879882D01*
X91258521Y-69810547D01*
X91299393Y-69759582D01*
X91312354Y-69750165D01*
X91353656Y-69704294D01*
X91440140Y-69608244D01*
X91535627Y-69442856D01*
X91594642Y-69261228D01*
X91614604Y-69071300D01*
X91594642Y-68881372D01*
X91535627Y-68699744D01*
X91440140Y-68534356D01*
X91312353Y-68392434D01*
X91157852Y-68280182D01*
X90983388Y-68202506D01*
X90983386Y-68202505D01*
X90796587Y-68162800D01*
X90605613Y-68162800D01*
X90418814Y-68202505D01*
X90418812Y-68202506D01*
X90248652Y-68278266D01*
X90244346Y-68280183D01*
X90089845Y-68392435D01*
X89962059Y-68534357D01*
X89866573Y-68699743D01*
X89866570Y-68699750D01*
X89816826Y-68852847D01*
X89807558Y-68881372D01*
X89792417Y-69025428D01*
X89790119Y-69047295D01*
X89763534Y-69111909D01*
X89754479Y-69122014D01*
X89503982Y-69372512D01*
X89491620Y-69382416D01*
X89491794Y-69382626D01*
X89485784Y-69387598D01*
X89439137Y-69437270D01*
X89436432Y-69440061D01*
X89416673Y-69459821D01*
X89416658Y-69459838D01*
X89414117Y-69463113D01*
X89406553Y-69471967D01*
X89376220Y-69504271D01*
X89376212Y-69504281D01*
X89366379Y-69522167D01*
X89355703Y-69538420D01*
X89343186Y-69554557D01*
X89343185Y-69554560D01*
X89325585Y-69595229D01*
X89320448Y-69605715D01*
X89299103Y-69644541D01*
X89299103Y-69644542D01*
X89294025Y-69664320D01*
X89287725Y-69682722D01*
X89279618Y-69701457D01*
X89272688Y-69745209D01*
X89270320Y-69756645D01*
X89259300Y-69799565D01*
X89259300Y-69819984D01*
X89257773Y-69839383D01*
X89254600Y-69859419D01*
X89254580Y-69859543D01*
X89256423Y-69879044D01*
X89258750Y-69903657D01*
X89259300Y-69915326D01*
X89259300Y-81039033D01*
X89239615Y-81106072D01*
X89222981Y-81126714D01*
X87397014Y-82952681D01*
X87335691Y-82986166D01*
X87309333Y-82989000D01*
X87252613Y-82989000D01*
X87192827Y-83001708D01*
X87123160Y-82996391D01*
X87067427Y-82954253D01*
X87043322Y-82888673D01*
X87058500Y-82820472D01*
X87079362Y-82792740D01*
X88583916Y-81288186D01*
X88596278Y-81278285D01*
X88596104Y-81278075D01*
X88602113Y-81273102D01*
X88602118Y-81273100D01*
X88648791Y-81223396D01*
X88651440Y-81220663D01*
X88671235Y-81200870D01*
X88673772Y-81197598D01*
X88681351Y-81188724D01*
X88711686Y-81156421D01*
X88721519Y-81138532D01*
X88732202Y-81122269D01*
X88744714Y-81106141D01*
X88762307Y-81065481D01*
X88767450Y-81054985D01*
X88788793Y-81016164D01*
X88788793Y-81016163D01*
X88788795Y-81016160D01*
X88793874Y-80996373D01*
X88800170Y-80977985D01*
X88808281Y-80959245D01*
X88815213Y-80915472D01*
X88817578Y-80904053D01*
X88828600Y-80861130D01*
X88828600Y-80840715D01*
X88830127Y-80821314D01*
X88831375Y-80813434D01*
X88833320Y-80801157D01*
X88829150Y-80757042D01*
X88828600Y-80745373D01*
X88828600Y-71306031D01*
X88830338Y-71290281D01*
X88830068Y-71290256D01*
X88830801Y-71282494D01*
X88830802Y-71282491D01*
X88828661Y-71214382D01*
X88828600Y-71210486D01*
X88828600Y-71182546D01*
X88828082Y-71178449D01*
X88827164Y-71166790D01*
X88826889Y-71158027D01*
X88825773Y-71122511D01*
X88820077Y-71102909D01*
X88816132Y-71083859D01*
X88813574Y-71063603D01*
X88797262Y-71022404D01*
X88793479Y-71011356D01*
X88783367Y-70976549D01*
X88781118Y-70968807D01*
X88781116Y-70968803D01*
X88781115Y-70968801D01*
X88773992Y-70956757D01*
X88756808Y-70889033D01*
X88757403Y-70880668D01*
X88758304Y-70872100D01*
X88738342Y-70682172D01*
X88681699Y-70507844D01*
X88679329Y-70500550D01*
X88679328Y-70500549D01*
X88679327Y-70500544D01*
X88583840Y-70335156D01*
X88456053Y-70193234D01*
X88301552Y-70080982D01*
X88127088Y-70003306D01*
X88127086Y-70003305D01*
X88127085Y-70003305D01*
X87986393Y-69973400D01*
X87924911Y-69940208D01*
X87891135Y-69879044D01*
X87895787Y-69809330D01*
X87937392Y-69753198D01*
X87986392Y-69730820D01*
X88111188Y-69704294D01*
X88285652Y-69626618D01*
X88440153Y-69514366D01*
X88567940Y-69372444D01*
X88663427Y-69207056D01*
X88722442Y-69025428D01*
X88742404Y-68835500D01*
X88722442Y-68645572D01*
X88663427Y-68463944D01*
X88605986Y-68364454D01*
X88589514Y-68296556D01*
X88605987Y-68240456D01*
X88637627Y-68185656D01*
X88696642Y-68004028D01*
X88716604Y-67814100D01*
X88696642Y-67624172D01*
X88637627Y-67442544D01*
X88542140Y-67277156D01*
X88414353Y-67135234D01*
X88259852Y-67022982D01*
X88085388Y-66945306D01*
X88085386Y-66945305D01*
X87898587Y-66905600D01*
X87841867Y-66905600D01*
X87774828Y-66885915D01*
X87757082Y-66871614D01*
X87756980Y-66871731D01*
X87754370Y-66869429D01*
X87754186Y-66869281D01*
X87754066Y-66869161D01*
X87750804Y-66866631D01*
X87741919Y-66859043D01*
X87709621Y-66828714D01*
X87709619Y-66828712D01*
X87691731Y-66818878D01*
X87675470Y-66808197D01*
X87659339Y-66795684D01*
X87618675Y-66778088D01*
X87608185Y-66772949D01*
X87569360Y-66751605D01*
X87569356Y-66751604D01*
X87549587Y-66746528D01*
X87531181Y-66740226D01*
X87512444Y-66732118D01*
X87512445Y-66732118D01*
X87468683Y-66725187D01*
X87457247Y-66722819D01*
X87442493Y-66719031D01*
X87414332Y-66711800D01*
X87414330Y-66711800D01*
X87393916Y-66711800D01*
X87374517Y-66710273D01*
X87354358Y-66707080D01*
X87354357Y-66707080D01*
X87310243Y-66711250D01*
X87298574Y-66711800D01*
X84645031Y-66711800D01*
X84629279Y-66710060D01*
X84629254Y-66710332D01*
X84621492Y-66709598D01*
X84621491Y-66709598D01*
X84598137Y-66710332D01*
X84553369Y-66711739D01*
X84549474Y-66711800D01*
X84521544Y-66711800D01*
X84521541Y-66711800D01*
X84521525Y-66711801D01*
X84517432Y-66712318D01*
X84505804Y-66713233D01*
X84461513Y-66714625D01*
X84461507Y-66714626D01*
X84441900Y-66720322D01*
X84422861Y-66724265D01*
X84402611Y-66726824D01*
X84402605Y-66726825D01*
X84402603Y-66726826D01*
X84391825Y-66731092D01*
X84361406Y-66743136D01*
X84350360Y-66746917D01*
X84307813Y-66759279D01*
X84307807Y-66759281D01*
X84290233Y-66769674D01*
X84272772Y-66778228D01*
X84253786Y-66785746D01*
X84253785Y-66785746D01*
X84217935Y-66811792D01*
X84208176Y-66818202D01*
X84170037Y-66840757D01*
X84155601Y-66855194D01*
X84140815Y-66867823D01*
X84128164Y-66877015D01*
X84124290Y-66879830D01*
X84096049Y-66913967D01*
X84088190Y-66922603D01*
X84066215Y-66944579D01*
X84004893Y-66978066D01*
X83978532Y-66980900D01*
X76640915Y-66980900D01*
X76573876Y-66961215D01*
X76528121Y-66908411D01*
X76519410Y-66855098D01*
X76517104Y-66855098D01*
X76517104Y-66848603D01*
X76517104Y-66848600D01*
X76497142Y-66658672D01*
X76438127Y-66477044D01*
X76342640Y-66311656D01*
X76225536Y-66181599D01*
X76214854Y-66169735D01*
X76194849Y-66155200D01*
X76060352Y-66057482D01*
X75885888Y-65979806D01*
X75885886Y-65979805D01*
X75699087Y-65940100D01*
X75508113Y-65940100D01*
X75321314Y-65979805D01*
X75321312Y-65979806D01*
X75208945Y-66029835D01*
X75146846Y-66057483D01*
X74992345Y-66169735D01*
X74966725Y-66198189D01*
X74953235Y-66213171D01*
X74893750Y-66249820D01*
X74861086Y-66254200D01*
X71220159Y-66254200D01*
X71153120Y-66234515D01*
X71107365Y-66181711D01*
X71096839Y-66143164D01*
X71078142Y-65965272D01*
X71019127Y-65783644D01*
X70923640Y-65618256D01*
X70795853Y-65476334D01*
X70641352Y-65364082D01*
X70466888Y-65286406D01*
X70466886Y-65286405D01*
X70280087Y-65246700D01*
X70089113Y-65246700D01*
X69902314Y-65286405D01*
X69727846Y-65364083D01*
X69573345Y-65476335D01*
X69569440Y-65480673D01*
X69509954Y-65517321D01*
X69477291Y-65521700D01*
X64510434Y-65521700D01*
X64494686Y-65519961D01*
X64494661Y-65520232D01*
X64486894Y-65519498D01*
X64486891Y-65519498D01*
X64418783Y-65521639D01*
X64414887Y-65521700D01*
X64386936Y-65521700D01*
X64382840Y-65522218D01*
X64371202Y-65523134D01*
X64326911Y-65524526D01*
X64326908Y-65524527D01*
X64307305Y-65530222D01*
X64288259Y-65534166D01*
X64268003Y-65536726D01*
X64268001Y-65536726D01*
X64267999Y-65536727D01*
X64226798Y-65553039D01*
X64215751Y-65556821D01*
X64173206Y-65569182D01*
X64155633Y-65579574D01*
X64138170Y-65588129D01*
X64119185Y-65595646D01*
X64119184Y-65595647D01*
X64083343Y-65621687D01*
X64073581Y-65628099D01*
X64035437Y-65650658D01*
X64020996Y-65665098D01*
X64006208Y-65677727D01*
X63989697Y-65689723D01*
X63989692Y-65689728D01*
X63961457Y-65723857D01*
X63953599Y-65732494D01*
X63922214Y-65763880D01*
X63860891Y-65797366D01*
X63834531Y-65800200D01*
X63777813Y-65800200D01*
X63591014Y-65839905D01*
X63416546Y-65917583D01*
X63262045Y-66029835D01*
X63258140Y-66034173D01*
X63198654Y-66070821D01*
X63165991Y-66075200D01*
X56934132Y-66075200D01*
X56918380Y-66073460D01*
X56918355Y-66073732D01*
X56910593Y-66072998D01*
X56910592Y-66072998D01*
X56887238Y-66073732D01*
X56842470Y-66075139D01*
X56838575Y-66075200D01*
X56810644Y-66075200D01*
X56810641Y-66075200D01*
X56810625Y-66075201D01*
X56806532Y-66075718D01*
X56794904Y-66076633D01*
X56750610Y-66078025D01*
X56750609Y-66078026D01*
X56730996Y-66083723D01*
X56711959Y-66087665D01*
X56691708Y-66090224D01*
X56691702Y-66090226D01*
X56650514Y-66106532D01*
X56639471Y-66110313D01*
X56596905Y-66122681D01*
X56596901Y-66122683D01*
X56579327Y-66133076D01*
X56561862Y-66141632D01*
X56542887Y-66149145D01*
X56542885Y-66149146D01*
X56507039Y-66175189D01*
X56497280Y-66181599D01*
X56459135Y-66204159D01*
X56444700Y-66218594D01*
X56429912Y-66231225D01*
X56413394Y-66243226D01*
X56413388Y-66243233D01*
X56385142Y-66277374D01*
X56377283Y-66286011D01*
X49581379Y-73081914D01*
X49569020Y-73091818D01*
X49569193Y-73092027D01*
X49563182Y-73097000D01*
X49516538Y-73146669D01*
X49513833Y-73149460D01*
X49494073Y-73169221D01*
X49494058Y-73169238D01*
X49491517Y-73172513D01*
X49483953Y-73181367D01*
X49453620Y-73213671D01*
X49453612Y-73213681D01*
X49443779Y-73231567D01*
X49433103Y-73247820D01*
X49420586Y-73263957D01*
X49420585Y-73263960D01*
X49402985Y-73304629D01*
X49397848Y-73315115D01*
X49376503Y-73353941D01*
X49376503Y-73353942D01*
X49371425Y-73373720D01*
X49365125Y-73392122D01*
X49357018Y-73410857D01*
X49350088Y-73454609D01*
X49347720Y-73466045D01*
X49336700Y-73508965D01*
X49336700Y-73529384D01*
X49335173Y-73548783D01*
X49331980Y-73568941D01*
X49331980Y-73568942D01*
X43463500Y-73568942D01*
X43463500Y-53410125D01*
X43464561Y-53393940D01*
X43475833Y-53308317D01*
X43484211Y-53277050D01*
X43490023Y-53263018D01*
X43514126Y-53204827D01*
X43530304Y-53176805D01*
X43577899Y-53114778D01*
X43600778Y-53091899D01*
X43662805Y-53044304D01*
X43690827Y-53028126D01*
X43763050Y-52998211D01*
X43794318Y-52989833D01*
X43879942Y-52978561D01*
X43896126Y-52977500D01*
X43912531Y-52977500D01*
X90263469Y-52977500D01*
X90279874Y-52977500D01*
X90296059Y-52978561D01*
G37*
%TD.AperFunction*%
%TD*%
M02*
