%TF.GenerationSoftware,KiCad,Pcbnew,7.0.10*%
%TF.CreationDate,2024-03-23T21:53:34+01:00*%
%TF.ProjectId,gb-cart-sst39sf010,67622d63-6172-4742-9d73-737433397366,rev?*%
%TF.SameCoordinates,Original*%
%TF.FileFunction,Copper,L1,Top*%
%TF.FilePolarity,Positive*%
%FSLAX46Y46*%
G04 Gerber Fmt 4.6, Leading zero omitted, Abs format (unit mm)*
G04 Created by KiCad (PCBNEW 7.0.10) date 2024-03-23 21:53:34*
%MOMM*%
%LPD*%
G01*
G04 APERTURE LIST*
G04 Aperture macros list*
%AMRoundRect*
0 Rectangle with rounded corners*
0 $1 Rounding radius*
0 $2 $3 $4 $5 $6 $7 $8 $9 X,Y pos of 4 corners*
0 Add a 4 corners polygon primitive as box body*
4,1,4,$2,$3,$4,$5,$6,$7,$8,$9,$2,$3,0*
0 Add four circle primitives for the rounded corners*
1,1,$1+$1,$2,$3*
1,1,$1+$1,$4,$5*
1,1,$1+$1,$6,$7*
1,1,$1+$1,$8,$9*
0 Add four rect primitives between the rounded corners*
20,1,$1+$1,$2,$3,$4,$5,0*
20,1,$1+$1,$4,$5,$6,$7,0*
20,1,$1+$1,$6,$7,$8,$9,0*
20,1,$1+$1,$8,$9,$2,$3,0*%
G04 Aperture macros list end*
%TA.AperFunction,SMDPad,CuDef*%
%ADD10RoundRect,0.075000X-0.700000X-0.075000X0.700000X-0.075000X0.700000X0.075000X-0.700000X0.075000X0*%
%TD*%
%TA.AperFunction,SMDPad,CuDef*%
%ADD11RoundRect,0.250000X-0.337500X-0.475000X0.337500X-0.475000X0.337500X0.475000X-0.337500X0.475000X0*%
%TD*%
%TA.AperFunction,SMDPad,CuDef*%
%ADD12RoundRect,0.250000X0.337500X0.475000X-0.337500X0.475000X-0.337500X-0.475000X0.337500X-0.475000X0*%
%TD*%
%TA.AperFunction,ConnectorPad*%
%ADD13R,1.300000X6.000000*%
%TD*%
%TA.AperFunction,ConnectorPad*%
%ADD14R,1.000000X5.500000*%
%TD*%
%TA.AperFunction,SMDPad,CuDef*%
%ADD15RoundRect,0.250000X-0.350000X-0.450000X0.350000X-0.450000X0.350000X0.450000X-0.350000X0.450000X0*%
%TD*%
%TA.AperFunction,SMDPad,CuDef*%
%ADD16RoundRect,0.150000X-0.150000X-0.587500X0.150000X-0.587500X0.150000X0.587500X-0.150000X0.587500X0*%
%TD*%
%TA.AperFunction,SMDPad,CuDef*%
%ADD17RoundRect,0.150000X-0.587500X-0.150000X0.587500X-0.150000X0.587500X0.150000X-0.587500X0.150000X0*%
%TD*%
%TA.AperFunction,SMDPad,CuDef*%
%ADD18C,1.500000*%
%TD*%
%TA.AperFunction,ViaPad*%
%ADD19C,0.800000*%
%TD*%
%TA.AperFunction,Conductor*%
%ADD20C,0.250000*%
%TD*%
G04 APERTURE END LIST*
D10*
%TO.P,U3,1,A11*%
%TO.N,A11*%
X76379000Y-67624000D03*
%TO.P,U3,2,A9*%
%TO.N,A9*%
X76379000Y-68124000D03*
%TO.P,U3,3,A8*%
%TO.N,A8*%
X76379000Y-68624000D03*
%TO.P,U3,4,A13*%
%TO.N,A13*%
X76379000Y-69124000D03*
%TO.P,U3,5,A14*%
%TO.N,A14*%
X76379000Y-69624000D03*
%TO.P,U3,6,NC*%
%TO.N,GND*%
X76379000Y-70124000D03*
%TO.P,U3,7,PGM*%
%TO.N,WR*%
X76379000Y-70624000D03*
%TO.P,U3,8,VCC*%
%TO.N,VCC*%
X76379000Y-71124000D03*
%TO.P,U3,9,NC*%
%TO.N,GND*%
X76379000Y-71624000D03*
%TO.P,U3,10,A16*%
X76379000Y-72124000D03*
%TO.P,U3,11,A15*%
X76379000Y-72624000D03*
%TO.P,U3,12,A12*%
%TO.N,A12*%
X76379000Y-73124000D03*
%TO.P,U3,13,A7*%
%TO.N,A7*%
X76379000Y-73624000D03*
%TO.P,U3,14,A6*%
%TO.N,A6*%
X76379000Y-74124000D03*
%TO.P,U3,15,A5*%
%TO.N,A5*%
X76379000Y-74624000D03*
%TO.P,U3,16,A4*%
%TO.N,A4*%
X76379000Y-75124000D03*
%TO.P,U3,17,A3*%
%TO.N,A3*%
X89229000Y-75124000D03*
%TO.P,U3,18,A2*%
%TO.N,A2*%
X89229000Y-74624000D03*
%TO.P,U3,19,A1*%
%TO.N,A1*%
X89229000Y-74124000D03*
%TO.P,U3,20,A0*%
%TO.N,A0*%
X89229000Y-73624000D03*
%TO.P,U3,21,D0*%
%TO.N,D0*%
X89229000Y-73124000D03*
%TO.P,U3,22,D1*%
%TO.N,D1*%
X89229000Y-72624000D03*
%TO.P,U3,23,D2*%
%TO.N,D2*%
X89229000Y-72124000D03*
%TO.P,U3,24,GND*%
%TO.N,GND*%
X89229000Y-71624000D03*
%TO.P,U3,25,D3*%
%TO.N,D3*%
X89229000Y-71124000D03*
%TO.P,U3,26,D4*%
%TO.N,D4*%
X89229000Y-70624000D03*
%TO.P,U3,27,D5*%
%TO.N,D5*%
X89229000Y-70124000D03*
%TO.P,U3,28,D6*%
%TO.N,D6*%
X89229000Y-69624000D03*
%TO.P,U3,29,D7*%
%TO.N,D7*%
X89229000Y-69124000D03*
%TO.P,U3,30,CE*%
%TO.N,A15*%
X89229000Y-68624000D03*
%TO.P,U3,31,A10*%
%TO.N,A10*%
X89229000Y-68124000D03*
%TO.P,U3,32,OE*%
%TO.N,RD*%
X89229000Y-67624000D03*
%TD*%
D11*
%TO.P,C2,1*%
%TO.N,VCC*%
X81745000Y-64643000D03*
%TO.P,C2,2*%
%TO.N,GND*%
X83820000Y-64643000D03*
%TD*%
D12*
%TO.P,C1,1*%
%TO.N,VCC*%
X57806500Y-57785000D03*
%TO.P,C1,2*%
%TO.N,GND*%
X55731500Y-57785000D03*
%TD*%
D13*
%TO.P,U2,1,VCC*%
%TO.N,VCC*%
X45688000Y-109902000D03*
D14*
%TO.P,U2,2,CLK*%
%TO.N,unconnected-(U2-CLK-Pad2)*%
X47338000Y-109652000D03*
%TO.P,U2,3,WR*%
%TO.N,unconnected-(U2-WR-Pad3)*%
X48838000Y-109652000D03*
%TO.P,U2,4,RD*%
%TO.N,RD*%
X50338000Y-109652000D03*
%TO.P,U2,5,CS*%
%TO.N,unconnected-(U2-CS-Pad5)*%
X51838000Y-109652000D03*
%TO.P,U2,6,A0*%
%TO.N,A0*%
X53338000Y-109652000D03*
%TO.P,U2,7,A1*%
%TO.N,A1*%
X54838000Y-109652000D03*
%TO.P,U2,8,A2*%
%TO.N,A2*%
X56338000Y-109652000D03*
%TO.P,U2,9,A3*%
%TO.N,A3*%
X57838000Y-109652000D03*
%TO.P,U2,10,A4*%
%TO.N,A4*%
X59338000Y-109652000D03*
%TO.P,U2,11,A5*%
%TO.N,A5*%
X60838000Y-109652000D03*
%TO.P,U2,12,A6*%
%TO.N,A6*%
X62338000Y-109652000D03*
%TO.P,U2,13,A7*%
%TO.N,A7*%
X63838000Y-109652000D03*
%TO.P,U2,14,A8*%
%TO.N,A8*%
X65338000Y-109652000D03*
%TO.P,U2,15,A9*%
%TO.N,A9*%
X66838000Y-109652000D03*
%TO.P,U2,16,A10*%
%TO.N,A10*%
X68338000Y-109652000D03*
%TO.P,U2,17,A11*%
%TO.N,A11*%
X69838000Y-109652000D03*
%TO.P,U2,18,A12*%
%TO.N,A12*%
X71338000Y-109652000D03*
%TO.P,U2,19,A13*%
%TO.N,A13*%
X72838000Y-109652000D03*
%TO.P,U2,20,A14*%
%TO.N,A14*%
X74338000Y-109652000D03*
%TO.P,U2,21,A15*%
%TO.N,A15*%
X75838000Y-109652000D03*
%TO.P,U2,22,D0*%
%TO.N,D0*%
X77338000Y-109652000D03*
%TO.P,U2,23,D1*%
%TO.N,D1*%
X78838000Y-109652000D03*
%TO.P,U2,24,D2*%
%TO.N,D2*%
X80338000Y-109652000D03*
%TO.P,U2,25,D3*%
%TO.N,D3*%
X81838000Y-109652000D03*
%TO.P,U2,26,D4*%
%TO.N,D4*%
X83338000Y-109652000D03*
%TO.P,U2,27,D5*%
%TO.N,D5*%
X84838000Y-109652000D03*
%TO.P,U2,28,D6*%
%TO.N,D6*%
X86338000Y-109652000D03*
%TO.P,U2,29,D7*%
%TO.N,D7*%
X87838000Y-109652000D03*
%TO.P,U2,30,RESET*%
%TO.N,unconnected-(U2-RESET-Pad30)*%
X89338000Y-109652000D03*
%TO.P,U2,31,AUDIO*%
%TO.N,WR*%
X90838000Y-109652000D03*
D13*
%TO.P,U2,32,GND*%
%TO.N,GND*%
X92488000Y-109902000D03*
%TD*%
D15*
%TO.P,R1,1*%
%TO.N,WR*%
X63920500Y-57785000D03*
%TO.P,R1,2*%
%TO.N,VCC*%
X65920500Y-57785000D03*
%TD*%
D16*
%TO.P,U1,1,NC*%
%TO.N,GND*%
X56896000Y-61742500D03*
%TO.P,U1,2,A16*%
X55626000Y-61742500D03*
%TO.P,U1,3,A15*%
X54356000Y-61742500D03*
%TO.P,U1,4,A12*%
%TO.N,A12*%
X53086000Y-61742500D03*
D17*
%TO.P,U1,5,A7*%
%TO.N,A7*%
X51333500Y-63500000D03*
%TO.P,U1,6,A6*%
%TO.N,A6*%
X51333500Y-64770000D03*
%TO.P,U1,7,A5*%
%TO.N,A5*%
X51333500Y-66040000D03*
%TO.P,U1,8,A4*%
%TO.N,A4*%
X51333500Y-67310000D03*
%TO.P,U1,9,A3*%
%TO.N,A3*%
X51333500Y-68580000D03*
%TO.P,U1,10,A2*%
%TO.N,A2*%
X51333500Y-69850000D03*
%TO.P,U1,11,A1*%
%TO.N,A1*%
X51333500Y-71120000D03*
%TO.P,U1,12,A0*%
%TO.N,A0*%
X51333500Y-72390000D03*
%TO.P,U1,13,D0*%
%TO.N,D0*%
X51333500Y-73660000D03*
D16*
%TO.P,U1,14,D1*%
%TO.N,D1*%
X53086000Y-75417500D03*
%TO.P,U1,15,D2*%
%TO.N,D2*%
X54356000Y-75417500D03*
%TO.P,U1,16,GND*%
%TO.N,GND*%
X55626000Y-75417500D03*
%TO.P,U1,17,D3*%
%TO.N,D3*%
X56896000Y-75417500D03*
%TO.P,U1,18,D4*%
%TO.N,D4*%
X58166000Y-75417500D03*
%TO.P,U1,19,D5*%
%TO.N,D5*%
X59436000Y-75417500D03*
%TO.P,U1,20,D6*%
%TO.N,D6*%
X60706000Y-75417500D03*
D17*
%TO.P,U1,21,D7*%
%TO.N,D7*%
X62458500Y-73660000D03*
%TO.P,U1,22,CE*%
%TO.N,A15*%
X62458500Y-72390000D03*
%TO.P,U1,23,A10*%
%TO.N,A10*%
X62458500Y-71120000D03*
%TO.P,U1,24,OE*%
%TO.N,RD*%
X62458500Y-69850000D03*
%TO.P,U1,25,A11*%
%TO.N,A11*%
X62458500Y-68580000D03*
%TO.P,U1,26,A9*%
%TO.N,A9*%
X62458500Y-67310000D03*
%TO.P,U1,27,A8*%
%TO.N,A8*%
X62458500Y-66040000D03*
%TO.P,U1,28,A13*%
%TO.N,A13*%
X62458500Y-64770000D03*
%TO.P,U1,29,A14*%
%TO.N,A14*%
X62458500Y-63500000D03*
D16*
%TO.P,U1,30,NC*%
%TO.N,GND*%
X60706000Y-61742500D03*
%TO.P,U1,31,PGM*%
%TO.N,WR*%
X59436000Y-61742500D03*
%TO.P,U1,32,VCC*%
%TO.N,VCC*%
X58166000Y-61742500D03*
%TD*%
D18*
%TO.P,TP2,1,1*%
%TO.N,WR*%
X83947000Y-57785000D03*
%TD*%
%TO.P,TP1,1,1*%
%TO.N,VCC*%
X79248000Y-57785000D03*
%TD*%
D19*
%TO.N,A15*%
X61109200Y-72239200D03*
X74016000Y-71601100D03*
X87828900Y-68835500D03*
%TO.N,A12*%
X77755500Y-74164100D03*
X71632800Y-74629700D03*
%TO.N,A7*%
X63663500Y-74576300D03*
X74838400Y-73426200D03*
%TO.N,A6*%
X62378300Y-75602800D03*
X74444600Y-75020600D03*
%TO.N,A5*%
X60751200Y-78212300D03*
X75187500Y-78478700D03*
%TO.N,A4*%
X58410600Y-73655200D03*
X76095900Y-75877900D03*
%TO.N,A3*%
X57838000Y-86286300D03*
X51156000Y-79604300D03*
X77974500Y-86074200D03*
%TO.N,A2*%
X57433200Y-80592700D03*
X53641800Y-71636400D03*
X85819400Y-75360800D03*
%TO.N,A1*%
X57250200Y-73286100D03*
X85998800Y-74336900D03*
%TO.N,A0*%
X56260900Y-74203500D03*
X84288500Y-75094600D03*
%TO.N,D0*%
X51738400Y-76230500D03*
X76953800Y-82357800D03*
%TO.N,D1*%
X79407500Y-85827500D03*
X52995700Y-79249600D03*
%TO.N,D2*%
X54304700Y-79532800D03*
X80411800Y-85266000D03*
%TO.N,D3*%
X57088100Y-78558100D03*
X82410400Y-84126400D03*
%TO.N,D4*%
X84411100Y-82808600D03*
X58274500Y-77649300D03*
X87844800Y-70872100D03*
%TO.N,D5*%
X90653800Y-70605000D03*
X85160800Y-87142100D03*
X59698900Y-79857700D03*
%TO.N,D6*%
X61902900Y-77954300D03*
X86088500Y-81433500D03*
%TO.N,D7*%
X63006700Y-80406800D03*
X87348100Y-83897500D03*
X90701100Y-69071300D03*
%TO.N,A10*%
X64388600Y-70817400D03*
X85787300Y-68077700D03*
%TO.N,RD*%
X63679100Y-69189600D03*
X87803100Y-67814100D03*
X50713200Y-81492300D03*
%TO.N,A11*%
X65613000Y-66887700D03*
X75603600Y-66848600D03*
%TO.N,A8*%
X63873300Y-66708700D03*
X70184600Y-66155200D03*
X64170600Y-101853600D03*
%TO.N,WR*%
X87438600Y-80474400D03*
X74994000Y-70731200D03*
X79032100Y-69382100D03*
%TO.N,VCC*%
X67437000Y-57785000D03*
X80391000Y-64643000D03*
X77089000Y-57785000D03*
X45720000Y-99060000D03*
X93472000Y-99187000D03*
X59182000Y-57785000D03*
%TO.N,GND*%
X83820000Y-69977000D03*
X81020000Y-70104000D03*
%TD*%
D20*
%TO.N,A15*%
X61260000Y-72390000D02*
X61109200Y-72239200D01*
X62458500Y-72390000D02*
X61260000Y-72390000D01*
X75838000Y-84270400D02*
X75838000Y-109652000D01*
X73717800Y-82150200D02*
X75838000Y-84270400D01*
X73717800Y-71899300D02*
X73717800Y-82150200D01*
X74016000Y-71601100D02*
X73717800Y-71899300D01*
X88040400Y-68624000D02*
X89229000Y-68624000D01*
X87828900Y-68835500D02*
X88040400Y-68624000D01*
%TO.N,A14*%
X74338000Y-109652000D02*
X74338000Y-106576700D01*
X73630900Y-63500000D02*
X62458500Y-63500000D01*
X77502700Y-67371800D02*
X73630900Y-63500000D01*
X77502700Y-69371900D02*
X77502700Y-67371800D01*
X77250600Y-69624000D02*
X77502700Y-69371900D01*
X76379000Y-69624000D02*
X77250600Y-69624000D01*
X74337900Y-106576700D02*
X74338000Y-106576700D01*
X74337900Y-83800100D02*
X74337900Y-106576700D01*
X73267200Y-82729400D02*
X74337900Y-83800100D01*
X73267200Y-71319100D02*
X73267200Y-82729400D01*
X74962300Y-69624000D02*
X73267200Y-71319100D01*
X76379000Y-69624000D02*
X74962300Y-69624000D01*
%TO.N,A12*%
X77755500Y-73646000D02*
X77755500Y-74164100D01*
X77233500Y-73124000D02*
X77755500Y-73646000D01*
X76379000Y-73124000D02*
X77233500Y-73124000D01*
X71632800Y-93146900D02*
X71632800Y-74629700D01*
X73287600Y-94801700D02*
X71632800Y-93146900D01*
X73287600Y-100510200D02*
X73287600Y-94801700D01*
X71338000Y-102459800D02*
X73287600Y-100510200D01*
X71338000Y-109652000D02*
X71338000Y-102459800D01*
X71632800Y-71796300D02*
X71632800Y-74629700D01*
X65241400Y-65404900D02*
X71632800Y-71796300D01*
X55970800Y-65404900D02*
X65241400Y-65404900D01*
X53086000Y-62520100D02*
X55970800Y-65404900D01*
X53086000Y-61742500D02*
X53086000Y-62520100D01*
%TO.N,A7*%
X63838000Y-109652000D02*
X63838000Y-106576700D01*
X75036200Y-73624000D02*
X74838400Y-73426200D01*
X76379000Y-73624000D02*
X75036200Y-73624000D01*
X63748300Y-74661100D02*
X63663500Y-74576300D01*
X63748300Y-91290700D02*
X63748300Y-74661100D01*
X63429100Y-91609900D02*
X63748300Y-91290700D01*
X63429100Y-106167800D02*
X63429100Y-91609900D01*
X63838000Y-106576700D02*
X63429100Y-106167800D01*
X63663500Y-73392000D02*
X63663500Y-74576300D01*
X63296600Y-73025100D02*
X63663500Y-73392000D01*
X60828100Y-73025100D02*
X63296600Y-73025100D01*
X58278100Y-70475100D02*
X60828100Y-73025100D01*
X58278100Y-70189700D02*
X58278100Y-70475100D01*
X51588400Y-63500000D02*
X58278100Y-70189700D01*
X51333500Y-63500000D02*
X51588400Y-63500000D01*
%TO.N,A6*%
X62338000Y-109652000D02*
X62338000Y-106576700D01*
X75341200Y-74124000D02*
X76379000Y-74124000D01*
X74444600Y-75020600D02*
X75341200Y-74124000D01*
X51545500Y-64770000D02*
X62378300Y-75602800D01*
X51333500Y-64770000D02*
X51545500Y-64770000D01*
X62628200Y-75852700D02*
X62378300Y-75602800D01*
X62628200Y-78254800D02*
X62628200Y-75852700D01*
X62277800Y-78605200D02*
X62628200Y-78254800D01*
X62277800Y-106516500D02*
X62277800Y-78605200D01*
X62338000Y-106576700D02*
X62277800Y-106516500D01*
%TO.N,A5*%
X60838000Y-109652000D02*
X60838000Y-106576700D01*
X60838000Y-78299100D02*
X60751200Y-78212300D01*
X60838000Y-106576700D02*
X60838000Y-78299100D01*
X75187500Y-74931300D02*
X75187500Y-78478700D01*
X75494800Y-74624000D02*
X75187500Y-74931300D01*
X76379000Y-74624000D02*
X75494800Y-74624000D01*
X51821200Y-66040000D02*
X51333500Y-66040000D01*
X60070800Y-74289600D02*
X51821200Y-66040000D01*
X60070800Y-77531900D02*
X60070800Y-74289600D01*
X60751200Y-78212300D02*
X60070800Y-77531900D01*
%TO.N,A4*%
X59338000Y-109652000D02*
X59338000Y-106576700D01*
X76379000Y-75594800D02*
X76095900Y-75877900D01*
X76379000Y-75124000D02*
X76379000Y-75594800D01*
X58410600Y-73368100D02*
X58410600Y-73655200D01*
X52352500Y-67310000D02*
X58410600Y-73368100D01*
X51333500Y-67310000D02*
X52352500Y-67310000D01*
X58973600Y-106212300D02*
X59338000Y-106576700D01*
X58973600Y-79557300D02*
X58973600Y-106212300D01*
X59023600Y-79507300D02*
X58973600Y-79557300D01*
X59023600Y-76624900D02*
X59023600Y-79507300D01*
X58806100Y-76407400D02*
X59023600Y-76624900D01*
X58806100Y-74050700D02*
X58806100Y-76407400D01*
X58410600Y-73655200D02*
X58806100Y-74050700D01*
%TO.N,A3*%
X57838000Y-109652000D02*
X57838000Y-86286300D01*
X88885800Y-75124000D02*
X89229000Y-75124000D01*
X77974500Y-86035300D02*
X88885800Y-75124000D01*
X77974500Y-86074200D02*
X77974500Y-86035300D01*
X50258300Y-78706600D02*
X51156000Y-79604300D01*
X50258300Y-69389200D02*
X50258300Y-78706600D01*
X51067500Y-68580000D02*
X50258300Y-69389200D01*
X51333500Y-68580000D02*
X51067500Y-68580000D01*
%TO.N,A2*%
X56338000Y-81687900D02*
X56338000Y-109652000D01*
X57433200Y-80592700D02*
X56338000Y-81687900D01*
X87460700Y-74624000D02*
X89229000Y-74624000D01*
X86723900Y-75360800D02*
X87460700Y-74624000D01*
X85819400Y-75360800D02*
X86723900Y-75360800D01*
X51855400Y-69850000D02*
X53641800Y-71636400D01*
X51333500Y-69850000D02*
X51855400Y-69850000D01*
%TO.N,A1*%
X86211700Y-74124000D02*
X89229000Y-74124000D01*
X85998800Y-74336900D02*
X86211700Y-74124000D01*
X56354600Y-72390500D02*
X57250200Y-73286100D01*
X53370200Y-72390500D02*
X56354600Y-72390500D01*
X52099700Y-71120000D02*
X53370200Y-72390500D01*
X51333500Y-71120000D02*
X52099700Y-71120000D01*
X54838000Y-81836000D02*
X54838000Y-109652000D01*
X57857000Y-78817000D02*
X54838000Y-81836000D01*
X57857000Y-78271200D02*
X57857000Y-78817000D01*
X57530900Y-77945100D02*
X57857000Y-78271200D01*
X57530900Y-73566800D02*
X57530900Y-77945100D01*
X57250200Y-73286100D02*
X57530900Y-73566800D01*
%TO.N,A0*%
X56260900Y-79548200D02*
X56260900Y-74203500D01*
X53338000Y-82471100D02*
X56260900Y-79548200D01*
X53338000Y-109652000D02*
X53338000Y-82471100D01*
X54898200Y-72840800D02*
X56260900Y-74203500D01*
X51784300Y-72840800D02*
X54898200Y-72840800D01*
X51333500Y-72390000D02*
X51784300Y-72840800D01*
X84288500Y-74954700D02*
X84288500Y-75094600D01*
X85631600Y-73611600D02*
X84288500Y-74954700D01*
X89216600Y-73611600D02*
X85631600Y-73611600D01*
X89229000Y-73624000D02*
X89216600Y-73611600D01*
%TO.N,D0*%
X77338000Y-109652000D02*
X77338000Y-106576700D01*
X51738400Y-74064900D02*
X51738400Y-76230500D01*
X51333500Y-73660000D02*
X51738400Y-74064900D01*
X76953800Y-106192500D02*
X77338000Y-106576700D01*
X76953800Y-82357800D02*
X76953800Y-106192500D01*
X76953800Y-81403600D02*
X76953800Y-82357800D01*
X85233400Y-73124000D02*
X76953800Y-81403600D01*
X89229000Y-73124000D02*
X85233400Y-73124000D01*
%TO.N,D1*%
X78838000Y-109652000D02*
X78838000Y-106576700D01*
X79407500Y-106007200D02*
X78838000Y-106576700D01*
X79407500Y-85827500D02*
X79407500Y-106007200D01*
X52995700Y-75507800D02*
X52995700Y-79249600D01*
X53086000Y-75417500D02*
X52995700Y-75507800D01*
X79407500Y-85244600D02*
X79407500Y-85827500D01*
X86541700Y-78110400D02*
X79407500Y-85244600D01*
X87655100Y-78110400D02*
X86541700Y-78110400D01*
X90340200Y-75425300D02*
X87655100Y-78110400D01*
X90340200Y-72876400D02*
X90340200Y-75425300D01*
X90087800Y-72624000D02*
X90340200Y-72876400D01*
X89229000Y-72624000D02*
X90087800Y-72624000D01*
%TO.N,D2*%
X54356000Y-79481500D02*
X54304700Y-79532800D01*
X54356000Y-75417500D02*
X54356000Y-79481500D01*
X80338000Y-85339800D02*
X80411800Y-85266000D01*
X80338000Y-109652000D02*
X80338000Y-85339800D01*
X80411800Y-84997100D02*
X80411800Y-85266000D01*
X86642400Y-78766500D02*
X80411800Y-84997100D01*
X87655200Y-78766500D02*
X86642400Y-78766500D01*
X90811000Y-75610700D02*
X87655200Y-78766500D01*
X90811000Y-72670400D02*
X90811000Y-75610700D01*
X90264600Y-72124000D02*
X90811000Y-72670400D01*
X89229000Y-72124000D02*
X90264600Y-72124000D01*
%TO.N,D3*%
X56896000Y-78366000D02*
X57088100Y-78558100D01*
X56896000Y-75417500D02*
X56896000Y-78366000D01*
X81838000Y-109652000D02*
X81838000Y-106576700D01*
X81838000Y-84698800D02*
X81838000Y-106576700D01*
X82410400Y-84126400D02*
X81838000Y-84698800D01*
X82410400Y-83758100D02*
X82410400Y-84126400D01*
X86932300Y-79236200D02*
X82410400Y-83758100D01*
X87822500Y-79236200D02*
X86932300Y-79236200D01*
X91319100Y-75739600D02*
X87822500Y-79236200D01*
X91319100Y-72302600D02*
X91319100Y-75739600D01*
X90140500Y-71124000D02*
X91319100Y-72302600D01*
X89229000Y-71124000D02*
X90140500Y-71124000D01*
%TO.N,D4*%
X83338000Y-109652000D02*
X83338000Y-106576700D01*
X58166000Y-77540800D02*
X58274500Y-77649300D01*
X58166000Y-75417500D02*
X58166000Y-77540800D01*
X88092900Y-70624000D02*
X87844800Y-70872100D01*
X89229000Y-70624000D02*
X88092900Y-70624000D01*
X84411100Y-105503600D02*
X84411100Y-82808600D01*
X83338000Y-106576700D02*
X84411100Y-105503600D01*
%TO.N,D5*%
X84838000Y-109652000D02*
X84838000Y-106576700D01*
X85160800Y-106253900D02*
X85160800Y-87142100D01*
X84838000Y-106576700D02*
X85160800Y-106253900D01*
X90569700Y-70605000D02*
X90653800Y-70605000D01*
X90088700Y-70124000D02*
X90569700Y-70605000D01*
X89229000Y-70124000D02*
X90088700Y-70124000D01*
X59474000Y-79632800D02*
X59698900Y-79857700D01*
X59474000Y-75455500D02*
X59474000Y-79632800D01*
X59436000Y-75417500D02*
X59474000Y-75455500D01*
%TO.N,D6*%
X86338000Y-109652000D02*
X86338000Y-106576700D01*
X86088500Y-80798800D02*
X86088500Y-81433500D01*
X87200800Y-79686500D02*
X86088500Y-80798800D01*
X88061900Y-79686500D02*
X87200800Y-79686500D01*
X91821900Y-75926500D02*
X88061900Y-79686500D01*
X91821900Y-70747300D02*
X91821900Y-75926500D01*
X90923900Y-69849300D02*
X91821900Y-70747300D01*
X90450900Y-69849300D02*
X90923900Y-69849300D01*
X90225600Y-69624000D02*
X90450900Y-69849300D01*
X89229000Y-69624000D02*
X90225600Y-69624000D01*
X86088500Y-106327200D02*
X86338000Y-106576700D01*
X86088500Y-81433500D02*
X86088500Y-106327200D01*
X61902900Y-76614400D02*
X61902900Y-77954300D01*
X60706000Y-75417500D02*
X61902900Y-76614400D01*
%TO.N,D7*%
X87838000Y-84387400D02*
X87348100Y-83897500D01*
X87838000Y-109652000D02*
X87838000Y-84387400D01*
X90648400Y-69124000D02*
X89229000Y-69124000D01*
X90701100Y-69071300D02*
X90648400Y-69124000D01*
X63123300Y-80290200D02*
X63006700Y-80406800D01*
X63123300Y-75161900D02*
X63123300Y-80290200D01*
X62458500Y-74497100D02*
X63123300Y-75161900D01*
X62458500Y-73660000D02*
X62458500Y-74497100D01*
%TO.N,A10*%
X62503700Y-71074800D02*
X62458500Y-71120000D01*
X64388600Y-71074800D02*
X62503700Y-71074800D01*
X64839100Y-71525300D02*
X64388600Y-71074800D01*
X64839100Y-91473700D02*
X64839100Y-71525300D01*
X64435500Y-91877300D02*
X64839100Y-91473700D01*
X64435500Y-100442700D02*
X64435500Y-91877300D01*
X68338000Y-104345200D02*
X64435500Y-100442700D01*
X68338000Y-109652000D02*
X68338000Y-104345200D01*
X86803300Y-67061700D02*
X85787300Y-68077700D01*
X90035300Y-67061700D02*
X86803300Y-67061700D01*
X90341600Y-67368000D02*
X90035300Y-67061700D01*
X90341600Y-67930800D02*
X90341600Y-67368000D01*
X90148400Y-68124000D02*
X90341600Y-67930800D01*
X89229000Y-68124000D02*
X90148400Y-68124000D01*
X64388600Y-71074800D02*
X64388600Y-70817400D01*
%TO.N,RD*%
X63018700Y-69850000D02*
X63679100Y-69189600D01*
X62458500Y-69850000D02*
X63018700Y-69850000D01*
X87993200Y-67624000D02*
X87803100Y-67814100D01*
X89229000Y-67624000D02*
X87993200Y-67624000D01*
X50338000Y-81867500D02*
X50713200Y-81492300D01*
X50338000Y-109652000D02*
X50338000Y-81867500D01*
%TO.N,A11*%
X75603600Y-66848600D02*
X76379000Y-67624000D01*
X65613000Y-67127100D02*
X65613000Y-66887700D01*
X64317600Y-68422500D02*
X65613000Y-67127100D01*
X62616000Y-68422500D02*
X62458500Y-68580000D01*
X64317600Y-68422500D02*
X62616000Y-68422500D01*
X65289400Y-69394300D02*
X64317600Y-68422500D01*
X65289400Y-94263000D02*
X65289400Y-69394300D01*
X64885900Y-94666500D02*
X65289400Y-94263000D01*
X64885900Y-100256200D02*
X64885900Y-94666500D01*
X69838000Y-105208300D02*
X64885900Y-100256200D01*
X69838000Y-109652000D02*
X69838000Y-105208300D01*
%TO.N,A9*%
X73938600Y-68124000D02*
X76379000Y-68124000D01*
X69942600Y-64128000D02*
X73938600Y-68124000D01*
X55330800Y-64128000D02*
X69942600Y-64128000D01*
X53720800Y-62518000D02*
X55330800Y-64128000D01*
X53720800Y-60910300D02*
X53720800Y-62518000D01*
X53477900Y-60667400D02*
X53720800Y-60910300D01*
X52748400Y-60667400D02*
X53477900Y-60667400D01*
X52449900Y-60965900D02*
X52748400Y-60667400D01*
X52449900Y-62539000D02*
X52449900Y-60965900D01*
X58051000Y-68140100D02*
X52449900Y-62539000D01*
X61347700Y-68140100D02*
X58051000Y-68140100D01*
X61347700Y-71447900D02*
X61347700Y-68140100D01*
X61654800Y-71755000D02*
X61347700Y-71447900D01*
X63296600Y-71755000D02*
X61654800Y-71755000D01*
X64388800Y-72847200D02*
X63296600Y-71755000D01*
X64388800Y-91287100D02*
X64388800Y-72847200D01*
X63985000Y-91690900D02*
X64388800Y-91287100D01*
X63985000Y-100642200D02*
X63985000Y-91690900D01*
X66838000Y-103495200D02*
X63985000Y-100642200D01*
X66838000Y-109652000D02*
X66838000Y-103495200D01*
X62177800Y-67310000D02*
X62458500Y-67310000D01*
X61347700Y-68140100D02*
X62177800Y-67310000D01*
%TO.N,A8*%
X63204600Y-66040000D02*
X63873300Y-66708700D01*
X62458500Y-66040000D02*
X63204600Y-66040000D01*
X72653400Y-68624000D02*
X76379000Y-68624000D01*
X70184600Y-66155200D02*
X72653400Y-68624000D01*
X65338000Y-103021000D02*
X65338000Y-109652000D01*
X64170600Y-101853600D02*
X65338000Y-103021000D01*
%TO.N,A13*%
X72838000Y-109652000D02*
X72838000Y-106576700D01*
X67080100Y-64770000D02*
X62458500Y-64770000D01*
X72816900Y-70506800D02*
X67080100Y-64770000D01*
X74199700Y-69124000D02*
X72816900Y-70506800D01*
X76379000Y-69124000D02*
X74199700Y-69124000D01*
X73737900Y-105676800D02*
X72838000Y-106576700D01*
X73737900Y-83837100D02*
X73737900Y-105676800D01*
X72816900Y-82916100D02*
X73737900Y-83837100D01*
X72816900Y-70506800D02*
X72816900Y-82916100D01*
%TO.N,WR*%
X90838000Y-109652000D02*
X90838000Y-106576700D01*
X75101200Y-70624000D02*
X74994000Y-70731200D01*
X76379000Y-70624000D02*
X75101200Y-70624000D01*
X90838000Y-83873800D02*
X87438600Y-80474400D01*
X90838000Y-106576700D02*
X90838000Y-83873800D01*
X82844300Y-58887700D02*
X79032100Y-58887700D01*
X83947000Y-57785000D02*
X82844300Y-58887700D01*
X79032100Y-58887700D02*
X79032100Y-69382100D01*
X61061700Y-62849200D02*
X65023200Y-58887700D01*
X60276800Y-62849200D02*
X61061700Y-62849200D01*
X59436000Y-62008400D02*
X60276800Y-62849200D01*
X59436000Y-61742500D02*
X59436000Y-62008400D01*
X79032100Y-58887700D02*
X65023200Y-58887700D01*
X65023200Y-58887700D02*
X63920500Y-57785000D01*
%TO.N,VCC*%
X81403000Y-71124000D02*
X76379000Y-71124000D01*
X81745000Y-70782000D02*
X81403000Y-71124000D01*
X81745000Y-64643000D02*
X81745000Y-70782000D01*
X65920500Y-57785000D02*
X67437000Y-57785000D01*
X81745000Y-64643000D02*
X80391000Y-64643000D01*
X79248000Y-57785000D02*
X77089000Y-57785000D01*
X45688000Y-99092000D02*
X45720000Y-99060000D01*
X45688000Y-109902000D02*
X45688000Y-99092000D01*
X57806500Y-57785000D02*
X59182000Y-57785000D01*
X58166000Y-59944000D02*
X58166000Y-61742500D01*
X57806500Y-59584500D02*
X58166000Y-59944000D01*
X57806500Y-57785000D02*
X57806500Y-59584500D01*
%TO.N,GND*%
X83693000Y-72124000D02*
X76379000Y-72124000D01*
X83820000Y-71997000D02*
X83693000Y-72124000D01*
X83820000Y-71501000D02*
X83820000Y-71997000D01*
X83820000Y-71501000D02*
X83820000Y-69977000D01*
X83943000Y-71624000D02*
X83820000Y-71501000D01*
X89229000Y-71624000D02*
X83943000Y-71624000D01*
X81000000Y-70124000D02*
X81020000Y-70104000D01*
X76379000Y-70124000D02*
X81000000Y-70124000D01*
X55858500Y-56261000D02*
X55731500Y-56134000D01*
X59817000Y-56261000D02*
X55858500Y-56261000D01*
X60706000Y-57150000D02*
X59817000Y-56261000D01*
X60706000Y-61742500D02*
X60706000Y-57150000D01*
X55626000Y-61742500D02*
X56896000Y-61742500D01*
X54356000Y-61742500D02*
X55626000Y-61742500D01*
X55626000Y-60198000D02*
X55626000Y-61742500D01*
X55731500Y-60092500D02*
X55626000Y-60198000D01*
X55731500Y-57785000D02*
X55731500Y-60092500D01*
X83820000Y-64643000D02*
X83820000Y-69977000D01*
X76379000Y-72124000D02*
X76379000Y-71624000D01*
X76379000Y-72624000D02*
X76379000Y-72124000D01*
X55626000Y-79502000D02*
X55626000Y-75417500D01*
X54610000Y-80518000D02*
X55626000Y-79502000D01*
X47879000Y-80518000D02*
X54610000Y-80518000D01*
X46609000Y-79248000D02*
X47879000Y-80518000D01*
X46609000Y-58166000D02*
X46609000Y-79248000D01*
X49911000Y-54864000D02*
X46609000Y-58166000D01*
X56515000Y-54864000D02*
X49911000Y-54864000D01*
X56769000Y-54864000D02*
X56515000Y-54864000D01*
X55731500Y-55647500D02*
X55731500Y-56134000D01*
X56515000Y-54864000D02*
X55731500Y-55647500D01*
X88392000Y-54864000D02*
X56769000Y-54864000D01*
X92488000Y-58960000D02*
X88392000Y-54864000D01*
X92488000Y-65183000D02*
X92488000Y-58960000D01*
X92488000Y-109902000D02*
X92488000Y-65183000D01*
X91948000Y-64643000D02*
X83820000Y-64643000D01*
X92488000Y-65183000D02*
X91948000Y-64643000D01*
X56769000Y-54864000D02*
X56515000Y-54864000D01*
X55731500Y-56134000D02*
X55731500Y-57785000D01*
%TD*%
%TA.AperFunction,Conductor*%
%TO.N,GND*%
G36*
X90296059Y-52978561D02*
G01*
X90381682Y-52989833D01*
X90412949Y-52998211D01*
X90458203Y-53016955D01*
X90485169Y-53028125D01*
X90513197Y-53044307D01*
X90575217Y-53091896D01*
X90598105Y-53114784D01*
X90645690Y-53176798D01*
X90661875Y-53204832D01*
X90691788Y-53277050D01*
X90700166Y-53308316D01*
X90711439Y-53393939D01*
X90712500Y-53410125D01*
X90712500Y-55456647D01*
X90710617Y-55478175D01*
X90708876Y-55488048D01*
X90710616Y-55497915D01*
X90711781Y-55511238D01*
X90713217Y-55519384D01*
X90716676Y-55532292D01*
X90718418Y-55542170D01*
X90721935Y-55548261D01*
X90726452Y-55553645D01*
X90735133Y-55558657D01*
X90752840Y-55571056D01*
X90760519Y-55577500D01*
X90767118Y-55579901D01*
X90774045Y-55581122D01*
X90774048Y-55581124D01*
X90783918Y-55579383D01*
X90805448Y-55577500D01*
X94263469Y-55577500D01*
X94279874Y-55577500D01*
X94296059Y-55578561D01*
X94381682Y-55589833D01*
X94412949Y-55598211D01*
X94458203Y-55616955D01*
X94485169Y-55628125D01*
X94513197Y-55644307D01*
X94575217Y-55691896D01*
X94598105Y-55714784D01*
X94645690Y-55776798D01*
X94661875Y-55804832D01*
X94691788Y-55877050D01*
X94700166Y-55908316D01*
X94711439Y-55993939D01*
X94712500Y-56010125D01*
X94712500Y-104793874D01*
X94711439Y-104810060D01*
X94700166Y-104895683D01*
X94691788Y-104926949D01*
X94661875Y-104999167D01*
X94645690Y-105027201D01*
X94598105Y-105089215D01*
X94575215Y-105112105D01*
X94513201Y-105159690D01*
X94485167Y-105175875D01*
X94412949Y-105205788D01*
X94381683Y-105214166D01*
X94306253Y-105224097D01*
X94296058Y-105225439D01*
X94279874Y-105226500D01*
X93733352Y-105226500D01*
X93711818Y-105224616D01*
X93701952Y-105222876D01*
X93701951Y-105222876D01*
X93698217Y-105223534D01*
X93692081Y-105224616D01*
X93678767Y-105225781D01*
X93670620Y-105227217D01*
X93657711Y-105230675D01*
X93647827Y-105232418D01*
X93641740Y-105235932D01*
X93636354Y-105240452D01*
X93631338Y-105249139D01*
X93618949Y-105266832D01*
X93612500Y-105274517D01*
X93610098Y-105281118D01*
X93608876Y-105288048D01*
X93610616Y-105297915D01*
X93612500Y-105319447D01*
X93612500Y-106384907D01*
X93592815Y-106451946D01*
X93540011Y-106497701D01*
X93470853Y-106507645D01*
X93414189Y-106484174D01*
X93380089Y-106458647D01*
X93380086Y-106458645D01*
X93245379Y-106408403D01*
X93245372Y-106408401D01*
X93185844Y-106402000D01*
X92738000Y-106402000D01*
X92738000Y-113402000D01*
X93185828Y-113402000D01*
X93185841Y-113401999D01*
X93242482Y-113395909D01*
X93311242Y-113408313D01*
X93362380Y-113455923D01*
X93379660Y-113523622D01*
X93357596Y-113589917D01*
X93334404Y-113615051D01*
X93255508Y-113679799D01*
X93235296Y-113693304D01*
X93114295Y-113757980D01*
X93091837Y-113767283D01*
X92960537Y-113807112D01*
X92936697Y-113811854D01*
X92832220Y-113822144D01*
X92794060Y-113825903D01*
X92781907Y-113826500D01*
X45394093Y-113826500D01*
X45381939Y-113825903D01*
X45321875Y-113819987D01*
X45239302Y-113811854D01*
X45215462Y-113807112D01*
X45084162Y-113767283D01*
X45061704Y-113757980D01*
X44940703Y-113693304D01*
X44920491Y-113679799D01*
X44853636Y-113624932D01*
X44814302Y-113567186D01*
X44812431Y-113497341D01*
X44848619Y-113437573D01*
X44911375Y-113406857D01*
X44945553Y-113405790D01*
X44986111Y-113410150D01*
X44989352Y-113410499D01*
X44989362Y-113410500D01*
X46386638Y-113410500D01*
X46386654Y-113410499D01*
X46413692Y-113407591D01*
X46447201Y-113403989D01*
X46452537Y-113401999D01*
X46469703Y-113395596D01*
X46584204Y-113352889D01*
X46701261Y-113265261D01*
X46788889Y-113148204D01*
X46839989Y-113011201D01*
X46839989Y-113011195D01*
X46841220Y-113005992D01*
X46875790Y-112945274D01*
X46937698Y-112912884D01*
X46961898Y-112910500D01*
X47886638Y-112910500D01*
X47886654Y-112910499D01*
X47947201Y-112903989D01*
X48044666Y-112867636D01*
X48114357Y-112862652D01*
X48131334Y-112867636D01*
X48228798Y-112903989D01*
X48289345Y-112910499D01*
X48289362Y-112910500D01*
X49386638Y-112910500D01*
X49386654Y-112910499D01*
X49447201Y-112903989D01*
X49544666Y-112867636D01*
X49614357Y-112862652D01*
X49631334Y-112867636D01*
X49728798Y-112903989D01*
X49789345Y-112910499D01*
X49789362Y-112910500D01*
X50886638Y-112910500D01*
X50886654Y-112910499D01*
X50947201Y-112903989D01*
X51044666Y-112867636D01*
X51114357Y-112862652D01*
X51131334Y-112867636D01*
X51228798Y-112903989D01*
X51289345Y-112910499D01*
X51289362Y-112910500D01*
X52386638Y-112910500D01*
X52386654Y-112910499D01*
X52447201Y-112903989D01*
X52544666Y-112867636D01*
X52614357Y-112862652D01*
X52631334Y-112867636D01*
X52728798Y-112903989D01*
X52789345Y-112910499D01*
X52789362Y-112910500D01*
X53886638Y-112910500D01*
X53886654Y-112910499D01*
X53947201Y-112903989D01*
X54044666Y-112867636D01*
X54114357Y-112862652D01*
X54131334Y-112867636D01*
X54228798Y-112903989D01*
X54289345Y-112910499D01*
X54289362Y-112910500D01*
X55386638Y-112910500D01*
X55386654Y-112910499D01*
X55447201Y-112903989D01*
X55544666Y-112867636D01*
X55614357Y-112862652D01*
X55631334Y-112867636D01*
X55728798Y-112903989D01*
X55789345Y-112910499D01*
X55789362Y-112910500D01*
X56886638Y-112910500D01*
X56886654Y-112910499D01*
X56947201Y-112903989D01*
X57044666Y-112867636D01*
X57114357Y-112862652D01*
X57131334Y-112867636D01*
X57228798Y-112903989D01*
X57289345Y-112910499D01*
X57289362Y-112910500D01*
X58386638Y-112910500D01*
X58386654Y-112910499D01*
X58447201Y-112903989D01*
X58544666Y-112867636D01*
X58614357Y-112862652D01*
X58631334Y-112867636D01*
X58728798Y-112903989D01*
X58789345Y-112910499D01*
X58789362Y-112910500D01*
X59886638Y-112910500D01*
X59886654Y-112910499D01*
X59947201Y-112903989D01*
X60044666Y-112867636D01*
X60114357Y-112862652D01*
X60131334Y-112867636D01*
X60228798Y-112903989D01*
X60289345Y-112910499D01*
X60289362Y-112910500D01*
X61386638Y-112910500D01*
X61386654Y-112910499D01*
X61447201Y-112903989D01*
X61544666Y-112867636D01*
X61614357Y-112862652D01*
X61631334Y-112867636D01*
X61728798Y-112903989D01*
X61789345Y-112910499D01*
X61789362Y-112910500D01*
X62886638Y-112910500D01*
X62886654Y-112910499D01*
X62947201Y-112903989D01*
X63044666Y-112867636D01*
X63114357Y-112862652D01*
X63131334Y-112867636D01*
X63228798Y-112903989D01*
X63289345Y-112910499D01*
X63289362Y-112910500D01*
X64386638Y-112910500D01*
X64386654Y-112910499D01*
X64447201Y-112903989D01*
X64544666Y-112867636D01*
X64614357Y-112862652D01*
X64631334Y-112867636D01*
X64728798Y-112903989D01*
X64789345Y-112910499D01*
X64789362Y-112910500D01*
X65886638Y-112910500D01*
X65886654Y-112910499D01*
X65947201Y-112903989D01*
X66044666Y-112867636D01*
X66114357Y-112862652D01*
X66131334Y-112867636D01*
X66228798Y-112903989D01*
X66289345Y-112910499D01*
X66289362Y-112910500D01*
X67386638Y-112910500D01*
X67386654Y-112910499D01*
X67447201Y-112903989D01*
X67544666Y-112867636D01*
X67614357Y-112862652D01*
X67631334Y-112867636D01*
X67728798Y-112903989D01*
X67789345Y-112910499D01*
X67789362Y-112910500D01*
X68886638Y-112910500D01*
X68886654Y-112910499D01*
X68947201Y-112903989D01*
X69044666Y-112867636D01*
X69114357Y-112862652D01*
X69131334Y-112867636D01*
X69228798Y-112903989D01*
X69289345Y-112910499D01*
X69289362Y-112910500D01*
X70386638Y-112910500D01*
X70386654Y-112910499D01*
X70447201Y-112903989D01*
X70544666Y-112867636D01*
X70614357Y-112862652D01*
X70631334Y-112867636D01*
X70728798Y-112903989D01*
X70789345Y-112910499D01*
X70789362Y-112910500D01*
X71886638Y-112910500D01*
X71886654Y-112910499D01*
X71947201Y-112903989D01*
X72044666Y-112867636D01*
X72114357Y-112862652D01*
X72131334Y-112867636D01*
X72228798Y-112903989D01*
X72289345Y-112910499D01*
X72289362Y-112910500D01*
X73386638Y-112910500D01*
X73386654Y-112910499D01*
X73447201Y-112903989D01*
X73544666Y-112867636D01*
X73614357Y-112862652D01*
X73631334Y-112867636D01*
X73728798Y-112903989D01*
X73789345Y-112910499D01*
X73789362Y-112910500D01*
X74886638Y-112910500D01*
X74886654Y-112910499D01*
X74947201Y-112903989D01*
X75044666Y-112867636D01*
X75114357Y-112862652D01*
X75131334Y-112867636D01*
X75228798Y-112903989D01*
X75289345Y-112910499D01*
X75289362Y-112910500D01*
X76386638Y-112910500D01*
X76386654Y-112910499D01*
X76447201Y-112903989D01*
X76544666Y-112867636D01*
X76614357Y-112862652D01*
X76631334Y-112867636D01*
X76728798Y-112903989D01*
X76789345Y-112910499D01*
X76789362Y-112910500D01*
X77886638Y-112910500D01*
X77886654Y-112910499D01*
X77947201Y-112903989D01*
X78044666Y-112867636D01*
X78114357Y-112862652D01*
X78131334Y-112867636D01*
X78228798Y-112903989D01*
X78289345Y-112910499D01*
X78289362Y-112910500D01*
X79386638Y-112910500D01*
X79386654Y-112910499D01*
X79447201Y-112903989D01*
X79544666Y-112867636D01*
X79614357Y-112862652D01*
X79631334Y-112867636D01*
X79728798Y-112903989D01*
X79789345Y-112910499D01*
X79789362Y-112910500D01*
X80886638Y-112910500D01*
X80886654Y-112910499D01*
X80947201Y-112903989D01*
X81044666Y-112867636D01*
X81114357Y-112862652D01*
X81131334Y-112867636D01*
X81228798Y-112903989D01*
X81289345Y-112910499D01*
X81289362Y-112910500D01*
X82386638Y-112910500D01*
X82386654Y-112910499D01*
X82447201Y-112903989D01*
X82544666Y-112867636D01*
X82614357Y-112862652D01*
X82631334Y-112867636D01*
X82728798Y-112903989D01*
X82789345Y-112910499D01*
X82789362Y-112910500D01*
X83886638Y-112910500D01*
X83886654Y-112910499D01*
X83947201Y-112903989D01*
X84044666Y-112867636D01*
X84114357Y-112862652D01*
X84131334Y-112867636D01*
X84228798Y-112903989D01*
X84289345Y-112910499D01*
X84289362Y-112910500D01*
X85386638Y-112910500D01*
X85386654Y-112910499D01*
X85447201Y-112903989D01*
X85544666Y-112867636D01*
X85614357Y-112862652D01*
X85631334Y-112867636D01*
X85728798Y-112903989D01*
X85789345Y-112910499D01*
X85789362Y-112910500D01*
X86886638Y-112910500D01*
X86886654Y-112910499D01*
X86947201Y-112903989D01*
X87044666Y-112867636D01*
X87114357Y-112862652D01*
X87131334Y-112867636D01*
X87228798Y-112903989D01*
X87289345Y-112910499D01*
X87289362Y-112910500D01*
X88386638Y-112910500D01*
X88386654Y-112910499D01*
X88447201Y-112903989D01*
X88544666Y-112867636D01*
X88614357Y-112862652D01*
X88631334Y-112867636D01*
X88728798Y-112903989D01*
X88789345Y-112910499D01*
X88789362Y-112910500D01*
X89886638Y-112910500D01*
X89886654Y-112910499D01*
X89947201Y-112903989D01*
X90044666Y-112867636D01*
X90114357Y-112862652D01*
X90131334Y-112867636D01*
X90228798Y-112903989D01*
X90289345Y-112910499D01*
X90289362Y-112910500D01*
X91222924Y-112910500D01*
X91289963Y-112930185D01*
X91335718Y-112982989D01*
X91343601Y-113005988D01*
X91344400Y-113009373D01*
X91394645Y-113144086D01*
X91394649Y-113144093D01*
X91480809Y-113259187D01*
X91480812Y-113259190D01*
X91595906Y-113345350D01*
X91595913Y-113345354D01*
X91730620Y-113395596D01*
X91730627Y-113395598D01*
X91790155Y-113401999D01*
X91790172Y-113402000D01*
X92238000Y-113402000D01*
X92238000Y-106402000D01*
X91790155Y-106402000D01*
X91730627Y-106408401D01*
X91730616Y-106408404D01*
X91643491Y-106440899D01*
X91573799Y-106445883D01*
X91556819Y-106440896D01*
X91552160Y-106439158D01*
X91496229Y-106397284D01*
X91471815Y-106331818D01*
X91471500Y-106322979D01*
X91471500Y-99187000D01*
X92558496Y-99187000D01*
X92578458Y-99376928D01*
X92578459Y-99376931D01*
X92637470Y-99558549D01*
X92637473Y-99558556D01*
X92732960Y-99723944D01*
X92860747Y-99865866D01*
X93015248Y-99978118D01*
X93189712Y-100055794D01*
X93376513Y-100095500D01*
X93567487Y-100095500D01*
X93754288Y-100055794D01*
X93928752Y-99978118D01*
X94083253Y-99865866D01*
X94211040Y-99723944D01*
X94306527Y-99558556D01*
X94365542Y-99376928D01*
X94385504Y-99187000D01*
X94365542Y-98997072D01*
X94306527Y-98815444D01*
X94211040Y-98650056D01*
X94083253Y-98508134D01*
X93928752Y-98395882D01*
X93754288Y-98318206D01*
X93754286Y-98318205D01*
X93567487Y-98278500D01*
X93376513Y-98278500D01*
X93189714Y-98318205D01*
X93189712Y-98318206D01*
X93048371Y-98381135D01*
X93015246Y-98395883D01*
X92860745Y-98508135D01*
X92732959Y-98650057D01*
X92637473Y-98815443D01*
X92637470Y-98815450D01*
X92578459Y-98997068D01*
X92578458Y-98997072D01*
X92558496Y-99187000D01*
X91471500Y-99187000D01*
X91471500Y-83957432D01*
X91473239Y-83941680D01*
X91472968Y-83941655D01*
X91473700Y-83933899D01*
X91473702Y-83933892D01*
X91471561Y-83865768D01*
X91471500Y-83861873D01*
X91471500Y-83833947D01*
X91471500Y-83833944D01*
X91470982Y-83829847D01*
X91470065Y-83818198D01*
X91468674Y-83773913D01*
X91468674Y-83773911D01*
X91462974Y-83754292D01*
X91459031Y-83735246D01*
X91456474Y-83715004D01*
X91456474Y-83715003D01*
X91440156Y-83673790D01*
X91436386Y-83662775D01*
X91424019Y-83620207D01*
X91413620Y-83602624D01*
X91405066Y-83585163D01*
X91397552Y-83566183D01*
X91371508Y-83530337D01*
X91365098Y-83520578D01*
X91342543Y-83482440D01*
X91342542Y-83482438D01*
X91328108Y-83468004D01*
X91315471Y-83453209D01*
X91303472Y-83436693D01*
X91303469Y-83436691D01*
X91303469Y-83436690D01*
X91269325Y-83408443D01*
X91260685Y-83400581D01*
X88385220Y-80525115D01*
X88351735Y-80463792D01*
X88349583Y-80450415D01*
X88338524Y-80345200D01*
X88351093Y-80276475D01*
X88388959Y-80231926D01*
X88405361Y-80220009D01*
X88415130Y-80213592D01*
X88418390Y-80211664D01*
X88453262Y-80191042D01*
X88467702Y-80176600D01*
X88482492Y-80163970D01*
X88499007Y-80151972D01*
X88527259Y-80117819D01*
X88535103Y-80109199D01*
X92210717Y-76433586D01*
X92223078Y-76423685D01*
X92222904Y-76423475D01*
X92228913Y-76418502D01*
X92228918Y-76418500D01*
X92275590Y-76368797D01*
X92278239Y-76366064D01*
X92298035Y-76346270D01*
X92300572Y-76342998D01*
X92308151Y-76334124D01*
X92338486Y-76301821D01*
X92348319Y-76283932D01*
X92359002Y-76267669D01*
X92371514Y-76251541D01*
X92389107Y-76210881D01*
X92394250Y-76200385D01*
X92415593Y-76161564D01*
X92415593Y-76161563D01*
X92415595Y-76161560D01*
X92420674Y-76141773D01*
X92426970Y-76123385D01*
X92435081Y-76104645D01*
X92442013Y-76060872D01*
X92444378Y-76049453D01*
X92455400Y-76006530D01*
X92455400Y-75986115D01*
X92456927Y-75966714D01*
X92457862Y-75960810D01*
X92460120Y-75946557D01*
X92455950Y-75902442D01*
X92455400Y-75890773D01*
X92455400Y-70830932D01*
X92457139Y-70815180D01*
X92456868Y-70815155D01*
X92457600Y-70807399D01*
X92457602Y-70807392D01*
X92455461Y-70739268D01*
X92455400Y-70735373D01*
X92455400Y-70707447D01*
X92455400Y-70707444D01*
X92454882Y-70703347D01*
X92453965Y-70691698D01*
X92452574Y-70647411D01*
X92446876Y-70627799D01*
X92442933Y-70608766D01*
X92440374Y-70588503D01*
X92424063Y-70547307D01*
X92420281Y-70536259D01*
X92407918Y-70493708D01*
X92407918Y-70493707D01*
X92399394Y-70479294D01*
X92397525Y-70476134D01*
X92388966Y-70458662D01*
X92381452Y-70439683D01*
X92355410Y-70403839D01*
X92348999Y-70394081D01*
X92331990Y-70365320D01*
X92326442Y-70355938D01*
X92312008Y-70341504D01*
X92299371Y-70326709D01*
X92287372Y-70310193D01*
X92287369Y-70310191D01*
X92287369Y-70310190D01*
X92253225Y-70281943D01*
X92244585Y-70274081D01*
X91558154Y-69587649D01*
X91524669Y-69526326D01*
X91529653Y-69456634D01*
X91533290Y-69448927D01*
X91532985Y-69448791D01*
X91535626Y-69442858D01*
X91535627Y-69442856D01*
X91594642Y-69261228D01*
X91614604Y-69071300D01*
X91594642Y-68881372D01*
X91535845Y-68700414D01*
X91535629Y-68699750D01*
X91535628Y-68699749D01*
X91535627Y-68699744D01*
X91440140Y-68534356D01*
X91312353Y-68392434D01*
X91221141Y-68326164D01*
X91157851Y-68280181D01*
X91029744Y-68223144D01*
X90976507Y-68177894D01*
X90956186Y-68111045D01*
X90957706Y-68090473D01*
X90961712Y-68065180D01*
X90964078Y-68053753D01*
X90975100Y-68010830D01*
X90975100Y-67990415D01*
X90976627Y-67971014D01*
X90979820Y-67950857D01*
X90975650Y-67906742D01*
X90975100Y-67895073D01*
X90975100Y-67451632D01*
X90976839Y-67435880D01*
X90976568Y-67435855D01*
X90977300Y-67428099D01*
X90977302Y-67428092D01*
X90975161Y-67359968D01*
X90975100Y-67356073D01*
X90975100Y-67328147D01*
X90975086Y-67328033D01*
X90974582Y-67324047D01*
X90973665Y-67312398D01*
X90972274Y-67268113D01*
X90972274Y-67268111D01*
X90966574Y-67248492D01*
X90962631Y-67229446D01*
X90961457Y-67220156D01*
X90960074Y-67209203D01*
X90943756Y-67167990D01*
X90939986Y-67156975D01*
X90927619Y-67114407D01*
X90917220Y-67096824D01*
X90908666Y-67079363D01*
X90901152Y-67060383D01*
X90875108Y-67024537D01*
X90868698Y-67014778D01*
X90846143Y-66976640D01*
X90846142Y-66976638D01*
X90846140Y-66976636D01*
X90846137Y-66976632D01*
X90831707Y-66962202D01*
X90819069Y-66947405D01*
X90807072Y-66930893D01*
X90807072Y-66930892D01*
X90772931Y-66902649D01*
X90764290Y-66894786D01*
X90542387Y-66672882D01*
X90532480Y-66660516D01*
X90532271Y-66660690D01*
X90527303Y-66654684D01*
X90477631Y-66608040D01*
X90474833Y-66605328D01*
X90455066Y-66585561D01*
X90451804Y-66583031D01*
X90442919Y-66575443D01*
X90410621Y-66545114D01*
X90410619Y-66545112D01*
X90392731Y-66535278D01*
X90376470Y-66524597D01*
X90360339Y-66512084D01*
X90319675Y-66494488D01*
X90309185Y-66489349D01*
X90270360Y-66468005D01*
X90270356Y-66468004D01*
X90250587Y-66462928D01*
X90232181Y-66456626D01*
X90213444Y-66448518D01*
X90213445Y-66448518D01*
X90169683Y-66441587D01*
X90158247Y-66439219D01*
X90143493Y-66435431D01*
X90115332Y-66428200D01*
X90115330Y-66428200D01*
X90094916Y-66428200D01*
X90075517Y-66426673D01*
X90055358Y-66423480D01*
X90055357Y-66423480D01*
X90011243Y-66427650D01*
X89999574Y-66428200D01*
X86886931Y-66428200D01*
X86871179Y-66426460D01*
X86871154Y-66426732D01*
X86863392Y-66425998D01*
X86863391Y-66425998D01*
X86840037Y-66426732D01*
X86795269Y-66428139D01*
X86791374Y-66428200D01*
X86763444Y-66428200D01*
X86763441Y-66428200D01*
X86763425Y-66428201D01*
X86759332Y-66428718D01*
X86747704Y-66429633D01*
X86703413Y-66431025D01*
X86703407Y-66431026D01*
X86683800Y-66436722D01*
X86664761Y-66440665D01*
X86644511Y-66443224D01*
X86644505Y-66443225D01*
X86644503Y-66443226D01*
X86633725Y-66447492D01*
X86603306Y-66459536D01*
X86592260Y-66463317D01*
X86549713Y-66475679D01*
X86549707Y-66475681D01*
X86532133Y-66486074D01*
X86514672Y-66494628D01*
X86495686Y-66502146D01*
X86495685Y-66502146D01*
X86459835Y-66528192D01*
X86450076Y-66534602D01*
X86411937Y-66557157D01*
X86397501Y-66571594D01*
X86382715Y-66584223D01*
X86366193Y-66596228D01*
X86366191Y-66596229D01*
X86366191Y-66596230D01*
X86366188Y-66596233D01*
X86337942Y-66630374D01*
X86330083Y-66639011D01*
X85836214Y-67132881D01*
X85774891Y-67166366D01*
X85748533Y-67169200D01*
X85691813Y-67169200D01*
X85505014Y-67208905D01*
X85330546Y-67286583D01*
X85176045Y-67398835D01*
X85048259Y-67540757D01*
X84952773Y-67706143D01*
X84952770Y-67706150D01*
X84898388Y-67873522D01*
X84893758Y-67887772D01*
X84873796Y-68077700D01*
X84893758Y-68267628D01*
X84893759Y-68267631D01*
X84952770Y-68449249D01*
X84952773Y-68449256D01*
X85048260Y-68614644D01*
X85124884Y-68699744D01*
X85162300Y-68741299D01*
X85176047Y-68756566D01*
X85330548Y-68868818D01*
X85505012Y-68946494D01*
X85691813Y-68986200D01*
X85882787Y-68986200D01*
X86069588Y-68946494D01*
X86244052Y-68868818D01*
X86398553Y-68756566D01*
X86526340Y-68614644D01*
X86621827Y-68449256D01*
X86680842Y-68267628D01*
X86696698Y-68116761D01*
X86723281Y-68052150D01*
X86780578Y-68012165D01*
X86850397Y-68009505D01*
X86910571Y-68045014D01*
X86937949Y-68091407D01*
X86968573Y-68185658D01*
X87026011Y-68285143D01*
X87042484Y-68353043D01*
X87026012Y-68409142D01*
X86994372Y-68463944D01*
X86935359Y-68645568D01*
X86935358Y-68645572D01*
X86915396Y-68835500D01*
X86935358Y-69025428D01*
X86935359Y-69025431D01*
X86994370Y-69207049D01*
X86994373Y-69207056D01*
X87089860Y-69372444D01*
X87217647Y-69514366D01*
X87372148Y-69626618D01*
X87546612Y-69704294D01*
X87687307Y-69734199D01*
X87748788Y-69767391D01*
X87782564Y-69828554D01*
X87777912Y-69898269D01*
X87736308Y-69954401D01*
X87687307Y-69976779D01*
X87562513Y-70003305D01*
X87388046Y-70080983D01*
X87233545Y-70193235D01*
X87105759Y-70335157D01*
X87010273Y-70500543D01*
X87010270Y-70500550D01*
X86951259Y-70682168D01*
X86951258Y-70682172D01*
X86931296Y-70872100D01*
X86951258Y-71062028D01*
X86951259Y-71062031D01*
X87010270Y-71243649D01*
X87010273Y-71243656D01*
X87105760Y-71409044D01*
X87233547Y-71550966D01*
X87388048Y-71663218D01*
X87562512Y-71740894D01*
X87749313Y-71780600D01*
X87834406Y-71780600D01*
X87901445Y-71800285D01*
X87947200Y-71853089D01*
X87957345Y-71920786D01*
X87945500Y-72010748D01*
X87945500Y-72237237D01*
X87945501Y-72237253D01*
X87960386Y-72350315D01*
X87949620Y-72419350D01*
X87903241Y-72471606D01*
X87837447Y-72490500D01*
X85317032Y-72490500D01*
X85301280Y-72488760D01*
X85301255Y-72489032D01*
X85293493Y-72488298D01*
X85293492Y-72488298D01*
X85270138Y-72489032D01*
X85225370Y-72490439D01*
X85221475Y-72490500D01*
X85193544Y-72490500D01*
X85193541Y-72490500D01*
X85193525Y-72490501D01*
X85189432Y-72491018D01*
X85177804Y-72491933D01*
X85133510Y-72493325D01*
X85133509Y-72493326D01*
X85113896Y-72499023D01*
X85094859Y-72502965D01*
X85074608Y-72505524D01*
X85074602Y-72505526D01*
X85033414Y-72521832D01*
X85022371Y-72525613D01*
X84979805Y-72537981D01*
X84979801Y-72537983D01*
X84962227Y-72548376D01*
X84944762Y-72556932D01*
X84925787Y-72564445D01*
X84925785Y-72564446D01*
X84889939Y-72590489D01*
X84880180Y-72596899D01*
X84842035Y-72619459D01*
X84827600Y-72633894D01*
X84812812Y-72646525D01*
X84796294Y-72658526D01*
X84796288Y-72658533D01*
X84768042Y-72692674D01*
X84760183Y-72701311D01*
X76564979Y-80896514D01*
X76552620Y-80906418D01*
X76552793Y-80906627D01*
X76546782Y-80911600D01*
X76500138Y-80961269D01*
X76497433Y-80964060D01*
X76477673Y-80983821D01*
X76477658Y-80983838D01*
X76475117Y-80987113D01*
X76467553Y-80995967D01*
X76437220Y-81028271D01*
X76437212Y-81028281D01*
X76427379Y-81046167D01*
X76416703Y-81062420D01*
X76404186Y-81078557D01*
X76404185Y-81078560D01*
X76386585Y-81119229D01*
X76381448Y-81129715D01*
X76360103Y-81168541D01*
X76360103Y-81168542D01*
X76355025Y-81188320D01*
X76348725Y-81206722D01*
X76340618Y-81225457D01*
X76333688Y-81269209D01*
X76331320Y-81280645D01*
X76320300Y-81323565D01*
X76320300Y-81343984D01*
X76318772Y-81363383D01*
X76315580Y-81383543D01*
X76317380Y-81402585D01*
X76319750Y-81427657D01*
X76320300Y-81439326D01*
X76320300Y-81656041D01*
X76300615Y-81723080D01*
X76288450Y-81739013D01*
X76214763Y-81820850D01*
X76214758Y-81820857D01*
X76119273Y-81986243D01*
X76119270Y-81986250D01*
X76067345Y-82146060D01*
X76060258Y-82167872D01*
X76040296Y-82357800D01*
X76060258Y-82547728D01*
X76060259Y-82547731D01*
X76119270Y-82729349D01*
X76119273Y-82729356D01*
X76165024Y-82808600D01*
X76214760Y-82894744D01*
X76288449Y-82976584D01*
X76318680Y-83039575D01*
X76320300Y-83059556D01*
X76320300Y-83557433D01*
X76300615Y-83624472D01*
X76247811Y-83670227D01*
X76178653Y-83680171D01*
X76115097Y-83651146D01*
X76108619Y-83645114D01*
X74387619Y-81924114D01*
X74354134Y-81862791D01*
X74351300Y-81836433D01*
X74351300Y-79230767D01*
X74370985Y-79163728D01*
X74423789Y-79117973D01*
X74492947Y-79108029D01*
X74556503Y-79137054D01*
X74567443Y-79147788D01*
X74576247Y-79157566D01*
X74730748Y-79269818D01*
X74905212Y-79347494D01*
X75092013Y-79387200D01*
X75282987Y-79387200D01*
X75469788Y-79347494D01*
X75644252Y-79269818D01*
X75798753Y-79157566D01*
X75926540Y-79015644D01*
X76022027Y-78850256D01*
X76081042Y-78668628D01*
X76101004Y-78478700D01*
X76081042Y-78288772D01*
X76022027Y-78107144D01*
X75926540Y-77941756D01*
X75926536Y-77941750D01*
X75852850Y-77859913D01*
X75822620Y-77796921D01*
X75821000Y-77776941D01*
X75821000Y-76901391D01*
X75840685Y-76834352D01*
X75893489Y-76788597D01*
X75962647Y-76778653D01*
X75970758Y-76780096D01*
X76000413Y-76786400D01*
X76000415Y-76786400D01*
X76191387Y-76786400D01*
X76378188Y-76746694D01*
X76552652Y-76669018D01*
X76707153Y-76556766D01*
X76834940Y-76414844D01*
X76930427Y-76249456D01*
X76989442Y-76067828D01*
X77007840Y-75892773D01*
X77034425Y-75828161D01*
X77091722Y-75788176D01*
X77114976Y-75782798D01*
X77117240Y-75782500D01*
X77117244Y-75782500D01*
X77231324Y-75767481D01*
X77373268Y-75708686D01*
X77495157Y-75615157D01*
X77588686Y-75493268D01*
X77647481Y-75351324D01*
X77662500Y-75237244D01*
X77662500Y-75196600D01*
X77682185Y-75129561D01*
X77734989Y-75083806D01*
X77786500Y-75072600D01*
X77850987Y-75072600D01*
X78037788Y-75032894D01*
X78212252Y-74955218D01*
X78366753Y-74842966D01*
X78494540Y-74701044D01*
X78590027Y-74535656D01*
X78649042Y-74354028D01*
X78669004Y-74164100D01*
X78649042Y-73974172D01*
X78590027Y-73792544D01*
X78494540Y-73627156D01*
X78393177Y-73514581D01*
X78370036Y-73477257D01*
X78357665Y-73446011D01*
X78353880Y-73434958D01*
X78341518Y-73392406D01*
X78331125Y-73374833D01*
X78322563Y-73357355D01*
X78315052Y-73338383D01*
X78315050Y-73338380D01*
X78315049Y-73338378D01*
X78289012Y-73302541D01*
X78282598Y-73292778D01*
X78278649Y-73286100D01*
X78260042Y-73254637D01*
X78245608Y-73240203D01*
X78232969Y-73225406D01*
X78220971Y-73208892D01*
X78186836Y-73180653D01*
X78178196Y-73172791D01*
X77740588Y-72735183D01*
X77730687Y-72722823D01*
X77730477Y-72722998D01*
X77725501Y-72716984D01*
X77725500Y-72716982D01*
X77675815Y-72670325D01*
X77673050Y-72667645D01*
X77651929Y-72646524D01*
X77618444Y-72585201D01*
X77623428Y-72515509D01*
X77646383Y-72477083D01*
X77649088Y-72473998D01*
X77638139Y-72390837D01*
X77641154Y-72390440D01*
X77641154Y-72357559D01*
X77638139Y-72357163D01*
X77649088Y-72274000D01*
X76529000Y-72274000D01*
X76529000Y-72341500D01*
X76509315Y-72408539D01*
X76456511Y-72454294D01*
X76405000Y-72465500D01*
X76353000Y-72465500D01*
X76285961Y-72445815D01*
X76240206Y-72393011D01*
X76229000Y-72341500D01*
X76229000Y-72274000D01*
X75108912Y-72274000D01*
X75119861Y-72357161D01*
X75116915Y-72357548D01*
X75116915Y-72390453D01*
X75119861Y-72390841D01*
X75116060Y-72419708D01*
X75087792Y-72483604D01*
X75029467Y-72522074D01*
X74967343Y-72524811D01*
X74952670Y-72521692D01*
X74933887Y-72517700D01*
X74742913Y-72517700D01*
X74687516Y-72529475D01*
X74617848Y-72524158D01*
X74562115Y-72482020D01*
X74538011Y-72416440D01*
X74553189Y-72348238D01*
X74588849Y-72307867D01*
X74627253Y-72279966D01*
X74755040Y-72138044D01*
X74850527Y-71972656D01*
X74854607Y-71960101D01*
X74859951Y-71943651D01*
X74868206Y-71918244D01*
X74907642Y-71860569D01*
X74972000Y-71833370D01*
X75040847Y-71845284D01*
X75092323Y-71892527D01*
X75110086Y-71960101D01*
X75109076Y-71972747D01*
X75108911Y-71973999D01*
X75108912Y-71974000D01*
X76229000Y-71974000D01*
X76229000Y-71906500D01*
X76248685Y-71839461D01*
X76301489Y-71793706D01*
X76353000Y-71782500D01*
X76405000Y-71782500D01*
X76472039Y-71802185D01*
X76517794Y-71854989D01*
X76529000Y-71906500D01*
X76529000Y-71974000D01*
X77649088Y-71974000D01*
X77649088Y-71973999D01*
X77639041Y-71897686D01*
X77649806Y-71828650D01*
X77696186Y-71776395D01*
X77761980Y-71757500D01*
X81319366Y-71757500D01*
X81335113Y-71759238D01*
X81335139Y-71758968D01*
X81342905Y-71759701D01*
X81342909Y-71759702D01*
X81411017Y-71757560D01*
X81414913Y-71757500D01*
X81442858Y-71757500D01*
X81442860Y-71757499D01*
X81444262Y-71757322D01*
X81446949Y-71756983D01*
X81458608Y-71756064D01*
X81502889Y-71754673D01*
X81522481Y-71748980D01*
X81541538Y-71745032D01*
X81561797Y-71742474D01*
X81603006Y-71726157D01*
X81614043Y-71722379D01*
X81656593Y-71710018D01*
X81674165Y-71699625D01*
X81691632Y-71691068D01*
X81710617Y-71683552D01*
X81746461Y-71657508D01*
X81756230Y-71651092D01*
X81770145Y-71642863D01*
X81794362Y-71628542D01*
X81808799Y-71614104D01*
X81823594Y-71601469D01*
X81834499Y-71593546D01*
X81840107Y-71589472D01*
X81868359Y-71555320D01*
X81876201Y-71546702D01*
X82133818Y-71289085D01*
X82146181Y-71279182D01*
X82146007Y-71278972D01*
X82152011Y-71274003D01*
X82152018Y-71274000D01*
X82198691Y-71224296D01*
X82201340Y-71221563D01*
X82221135Y-71201770D01*
X82223672Y-71198498D01*
X82231251Y-71189624D01*
X82261586Y-71157321D01*
X82271419Y-71139432D01*
X82282102Y-71123169D01*
X82294614Y-71107041D01*
X82312207Y-71066381D01*
X82317350Y-71055885D01*
X82338693Y-71017064D01*
X82338693Y-71017063D01*
X82338695Y-71017060D01*
X82343774Y-70997273D01*
X82350070Y-70978885D01*
X82358181Y-70960145D01*
X82365113Y-70916372D01*
X82367478Y-70904953D01*
X82378500Y-70862030D01*
X82378500Y-70841615D01*
X82380027Y-70822214D01*
X82380288Y-70820566D01*
X82383220Y-70802057D01*
X82379050Y-70757942D01*
X82378500Y-70746273D01*
X82378500Y-65895814D01*
X82398185Y-65828775D01*
X82437403Y-65790276D01*
X82505917Y-65748014D01*
X82556152Y-65717030D01*
X82681530Y-65591652D01*
X82681949Y-65590971D01*
X82682359Y-65590602D01*
X82686011Y-65585985D01*
X82686799Y-65586608D01*
X82733889Y-65544244D01*
X82802850Y-65533014D01*
X82866936Y-65560850D01*
X82884761Y-65581420D01*
X82885702Y-65580677D01*
X82890183Y-65586344D01*
X83014154Y-65710315D01*
X83163375Y-65802356D01*
X83163380Y-65802358D01*
X83329802Y-65857505D01*
X83329809Y-65857506D01*
X83432519Y-65867999D01*
X83569999Y-65867999D01*
X83570000Y-65867998D01*
X83570000Y-64893000D01*
X84070000Y-64893000D01*
X84070000Y-65867999D01*
X84207472Y-65867999D01*
X84207486Y-65867998D01*
X84310197Y-65857505D01*
X84476619Y-65802358D01*
X84476624Y-65802356D01*
X84625845Y-65710315D01*
X84749815Y-65586345D01*
X84841856Y-65437124D01*
X84841858Y-65437119D01*
X84897005Y-65270697D01*
X84897006Y-65270690D01*
X84907499Y-65167986D01*
X84907500Y-65167973D01*
X84907500Y-64893000D01*
X84070000Y-64893000D01*
X83570000Y-64893000D01*
X83570000Y-63418000D01*
X84070000Y-63418000D01*
X84070000Y-64393000D01*
X84907499Y-64393000D01*
X84907499Y-64118028D01*
X84907498Y-64118013D01*
X84897005Y-64015302D01*
X84841858Y-63848880D01*
X84841856Y-63848875D01*
X84749815Y-63699654D01*
X84625845Y-63575684D01*
X84476624Y-63483643D01*
X84476619Y-63483641D01*
X84310197Y-63428494D01*
X84310190Y-63428493D01*
X84207486Y-63418000D01*
X84070000Y-63418000D01*
X83570000Y-63418000D01*
X83432527Y-63418000D01*
X83432512Y-63418001D01*
X83329802Y-63428494D01*
X83163380Y-63483641D01*
X83163375Y-63483643D01*
X83014154Y-63575684D01*
X82890183Y-63699655D01*
X82885702Y-63705323D01*
X82883521Y-63703598D01*
X82841056Y-63741775D01*
X82772091Y-63752980D01*
X82708016Y-63725121D01*
X82686163Y-63699894D01*
X82686011Y-63700015D01*
X82683316Y-63696606D01*
X82681951Y-63695031D01*
X82681529Y-63694347D01*
X82556153Y-63568971D01*
X82556152Y-63568970D01*
X82417816Y-63483643D01*
X82405240Y-63475886D01*
X82405235Y-63475884D01*
X82236927Y-63420113D01*
X82133046Y-63409500D01*
X81356962Y-63409500D01*
X81356946Y-63409501D01*
X81253072Y-63420113D01*
X81084764Y-63475884D01*
X81084759Y-63475886D01*
X80933846Y-63568971D01*
X80808470Y-63694347D01*
X80808468Y-63694350D01*
X80795114Y-63715999D01*
X80743164Y-63762722D01*
X80674201Y-63773941D01*
X80663797Y-63772188D01*
X80486487Y-63734500D01*
X80295513Y-63734500D01*
X80108714Y-63774205D01*
X79934243Y-63851884D01*
X79862485Y-63904020D01*
X79796679Y-63927500D01*
X79728625Y-63911674D01*
X79679930Y-63861568D01*
X79665600Y-63803702D01*
X79665600Y-59645200D01*
X79685285Y-59578161D01*
X79738089Y-59532406D01*
X79789600Y-59521200D01*
X82760666Y-59521200D01*
X82776413Y-59522938D01*
X82776439Y-59522668D01*
X82784205Y-59523401D01*
X82784209Y-59523402D01*
X82852317Y-59521260D01*
X82856213Y-59521200D01*
X82884158Y-59521200D01*
X82884160Y-59521199D01*
X82885562Y-59521022D01*
X82888249Y-59520683D01*
X82899908Y-59519764D01*
X82944189Y-59518373D01*
X82963781Y-59512680D01*
X82982838Y-59508732D01*
X83003097Y-59506174D01*
X83044306Y-59489857D01*
X83055343Y-59486079D01*
X83097893Y-59473718D01*
X83115465Y-59463325D01*
X83132932Y-59454768D01*
X83151917Y-59447252D01*
X83187761Y-59421208D01*
X83197530Y-59414792D01*
X83235662Y-59392242D01*
X83250102Y-59377800D01*
X83264892Y-59365170D01*
X83281407Y-59353172D01*
X83309659Y-59319019D01*
X83317503Y-59310399D01*
X83575394Y-59052508D01*
X83636715Y-59019025D01*
X83695168Y-59020416D01*
X83727629Y-59029115D01*
X83908614Y-59044948D01*
X83946998Y-59048307D01*
X83947000Y-59048307D01*
X83947002Y-59048307D01*
X84001842Y-59043509D01*
X84166371Y-59029115D01*
X84379076Y-58972120D01*
X84578654Y-58879056D01*
X84759038Y-58752749D01*
X84914749Y-58597038D01*
X85041056Y-58416654D01*
X85134120Y-58217076D01*
X85191115Y-58004371D01*
X85210307Y-57785000D01*
X85191115Y-57565629D01*
X85134120Y-57352924D01*
X85041056Y-57153347D01*
X85041054Y-57153344D01*
X85041053Y-57153342D01*
X84977902Y-57063154D01*
X84914749Y-56972962D01*
X84759038Y-56817251D01*
X84578654Y-56690944D01*
X84578650Y-56690942D01*
X84379081Y-56597882D01*
X84379079Y-56597881D01*
X84379076Y-56597880D01*
X84205986Y-56551500D01*
X84166372Y-56540885D01*
X84166365Y-56540884D01*
X83947002Y-56521693D01*
X83946998Y-56521693D01*
X83727634Y-56540884D01*
X83727627Y-56540885D01*
X83514920Y-56597881D01*
X83315346Y-56690944D01*
X83315342Y-56690946D01*
X83134967Y-56817247D01*
X83134960Y-56817252D01*
X82979252Y-56972960D01*
X82979247Y-56972967D01*
X82852946Y-57153342D01*
X82852944Y-57153346D01*
X82759881Y-57352920D01*
X82702885Y-57565627D01*
X82702884Y-57565634D01*
X82683693Y-57784997D01*
X82683693Y-57785002D01*
X82702884Y-58004365D01*
X82702887Y-58004379D01*
X82711582Y-58036831D01*
X82709919Y-58106681D01*
X82679490Y-58156603D01*
X82618215Y-58217880D01*
X82556892Y-58251366D01*
X82530532Y-58254200D01*
X80586773Y-58254200D01*
X80519734Y-58234515D01*
X80473979Y-58181711D01*
X80464035Y-58112553D01*
X80466998Y-58098106D01*
X80483417Y-58036831D01*
X80492115Y-58004371D01*
X80511307Y-57785000D01*
X80492115Y-57565629D01*
X80435120Y-57352924D01*
X80342056Y-57153347D01*
X80342054Y-57153344D01*
X80342053Y-57153342D01*
X80278902Y-57063154D01*
X80215749Y-56972962D01*
X80060038Y-56817251D01*
X79879654Y-56690944D01*
X79879650Y-56690942D01*
X79680081Y-56597882D01*
X79680079Y-56597881D01*
X79680076Y-56597880D01*
X79506986Y-56551500D01*
X79467372Y-56540885D01*
X79467365Y-56540884D01*
X79248002Y-56521693D01*
X79247998Y-56521693D01*
X79028634Y-56540884D01*
X79028627Y-56540885D01*
X78815920Y-56597881D01*
X78616346Y-56690944D01*
X78616342Y-56690946D01*
X78435967Y-56817247D01*
X78435960Y-56817252D01*
X78280255Y-56972957D01*
X78280252Y-56972960D01*
X78280251Y-56972962D01*
X78192260Y-57098625D01*
X78137684Y-57142249D01*
X78090687Y-57151500D01*
X77796309Y-57151500D01*
X77729270Y-57131815D01*
X77704160Y-57110473D01*
X77700254Y-57106135D01*
X77571053Y-57012264D01*
X77545752Y-56993882D01*
X77371288Y-56916206D01*
X77371286Y-56916205D01*
X77184487Y-56876500D01*
X76993513Y-56876500D01*
X76806714Y-56916205D01*
X76632246Y-56993883D01*
X76477745Y-57106135D01*
X76349959Y-57248057D01*
X76254473Y-57413443D01*
X76254470Y-57413450D01*
X76205023Y-57565634D01*
X76195458Y-57595072D01*
X76175496Y-57785000D01*
X76195458Y-57974928D01*
X76195459Y-57974931D01*
X76233459Y-58091882D01*
X76235454Y-58161723D01*
X76199374Y-58221556D01*
X76136673Y-58252384D01*
X76115528Y-58254200D01*
X68410472Y-58254200D01*
X68343433Y-58234515D01*
X68297678Y-58181711D01*
X68287734Y-58112553D01*
X68292541Y-58091882D01*
X68311023Y-58035000D01*
X68330542Y-57974928D01*
X68350504Y-57785000D01*
X68330542Y-57595072D01*
X68271527Y-57413444D01*
X68176040Y-57248056D01*
X68048253Y-57106134D01*
X67893752Y-56993882D01*
X67719288Y-56916206D01*
X67719286Y-56916205D01*
X67532487Y-56876500D01*
X67341513Y-56876500D01*
X67154713Y-56916205D01*
X67154710Y-56916206D01*
X67056570Y-56959900D01*
X66987320Y-56969184D01*
X66924044Y-56939555D01*
X66900597Y-56911716D01*
X66881696Y-56881073D01*
X66869530Y-56861348D01*
X66744152Y-56735970D01*
X66593238Y-56642885D01*
X66517789Y-56617884D01*
X66424927Y-56587113D01*
X66321046Y-56576500D01*
X65519962Y-56576500D01*
X65519946Y-56576501D01*
X65416072Y-56587113D01*
X65247764Y-56642884D01*
X65247759Y-56642886D01*
X65096846Y-56735971D01*
X65008181Y-56824637D01*
X64946858Y-56858122D01*
X64877166Y-56853138D01*
X64832819Y-56824637D01*
X64744153Y-56735971D01*
X64744152Y-56735970D01*
X64593238Y-56642885D01*
X64517789Y-56617884D01*
X64424927Y-56587113D01*
X64321046Y-56576500D01*
X63519962Y-56576500D01*
X63519946Y-56576501D01*
X63416072Y-56587113D01*
X63247764Y-56642884D01*
X63247759Y-56642886D01*
X63096846Y-56735971D01*
X62971471Y-56861346D01*
X62878386Y-57012259D01*
X62878384Y-57012264D01*
X62822613Y-57180572D01*
X62812000Y-57284447D01*
X62812000Y-58285537D01*
X62812001Y-58285553D01*
X62822613Y-58389427D01*
X62878384Y-58557735D01*
X62878386Y-58557740D01*
X62913642Y-58614898D01*
X62971470Y-58708652D01*
X63096848Y-58834030D01*
X63247762Y-58927115D01*
X63416074Y-58982887D01*
X63519955Y-58993500D01*
X63722134Y-58993499D01*
X63789172Y-59013183D01*
X63834927Y-59065987D01*
X63844871Y-59135145D01*
X63815846Y-59198701D01*
X63809814Y-59205180D01*
X61717681Y-61297314D01*
X61656358Y-61330799D01*
X61586666Y-61325815D01*
X61530733Y-61283943D01*
X61506316Y-61218479D01*
X61506000Y-61209633D01*
X61506000Y-61089365D01*
X61505999Y-61089350D01*
X61503100Y-61052510D01*
X61503099Y-61052504D01*
X61457283Y-60894806D01*
X61457282Y-60894803D01*
X61373685Y-60753447D01*
X61373678Y-60753438D01*
X61257561Y-60637321D01*
X61257552Y-60637314D01*
X61116196Y-60553717D01*
X61116193Y-60553716D01*
X60958494Y-60507900D01*
X60958497Y-60507900D01*
X60956000Y-60507703D01*
X60956000Y-61868500D01*
X60936315Y-61935539D01*
X60883511Y-61981294D01*
X60832000Y-61992500D01*
X60580000Y-61992500D01*
X60512961Y-61972815D01*
X60467206Y-61920011D01*
X60456000Y-61868500D01*
X60456000Y-60507703D01*
X60453503Y-60507900D01*
X60295806Y-60553716D01*
X60295803Y-60553717D01*
X60154439Y-60637319D01*
X60153602Y-60637969D01*
X60152826Y-60638273D01*
X60147729Y-60641288D01*
X60147242Y-60640465D01*
X60088564Y-60663500D01*
X60020047Y-60649816D01*
X59999472Y-60634685D01*
X59998973Y-60635330D01*
X59992803Y-60630544D01*
X59849601Y-60545855D01*
X59849596Y-60545853D01*
X59689835Y-60499438D01*
X59689829Y-60499437D01*
X59652507Y-60496500D01*
X59652502Y-60496500D01*
X59219498Y-60496500D01*
X59219492Y-60496500D01*
X59182170Y-60499437D01*
X59182164Y-60499438D01*
X59022403Y-60545853D01*
X59022397Y-60545855D01*
X58986621Y-60567014D01*
X58918897Y-60584197D01*
X58852634Y-60562037D01*
X58808871Y-60507571D01*
X58799500Y-60460282D01*
X58799500Y-60027632D01*
X58801239Y-60011880D01*
X58800968Y-60011855D01*
X58801700Y-60004099D01*
X58801702Y-60004092D01*
X58799561Y-59935968D01*
X58799500Y-59932073D01*
X58799500Y-59904147D01*
X58799500Y-59904144D01*
X58798982Y-59900047D01*
X58798065Y-59888398D01*
X58796674Y-59844111D01*
X58790976Y-59824499D01*
X58787033Y-59805466D01*
X58784474Y-59785203D01*
X58768163Y-59744007D01*
X58764381Y-59732959D01*
X58752018Y-59690408D01*
X58752018Y-59690407D01*
X58741626Y-59672835D01*
X58733066Y-59655362D01*
X58725552Y-59636383D01*
X58699510Y-59600539D01*
X58693099Y-59590781D01*
X58685636Y-59578161D01*
X58670542Y-59552638D01*
X58656108Y-59538204D01*
X58643471Y-59523409D01*
X58631472Y-59506893D01*
X58631471Y-59506892D01*
X58631467Y-59506888D01*
X58597327Y-59478644D01*
X58588688Y-59470783D01*
X58476319Y-59358414D01*
X58442834Y-59297091D01*
X58440000Y-59270733D01*
X58440000Y-59037814D01*
X58459685Y-58970775D01*
X58498903Y-58932276D01*
X58585185Y-58879056D01*
X58617652Y-58859030D01*
X58743030Y-58733652D01*
X58759057Y-58707666D01*
X58811001Y-58660945D01*
X58879963Y-58649721D01*
X58893302Y-58652692D01*
X58893355Y-58652443D01*
X59086513Y-58693500D01*
X59277487Y-58693500D01*
X59464288Y-58653794D01*
X59638752Y-58576118D01*
X59793253Y-58463866D01*
X59921040Y-58321944D01*
X60016527Y-58156556D01*
X60075542Y-57974928D01*
X60095504Y-57785000D01*
X60075542Y-57595072D01*
X60016527Y-57413444D01*
X59921040Y-57248056D01*
X59793253Y-57106134D01*
X59638752Y-56993882D01*
X59464288Y-56916206D01*
X59464286Y-56916205D01*
X59277487Y-56876500D01*
X59086513Y-56876500D01*
X58893356Y-56917557D01*
X58892908Y-56915453D01*
X58833062Y-56917159D01*
X58773232Y-56881073D01*
X58759056Y-56862330D01*
X58743033Y-56836352D01*
X58743029Y-56836347D01*
X58617653Y-56710971D01*
X58617652Y-56710970D01*
X58479316Y-56625643D01*
X58466740Y-56617886D01*
X58466735Y-56617884D01*
X58298427Y-56562113D01*
X58194546Y-56551500D01*
X57418462Y-56551500D01*
X57418446Y-56551501D01*
X57314572Y-56562113D01*
X57146264Y-56617884D01*
X57146259Y-56617886D01*
X56995346Y-56710971D01*
X56869970Y-56836347D01*
X56869968Y-56836350D01*
X56869541Y-56837043D01*
X56869123Y-56837418D01*
X56865489Y-56842015D01*
X56864703Y-56841393D01*
X56817591Y-56883764D01*
X56748627Y-56894983D01*
X56684547Y-56867136D01*
X56666739Y-56846578D01*
X56665798Y-56847323D01*
X56661316Y-56841655D01*
X56537345Y-56717684D01*
X56388124Y-56625643D01*
X56388119Y-56625641D01*
X56221697Y-56570494D01*
X56221690Y-56570493D01*
X56118986Y-56560000D01*
X55981500Y-56560000D01*
X55981500Y-59009999D01*
X56118972Y-59009999D01*
X56118986Y-59009998D01*
X56221697Y-58999505D01*
X56388119Y-58944358D01*
X56388124Y-58944356D01*
X56537345Y-58852315D01*
X56661316Y-58728344D01*
X56665798Y-58722677D01*
X56667991Y-58724411D01*
X56710357Y-58686265D01*
X56779314Y-58675008D01*
X56843410Y-58702818D01*
X56865334Y-58728106D01*
X56865489Y-58727985D01*
X56868183Y-58731392D01*
X56869545Y-58732963D01*
X56869969Y-58733651D01*
X56995347Y-58859029D01*
X56995351Y-58859032D01*
X57114097Y-58932276D01*
X57160822Y-58984224D01*
X57173000Y-59037814D01*
X57173000Y-59500866D01*
X57171261Y-59516613D01*
X57171532Y-59516639D01*
X57170798Y-59524405D01*
X57170798Y-59524408D01*
X57170798Y-59524409D01*
X57171232Y-59538204D01*
X57172939Y-59592516D01*
X57173000Y-59596412D01*
X57173000Y-59624359D01*
X57173518Y-59628458D01*
X57174434Y-59640098D01*
X57175826Y-59684389D01*
X57175827Y-59684391D01*
X57181522Y-59703995D01*
X57185467Y-59723042D01*
X57188026Y-59743297D01*
X57188027Y-59743300D01*
X57188028Y-59743304D01*
X57204338Y-59784500D01*
X57208121Y-59795549D01*
X57220481Y-59838092D01*
X57230872Y-59855662D01*
X57239432Y-59873135D01*
X57246947Y-59892117D01*
X57272991Y-59927963D01*
X57279405Y-59937727D01*
X57301958Y-59975862D01*
X57301962Y-59975866D01*
X57316388Y-59990292D01*
X57329025Y-60005087D01*
X57341028Y-60021607D01*
X57375166Y-60049849D01*
X57383804Y-60057709D01*
X57443881Y-60117786D01*
X57496181Y-60170085D01*
X57529666Y-60231408D01*
X57532500Y-60257767D01*
X57532500Y-60470157D01*
X57512815Y-60537196D01*
X57460011Y-60582951D01*
X57390853Y-60592895D01*
X57345380Y-60576890D01*
X57306194Y-60553716D01*
X57148494Y-60507900D01*
X57148497Y-60507900D01*
X57146000Y-60507703D01*
X57146000Y-62977295D01*
X57146001Y-62977295D01*
X57148486Y-62977100D01*
X57306198Y-62931281D01*
X57447553Y-62847684D01*
X57448382Y-62847042D01*
X57449150Y-62846740D01*
X57454271Y-62843712D01*
X57454759Y-62844537D01*
X57513416Y-62821501D01*
X57581934Y-62835174D01*
X57602526Y-62850314D01*
X57603027Y-62849670D01*
X57609191Y-62854451D01*
X57609193Y-62854453D01*
X57752399Y-62939145D01*
X57766343Y-62943196D01*
X57912164Y-62985561D01*
X57912167Y-62985561D01*
X57912169Y-62985562D01*
X57949498Y-62988500D01*
X57949504Y-62988500D01*
X58382496Y-62988500D01*
X58382502Y-62988500D01*
X58419831Y-62985562D01*
X58419833Y-62985561D01*
X58419835Y-62985561D01*
X58497845Y-62962897D01*
X58579601Y-62939145D01*
X58722807Y-62854453D01*
X58722810Y-62854449D01*
X58724995Y-62852755D01*
X58727029Y-62851956D01*
X58729522Y-62850482D01*
X58729759Y-62850883D01*
X58790030Y-62827217D01*
X58858548Y-62840894D01*
X58877005Y-62852755D01*
X58879197Y-62854456D01*
X58947629Y-62894926D01*
X59022399Y-62939145D01*
X59036343Y-62943196D01*
X59182164Y-62985561D01*
X59182167Y-62985561D01*
X59182169Y-62985562D01*
X59219498Y-62988500D01*
X59468833Y-62988500D01*
X59535872Y-63008185D01*
X59556514Y-63024819D01*
X59769710Y-63238014D01*
X59779618Y-63250381D01*
X59779828Y-63250208D01*
X59784797Y-63256215D01*
X59784799Y-63256217D01*
X59784800Y-63256218D01*
X59810239Y-63280107D01*
X59845635Y-63340347D01*
X59842843Y-63410161D01*
X59802751Y-63467383D01*
X59738086Y-63493845D01*
X59725357Y-63494500D01*
X55644566Y-63494500D01*
X55577527Y-63474815D01*
X55556885Y-63458181D01*
X55288042Y-63189338D01*
X55254557Y-63128015D01*
X55259541Y-63058323D01*
X55301413Y-63002390D01*
X55366877Y-62977973D01*
X55375234Y-62978002D01*
X55376000Y-62977295D01*
X55376000Y-61992500D01*
X55876000Y-61992500D01*
X55876000Y-62977295D01*
X55876001Y-62977295D01*
X55878486Y-62977100D01*
X56036198Y-62931281D01*
X56177552Y-62847685D01*
X56183722Y-62842900D01*
X56185546Y-62845252D01*
X56234595Y-62818445D01*
X56304288Y-62823402D01*
X56337063Y-62844465D01*
X56338278Y-62842900D01*
X56344447Y-62847685D01*
X56485801Y-62931281D01*
X56643514Y-62977100D01*
X56643511Y-62977100D01*
X56645998Y-62977295D01*
X56646000Y-62977295D01*
X56646000Y-61992500D01*
X55876000Y-61992500D01*
X55376000Y-61992500D01*
X54478300Y-61992500D01*
X54411261Y-61972815D01*
X54365506Y-61920011D01*
X54354300Y-61868500D01*
X54354300Y-61492500D01*
X54606000Y-61492500D01*
X55376000Y-61492500D01*
X55876000Y-61492500D01*
X56646000Y-61492500D01*
X56646000Y-60507703D01*
X56643503Y-60507900D01*
X56485806Y-60553716D01*
X56485803Y-60553717D01*
X56344447Y-60637314D01*
X56338278Y-60642100D01*
X56336457Y-60639753D01*
X56287358Y-60666564D01*
X56217666Y-60661580D01*
X56184930Y-60640541D01*
X56183722Y-60642100D01*
X56177552Y-60637314D01*
X56036196Y-60553717D01*
X56036193Y-60553716D01*
X55878494Y-60507900D01*
X55878497Y-60507900D01*
X55876000Y-60507703D01*
X55876000Y-61492500D01*
X55376000Y-61492500D01*
X55376000Y-60507703D01*
X55373503Y-60507900D01*
X55215806Y-60553716D01*
X55215803Y-60553717D01*
X55074447Y-60637314D01*
X55068278Y-60642100D01*
X55066457Y-60639753D01*
X55017358Y-60666564D01*
X54947666Y-60661580D01*
X54914930Y-60640541D01*
X54913722Y-60642100D01*
X54907552Y-60637314D01*
X54766196Y-60553717D01*
X54766193Y-60553716D01*
X54608494Y-60507900D01*
X54608497Y-60507900D01*
X54606000Y-60507703D01*
X54606000Y-61492500D01*
X54354300Y-61492500D01*
X54354300Y-60993926D01*
X54356038Y-60978181D01*
X54355767Y-60978156D01*
X54356501Y-60970393D01*
X54354361Y-60902299D01*
X54354300Y-60898404D01*
X54354300Y-60870450D01*
X54354300Y-60870444D01*
X54353780Y-60866331D01*
X54352864Y-60854689D01*
X54352317Y-60837289D01*
X54351473Y-60810410D01*
X54345777Y-60790808D01*
X54341832Y-60771757D01*
X54339274Y-60751503D01*
X54322965Y-60710311D01*
X54319180Y-60699258D01*
X54317076Y-60692015D01*
X54306818Y-60656706D01*
X54296425Y-60639133D01*
X54287863Y-60621655D01*
X54286027Y-60617017D01*
X54280352Y-60602683D01*
X54280350Y-60602680D01*
X54280349Y-60602678D01*
X54254312Y-60566841D01*
X54247898Y-60557078D01*
X54241428Y-60546138D01*
X54225342Y-60518937D01*
X54210908Y-60504503D01*
X54198269Y-60489706D01*
X54186272Y-60473193D01*
X54170665Y-60460282D01*
X54152136Y-60444953D01*
X54143496Y-60437091D01*
X53984988Y-60278583D01*
X53975087Y-60266223D01*
X53974877Y-60266398D01*
X53969901Y-60260384D01*
X53969900Y-60260382D01*
X53920215Y-60213725D01*
X53917450Y-60211045D01*
X53897666Y-60191261D01*
X53894404Y-60188731D01*
X53885519Y-60181143D01*
X53853221Y-60150814D01*
X53853219Y-60150812D01*
X53835331Y-60140978D01*
X53819070Y-60130297D01*
X53802939Y-60117784D01*
X53762275Y-60100188D01*
X53751785Y-60095049D01*
X53712960Y-60073705D01*
X53712956Y-60073704D01*
X53693187Y-60068628D01*
X53674781Y-60062326D01*
X53656044Y-60054218D01*
X53656045Y-60054218D01*
X53612283Y-60047287D01*
X53600847Y-60044919D01*
X53586093Y-60041131D01*
X53557932Y-60033900D01*
X53557930Y-60033900D01*
X53537516Y-60033900D01*
X53518117Y-60032373D01*
X53497958Y-60029180D01*
X53497957Y-60029180D01*
X53453843Y-60033350D01*
X53442174Y-60033900D01*
X52832032Y-60033900D01*
X52816280Y-60032160D01*
X52816255Y-60032432D01*
X52808493Y-60031698D01*
X52808492Y-60031698D01*
X52785138Y-60032432D01*
X52740370Y-60033839D01*
X52736475Y-60033900D01*
X52708544Y-60033900D01*
X52708541Y-60033900D01*
X52708525Y-60033901D01*
X52704432Y-60034418D01*
X52692804Y-60035333D01*
X52648513Y-60036725D01*
X52648507Y-60036726D01*
X52628900Y-60042422D01*
X52609861Y-60046365D01*
X52589611Y-60048924D01*
X52589605Y-60048925D01*
X52589603Y-60048926D01*
X52587272Y-60049849D01*
X52548406Y-60065236D01*
X52537360Y-60069017D01*
X52494813Y-60081379D01*
X52494807Y-60081381D01*
X52477233Y-60091774D01*
X52459772Y-60100328D01*
X52440786Y-60107846D01*
X52440785Y-60107846D01*
X52404935Y-60133892D01*
X52395176Y-60140302D01*
X52357037Y-60162857D01*
X52342601Y-60177294D01*
X52327815Y-60189923D01*
X52325969Y-60191265D01*
X52311290Y-60201930D01*
X52283044Y-60236073D01*
X52275183Y-60244711D01*
X52061080Y-60458813D01*
X52048721Y-60468716D01*
X52048894Y-60468925D01*
X52042884Y-60473896D01*
X51996237Y-60523570D01*
X51993532Y-60526361D01*
X51973773Y-60546121D01*
X51973758Y-60546138D01*
X51971217Y-60549413D01*
X51963653Y-60558267D01*
X51933320Y-60590571D01*
X51933312Y-60590581D01*
X51923479Y-60608467D01*
X51912803Y-60624720D01*
X51900286Y-60640857D01*
X51900285Y-60640860D01*
X51882685Y-60681529D01*
X51877548Y-60692015D01*
X51856203Y-60730841D01*
X51856203Y-60730842D01*
X51851125Y-60750620D01*
X51844825Y-60769022D01*
X51836718Y-60787757D01*
X51829788Y-60831509D01*
X51827420Y-60842945D01*
X51816400Y-60885865D01*
X51816400Y-60906284D01*
X51814872Y-60925683D01*
X51811680Y-60945843D01*
X51814001Y-60970393D01*
X51815850Y-60989957D01*
X51816400Y-61001626D01*
X51816400Y-62455366D01*
X51814661Y-62471113D01*
X51814932Y-62471139D01*
X51814198Y-62478905D01*
X51816339Y-62547016D01*
X51816400Y-62550912D01*
X51816400Y-62567500D01*
X51796715Y-62634539D01*
X51743911Y-62680294D01*
X51692400Y-62691500D01*
X50679492Y-62691500D01*
X50642170Y-62694437D01*
X50642164Y-62694438D01*
X50482403Y-62740853D01*
X50482398Y-62740855D01*
X50339196Y-62825544D01*
X50339187Y-62825551D01*
X50221551Y-62943187D01*
X50221544Y-62943196D01*
X50136855Y-63086398D01*
X50136853Y-63086403D01*
X50090438Y-63246164D01*
X50090437Y-63246170D01*
X50087500Y-63283492D01*
X50087500Y-63716507D01*
X50090437Y-63753829D01*
X50090438Y-63753835D01*
X50136853Y-63913596D01*
X50136855Y-63913601D01*
X50221547Y-64056808D01*
X50223249Y-64059002D01*
X50224047Y-64061034D01*
X50225518Y-64063522D01*
X50225116Y-64063759D01*
X50248783Y-64124039D01*
X50235101Y-64192556D01*
X50223249Y-64210998D01*
X50221547Y-64213191D01*
X50136855Y-64356398D01*
X50136853Y-64356403D01*
X50090438Y-64516164D01*
X50090437Y-64516170D01*
X50087500Y-64553492D01*
X50087500Y-64986507D01*
X50090437Y-65023829D01*
X50090438Y-65023835D01*
X50136853Y-65183596D01*
X50136855Y-65183601D01*
X50221547Y-65326808D01*
X50223249Y-65329002D01*
X50224047Y-65331034D01*
X50225518Y-65333522D01*
X50225116Y-65333759D01*
X50248783Y-65394039D01*
X50235101Y-65462556D01*
X50223249Y-65480998D01*
X50221547Y-65483191D01*
X50136855Y-65626398D01*
X50136853Y-65626403D01*
X50090438Y-65786164D01*
X50090437Y-65786170D01*
X50087500Y-65823492D01*
X50087500Y-66256507D01*
X50090437Y-66293829D01*
X50090438Y-66293835D01*
X50136853Y-66453596D01*
X50136855Y-66453601D01*
X50221547Y-66596808D01*
X50223249Y-66599002D01*
X50224047Y-66601034D01*
X50225518Y-66603522D01*
X50225116Y-66603759D01*
X50248783Y-66664039D01*
X50235101Y-66732556D01*
X50223249Y-66750998D01*
X50221547Y-66753191D01*
X50136855Y-66896398D01*
X50136853Y-66896403D01*
X50090438Y-67056164D01*
X50090437Y-67056170D01*
X50087500Y-67093492D01*
X50087500Y-67526507D01*
X50090437Y-67563829D01*
X50090438Y-67563835D01*
X50136853Y-67723596D01*
X50136855Y-67723601D01*
X50221547Y-67866808D01*
X50223249Y-67869002D01*
X50224047Y-67871034D01*
X50225518Y-67873522D01*
X50225116Y-67873759D01*
X50248783Y-67934039D01*
X50235101Y-68002556D01*
X50223249Y-68020998D01*
X50221547Y-68023191D01*
X50136855Y-68166398D01*
X50136853Y-68166403D01*
X50090438Y-68326164D01*
X50090437Y-68326170D01*
X50087500Y-68363492D01*
X50087500Y-68612733D01*
X50067815Y-68679772D01*
X50051181Y-68700414D01*
X49869482Y-68882112D01*
X49857120Y-68892016D01*
X49857294Y-68892226D01*
X49851284Y-68897198D01*
X49804637Y-68946870D01*
X49801932Y-68949661D01*
X49782173Y-68969421D01*
X49782158Y-68969438D01*
X49779617Y-68972713D01*
X49772053Y-68981567D01*
X49741720Y-69013871D01*
X49741712Y-69013881D01*
X49731879Y-69031767D01*
X49721203Y-69048020D01*
X49708686Y-69064157D01*
X49708685Y-69064160D01*
X49691085Y-69104829D01*
X49685948Y-69115315D01*
X49664603Y-69154141D01*
X49664603Y-69154142D01*
X49659525Y-69173920D01*
X49653225Y-69192322D01*
X49645118Y-69211057D01*
X49638188Y-69254809D01*
X49635820Y-69266245D01*
X49624800Y-69309165D01*
X49624800Y-69329584D01*
X49623273Y-69348983D01*
X49620080Y-69369141D01*
X49620080Y-69369142D01*
X49624250Y-69413257D01*
X49624800Y-69424926D01*
X49624800Y-78622966D01*
X49623061Y-78638713D01*
X49623332Y-78638739D01*
X49622598Y-78646505D01*
X49622598Y-78646508D01*
X49622598Y-78646509D01*
X49624250Y-78699062D01*
X49624739Y-78714616D01*
X49624800Y-78718512D01*
X49624800Y-78746459D01*
X49625318Y-78750558D01*
X49626234Y-78762198D01*
X49627626Y-78806489D01*
X49627627Y-78806491D01*
X49633322Y-78826095D01*
X49637267Y-78845142D01*
X49639826Y-78865397D01*
X49639827Y-78865400D01*
X49639828Y-78865404D01*
X49656138Y-78906600D01*
X49659921Y-78917649D01*
X49672281Y-78960192D01*
X49682672Y-78977762D01*
X49691232Y-78995235D01*
X49698747Y-79014217D01*
X49724791Y-79050063D01*
X49731205Y-79059827D01*
X49747976Y-79088185D01*
X49753758Y-79097962D01*
X49753762Y-79097966D01*
X49768189Y-79112393D01*
X49780826Y-79127188D01*
X49792828Y-79143707D01*
X49814027Y-79161244D01*
X49826968Y-79171950D01*
X49835609Y-79179813D01*
X50209378Y-79553582D01*
X50242863Y-79614905D01*
X50245018Y-79628301D01*
X50252992Y-79704168D01*
X50262458Y-79794228D01*
X50262459Y-79794231D01*
X50321470Y-79975849D01*
X50321473Y-79975856D01*
X50416960Y-80141244D01*
X50544747Y-80283166D01*
X50630136Y-80345205D01*
X50656074Y-80364050D01*
X50698739Y-80419380D01*
X50704718Y-80488994D01*
X50672112Y-80550789D01*
X50611273Y-80585146D01*
X50608969Y-80585658D01*
X50430914Y-80623505D01*
X50256446Y-80701183D01*
X50101945Y-80813435D01*
X49974159Y-80955357D01*
X49878673Y-81120743D01*
X49878670Y-81120750D01*
X49819659Y-81302368D01*
X49819658Y-81302372D01*
X49805879Y-81433475D01*
X49799017Y-81498763D01*
X49798035Y-81498659D01*
X49789498Y-81539888D01*
X49770787Y-81583127D01*
X49765648Y-81593615D01*
X49749260Y-81623428D01*
X49744303Y-81632444D01*
X49739225Y-81652220D01*
X49732925Y-81670622D01*
X49724818Y-81689357D01*
X49717888Y-81733109D01*
X49715520Y-81744545D01*
X49704500Y-81787465D01*
X49704500Y-81807884D01*
X49702972Y-81827283D01*
X49699780Y-81847443D01*
X49701478Y-81865404D01*
X49703950Y-81891557D01*
X49704500Y-81903226D01*
X49704500Y-106317384D01*
X49684815Y-106384423D01*
X49632011Y-106430178D01*
X49562853Y-106440122D01*
X49537166Y-106433566D01*
X49447201Y-106400010D01*
X49386654Y-106393500D01*
X49386638Y-106393500D01*
X48289362Y-106393500D01*
X48289345Y-106393500D01*
X48228797Y-106400011D01*
X48228796Y-106400011D01*
X48131333Y-106436363D01*
X48061642Y-106441347D01*
X48044667Y-106436363D01*
X47947202Y-106400011D01*
X47886654Y-106393500D01*
X47886638Y-106393500D01*
X46789362Y-106393500D01*
X46789345Y-106393500D01*
X46728797Y-106400011D01*
X46728796Y-106400011D01*
X46631333Y-106436363D01*
X46561642Y-106441347D01*
X46544667Y-106436363D01*
X46447203Y-106400011D01*
X46432240Y-106398402D01*
X46367690Y-106371661D01*
X46327844Y-106314267D01*
X46321500Y-106275113D01*
X46321500Y-99797296D01*
X46341185Y-99730257D01*
X46353346Y-99714329D01*
X46459040Y-99596944D01*
X46554527Y-99431556D01*
X46613542Y-99249928D01*
X46633504Y-99060000D01*
X46613542Y-98870072D01*
X46554527Y-98688444D01*
X46459040Y-98523056D01*
X46331253Y-98381134D01*
X46176752Y-98268882D01*
X46002288Y-98191206D01*
X46002286Y-98191205D01*
X45815487Y-98151500D01*
X45624513Y-98151500D01*
X45437714Y-98191205D01*
X45263246Y-98268883D01*
X45108745Y-98381135D01*
X44980959Y-98523057D01*
X44885473Y-98688443D01*
X44885470Y-98688450D01*
X44826459Y-98870068D01*
X44826458Y-98870072D01*
X44806496Y-99060000D01*
X44826458Y-99249928D01*
X44826459Y-99249931D01*
X44885470Y-99431549D01*
X44885473Y-99431556D01*
X44980960Y-99596944D01*
X45022651Y-99643246D01*
X45052880Y-99706236D01*
X45054500Y-99726217D01*
X45054500Y-106275113D01*
X45034815Y-106342152D01*
X44982011Y-106387907D01*
X44943760Y-106398402D01*
X44928796Y-106400011D01*
X44928795Y-106400011D01*
X44791795Y-106451111D01*
X44761810Y-106473558D01*
X44696345Y-106497974D01*
X44628072Y-106483122D01*
X44578667Y-106433716D01*
X44563500Y-106374290D01*
X44563500Y-105347352D01*
X44565384Y-105325818D01*
X44567122Y-105315955D01*
X44567124Y-105315952D01*
X44565384Y-105306083D01*
X44564218Y-105292761D01*
X44562781Y-105284611D01*
X44559322Y-105271699D01*
X44557581Y-105261829D01*
X44557581Y-105261828D01*
X44557579Y-105261827D01*
X44554061Y-105255733D01*
X44549549Y-105250355D01*
X44540866Y-105245342D01*
X44523161Y-105232945D01*
X44515480Y-105226500D01*
X44508879Y-105224097D01*
X44501952Y-105222876D01*
X44501951Y-105222876D01*
X44498217Y-105223534D01*
X44492081Y-105224616D01*
X44470552Y-105226500D01*
X43896126Y-105226500D01*
X43879941Y-105225439D01*
X43869747Y-105224097D01*
X43794316Y-105214166D01*
X43763050Y-105205788D01*
X43690832Y-105175875D01*
X43662800Y-105159691D01*
X43600782Y-105112103D01*
X43577896Y-105089217D01*
X43530307Y-105027197D01*
X43514124Y-104999167D01*
X43484211Y-104926949D01*
X43475833Y-104895682D01*
X43464561Y-104810059D01*
X43463500Y-104793874D01*
X43463500Y-58035000D01*
X54644001Y-58035000D01*
X54644001Y-58309986D01*
X54654494Y-58412697D01*
X54709641Y-58579119D01*
X54709643Y-58579124D01*
X54801684Y-58728345D01*
X54925654Y-58852315D01*
X55074875Y-58944356D01*
X55074880Y-58944358D01*
X55241302Y-58999505D01*
X55241309Y-58999506D01*
X55344019Y-59009999D01*
X55481499Y-59009999D01*
X55481500Y-59009998D01*
X55481500Y-58035000D01*
X54644001Y-58035000D01*
X43463500Y-58035000D01*
X43463500Y-57535000D01*
X54644000Y-57535000D01*
X55481500Y-57535000D01*
X55481500Y-56560000D01*
X55344027Y-56560000D01*
X55344012Y-56560001D01*
X55241302Y-56570494D01*
X55074880Y-56625641D01*
X55074875Y-56625643D01*
X54925654Y-56717684D01*
X54801684Y-56841654D01*
X54709643Y-56990875D01*
X54709641Y-56990880D01*
X54654494Y-57157302D01*
X54654493Y-57157309D01*
X54644000Y-57260013D01*
X54644000Y-57535000D01*
X43463500Y-57535000D01*
X43463500Y-53410125D01*
X43464561Y-53393940D01*
X43475833Y-53308317D01*
X43484211Y-53277050D01*
X43490023Y-53263018D01*
X43514126Y-53204827D01*
X43530304Y-53176805D01*
X43577899Y-53114778D01*
X43600778Y-53091899D01*
X43662805Y-53044304D01*
X43690827Y-53028126D01*
X43763050Y-52998211D01*
X43794318Y-52989833D01*
X43879942Y-52978561D01*
X43896126Y-52977500D01*
X43912531Y-52977500D01*
X90263469Y-52977500D01*
X90279874Y-52977500D01*
X90296059Y-52978561D01*
G37*
%TD.AperFunction*%
%TA.AperFunction,Conductor*%
G36*
X52212708Y-79750430D02*
G01*
X52251135Y-79782774D01*
X52252312Y-79781715D01*
X52376060Y-79919152D01*
X52384447Y-79928466D01*
X52538948Y-80040718D01*
X52713412Y-80118394D01*
X52900213Y-80158100D01*
X53091187Y-80158100D01*
X53277983Y-80118395D01*
X53277982Y-80118395D01*
X53277988Y-80118394D01*
X53432308Y-80049686D01*
X53501554Y-80040403D01*
X53564831Y-80070031D01*
X53574890Y-80079995D01*
X53609465Y-80118395D01*
X53693447Y-80211666D01*
X53847948Y-80323918D01*
X54022412Y-80401594D01*
X54202460Y-80439864D01*
X54263941Y-80473056D01*
X54297717Y-80534219D01*
X54293065Y-80603934D01*
X54264359Y-80648835D01*
X52949179Y-81964014D01*
X52936820Y-81973918D01*
X52936993Y-81974127D01*
X52930982Y-81979100D01*
X52884338Y-82028769D01*
X52881633Y-82031560D01*
X52861873Y-82051321D01*
X52861858Y-82051338D01*
X52859317Y-82054613D01*
X52851753Y-82063467D01*
X52821420Y-82095771D01*
X52821412Y-82095781D01*
X52811579Y-82113667D01*
X52800903Y-82129920D01*
X52788386Y-82146057D01*
X52788385Y-82146060D01*
X52770785Y-82186729D01*
X52765648Y-82197215D01*
X52744303Y-82236041D01*
X52744303Y-82236042D01*
X52739225Y-82255820D01*
X52732925Y-82274222D01*
X52724818Y-82292957D01*
X52717888Y-82336709D01*
X52715520Y-82348145D01*
X52704500Y-82391065D01*
X52704500Y-82411484D01*
X52702973Y-82430883D01*
X52699780Y-82451041D01*
X52699780Y-82451042D01*
X52703950Y-82495157D01*
X52704500Y-82506826D01*
X52704500Y-106317384D01*
X52684815Y-106384423D01*
X52632011Y-106430178D01*
X52562853Y-106440122D01*
X52537166Y-106433566D01*
X52447201Y-106400010D01*
X52386654Y-106393500D01*
X52386638Y-106393500D01*
X51289362Y-106393500D01*
X51289345Y-106393500D01*
X51228798Y-106400010D01*
X51138834Y-106433566D01*
X51069142Y-106438550D01*
X51007819Y-106405065D01*
X50974334Y-106343742D01*
X50971500Y-106317384D01*
X50971500Y-82452300D01*
X50991185Y-82385261D01*
X51043989Y-82339506D01*
X51044909Y-82339090D01*
X51169952Y-82283418D01*
X51324453Y-82171166D01*
X51452240Y-82029244D01*
X51547727Y-81863856D01*
X51606742Y-81682228D01*
X51626704Y-81492300D01*
X51606742Y-81302372D01*
X51547727Y-81120744D01*
X51452240Y-80955356D01*
X51324453Y-80813434D01*
X51213125Y-80732549D01*
X51170460Y-80677218D01*
X51164481Y-80607605D01*
X51197087Y-80545810D01*
X51257926Y-80511453D01*
X51260167Y-80510954D01*
X51438288Y-80473094D01*
X51612752Y-80395418D01*
X51767253Y-80283166D01*
X51895040Y-80141244D01*
X51990527Y-79975856D01*
X52040067Y-79823388D01*
X52079503Y-79765715D01*
X52143862Y-79738516D01*
X52212708Y-79750430D01*
G37*
%TD.AperFunction*%
%TA.AperFunction,Conductor*%
G36*
X55176621Y-76583110D02*
G01*
X55215803Y-76606282D01*
X55215806Y-76606283D01*
X55373504Y-76652099D01*
X55373510Y-76652100D01*
X55410350Y-76654999D01*
X55410366Y-76655000D01*
X55503400Y-76655000D01*
X55570439Y-76674685D01*
X55616194Y-76727489D01*
X55627400Y-76779000D01*
X55627400Y-79234433D01*
X55607715Y-79301472D01*
X55591081Y-79322114D01*
X55417456Y-79495738D01*
X55356133Y-79529223D01*
X55286441Y-79524239D01*
X55230508Y-79482367D01*
X55206455Y-79421021D01*
X55198242Y-79342872D01*
X55149325Y-79192321D01*
X55139229Y-79161250D01*
X55139228Y-79161249D01*
X55139227Y-79161244D01*
X55077766Y-79054791D01*
X55043741Y-78995857D01*
X55043736Y-78995850D01*
X55021350Y-78970988D01*
X54991120Y-78907996D01*
X54989500Y-78888016D01*
X54989500Y-76689842D01*
X55009185Y-76622803D01*
X55061989Y-76577048D01*
X55131147Y-76567104D01*
X55176621Y-76583110D01*
G37*
%TD.AperFunction*%
%TA.AperFunction,Conductor*%
G36*
X78143150Y-69721209D02*
G01*
X78200371Y-69761302D01*
X78210872Y-69776691D01*
X78293060Y-69919044D01*
X78345045Y-69976779D01*
X78412009Y-70051151D01*
X78420847Y-70060966D01*
X78575348Y-70173218D01*
X78749812Y-70250894D01*
X78749813Y-70250894D01*
X78755037Y-70253220D01*
X78808275Y-70298471D01*
X78828596Y-70365320D01*
X78809551Y-70432543D01*
X78757185Y-70478799D01*
X78704602Y-70490500D01*
X77767769Y-70490500D01*
X77700730Y-70470815D01*
X77654975Y-70418011D01*
X77647993Y-70398590D01*
X77647481Y-70396681D01*
X77647481Y-70396676D01*
X77647478Y-70396670D01*
X77645376Y-70388822D01*
X77647519Y-70388247D01*
X77640781Y-70337089D01*
X77649691Y-70269413D01*
X77625484Y-70217231D01*
X77635016Y-70148015D01*
X77675236Y-70098531D01*
X77687707Y-70089472D01*
X77715959Y-70055319D01*
X77723803Y-70046699D01*
X77891515Y-69878987D01*
X77903880Y-69869083D01*
X77903706Y-69868873D01*
X77909709Y-69863905D01*
X77909718Y-69863900D01*
X77956377Y-69814211D01*
X77959056Y-69811446D01*
X77978834Y-69791670D01*
X77981360Y-69788412D01*
X77988943Y-69779532D01*
X78013098Y-69753809D01*
X78073336Y-69718417D01*
X78143150Y-69721209D01*
G37*
%TD.AperFunction*%
%TA.AperFunction,Conductor*%
G36*
X79862483Y-65381978D02*
G01*
X79934248Y-65434118D01*
X80108712Y-65511794D01*
X80295513Y-65551500D01*
X80486487Y-65551500D01*
X80663798Y-65513811D01*
X80733465Y-65519127D01*
X80789199Y-65561264D01*
X80795110Y-65569992D01*
X80808052Y-65590974D01*
X80808471Y-65591653D01*
X80933847Y-65717029D01*
X80933851Y-65717032D01*
X81052597Y-65790276D01*
X81099322Y-65842224D01*
X81111500Y-65895814D01*
X81111500Y-70366500D01*
X81091815Y-70433539D01*
X81039011Y-70479294D01*
X80987500Y-70490500D01*
X79359598Y-70490500D01*
X79292559Y-70470815D01*
X79246804Y-70418011D01*
X79236860Y-70348853D01*
X79265885Y-70285297D01*
X79309163Y-70253220D01*
X79314386Y-70250894D01*
X79314388Y-70250894D01*
X79488852Y-70173218D01*
X79643353Y-70060966D01*
X79771140Y-69919044D01*
X79866627Y-69753656D01*
X79925642Y-69572028D01*
X79945604Y-69382100D01*
X79925642Y-69192172D01*
X79866627Y-69010544D01*
X79792477Y-68882112D01*
X79771141Y-68845157D01*
X79771136Y-68845150D01*
X79697450Y-68763313D01*
X79667220Y-68700321D01*
X79665600Y-68680341D01*
X79665600Y-65482297D01*
X79685285Y-65415258D01*
X79738089Y-65369503D01*
X79807247Y-65359559D01*
X79862483Y-65381978D01*
G37*
%TD.AperFunction*%
%TD*%
M02*
