%TF.GenerationSoftware,KiCad,Pcbnew,7.0.10*%
%TF.CreationDate,2024-03-10T15:03:06+01:00*%
%TF.ProjectId,dmg-gbc-cartridge-reader,646d672d-6762-4632-9d63-617274726964,rev?*%
%TF.SameCoordinates,Original*%
%TF.FileFunction,Paste,Top*%
%TF.FilePolarity,Positive*%
%FSLAX46Y46*%
G04 Gerber Fmt 4.6, Leading zero omitted, Abs format (unit mm)*
G04 Created by KiCad (PCBNEW 7.0.10) date 2024-03-10 15:03:06*
%MOMM*%
%LPD*%
G01*
G04 APERTURE LIST*
G04 Aperture macros list*
%AMRoundRect*
0 Rectangle with rounded corners*
0 $1 Rounding radius*
0 $2 $3 $4 $5 $6 $7 $8 $9 X,Y pos of 4 corners*
0 Add a 4 corners polygon primitive as box body*
4,1,4,$2,$3,$4,$5,$6,$7,$8,$9,$2,$3,0*
0 Add four circle primitives for the rounded corners*
1,1,$1+$1,$2,$3*
1,1,$1+$1,$4,$5*
1,1,$1+$1,$6,$7*
1,1,$1+$1,$8,$9*
0 Add four rect primitives between the rounded corners*
20,1,$1+$1,$2,$3,$4,$5,0*
20,1,$1+$1,$4,$5,$6,$7,0*
20,1,$1+$1,$6,$7,$8,$9,0*
20,1,$1+$1,$8,$9,$2,$3,0*%
G04 Aperture macros list end*
%ADD10RoundRect,0.250000X0.475000X-0.337500X0.475000X0.337500X-0.475000X0.337500X-0.475000X-0.337500X0*%
%ADD11RoundRect,0.250000X0.450000X-0.350000X0.450000X0.350000X-0.450000X0.350000X-0.450000X-0.350000X0*%
%ADD12RoundRect,0.250000X0.337500X0.475000X-0.337500X0.475000X-0.337500X-0.475000X0.337500X-0.475000X0*%
%ADD13RoundRect,0.250000X-0.337500X-0.475000X0.337500X-0.475000X0.337500X0.475000X-0.337500X0.475000X0*%
%ADD14RoundRect,0.250000X-0.475000X0.337500X-0.475000X-0.337500X0.475000X-0.337500X0.475000X0.337500X0*%
%ADD15RoundRect,0.250000X-0.350000X-0.450000X0.350000X-0.450000X0.350000X0.450000X-0.350000X0.450000X0*%
%ADD16RoundRect,0.250000X-0.450000X0.350000X-0.450000X-0.350000X0.450000X-0.350000X0.450000X0.350000X0*%
%ADD17RoundRect,0.150000X-0.825000X-0.150000X0.825000X-0.150000X0.825000X0.150000X-0.825000X0.150000X0*%
%ADD18RoundRect,0.250000X-0.650000X0.412500X-0.650000X-0.412500X0.650000X-0.412500X0.650000X0.412500X0*%
%ADD19R,0.750000X3.000000*%
%ADD20RoundRect,0.250000X0.450000X-0.325000X0.450000X0.325000X-0.450000X0.325000X-0.450000X-0.325000X0*%
%ADD21RoundRect,0.250000X0.625000X-0.400000X0.625000X0.400000X-0.625000X0.400000X-0.625000X-0.400000X0*%
%ADD22R,0.500000X2.500000*%
%ADD23R,2.000000X2.500000*%
%ADD24RoundRect,0.150000X-0.875000X-0.150000X0.875000X-0.150000X0.875000X0.150000X-0.875000X0.150000X0*%
%ADD25R,1.500000X0.550000*%
%ADD26R,0.550000X1.500000*%
G04 APERTURE END LIST*
D10*
%TO.C,C4*%
X78867000Y-54996900D03*
X78867000Y-52921900D03*
%TD*%
%TO.C,C3*%
X64262000Y-57452900D03*
X64262000Y-55377900D03*
%TD*%
D11*
%TO.C,R7*%
X53975000Y-60801000D03*
X53975000Y-58801000D03*
%TD*%
%TO.C,R8*%
X57023000Y-60801000D03*
X57023000Y-58801000D03*
%TD*%
%TO.C,R10*%
X48006000Y-60880000D03*
X48006000Y-58880000D03*
%TD*%
D12*
%TO.C,C11*%
X86487000Y-75946000D03*
X84412000Y-75946000D03*
%TD*%
D13*
%TO.C,C1*%
X57785000Y-63754000D03*
X59860000Y-63754000D03*
%TD*%
%TO.C,C10*%
X94572000Y-63627000D03*
X96647000Y-63627000D03*
%TD*%
%TO.C,C5*%
X76752500Y-77089000D03*
X78827500Y-77089000D03*
%TD*%
D14*
%TO.C,C7*%
X66167000Y-63290500D03*
X66167000Y-65365500D03*
%TD*%
D12*
%TO.C,C8*%
X72263000Y-77089000D03*
X70188000Y-77089000D03*
%TD*%
D14*
%TO.C,C9*%
X84328000Y-64897000D03*
X84328000Y-66972000D03*
%TD*%
D15*
%TO.C,R2*%
X70612000Y-52329900D03*
X72612000Y-52329900D03*
%TD*%
%TO.C,R4*%
X83773000Y-69215000D03*
X85773000Y-69215000D03*
%TD*%
%TO.C,R5*%
X83773000Y-71501000D03*
X85773000Y-71501000D03*
%TD*%
D11*
%TO.C,R6*%
X51054000Y-60880000D03*
X51054000Y-58880000D03*
%TD*%
D16*
%TO.C,R3*%
X105029000Y-66167000D03*
X105029000Y-68167000D03*
%TD*%
D13*
%TO.C,C2*%
X44051500Y-64135000D03*
X46126500Y-64135000D03*
%TD*%
D17*
%TO.C,U4*%
X42548000Y-66167000D03*
X42548000Y-67437000D03*
X42548000Y-68707000D03*
X42548000Y-69977000D03*
X42548000Y-71247000D03*
X42548000Y-72517000D03*
X42548000Y-73787000D03*
X47498000Y-73787000D03*
X47498000Y-72517000D03*
X47498000Y-71247000D03*
X47498000Y-69977000D03*
X47498000Y-68707000D03*
X47498000Y-67437000D03*
X47498000Y-66167000D03*
%TD*%
D14*
%TO.C,C6*%
X78867000Y-56853000D03*
X78867000Y-58928000D03*
%TD*%
D18*
%TO.C,C12*%
X105029000Y-70281000D03*
X105029000Y-73406000D03*
%TD*%
D11*
%TO.C,R9*%
X60325000Y-60801000D03*
X60325000Y-58801000D03*
%TD*%
%TO.C,R1*%
X50038000Y-69691000D03*
X50038000Y-67691000D03*
%TD*%
D19*
%TO.C,U1*%
X97384000Y-81276000D03*
X95884000Y-81276000D03*
X94384000Y-81276000D03*
X92884000Y-81276000D03*
X91384000Y-81276000D03*
X89884000Y-81276000D03*
X88384000Y-81276000D03*
X86884000Y-81276000D03*
X85384000Y-81276000D03*
X83884000Y-81276000D03*
X82384000Y-81276000D03*
X80884000Y-81276000D03*
X79384000Y-81276000D03*
X77884000Y-81276000D03*
X76384000Y-81276000D03*
X74884000Y-81276000D03*
X73384000Y-81276000D03*
X71884000Y-81276000D03*
X70384000Y-81276000D03*
X68884000Y-81276000D03*
X67384000Y-81276000D03*
X65884000Y-81276000D03*
X64384000Y-81276000D03*
X62884000Y-81276000D03*
X61384000Y-81276000D03*
X59884000Y-81276000D03*
X58384000Y-81276000D03*
X56884000Y-81276000D03*
X55384000Y-81276000D03*
X53884000Y-81276000D03*
X52384000Y-81276000D03*
X50884000Y-81276000D03*
%TD*%
D20*
%TO.C,D4*%
X60325000Y-55660500D03*
X60325000Y-53610500D03*
%TD*%
%TO.C,D1*%
X51054000Y-55609500D03*
X51054000Y-53559500D03*
%TD*%
%TO.C,D2*%
X53975000Y-55609500D03*
X53975000Y-53559500D03*
%TD*%
%TO.C,D5*%
X48006000Y-55661000D03*
X48006000Y-53611000D03*
%TD*%
%TO.C,D3*%
X57023000Y-55609500D03*
X57023000Y-53559500D03*
%TD*%
D21*
%TO.C,F1*%
X105029000Y-64135000D03*
X105029000Y-61035000D03*
%TD*%
D22*
%TO.C,J1*%
X98374000Y-59222400D03*
X97574000Y-59222400D03*
X96774000Y-59222400D03*
X95974000Y-59222400D03*
X95174000Y-59222400D03*
D23*
X101174000Y-59222400D03*
X92374000Y-59222400D03*
X92374000Y-53722400D03*
X101174000Y-53722400D03*
%TD*%
D24*
%TO.C,U5*%
X91108000Y-65786000D03*
X91108000Y-67056000D03*
X91108000Y-68326000D03*
X91108000Y-69596000D03*
X91108000Y-70866000D03*
X91108000Y-72136000D03*
X91108000Y-73406000D03*
X91108000Y-74676000D03*
X91108000Y-75946000D03*
X91108000Y-77216000D03*
X100408000Y-77216000D03*
X100408000Y-75946000D03*
X100408000Y-74676000D03*
X100408000Y-73406000D03*
X100408000Y-72136000D03*
X100408000Y-70866000D03*
X100408000Y-69596000D03*
X100408000Y-68326000D03*
X100408000Y-67056000D03*
X100408000Y-65786000D03*
%TD*%
%TO.C,U6*%
X53975000Y-65786000D03*
X53975000Y-67056000D03*
X53975000Y-68326000D03*
X53975000Y-69596000D03*
X53975000Y-70866000D03*
X53975000Y-72136000D03*
X53975000Y-73406000D03*
X53975000Y-74676000D03*
X53975000Y-75946000D03*
X53975000Y-77216000D03*
X63275000Y-77216000D03*
X63275000Y-75946000D03*
X63275000Y-74676000D03*
X63275000Y-73406000D03*
X63275000Y-72136000D03*
X63275000Y-70866000D03*
X63275000Y-69596000D03*
X63275000Y-68326000D03*
X63275000Y-67056000D03*
X63275000Y-65786000D03*
%TD*%
D25*
%TO.C,U2*%
X80488000Y-72008000D03*
X80488000Y-71208000D03*
X80488000Y-70408000D03*
X80488000Y-69608000D03*
X80488000Y-68808000D03*
X80488000Y-68008000D03*
X80488000Y-67208000D03*
X80488000Y-66408000D03*
X80488000Y-65608000D03*
X80488000Y-64808000D03*
X80488000Y-64008000D03*
D26*
X78788000Y-62308000D03*
X77988000Y-62308000D03*
X77188000Y-62308000D03*
X76388000Y-62308000D03*
X75588000Y-62308000D03*
X74788000Y-62308000D03*
X73988000Y-62308000D03*
X73188000Y-62308000D03*
X72388000Y-62308000D03*
X71588000Y-62308000D03*
X70788000Y-62308000D03*
D25*
X69088000Y-64008000D03*
X69088000Y-64808000D03*
X69088000Y-65608000D03*
X69088000Y-66408000D03*
X69088000Y-67208000D03*
X69088000Y-68008000D03*
X69088000Y-68808000D03*
X69088000Y-69608000D03*
X69088000Y-70408000D03*
X69088000Y-71208000D03*
X69088000Y-72008000D03*
D26*
X70788000Y-73708000D03*
X71588000Y-73708000D03*
X72388000Y-73708000D03*
X73188000Y-73708000D03*
X73988000Y-73708000D03*
X74788000Y-73708000D03*
X75588000Y-73708000D03*
X76388000Y-73708000D03*
X77188000Y-73708000D03*
X77988000Y-73708000D03*
X78788000Y-73708000D03*
%TD*%
D12*
%TO.C,C13*%
X86360000Y-61341000D03*
X84285000Y-61341000D03*
%TD*%
M02*
