M48
; DRILL file {KiCad 7.0.10} date Sun Mar 10 15:03:08 2024
; FORMAT={-:-/ absolute / inch / decimal}
; #@! TF.CreationDate,2024-03-10T15:03:08+01:00
; #@! TF.GenerationSoftware,Kicad,Pcbnew,7.0.10
; #@! TF.FileFunction,Plated,1,4,PTH
FMAT,2
INCH
; #@! TA.AperFunction,Plated,PTH,ViaDrill
T1C0.0157
; #@! TA.AperFunction,Plated,PTH,ComponentDrill
T2C0.0315
; #@! TA.AperFunction,Plated,PTH,ComponentDrill
T3C0.0394
; #@! TA.AperFunction,Plated,PTH,ComponentDrill
T4C0.0433
%
G90
G05
T1
X1.6182Y-2.6804
X1.6418Y-2.9405
X1.685Y-2.525
X1.82Y-2.46
X1.9355Y-2.7889
X1.9427Y-2.1138
X1.9489Y-2.8697
X2.0122Y-3.2835
X2.0596Y-2.6329
X2.0604Y-2.8042
X2.0855Y-2.1482
X2.1891Y-2.59
X2.1892Y-2.8214
X2.1934Y-2.1155
X2.1994Y-2.9946
X2.22Y-2.51
X2.2292Y-3.3016
X2.234Y-2.6023
X2.2353Y-2.8831
X2.2459Y-2.74
X2.3596Y-3.3011
X2.3977Y-3.2835
X2.4017Y-2.8417
X2.4082Y-2.9524
X2.41Y-2.51
X2.4324Y-2.9144
X2.435Y-2.395
X2.4465Y-3.3155
X2.5039Y-3.4357
X2.5053Y-3.2787
X2.5173Y-3.3485
X2.53Y-2.315
X2.5558Y-3.0052
X2.5723Y-2.7048
X2.5815Y-3.2829
X2.6144Y-2.6877
X2.6225Y-3.2794
X2.6291Y-2.7632
X2.6573Y-2.497
X2.6662Y-2.9019
X2.71Y-3.035
X2.7242Y-2.3601
X2.7518Y-3.6302
X2.7576Y-2.9483
X2.7767Y-2.5585
X2.7779Y-2.7644
X2.7951Y-2.3202
X2.8035Y-2.6543
X2.806Y-2.5132
X2.8555Y-2.6464
X2.8689Y-3.3286
X2.9Y-3.035
X2.9072Y-2.9551
X2.9756Y-3.306
X3.0389Y-2.3923
X3.0494Y-2.7944
X3.051Y-2.289
X3.1129Y-2.9552
X3.1154Y-2.583
X3.1155Y-2.8153
X3.155Y-3.035
X3.1575Y-3.106
X3.2028Y-3.0687
X3.2205Y-2.4963
X3.2517Y-3.1123
X3.2649Y-2.4251
X3.27Y-2.99
X3.2939Y-3.1169
X3.298Y-3.3228
X3.351Y-3.1111
X3.385Y-2.665
X3.4Y-2.47
X3.4126Y-2.864
X3.4144Y-3.3052
X3.4247Y-2.8158
X3.455Y-2.99
X3.4693Y-3.1117
X3.4726Y-3.2875
X3.4973Y-2.89
X3.5214Y-2.8508
X3.5219Y-2.9476
X3.5228Y-2.74
X3.5306Y-3.2836
X3.57Y-3.28
X3.6004Y-2.5517
X3.6047Y-3.3359
X3.6409Y-2.5517
X3.67Y-2.505
X3.6818Y-3.3654
X3.7462Y-3.3374
X3.86Y-2.505
X3.9309Y-3.0757
X3.9943Y-3.1185
X4.012Y-2.8133
X4.0182Y-2.8549
X4.0573Y-2.6837
X4.135Y-2.95
X4.205Y-2.525
T2
X2.7229Y-2.2202
X2.915Y-2.2202
T3
X2.825Y-3.555
X2.825Y-3.655
X2.925Y-3.555
X2.925Y-3.655
X3.025Y-3.555
X3.025Y-3.655
T4
X3.262Y-2.1214
X3.262Y-2.2986
X3.518Y-2.1214
X3.518Y-2.2986
M30
