%TF.GenerationSoftware,KiCad,Pcbnew,7.0.10*%
%TF.CreationDate,2024-03-10T15:03:06+01:00*%
%TF.ProjectId,dmg-gbc-cartridge-reader,646d672d-6762-4632-9d63-617274726964,rev?*%
%TF.SameCoordinates,Original*%
%TF.FileFunction,Legend,Top*%
%TF.FilePolarity,Positive*%
%FSLAX46Y46*%
G04 Gerber Fmt 4.6, Leading zero omitted, Abs format (unit mm)*
G04 Created by KiCad (PCBNEW 7.0.10) date 2024-03-10 15:03:06*
%MOMM*%
%LPD*%
G01*
G04 APERTURE LIST*
%ADD10C,0.314000*%
%ADD11C,0.150000*%
%ADD12C,0.100000*%
%ADD13C,0.120000*%
%ADD14C,0.254000*%
%ADD15C,0.200000*%
G04 APERTURE END LIST*
D10*
X41178000Y-66167000D02*
G75*
G03*
X40864000Y-66167000I-157000J0D01*
G01*
X40864000Y-66167000D02*
G75*
G03*
X41178000Y-66167000I157000J0D01*
G01*
X89819000Y-65786000D02*
G75*
G03*
X89505000Y-65786000I-157000J0D01*
G01*
X89505000Y-65786000D02*
G75*
G03*
X89819000Y-65786000I157000J0D01*
G01*
X52481000Y-65786000D02*
G75*
G03*
X52167000Y-65786000I-157000J0D01*
G01*
X52167000Y-65786000D02*
G75*
G03*
X52481000Y-65786000I157000J0D01*
G01*
X97566000Y-79248000D02*
G75*
G03*
X97252000Y-79248000I-157000J0D01*
G01*
X97252000Y-79248000D02*
G75*
G03*
X97566000Y-79248000I157000J0D01*
G01*
X81183000Y-73152000D02*
G75*
G03*
X80869000Y-73152000I-157000J0D01*
G01*
X80869000Y-73152000D02*
G75*
G03*
X81183000Y-73152000I157000J0D01*
G01*
D11*
X56475380Y-52524819D02*
X56142047Y-52048628D01*
X55903952Y-52524819D02*
X55903952Y-51524819D01*
X55903952Y-51524819D02*
X56284904Y-51524819D01*
X56284904Y-51524819D02*
X56380142Y-51572438D01*
X56380142Y-51572438D02*
X56427761Y-51620057D01*
X56427761Y-51620057D02*
X56475380Y-51715295D01*
X56475380Y-51715295D02*
X56475380Y-51858152D01*
X56475380Y-51858152D02*
X56427761Y-51953390D01*
X56427761Y-51953390D02*
X56380142Y-52001009D01*
X56380142Y-52001009D02*
X56284904Y-52048628D01*
X56284904Y-52048628D02*
X55903952Y-52048628D01*
X56856333Y-52477200D02*
X56999190Y-52524819D01*
X56999190Y-52524819D02*
X57237285Y-52524819D01*
X57237285Y-52524819D02*
X57332523Y-52477200D01*
X57332523Y-52477200D02*
X57380142Y-52429580D01*
X57380142Y-52429580D02*
X57427761Y-52334342D01*
X57427761Y-52334342D02*
X57427761Y-52239104D01*
X57427761Y-52239104D02*
X57380142Y-52143866D01*
X57380142Y-52143866D02*
X57332523Y-52096247D01*
X57332523Y-52096247D02*
X57237285Y-52048628D01*
X57237285Y-52048628D02*
X57046809Y-52001009D01*
X57046809Y-52001009D02*
X56951571Y-51953390D01*
X56951571Y-51953390D02*
X56903952Y-51905771D01*
X56903952Y-51905771D02*
X56856333Y-51810533D01*
X56856333Y-51810533D02*
X56856333Y-51715295D01*
X56856333Y-51715295D02*
X56903952Y-51620057D01*
X56903952Y-51620057D02*
X56951571Y-51572438D01*
X56951571Y-51572438D02*
X57046809Y-51524819D01*
X57046809Y-51524819D02*
X57284904Y-51524819D01*
X57284904Y-51524819D02*
X57427761Y-51572438D01*
X57713476Y-51524819D02*
X58284904Y-51524819D01*
X57999190Y-52524819D02*
X57999190Y-51524819D01*
X59634523Y-52524819D02*
X59301190Y-52048628D01*
X59063095Y-52524819D02*
X59063095Y-51524819D01*
X59063095Y-51524819D02*
X59444047Y-51524819D01*
X59444047Y-51524819D02*
X59539285Y-51572438D01*
X59539285Y-51572438D02*
X59586904Y-51620057D01*
X59586904Y-51620057D02*
X59634523Y-51715295D01*
X59634523Y-51715295D02*
X59634523Y-51858152D01*
X59634523Y-51858152D02*
X59586904Y-51953390D01*
X59586904Y-51953390D02*
X59539285Y-52001009D01*
X59539285Y-52001009D02*
X59444047Y-52048628D01*
X59444047Y-52048628D02*
X59063095Y-52048628D01*
X60015476Y-52239104D02*
X60491666Y-52239104D01*
X59920238Y-52524819D02*
X60253571Y-51524819D01*
X60253571Y-51524819D02*
X60586904Y-52524819D01*
X60920238Y-52524819D02*
X60920238Y-51524819D01*
X60920238Y-51524819D02*
X61253571Y-52239104D01*
X61253571Y-52239104D02*
X61586904Y-51524819D01*
X61586904Y-51524819D02*
X61586904Y-52524819D01*
X49273033Y-81846667D02*
X49273033Y-81413333D01*
X49273033Y-81413333D02*
X49539700Y-81646667D01*
X49539700Y-81646667D02*
X49539700Y-81546667D01*
X49539700Y-81546667D02*
X49573033Y-81480000D01*
X49573033Y-81480000D02*
X49606366Y-81446667D01*
X49606366Y-81446667D02*
X49673033Y-81413333D01*
X49673033Y-81413333D02*
X49839700Y-81413333D01*
X49839700Y-81413333D02*
X49906366Y-81446667D01*
X49906366Y-81446667D02*
X49939700Y-81480000D01*
X49939700Y-81480000D02*
X49973033Y-81546667D01*
X49973033Y-81546667D02*
X49973033Y-81746667D01*
X49973033Y-81746667D02*
X49939700Y-81813333D01*
X49939700Y-81813333D02*
X49906366Y-81846667D01*
X49339700Y-81146666D02*
X49306366Y-81113333D01*
X49306366Y-81113333D02*
X49273033Y-81046666D01*
X49273033Y-81046666D02*
X49273033Y-80880000D01*
X49273033Y-80880000D02*
X49306366Y-80813333D01*
X49306366Y-80813333D02*
X49339700Y-80780000D01*
X49339700Y-80780000D02*
X49406366Y-80746666D01*
X49406366Y-80746666D02*
X49473033Y-80746666D01*
X49473033Y-80746666D02*
X49573033Y-80780000D01*
X49573033Y-80780000D02*
X49973033Y-81180000D01*
X49973033Y-81180000D02*
X49973033Y-80746666D01*
D12*
X106701544Y-93562866D02*
X106701544Y-94029533D01*
X106701544Y-93896200D02*
X106668211Y-93962866D01*
X106668211Y-93962866D02*
X106634877Y-93996200D01*
X106634877Y-93996200D02*
X106568211Y-94029533D01*
X106568211Y-94029533D02*
X106501544Y-94029533D01*
X106001544Y-93596200D02*
X106068211Y-93562866D01*
X106068211Y-93562866D02*
X106201544Y-93562866D01*
X106201544Y-93562866D02*
X106268211Y-93596200D01*
X106268211Y-93596200D02*
X106301544Y-93662866D01*
X106301544Y-93662866D02*
X106301544Y-93929533D01*
X106301544Y-93929533D02*
X106268211Y-93996200D01*
X106268211Y-93996200D02*
X106201544Y-94029533D01*
X106201544Y-94029533D02*
X106068211Y-94029533D01*
X106068211Y-94029533D02*
X106001544Y-93996200D01*
X106001544Y-93996200D02*
X105968211Y-93929533D01*
X105968211Y-93929533D02*
X105968211Y-93862866D01*
X105968211Y-93862866D02*
X106301544Y-93796200D01*
X105734878Y-94029533D02*
X105568211Y-93562866D01*
X105568211Y-93562866D02*
X105401544Y-94029533D01*
X105168211Y-94196200D02*
X105134878Y-94229533D01*
X105134878Y-94229533D02*
X105068211Y-94262866D01*
X105068211Y-94262866D02*
X104901545Y-94262866D01*
X104901545Y-94262866D02*
X104834878Y-94229533D01*
X104834878Y-94229533D02*
X104801545Y-94196200D01*
X104801545Y-94196200D02*
X104768211Y-94129533D01*
X104768211Y-94129533D02*
X104768211Y-94062866D01*
X104768211Y-94062866D02*
X104801545Y-93962866D01*
X104801545Y-93962866D02*
X105201545Y-93562866D01*
X105201545Y-93562866D02*
X104768211Y-93562866D01*
D11*
X50863523Y-52524819D02*
X50530190Y-52048628D01*
X50292095Y-52524819D02*
X50292095Y-51524819D01*
X50292095Y-51524819D02*
X50673047Y-51524819D01*
X50673047Y-51524819D02*
X50768285Y-51572438D01*
X50768285Y-51572438D02*
X50815904Y-51620057D01*
X50815904Y-51620057D02*
X50863523Y-51715295D01*
X50863523Y-51715295D02*
X50863523Y-51858152D01*
X50863523Y-51858152D02*
X50815904Y-51953390D01*
X50815904Y-51953390D02*
X50768285Y-52001009D01*
X50768285Y-52001009D02*
X50673047Y-52048628D01*
X50673047Y-52048628D02*
X50292095Y-52048628D01*
X51292095Y-52524819D02*
X51292095Y-51524819D01*
X51292095Y-51524819D02*
X51530190Y-51524819D01*
X51530190Y-51524819D02*
X51673047Y-51572438D01*
X51673047Y-51572438D02*
X51768285Y-51667676D01*
X51768285Y-51667676D02*
X51815904Y-51762914D01*
X51815904Y-51762914D02*
X51863523Y-51953390D01*
X51863523Y-51953390D02*
X51863523Y-52096247D01*
X51863523Y-52096247D02*
X51815904Y-52286723D01*
X51815904Y-52286723D02*
X51768285Y-52381961D01*
X51768285Y-52381961D02*
X51673047Y-52477200D01*
X51673047Y-52477200D02*
X51530190Y-52524819D01*
X51530190Y-52524819D02*
X51292095Y-52524819D01*
X47386952Y-51524819D02*
X47577428Y-51524819D01*
X47577428Y-51524819D02*
X47672666Y-51572438D01*
X47672666Y-51572438D02*
X47767904Y-51667676D01*
X47767904Y-51667676D02*
X47815523Y-51858152D01*
X47815523Y-51858152D02*
X47815523Y-52191485D01*
X47815523Y-52191485D02*
X47767904Y-52381961D01*
X47767904Y-52381961D02*
X47672666Y-52477200D01*
X47672666Y-52477200D02*
X47577428Y-52524819D01*
X47577428Y-52524819D02*
X47386952Y-52524819D01*
X47386952Y-52524819D02*
X47291714Y-52477200D01*
X47291714Y-52477200D02*
X47196476Y-52381961D01*
X47196476Y-52381961D02*
X47148857Y-52191485D01*
X47148857Y-52191485D02*
X47148857Y-51858152D01*
X47148857Y-51858152D02*
X47196476Y-51667676D01*
X47196476Y-51667676D02*
X47291714Y-51572438D01*
X47291714Y-51572438D02*
X47386952Y-51524819D01*
X48244095Y-52524819D02*
X48244095Y-51524819D01*
X48244095Y-51524819D02*
X48815523Y-52524819D01*
X48815523Y-52524819D02*
X48815523Y-51524819D01*
D12*
X89853237Y-83785419D02*
X89853237Y-84499704D01*
X89853237Y-84499704D02*
X89805618Y-84642561D01*
X89805618Y-84642561D02*
X89710380Y-84737800D01*
X89710380Y-84737800D02*
X89567523Y-84785419D01*
X89567523Y-84785419D02*
X89472285Y-84785419D01*
X90805618Y-84785419D02*
X90329428Y-84785419D01*
X90329428Y-84785419D02*
X90329428Y-83785419D01*
X91710380Y-84690180D02*
X91662761Y-84737800D01*
X91662761Y-84737800D02*
X91519904Y-84785419D01*
X91519904Y-84785419D02*
X91424666Y-84785419D01*
X91424666Y-84785419D02*
X91281809Y-84737800D01*
X91281809Y-84737800D02*
X91186571Y-84642561D01*
X91186571Y-84642561D02*
X91138952Y-84547323D01*
X91138952Y-84547323D02*
X91091333Y-84356847D01*
X91091333Y-84356847D02*
X91091333Y-84213990D01*
X91091333Y-84213990D02*
X91138952Y-84023514D01*
X91138952Y-84023514D02*
X91186571Y-83928276D01*
X91186571Y-83928276D02*
X91281809Y-83833038D01*
X91281809Y-83833038D02*
X91424666Y-83785419D01*
X91424666Y-83785419D02*
X91519904Y-83785419D01*
X91519904Y-83785419D02*
X91662761Y-83833038D01*
X91662761Y-83833038D02*
X91710380Y-83880657D01*
X92424666Y-83785419D02*
X92424666Y-84499704D01*
X92424666Y-84499704D02*
X92377047Y-84642561D01*
X92377047Y-84642561D02*
X92281809Y-84737800D01*
X92281809Y-84737800D02*
X92138952Y-84785419D01*
X92138952Y-84785419D02*
X92043714Y-84785419D01*
X93377047Y-84785419D02*
X92900857Y-84785419D01*
X92900857Y-84785419D02*
X92900857Y-83785419D01*
X94281809Y-84690180D02*
X94234190Y-84737800D01*
X94234190Y-84737800D02*
X94091333Y-84785419D01*
X94091333Y-84785419D02*
X93996095Y-84785419D01*
X93996095Y-84785419D02*
X93853238Y-84737800D01*
X93853238Y-84737800D02*
X93758000Y-84642561D01*
X93758000Y-84642561D02*
X93710381Y-84547323D01*
X93710381Y-84547323D02*
X93662762Y-84356847D01*
X93662762Y-84356847D02*
X93662762Y-84213990D01*
X93662762Y-84213990D02*
X93710381Y-84023514D01*
X93710381Y-84023514D02*
X93758000Y-83928276D01*
X93758000Y-83928276D02*
X93853238Y-83833038D01*
X93853238Y-83833038D02*
X93996095Y-83785419D01*
X93996095Y-83785419D02*
X94091333Y-83785419D01*
X94091333Y-83785419D02*
X94234190Y-83833038D01*
X94234190Y-83833038D02*
X94281809Y-83880657D01*
X94996095Y-83785419D02*
X94996095Y-84499704D01*
X94996095Y-84499704D02*
X94948476Y-84642561D01*
X94948476Y-84642561D02*
X94853238Y-84737800D01*
X94853238Y-84737800D02*
X94710381Y-84785419D01*
X94710381Y-84785419D02*
X94615143Y-84785419D01*
X95948476Y-84785419D02*
X95472286Y-84785419D01*
X95472286Y-84785419D02*
X95472286Y-83785419D01*
X96853238Y-84690180D02*
X96805619Y-84737800D01*
X96805619Y-84737800D02*
X96662762Y-84785419D01*
X96662762Y-84785419D02*
X96567524Y-84785419D01*
X96567524Y-84785419D02*
X96424667Y-84737800D01*
X96424667Y-84737800D02*
X96329429Y-84642561D01*
X96329429Y-84642561D02*
X96281810Y-84547323D01*
X96281810Y-84547323D02*
X96234191Y-84356847D01*
X96234191Y-84356847D02*
X96234191Y-84213990D01*
X96234191Y-84213990D02*
X96281810Y-84023514D01*
X96281810Y-84023514D02*
X96329429Y-83928276D01*
X96329429Y-83928276D02*
X96424667Y-83833038D01*
X96424667Y-83833038D02*
X96567524Y-83785419D01*
X96567524Y-83785419D02*
X96662762Y-83785419D01*
X96662762Y-83785419D02*
X96805619Y-83833038D01*
X96805619Y-83833038D02*
X96853238Y-83880657D01*
X97567524Y-83785419D02*
X97567524Y-84499704D01*
X97567524Y-84499704D02*
X97519905Y-84642561D01*
X97519905Y-84642561D02*
X97424667Y-84737800D01*
X97424667Y-84737800D02*
X97281810Y-84785419D01*
X97281810Y-84785419D02*
X97186572Y-84785419D01*
X98519905Y-84785419D02*
X98043715Y-84785419D01*
X98043715Y-84785419D02*
X98043715Y-83785419D01*
X99424667Y-84690180D02*
X99377048Y-84737800D01*
X99377048Y-84737800D02*
X99234191Y-84785419D01*
X99234191Y-84785419D02*
X99138953Y-84785419D01*
X99138953Y-84785419D02*
X98996096Y-84737800D01*
X98996096Y-84737800D02*
X98900858Y-84642561D01*
X98900858Y-84642561D02*
X98853239Y-84547323D01*
X98853239Y-84547323D02*
X98805620Y-84356847D01*
X98805620Y-84356847D02*
X98805620Y-84213990D01*
X98805620Y-84213990D02*
X98853239Y-84023514D01*
X98853239Y-84023514D02*
X98900858Y-83928276D01*
X98900858Y-83928276D02*
X98996096Y-83833038D01*
X98996096Y-83833038D02*
X99138953Y-83785419D01*
X99138953Y-83785419D02*
X99234191Y-83785419D01*
X99234191Y-83785419D02*
X99377048Y-83833038D01*
X99377048Y-83833038D02*
X99424667Y-83880657D01*
X100138953Y-83785419D02*
X100138953Y-84499704D01*
X100138953Y-84499704D02*
X100091334Y-84642561D01*
X100091334Y-84642561D02*
X99996096Y-84737800D01*
X99996096Y-84737800D02*
X99853239Y-84785419D01*
X99853239Y-84785419D02*
X99758001Y-84785419D01*
X101091334Y-84785419D02*
X100615144Y-84785419D01*
X100615144Y-84785419D02*
X100615144Y-83785419D01*
X101996096Y-84690180D02*
X101948477Y-84737800D01*
X101948477Y-84737800D02*
X101805620Y-84785419D01*
X101805620Y-84785419D02*
X101710382Y-84785419D01*
X101710382Y-84785419D02*
X101567525Y-84737800D01*
X101567525Y-84737800D02*
X101472287Y-84642561D01*
X101472287Y-84642561D02*
X101424668Y-84547323D01*
X101424668Y-84547323D02*
X101377049Y-84356847D01*
X101377049Y-84356847D02*
X101377049Y-84213990D01*
X101377049Y-84213990D02*
X101424668Y-84023514D01*
X101424668Y-84023514D02*
X101472287Y-83928276D01*
X101472287Y-83928276D02*
X101567525Y-83833038D01*
X101567525Y-83833038D02*
X101710382Y-83785419D01*
X101710382Y-83785419D02*
X101805620Y-83785419D01*
X101805620Y-83785419D02*
X101948477Y-83833038D01*
X101948477Y-83833038D02*
X101996096Y-83880657D01*
D11*
X98868033Y-81079999D02*
X98868033Y-81479999D01*
X98868033Y-81279999D02*
X98168033Y-81279999D01*
X98168033Y-81279999D02*
X98268033Y-81346666D01*
X98268033Y-81346666D02*
X98334700Y-81413333D01*
X98334700Y-81413333D02*
X98368033Y-81479999D01*
X53046429Y-51524819D02*
X53284524Y-52524819D01*
X53284524Y-52524819D02*
X53475000Y-51810533D01*
X53475000Y-51810533D02*
X53665476Y-52524819D01*
X53665476Y-52524819D02*
X53903572Y-51524819D01*
X54855952Y-52524819D02*
X54522619Y-52048628D01*
X54284524Y-52524819D02*
X54284524Y-51524819D01*
X54284524Y-51524819D02*
X54665476Y-51524819D01*
X54665476Y-51524819D02*
X54760714Y-51572438D01*
X54760714Y-51572438D02*
X54808333Y-51620057D01*
X54808333Y-51620057D02*
X54855952Y-51715295D01*
X54855952Y-51715295D02*
X54855952Y-51858152D01*
X54855952Y-51858152D02*
X54808333Y-51953390D01*
X54808333Y-51953390D02*
X54760714Y-52001009D01*
X54760714Y-52001009D02*
X54665476Y-52048628D01*
X54665476Y-52048628D02*
X54284524Y-52048628D01*
D13*
X103469950Y-92529529D02*
X103431855Y-92605719D01*
X103431855Y-92605719D02*
X103431855Y-92720005D01*
X103431855Y-92720005D02*
X103469950Y-92834291D01*
X103469950Y-92834291D02*
X103546140Y-92910481D01*
X103546140Y-92910481D02*
X103622331Y-92948576D01*
X103622331Y-92948576D02*
X103774712Y-92986672D01*
X103774712Y-92986672D02*
X103888998Y-92986672D01*
X103888998Y-92986672D02*
X104041379Y-92948576D01*
X104041379Y-92948576D02*
X104117569Y-92910481D01*
X104117569Y-92910481D02*
X104193760Y-92834291D01*
X104193760Y-92834291D02*
X104231855Y-92720005D01*
X104231855Y-92720005D02*
X104231855Y-92643814D01*
X104231855Y-92643814D02*
X104193760Y-92529529D01*
X104193760Y-92529529D02*
X104155664Y-92491433D01*
X104155664Y-92491433D02*
X103888998Y-92491433D01*
X103888998Y-92491433D02*
X103888998Y-92643814D01*
X104231855Y-91805719D02*
X103812807Y-91805719D01*
X103812807Y-91805719D02*
X103736617Y-91843814D01*
X103736617Y-91843814D02*
X103698521Y-91920005D01*
X103698521Y-91920005D02*
X103698521Y-92072386D01*
X103698521Y-92072386D02*
X103736617Y-92148576D01*
X104193760Y-91805719D02*
X104231855Y-91881910D01*
X104231855Y-91881910D02*
X104231855Y-92072386D01*
X104231855Y-92072386D02*
X104193760Y-92148576D01*
X104193760Y-92148576D02*
X104117569Y-92186672D01*
X104117569Y-92186672D02*
X104041379Y-92186672D01*
X104041379Y-92186672D02*
X103965188Y-92148576D01*
X103965188Y-92148576D02*
X103927093Y-92072386D01*
X103927093Y-92072386D02*
X103927093Y-91881910D01*
X103927093Y-91881910D02*
X103888998Y-91805719D01*
X104231855Y-91424766D02*
X103698521Y-91424766D01*
X103774712Y-91424766D02*
X103736617Y-91386671D01*
X103736617Y-91386671D02*
X103698521Y-91310481D01*
X103698521Y-91310481D02*
X103698521Y-91196195D01*
X103698521Y-91196195D02*
X103736617Y-91120004D01*
X103736617Y-91120004D02*
X103812807Y-91081909D01*
X103812807Y-91081909D02*
X104231855Y-91081909D01*
X103812807Y-91081909D02*
X103736617Y-91043814D01*
X103736617Y-91043814D02*
X103698521Y-90967623D01*
X103698521Y-90967623D02*
X103698521Y-90853338D01*
X103698521Y-90853338D02*
X103736617Y-90777147D01*
X103736617Y-90777147D02*
X103812807Y-90739052D01*
X103812807Y-90739052D02*
X104231855Y-90739052D01*
X104193760Y-90053337D02*
X104231855Y-90129528D01*
X104231855Y-90129528D02*
X104231855Y-90281909D01*
X104231855Y-90281909D02*
X104193760Y-90358099D01*
X104193760Y-90358099D02*
X104117569Y-90396195D01*
X104117569Y-90396195D02*
X103812807Y-90396195D01*
X103812807Y-90396195D02*
X103736617Y-90358099D01*
X103736617Y-90358099D02*
X103698521Y-90281909D01*
X103698521Y-90281909D02*
X103698521Y-90129528D01*
X103698521Y-90129528D02*
X103736617Y-90053337D01*
X103736617Y-90053337D02*
X103812807Y-90015242D01*
X103812807Y-90015242D02*
X103888998Y-90015242D01*
X103888998Y-90015242D02*
X103965188Y-90396195D01*
X104231855Y-89672385D02*
X103431855Y-89672385D01*
X103736617Y-89672385D02*
X103698521Y-89596195D01*
X103698521Y-89596195D02*
X103698521Y-89443814D01*
X103698521Y-89443814D02*
X103736617Y-89367623D01*
X103736617Y-89367623D02*
X103774712Y-89329528D01*
X103774712Y-89329528D02*
X103850902Y-89291433D01*
X103850902Y-89291433D02*
X104079474Y-89291433D01*
X104079474Y-89291433D02*
X104155664Y-89329528D01*
X104155664Y-89329528D02*
X104193760Y-89367623D01*
X104193760Y-89367623D02*
X104231855Y-89443814D01*
X104231855Y-89443814D02*
X104231855Y-89596195D01*
X104231855Y-89596195D02*
X104193760Y-89672385D01*
X104231855Y-88834290D02*
X104193760Y-88910480D01*
X104193760Y-88910480D02*
X104155664Y-88948575D01*
X104155664Y-88948575D02*
X104079474Y-88986671D01*
X104079474Y-88986671D02*
X103850902Y-88986671D01*
X103850902Y-88986671D02*
X103774712Y-88948575D01*
X103774712Y-88948575D02*
X103736617Y-88910480D01*
X103736617Y-88910480D02*
X103698521Y-88834290D01*
X103698521Y-88834290D02*
X103698521Y-88720004D01*
X103698521Y-88720004D02*
X103736617Y-88643813D01*
X103736617Y-88643813D02*
X103774712Y-88605718D01*
X103774712Y-88605718D02*
X103850902Y-88567623D01*
X103850902Y-88567623D02*
X104079474Y-88567623D01*
X104079474Y-88567623D02*
X104155664Y-88605718D01*
X104155664Y-88605718D02*
X104193760Y-88643813D01*
X104193760Y-88643813D02*
X104231855Y-88720004D01*
X104231855Y-88720004D02*
X104231855Y-88834290D01*
X103698521Y-88300956D02*
X104231855Y-88110480D01*
X103698521Y-87920003D02*
X104231855Y-88110480D01*
X104231855Y-88110480D02*
X104422331Y-88186670D01*
X104422331Y-88186670D02*
X104460426Y-88224765D01*
X104460426Y-88224765D02*
X104498521Y-88300956D01*
X105443664Y-92491433D02*
X105481760Y-92529529D01*
X105481760Y-92529529D02*
X105519855Y-92643814D01*
X105519855Y-92643814D02*
X105519855Y-92720005D01*
X105519855Y-92720005D02*
X105481760Y-92834291D01*
X105481760Y-92834291D02*
X105405569Y-92910481D01*
X105405569Y-92910481D02*
X105329379Y-92948576D01*
X105329379Y-92948576D02*
X105176998Y-92986672D01*
X105176998Y-92986672D02*
X105062712Y-92986672D01*
X105062712Y-92986672D02*
X104910331Y-92948576D01*
X104910331Y-92948576D02*
X104834140Y-92910481D01*
X104834140Y-92910481D02*
X104757950Y-92834291D01*
X104757950Y-92834291D02*
X104719855Y-92720005D01*
X104719855Y-92720005D02*
X104719855Y-92643814D01*
X104719855Y-92643814D02*
X104757950Y-92529529D01*
X104757950Y-92529529D02*
X104796045Y-92491433D01*
X105519855Y-91805719D02*
X105100807Y-91805719D01*
X105100807Y-91805719D02*
X105024617Y-91843814D01*
X105024617Y-91843814D02*
X104986521Y-91920005D01*
X104986521Y-91920005D02*
X104986521Y-92072386D01*
X104986521Y-92072386D02*
X105024617Y-92148576D01*
X105481760Y-91805719D02*
X105519855Y-91881910D01*
X105519855Y-91881910D02*
X105519855Y-92072386D01*
X105519855Y-92072386D02*
X105481760Y-92148576D01*
X105481760Y-92148576D02*
X105405569Y-92186672D01*
X105405569Y-92186672D02*
X105329379Y-92186672D01*
X105329379Y-92186672D02*
X105253188Y-92148576D01*
X105253188Y-92148576D02*
X105215093Y-92072386D01*
X105215093Y-92072386D02*
X105215093Y-91881910D01*
X105215093Y-91881910D02*
X105176998Y-91805719D01*
X105519855Y-91424766D02*
X104986521Y-91424766D01*
X105138902Y-91424766D02*
X105062712Y-91386671D01*
X105062712Y-91386671D02*
X105024617Y-91348576D01*
X105024617Y-91348576D02*
X104986521Y-91272385D01*
X104986521Y-91272385D02*
X104986521Y-91196195D01*
X104986521Y-91043814D02*
X104986521Y-90739052D01*
X104719855Y-90929528D02*
X105405569Y-90929528D01*
X105405569Y-90929528D02*
X105481760Y-90891433D01*
X105481760Y-90891433D02*
X105519855Y-90815243D01*
X105519855Y-90815243D02*
X105519855Y-90739052D01*
X105519855Y-90472385D02*
X104986521Y-90472385D01*
X105138902Y-90472385D02*
X105062712Y-90434290D01*
X105062712Y-90434290D02*
X105024617Y-90396195D01*
X105024617Y-90396195D02*
X104986521Y-90320004D01*
X104986521Y-90320004D02*
X104986521Y-90243814D01*
X105519855Y-89977147D02*
X104986521Y-89977147D01*
X104719855Y-89977147D02*
X104757950Y-90015243D01*
X104757950Y-90015243D02*
X104796045Y-89977147D01*
X104796045Y-89977147D02*
X104757950Y-89939052D01*
X104757950Y-89939052D02*
X104719855Y-89977147D01*
X104719855Y-89977147D02*
X104796045Y-89977147D01*
X105519855Y-89253338D02*
X104719855Y-89253338D01*
X105481760Y-89253338D02*
X105519855Y-89329529D01*
X105519855Y-89329529D02*
X105519855Y-89481910D01*
X105519855Y-89481910D02*
X105481760Y-89558100D01*
X105481760Y-89558100D02*
X105443664Y-89596195D01*
X105443664Y-89596195D02*
X105367474Y-89634291D01*
X105367474Y-89634291D02*
X105138902Y-89634291D01*
X105138902Y-89634291D02*
X105062712Y-89596195D01*
X105062712Y-89596195D02*
X105024617Y-89558100D01*
X105024617Y-89558100D02*
X104986521Y-89481910D01*
X104986521Y-89481910D02*
X104986521Y-89329529D01*
X104986521Y-89329529D02*
X105024617Y-89253338D01*
X104986521Y-88529528D02*
X105634140Y-88529528D01*
X105634140Y-88529528D02*
X105710331Y-88567623D01*
X105710331Y-88567623D02*
X105748426Y-88605719D01*
X105748426Y-88605719D02*
X105786521Y-88681909D01*
X105786521Y-88681909D02*
X105786521Y-88796195D01*
X105786521Y-88796195D02*
X105748426Y-88872385D01*
X105481760Y-88529528D02*
X105519855Y-88605719D01*
X105519855Y-88605719D02*
X105519855Y-88758100D01*
X105519855Y-88758100D02*
X105481760Y-88834290D01*
X105481760Y-88834290D02*
X105443664Y-88872385D01*
X105443664Y-88872385D02*
X105367474Y-88910481D01*
X105367474Y-88910481D02*
X105138902Y-88910481D01*
X105138902Y-88910481D02*
X105062712Y-88872385D01*
X105062712Y-88872385D02*
X105024617Y-88834290D01*
X105024617Y-88834290D02*
X104986521Y-88758100D01*
X104986521Y-88758100D02*
X104986521Y-88605719D01*
X104986521Y-88605719D02*
X105024617Y-88529528D01*
X105481760Y-87843813D02*
X105519855Y-87920004D01*
X105519855Y-87920004D02*
X105519855Y-88072385D01*
X105519855Y-88072385D02*
X105481760Y-88148575D01*
X105481760Y-88148575D02*
X105405569Y-88186671D01*
X105405569Y-88186671D02*
X105100807Y-88186671D01*
X105100807Y-88186671D02*
X105024617Y-88148575D01*
X105024617Y-88148575D02*
X104986521Y-88072385D01*
X104986521Y-88072385D02*
X104986521Y-87920004D01*
X104986521Y-87920004D02*
X105024617Y-87843813D01*
X105024617Y-87843813D02*
X105100807Y-87805718D01*
X105100807Y-87805718D02*
X105176998Y-87805718D01*
X105176998Y-87805718D02*
X105253188Y-88186671D01*
X106807855Y-92491433D02*
X106426902Y-92758100D01*
X106807855Y-92948576D02*
X106007855Y-92948576D01*
X106007855Y-92948576D02*
X106007855Y-92643814D01*
X106007855Y-92643814D02*
X106045950Y-92567624D01*
X106045950Y-92567624D02*
X106084045Y-92529529D01*
X106084045Y-92529529D02*
X106160236Y-92491433D01*
X106160236Y-92491433D02*
X106274521Y-92491433D01*
X106274521Y-92491433D02*
X106350712Y-92529529D01*
X106350712Y-92529529D02*
X106388807Y-92567624D01*
X106388807Y-92567624D02*
X106426902Y-92643814D01*
X106426902Y-92643814D02*
X106426902Y-92948576D01*
X106769760Y-91843814D02*
X106807855Y-91920005D01*
X106807855Y-91920005D02*
X106807855Y-92072386D01*
X106807855Y-92072386D02*
X106769760Y-92148576D01*
X106769760Y-92148576D02*
X106693569Y-92186672D01*
X106693569Y-92186672D02*
X106388807Y-92186672D01*
X106388807Y-92186672D02*
X106312617Y-92148576D01*
X106312617Y-92148576D02*
X106274521Y-92072386D01*
X106274521Y-92072386D02*
X106274521Y-91920005D01*
X106274521Y-91920005D02*
X106312617Y-91843814D01*
X106312617Y-91843814D02*
X106388807Y-91805719D01*
X106388807Y-91805719D02*
X106464998Y-91805719D01*
X106464998Y-91805719D02*
X106541188Y-92186672D01*
X106807855Y-91120005D02*
X106388807Y-91120005D01*
X106388807Y-91120005D02*
X106312617Y-91158100D01*
X106312617Y-91158100D02*
X106274521Y-91234291D01*
X106274521Y-91234291D02*
X106274521Y-91386672D01*
X106274521Y-91386672D02*
X106312617Y-91462862D01*
X106769760Y-91120005D02*
X106807855Y-91196196D01*
X106807855Y-91196196D02*
X106807855Y-91386672D01*
X106807855Y-91386672D02*
X106769760Y-91462862D01*
X106769760Y-91462862D02*
X106693569Y-91500958D01*
X106693569Y-91500958D02*
X106617379Y-91500958D01*
X106617379Y-91500958D02*
X106541188Y-91462862D01*
X106541188Y-91462862D02*
X106503093Y-91386672D01*
X106503093Y-91386672D02*
X106503093Y-91196196D01*
X106503093Y-91196196D02*
X106464998Y-91120005D01*
X106807855Y-90396195D02*
X106007855Y-90396195D01*
X106769760Y-90396195D02*
X106807855Y-90472386D01*
X106807855Y-90472386D02*
X106807855Y-90624767D01*
X106807855Y-90624767D02*
X106769760Y-90700957D01*
X106769760Y-90700957D02*
X106731664Y-90739052D01*
X106731664Y-90739052D02*
X106655474Y-90777148D01*
X106655474Y-90777148D02*
X106426902Y-90777148D01*
X106426902Y-90777148D02*
X106350712Y-90739052D01*
X106350712Y-90739052D02*
X106312617Y-90700957D01*
X106312617Y-90700957D02*
X106274521Y-90624767D01*
X106274521Y-90624767D02*
X106274521Y-90472386D01*
X106274521Y-90472386D02*
X106312617Y-90396195D01*
X106769760Y-89710480D02*
X106807855Y-89786671D01*
X106807855Y-89786671D02*
X106807855Y-89939052D01*
X106807855Y-89939052D02*
X106769760Y-90015242D01*
X106769760Y-90015242D02*
X106693569Y-90053338D01*
X106693569Y-90053338D02*
X106388807Y-90053338D01*
X106388807Y-90053338D02*
X106312617Y-90015242D01*
X106312617Y-90015242D02*
X106274521Y-89939052D01*
X106274521Y-89939052D02*
X106274521Y-89786671D01*
X106274521Y-89786671D02*
X106312617Y-89710480D01*
X106312617Y-89710480D02*
X106388807Y-89672385D01*
X106388807Y-89672385D02*
X106464998Y-89672385D01*
X106464998Y-89672385D02*
X106541188Y-90053338D01*
X106807855Y-89329528D02*
X106274521Y-89329528D01*
X106426902Y-89329528D02*
X106350712Y-89291433D01*
X106350712Y-89291433D02*
X106312617Y-89253338D01*
X106312617Y-89253338D02*
X106274521Y-89177147D01*
X106274521Y-89177147D02*
X106274521Y-89100957D01*
D11*
X77575580Y-52617666D02*
X77623200Y-52665285D01*
X77623200Y-52665285D02*
X77670819Y-52808142D01*
X77670819Y-52808142D02*
X77670819Y-52903380D01*
X77670819Y-52903380D02*
X77623200Y-53046237D01*
X77623200Y-53046237D02*
X77527961Y-53141475D01*
X77527961Y-53141475D02*
X77432723Y-53189094D01*
X77432723Y-53189094D02*
X77242247Y-53236713D01*
X77242247Y-53236713D02*
X77099390Y-53236713D01*
X77099390Y-53236713D02*
X76908914Y-53189094D01*
X76908914Y-53189094D02*
X76813676Y-53141475D01*
X76813676Y-53141475D02*
X76718438Y-53046237D01*
X76718438Y-53046237D02*
X76670819Y-52903380D01*
X76670819Y-52903380D02*
X76670819Y-52808142D01*
X76670819Y-52808142D02*
X76718438Y-52665285D01*
X76718438Y-52665285D02*
X76766057Y-52617666D01*
X77004152Y-51760523D02*
X77670819Y-51760523D01*
X76623200Y-51998618D02*
X77337485Y-52236713D01*
X77337485Y-52236713D02*
X77337485Y-51617666D01*
D12*
X80076300Y-55109399D02*
X80042966Y-55076066D01*
X80042966Y-55076066D02*
X80009633Y-55009399D01*
X80009633Y-55009399D02*
X80009633Y-54842733D01*
X80009633Y-54842733D02*
X80042966Y-54776066D01*
X80042966Y-54776066D02*
X80076300Y-54742733D01*
X80076300Y-54742733D02*
X80142966Y-54709399D01*
X80142966Y-54709399D02*
X80209633Y-54709399D01*
X80209633Y-54709399D02*
X80309633Y-54742733D01*
X80309633Y-54742733D02*
X80709633Y-55142733D01*
X80709633Y-55142733D02*
X80709633Y-54709399D01*
X80076300Y-54442732D02*
X80042966Y-54409399D01*
X80042966Y-54409399D02*
X80009633Y-54342732D01*
X80009633Y-54342732D02*
X80009633Y-54176066D01*
X80009633Y-54176066D02*
X80042966Y-54109399D01*
X80042966Y-54109399D02*
X80076300Y-54076066D01*
X80076300Y-54076066D02*
X80142966Y-54042732D01*
X80142966Y-54042732D02*
X80209633Y-54042732D01*
X80209633Y-54042732D02*
X80309633Y-54076066D01*
X80309633Y-54076066D02*
X80709633Y-54476066D01*
X80709633Y-54476066D02*
X80709633Y-54042732D01*
X80242966Y-53742732D02*
X80942966Y-53742732D01*
X80276300Y-53742732D02*
X80242966Y-53676065D01*
X80242966Y-53676065D02*
X80242966Y-53542732D01*
X80242966Y-53542732D02*
X80276300Y-53476065D01*
X80276300Y-53476065D02*
X80309633Y-53442732D01*
X80309633Y-53442732D02*
X80376300Y-53409399D01*
X80376300Y-53409399D02*
X80576300Y-53409399D01*
X80576300Y-53409399D02*
X80642966Y-53442732D01*
X80642966Y-53442732D02*
X80676300Y-53476065D01*
X80676300Y-53476065D02*
X80709633Y-53542732D01*
X80709633Y-53542732D02*
X80709633Y-53676065D01*
X80709633Y-53676065D02*
X80676300Y-53742732D01*
X80342966Y-52876066D02*
X80342966Y-53109399D01*
X80709633Y-53109399D02*
X80009633Y-53109399D01*
X80009633Y-53109399D02*
X80009633Y-52776066D01*
D11*
X64063333Y-54213480D02*
X64015714Y-54261100D01*
X64015714Y-54261100D02*
X63872857Y-54308719D01*
X63872857Y-54308719D02*
X63777619Y-54308719D01*
X63777619Y-54308719D02*
X63634762Y-54261100D01*
X63634762Y-54261100D02*
X63539524Y-54165861D01*
X63539524Y-54165861D02*
X63491905Y-54070623D01*
X63491905Y-54070623D02*
X63444286Y-53880147D01*
X63444286Y-53880147D02*
X63444286Y-53737290D01*
X63444286Y-53737290D02*
X63491905Y-53546814D01*
X63491905Y-53546814D02*
X63539524Y-53451576D01*
X63539524Y-53451576D02*
X63634762Y-53356338D01*
X63634762Y-53356338D02*
X63777619Y-53308719D01*
X63777619Y-53308719D02*
X63872857Y-53308719D01*
X63872857Y-53308719D02*
X64015714Y-53356338D01*
X64015714Y-53356338D02*
X64063333Y-53403957D01*
X64396667Y-53308719D02*
X65015714Y-53308719D01*
X65015714Y-53308719D02*
X64682381Y-53689671D01*
X64682381Y-53689671D02*
X64825238Y-53689671D01*
X64825238Y-53689671D02*
X64920476Y-53737290D01*
X64920476Y-53737290D02*
X64968095Y-53784909D01*
X64968095Y-53784909D02*
X65015714Y-53880147D01*
X65015714Y-53880147D02*
X65015714Y-54118242D01*
X65015714Y-54118242D02*
X64968095Y-54213480D01*
X64968095Y-54213480D02*
X64920476Y-54261100D01*
X64920476Y-54261100D02*
X64825238Y-54308719D01*
X64825238Y-54308719D02*
X64539524Y-54308719D01*
X64539524Y-54308719D02*
X64444286Y-54261100D01*
X64444286Y-54261100D02*
X64396667Y-54213480D01*
D12*
X62296300Y-57537999D02*
X62262966Y-57504666D01*
X62262966Y-57504666D02*
X62229633Y-57437999D01*
X62229633Y-57437999D02*
X62229633Y-57271333D01*
X62229633Y-57271333D02*
X62262966Y-57204666D01*
X62262966Y-57204666D02*
X62296300Y-57171333D01*
X62296300Y-57171333D02*
X62362966Y-57137999D01*
X62362966Y-57137999D02*
X62429633Y-57137999D01*
X62429633Y-57137999D02*
X62529633Y-57171333D01*
X62529633Y-57171333D02*
X62929633Y-57571333D01*
X62929633Y-57571333D02*
X62929633Y-57137999D01*
X62296300Y-56871332D02*
X62262966Y-56837999D01*
X62262966Y-56837999D02*
X62229633Y-56771332D01*
X62229633Y-56771332D02*
X62229633Y-56604666D01*
X62229633Y-56604666D02*
X62262966Y-56537999D01*
X62262966Y-56537999D02*
X62296300Y-56504666D01*
X62296300Y-56504666D02*
X62362966Y-56471332D01*
X62362966Y-56471332D02*
X62429633Y-56471332D01*
X62429633Y-56471332D02*
X62529633Y-56504666D01*
X62529633Y-56504666D02*
X62929633Y-56904666D01*
X62929633Y-56904666D02*
X62929633Y-56471332D01*
X62462966Y-56171332D02*
X63162966Y-56171332D01*
X62496300Y-56171332D02*
X62462966Y-56104665D01*
X62462966Y-56104665D02*
X62462966Y-55971332D01*
X62462966Y-55971332D02*
X62496300Y-55904665D01*
X62496300Y-55904665D02*
X62529633Y-55871332D01*
X62529633Y-55871332D02*
X62596300Y-55837999D01*
X62596300Y-55837999D02*
X62796300Y-55837999D01*
X62796300Y-55837999D02*
X62862966Y-55871332D01*
X62862966Y-55871332D02*
X62896300Y-55904665D01*
X62896300Y-55904665D02*
X62929633Y-55971332D01*
X62929633Y-55971332D02*
X62929633Y-56104665D01*
X62929633Y-56104665D02*
X62896300Y-56171332D01*
X62562966Y-55304666D02*
X62562966Y-55537999D01*
X62929633Y-55537999D02*
X62229633Y-55537999D01*
X62229633Y-55537999D02*
X62229633Y-55204666D01*
D11*
X53032819Y-60967666D02*
X52556628Y-61300999D01*
X53032819Y-61539094D02*
X52032819Y-61539094D01*
X52032819Y-61539094D02*
X52032819Y-61158142D01*
X52032819Y-61158142D02*
X52080438Y-61062904D01*
X52080438Y-61062904D02*
X52128057Y-61015285D01*
X52128057Y-61015285D02*
X52223295Y-60967666D01*
X52223295Y-60967666D02*
X52366152Y-60967666D01*
X52366152Y-60967666D02*
X52461390Y-61015285D01*
X52461390Y-61015285D02*
X52509009Y-61062904D01*
X52509009Y-61062904D02*
X52556628Y-61158142D01*
X52556628Y-61158142D02*
X52556628Y-61539094D01*
X52032819Y-60634332D02*
X52032819Y-59967666D01*
X52032819Y-59967666D02*
X53032819Y-60396237D01*
X55953819Y-60967666D02*
X55477628Y-61300999D01*
X55953819Y-61539094D02*
X54953819Y-61539094D01*
X54953819Y-61539094D02*
X54953819Y-61158142D01*
X54953819Y-61158142D02*
X55001438Y-61062904D01*
X55001438Y-61062904D02*
X55049057Y-61015285D01*
X55049057Y-61015285D02*
X55144295Y-60967666D01*
X55144295Y-60967666D02*
X55287152Y-60967666D01*
X55287152Y-60967666D02*
X55382390Y-61015285D01*
X55382390Y-61015285D02*
X55430009Y-61062904D01*
X55430009Y-61062904D02*
X55477628Y-61158142D01*
X55477628Y-61158142D02*
X55477628Y-61539094D01*
X55382390Y-60396237D02*
X55334771Y-60491475D01*
X55334771Y-60491475D02*
X55287152Y-60539094D01*
X55287152Y-60539094D02*
X55191914Y-60586713D01*
X55191914Y-60586713D02*
X55144295Y-60586713D01*
X55144295Y-60586713D02*
X55049057Y-60539094D01*
X55049057Y-60539094D02*
X55001438Y-60491475D01*
X55001438Y-60491475D02*
X54953819Y-60396237D01*
X54953819Y-60396237D02*
X54953819Y-60205761D01*
X54953819Y-60205761D02*
X55001438Y-60110523D01*
X55001438Y-60110523D02*
X55049057Y-60062904D01*
X55049057Y-60062904D02*
X55144295Y-60015285D01*
X55144295Y-60015285D02*
X55191914Y-60015285D01*
X55191914Y-60015285D02*
X55287152Y-60062904D01*
X55287152Y-60062904D02*
X55334771Y-60110523D01*
X55334771Y-60110523D02*
X55382390Y-60205761D01*
X55382390Y-60205761D02*
X55382390Y-60396237D01*
X55382390Y-60396237D02*
X55430009Y-60491475D01*
X55430009Y-60491475D02*
X55477628Y-60539094D01*
X55477628Y-60539094D02*
X55572866Y-60586713D01*
X55572866Y-60586713D02*
X55763342Y-60586713D01*
X55763342Y-60586713D02*
X55858580Y-60539094D01*
X55858580Y-60539094D02*
X55906200Y-60491475D01*
X55906200Y-60491475D02*
X55953819Y-60396237D01*
X55953819Y-60396237D02*
X55953819Y-60205761D01*
X55953819Y-60205761D02*
X55906200Y-60110523D01*
X55906200Y-60110523D02*
X55858580Y-60062904D01*
X55858580Y-60062904D02*
X55763342Y-60015285D01*
X55763342Y-60015285D02*
X55572866Y-60015285D01*
X55572866Y-60015285D02*
X55477628Y-60062904D01*
X55477628Y-60062904D02*
X55430009Y-60110523D01*
X55430009Y-60110523D02*
X55382390Y-60205761D01*
X46936819Y-60935857D02*
X46460628Y-61269190D01*
X46936819Y-61507285D02*
X45936819Y-61507285D01*
X45936819Y-61507285D02*
X45936819Y-61126333D01*
X45936819Y-61126333D02*
X45984438Y-61031095D01*
X45984438Y-61031095D02*
X46032057Y-60983476D01*
X46032057Y-60983476D02*
X46127295Y-60935857D01*
X46127295Y-60935857D02*
X46270152Y-60935857D01*
X46270152Y-60935857D02*
X46365390Y-60983476D01*
X46365390Y-60983476D02*
X46413009Y-61031095D01*
X46413009Y-61031095D02*
X46460628Y-61126333D01*
X46460628Y-61126333D02*
X46460628Y-61507285D01*
X46936819Y-59983476D02*
X46936819Y-60554904D01*
X46936819Y-60269190D02*
X45936819Y-60269190D01*
X45936819Y-60269190D02*
X46079676Y-60364428D01*
X46079676Y-60364428D02*
X46174914Y-60459666D01*
X46174914Y-60459666D02*
X46222533Y-60554904D01*
X45936819Y-59364428D02*
X45936819Y-59269190D01*
X45936819Y-59269190D02*
X45984438Y-59173952D01*
X45984438Y-59173952D02*
X46032057Y-59126333D01*
X46032057Y-59126333D02*
X46127295Y-59078714D01*
X46127295Y-59078714D02*
X46317771Y-59031095D01*
X46317771Y-59031095D02*
X46555866Y-59031095D01*
X46555866Y-59031095D02*
X46746342Y-59078714D01*
X46746342Y-59078714D02*
X46841580Y-59126333D01*
X46841580Y-59126333D02*
X46889200Y-59173952D01*
X46889200Y-59173952D02*
X46936819Y-59269190D01*
X46936819Y-59269190D02*
X46936819Y-59364428D01*
X46936819Y-59364428D02*
X46889200Y-59459666D01*
X46889200Y-59459666D02*
X46841580Y-59507285D01*
X46841580Y-59507285D02*
X46746342Y-59554904D01*
X46746342Y-59554904D02*
X46555866Y-59602523D01*
X46555866Y-59602523D02*
X46317771Y-59602523D01*
X46317771Y-59602523D02*
X46127295Y-59554904D01*
X46127295Y-59554904D02*
X46032057Y-59507285D01*
X46032057Y-59507285D02*
X45984438Y-59459666D01*
X45984438Y-59459666D02*
X45936819Y-59364428D01*
X84653618Y-52270819D02*
X84320285Y-51794628D01*
X84082190Y-52270819D02*
X84082190Y-51270819D01*
X84082190Y-51270819D02*
X84463142Y-51270819D01*
X84463142Y-51270819D02*
X84558380Y-51318438D01*
X84558380Y-51318438D02*
X84605999Y-51366057D01*
X84605999Y-51366057D02*
X84653618Y-51461295D01*
X84653618Y-51461295D02*
X84653618Y-51604152D01*
X84653618Y-51604152D02*
X84605999Y-51699390D01*
X84605999Y-51699390D02*
X84558380Y-51747009D01*
X84558380Y-51747009D02*
X84463142Y-51794628D01*
X84463142Y-51794628D02*
X84082190Y-51794628D01*
X85082190Y-51747009D02*
X85415523Y-51747009D01*
X85558380Y-52270819D02*
X85082190Y-52270819D01*
X85082190Y-52270819D02*
X85082190Y-51270819D01*
X85082190Y-51270819D02*
X85558380Y-51270819D01*
X85939333Y-52223200D02*
X86082190Y-52270819D01*
X86082190Y-52270819D02*
X86320285Y-52270819D01*
X86320285Y-52270819D02*
X86415523Y-52223200D01*
X86415523Y-52223200D02*
X86463142Y-52175580D01*
X86463142Y-52175580D02*
X86510761Y-52080342D01*
X86510761Y-52080342D02*
X86510761Y-51985104D01*
X86510761Y-51985104D02*
X86463142Y-51889866D01*
X86463142Y-51889866D02*
X86415523Y-51842247D01*
X86415523Y-51842247D02*
X86320285Y-51794628D01*
X86320285Y-51794628D02*
X86129809Y-51747009D01*
X86129809Y-51747009D02*
X86034571Y-51699390D01*
X86034571Y-51699390D02*
X85986952Y-51651771D01*
X85986952Y-51651771D02*
X85939333Y-51556533D01*
X85939333Y-51556533D02*
X85939333Y-51461295D01*
X85939333Y-51461295D02*
X85986952Y-51366057D01*
X85986952Y-51366057D02*
X86034571Y-51318438D01*
X86034571Y-51318438D02*
X86129809Y-51270819D01*
X86129809Y-51270819D02*
X86367904Y-51270819D01*
X86367904Y-51270819D02*
X86510761Y-51318438D01*
X86939333Y-51747009D02*
X87272666Y-51747009D01*
X87415523Y-52270819D02*
X86939333Y-52270819D01*
X86939333Y-52270819D02*
X86939333Y-51270819D01*
X86939333Y-51270819D02*
X87415523Y-51270819D01*
X87701238Y-51270819D02*
X88272666Y-51270819D01*
X87986952Y-52270819D02*
X87986952Y-51270819D01*
X84806642Y-77985580D02*
X84759023Y-78033200D01*
X84759023Y-78033200D02*
X84616166Y-78080819D01*
X84616166Y-78080819D02*
X84520928Y-78080819D01*
X84520928Y-78080819D02*
X84378071Y-78033200D01*
X84378071Y-78033200D02*
X84282833Y-77937961D01*
X84282833Y-77937961D02*
X84235214Y-77842723D01*
X84235214Y-77842723D02*
X84187595Y-77652247D01*
X84187595Y-77652247D02*
X84187595Y-77509390D01*
X84187595Y-77509390D02*
X84235214Y-77318914D01*
X84235214Y-77318914D02*
X84282833Y-77223676D01*
X84282833Y-77223676D02*
X84378071Y-77128438D01*
X84378071Y-77128438D02*
X84520928Y-77080819D01*
X84520928Y-77080819D02*
X84616166Y-77080819D01*
X84616166Y-77080819D02*
X84759023Y-77128438D01*
X84759023Y-77128438D02*
X84806642Y-77176057D01*
X85759023Y-78080819D02*
X85187595Y-78080819D01*
X85473309Y-78080819D02*
X85473309Y-77080819D01*
X85473309Y-77080819D02*
X85378071Y-77223676D01*
X85378071Y-77223676D02*
X85282833Y-77318914D01*
X85282833Y-77318914D02*
X85187595Y-77366533D01*
X86711404Y-78080819D02*
X86139976Y-78080819D01*
X86425690Y-78080819D02*
X86425690Y-77080819D01*
X86425690Y-77080819D02*
X86330452Y-77223676D01*
X86330452Y-77223676D02*
X86235214Y-77318914D01*
X86235214Y-77318914D02*
X86139976Y-77366533D01*
X61743580Y-63920666D02*
X61791200Y-63968285D01*
X61791200Y-63968285D02*
X61838819Y-64111142D01*
X61838819Y-64111142D02*
X61838819Y-64206380D01*
X61838819Y-64206380D02*
X61791200Y-64349237D01*
X61791200Y-64349237D02*
X61695961Y-64444475D01*
X61695961Y-64444475D02*
X61600723Y-64492094D01*
X61600723Y-64492094D02*
X61410247Y-64539713D01*
X61410247Y-64539713D02*
X61267390Y-64539713D01*
X61267390Y-64539713D02*
X61076914Y-64492094D01*
X61076914Y-64492094D02*
X60981676Y-64444475D01*
X60981676Y-64444475D02*
X60886438Y-64349237D01*
X60886438Y-64349237D02*
X60838819Y-64206380D01*
X60838819Y-64206380D02*
X60838819Y-64111142D01*
X60838819Y-64111142D02*
X60886438Y-63968285D01*
X60886438Y-63968285D02*
X60934057Y-63920666D01*
X61838819Y-62968285D02*
X61838819Y-63539713D01*
X61838819Y-63253999D02*
X60838819Y-63253999D01*
X60838819Y-63253999D02*
X60981676Y-63349237D01*
X60981676Y-63349237D02*
X61076914Y-63444475D01*
X61076914Y-63444475D02*
X61124533Y-63539713D01*
X94988142Y-62335580D02*
X94940523Y-62383200D01*
X94940523Y-62383200D02*
X94797666Y-62430819D01*
X94797666Y-62430819D02*
X94702428Y-62430819D01*
X94702428Y-62430819D02*
X94559571Y-62383200D01*
X94559571Y-62383200D02*
X94464333Y-62287961D01*
X94464333Y-62287961D02*
X94416714Y-62192723D01*
X94416714Y-62192723D02*
X94369095Y-62002247D01*
X94369095Y-62002247D02*
X94369095Y-61859390D01*
X94369095Y-61859390D02*
X94416714Y-61668914D01*
X94416714Y-61668914D02*
X94464333Y-61573676D01*
X94464333Y-61573676D02*
X94559571Y-61478438D01*
X94559571Y-61478438D02*
X94702428Y-61430819D01*
X94702428Y-61430819D02*
X94797666Y-61430819D01*
X94797666Y-61430819D02*
X94940523Y-61478438D01*
X94940523Y-61478438D02*
X94988142Y-61526057D01*
X95940523Y-62430819D02*
X95369095Y-62430819D01*
X95654809Y-62430819D02*
X95654809Y-61430819D01*
X95654809Y-61430819D02*
X95559571Y-61573676D01*
X95559571Y-61573676D02*
X95464333Y-61668914D01*
X95464333Y-61668914D02*
X95369095Y-61716533D01*
X96559571Y-61430819D02*
X96654809Y-61430819D01*
X96654809Y-61430819D02*
X96750047Y-61478438D01*
X96750047Y-61478438D02*
X96797666Y-61526057D01*
X96797666Y-61526057D02*
X96845285Y-61621295D01*
X96845285Y-61621295D02*
X96892904Y-61811771D01*
X96892904Y-61811771D02*
X96892904Y-62049866D01*
X96892904Y-62049866D02*
X96845285Y-62240342D01*
X96845285Y-62240342D02*
X96797666Y-62335580D01*
X96797666Y-62335580D02*
X96750047Y-62383200D01*
X96750047Y-62383200D02*
X96654809Y-62430819D01*
X96654809Y-62430819D02*
X96559571Y-62430819D01*
X96559571Y-62430819D02*
X96464333Y-62383200D01*
X96464333Y-62383200D02*
X96416714Y-62335580D01*
X96416714Y-62335580D02*
X96369095Y-62240342D01*
X96369095Y-62240342D02*
X96321476Y-62049866D01*
X96321476Y-62049866D02*
X96321476Y-61811771D01*
X96321476Y-61811771D02*
X96369095Y-61621295D01*
X96369095Y-61621295D02*
X96416714Y-61526057D01*
X96416714Y-61526057D02*
X96464333Y-61478438D01*
X96464333Y-61478438D02*
X96559571Y-61430819D01*
X75670580Y-77255666D02*
X75718200Y-77303285D01*
X75718200Y-77303285D02*
X75765819Y-77446142D01*
X75765819Y-77446142D02*
X75765819Y-77541380D01*
X75765819Y-77541380D02*
X75718200Y-77684237D01*
X75718200Y-77684237D02*
X75622961Y-77779475D01*
X75622961Y-77779475D02*
X75527723Y-77827094D01*
X75527723Y-77827094D02*
X75337247Y-77874713D01*
X75337247Y-77874713D02*
X75194390Y-77874713D01*
X75194390Y-77874713D02*
X75003914Y-77827094D01*
X75003914Y-77827094D02*
X74908676Y-77779475D01*
X74908676Y-77779475D02*
X74813438Y-77684237D01*
X74813438Y-77684237D02*
X74765819Y-77541380D01*
X74765819Y-77541380D02*
X74765819Y-77446142D01*
X74765819Y-77446142D02*
X74813438Y-77303285D01*
X74813438Y-77303285D02*
X74861057Y-77255666D01*
X74765819Y-76350904D02*
X74765819Y-76827094D01*
X74765819Y-76827094D02*
X75242009Y-76874713D01*
X75242009Y-76874713D02*
X75194390Y-76827094D01*
X75194390Y-76827094D02*
X75146771Y-76731856D01*
X75146771Y-76731856D02*
X75146771Y-76493761D01*
X75146771Y-76493761D02*
X75194390Y-76398523D01*
X75194390Y-76398523D02*
X75242009Y-76350904D01*
X75242009Y-76350904D02*
X75337247Y-76303285D01*
X75337247Y-76303285D02*
X75575342Y-76303285D01*
X75575342Y-76303285D02*
X75670580Y-76350904D01*
X75670580Y-76350904D02*
X75718200Y-76398523D01*
X75718200Y-76398523D02*
X75765819Y-76493761D01*
X75765819Y-76493761D02*
X75765819Y-76731856D01*
X75765819Y-76731856D02*
X75718200Y-76827094D01*
X75718200Y-76827094D02*
X75670580Y-76874713D01*
X66000333Y-62081580D02*
X65952714Y-62129200D01*
X65952714Y-62129200D02*
X65809857Y-62176819D01*
X65809857Y-62176819D02*
X65714619Y-62176819D01*
X65714619Y-62176819D02*
X65571762Y-62129200D01*
X65571762Y-62129200D02*
X65476524Y-62033961D01*
X65476524Y-62033961D02*
X65428905Y-61938723D01*
X65428905Y-61938723D02*
X65381286Y-61748247D01*
X65381286Y-61748247D02*
X65381286Y-61605390D01*
X65381286Y-61605390D02*
X65428905Y-61414914D01*
X65428905Y-61414914D02*
X65476524Y-61319676D01*
X65476524Y-61319676D02*
X65571762Y-61224438D01*
X65571762Y-61224438D02*
X65714619Y-61176819D01*
X65714619Y-61176819D02*
X65809857Y-61176819D01*
X65809857Y-61176819D02*
X65952714Y-61224438D01*
X65952714Y-61224438D02*
X66000333Y-61272057D01*
X66333667Y-61176819D02*
X67000333Y-61176819D01*
X67000333Y-61176819D02*
X66571762Y-62176819D01*
X71080333Y-79099580D02*
X71032714Y-79147200D01*
X71032714Y-79147200D02*
X70889857Y-79194819D01*
X70889857Y-79194819D02*
X70794619Y-79194819D01*
X70794619Y-79194819D02*
X70651762Y-79147200D01*
X70651762Y-79147200D02*
X70556524Y-79051961D01*
X70556524Y-79051961D02*
X70508905Y-78956723D01*
X70508905Y-78956723D02*
X70461286Y-78766247D01*
X70461286Y-78766247D02*
X70461286Y-78623390D01*
X70461286Y-78623390D02*
X70508905Y-78432914D01*
X70508905Y-78432914D02*
X70556524Y-78337676D01*
X70556524Y-78337676D02*
X70651762Y-78242438D01*
X70651762Y-78242438D02*
X70794619Y-78194819D01*
X70794619Y-78194819D02*
X70889857Y-78194819D01*
X70889857Y-78194819D02*
X71032714Y-78242438D01*
X71032714Y-78242438D02*
X71080333Y-78290057D01*
X71651762Y-78623390D02*
X71556524Y-78575771D01*
X71556524Y-78575771D02*
X71508905Y-78528152D01*
X71508905Y-78528152D02*
X71461286Y-78432914D01*
X71461286Y-78432914D02*
X71461286Y-78385295D01*
X71461286Y-78385295D02*
X71508905Y-78290057D01*
X71508905Y-78290057D02*
X71556524Y-78242438D01*
X71556524Y-78242438D02*
X71651762Y-78194819D01*
X71651762Y-78194819D02*
X71842238Y-78194819D01*
X71842238Y-78194819D02*
X71937476Y-78242438D01*
X71937476Y-78242438D02*
X71985095Y-78290057D01*
X71985095Y-78290057D02*
X72032714Y-78385295D01*
X72032714Y-78385295D02*
X72032714Y-78432914D01*
X72032714Y-78432914D02*
X71985095Y-78528152D01*
X71985095Y-78528152D02*
X71937476Y-78575771D01*
X71937476Y-78575771D02*
X71842238Y-78623390D01*
X71842238Y-78623390D02*
X71651762Y-78623390D01*
X71651762Y-78623390D02*
X71556524Y-78671009D01*
X71556524Y-78671009D02*
X71508905Y-78718628D01*
X71508905Y-78718628D02*
X71461286Y-78813866D01*
X71461286Y-78813866D02*
X71461286Y-79004342D01*
X71461286Y-79004342D02*
X71508905Y-79099580D01*
X71508905Y-79099580D02*
X71556524Y-79147200D01*
X71556524Y-79147200D02*
X71651762Y-79194819D01*
X71651762Y-79194819D02*
X71842238Y-79194819D01*
X71842238Y-79194819D02*
X71937476Y-79147200D01*
X71937476Y-79147200D02*
X71985095Y-79099580D01*
X71985095Y-79099580D02*
X72032714Y-79004342D01*
X72032714Y-79004342D02*
X72032714Y-78813866D01*
X72032714Y-78813866D02*
X71985095Y-78718628D01*
X71985095Y-78718628D02*
X71937476Y-78671009D01*
X71937476Y-78671009D02*
X71842238Y-78623390D01*
X84161333Y-63732580D02*
X84113714Y-63780200D01*
X84113714Y-63780200D02*
X83970857Y-63827819D01*
X83970857Y-63827819D02*
X83875619Y-63827819D01*
X83875619Y-63827819D02*
X83732762Y-63780200D01*
X83732762Y-63780200D02*
X83637524Y-63684961D01*
X83637524Y-63684961D02*
X83589905Y-63589723D01*
X83589905Y-63589723D02*
X83542286Y-63399247D01*
X83542286Y-63399247D02*
X83542286Y-63256390D01*
X83542286Y-63256390D02*
X83589905Y-63065914D01*
X83589905Y-63065914D02*
X83637524Y-62970676D01*
X83637524Y-62970676D02*
X83732762Y-62875438D01*
X83732762Y-62875438D02*
X83875619Y-62827819D01*
X83875619Y-62827819D02*
X83970857Y-62827819D01*
X83970857Y-62827819D02*
X84113714Y-62875438D01*
X84113714Y-62875438D02*
X84161333Y-62923057D01*
X84637524Y-63827819D02*
X84828000Y-63827819D01*
X84828000Y-63827819D02*
X84923238Y-63780200D01*
X84923238Y-63780200D02*
X84970857Y-63732580D01*
X84970857Y-63732580D02*
X85066095Y-63589723D01*
X85066095Y-63589723D02*
X85113714Y-63399247D01*
X85113714Y-63399247D02*
X85113714Y-63018295D01*
X85113714Y-63018295D02*
X85066095Y-62923057D01*
X85066095Y-62923057D02*
X85018476Y-62875438D01*
X85018476Y-62875438D02*
X84923238Y-62827819D01*
X84923238Y-62827819D02*
X84732762Y-62827819D01*
X84732762Y-62827819D02*
X84637524Y-62875438D01*
X84637524Y-62875438D02*
X84589905Y-62923057D01*
X84589905Y-62923057D02*
X84542286Y-63018295D01*
X84542286Y-63018295D02*
X84542286Y-63256390D01*
X84542286Y-63256390D02*
X84589905Y-63351628D01*
X84589905Y-63351628D02*
X84637524Y-63399247D01*
X84637524Y-63399247D02*
X84732762Y-63446866D01*
X84732762Y-63446866D02*
X84923238Y-63446866D01*
X84923238Y-63446866D02*
X85018476Y-63399247D01*
X85018476Y-63399247D02*
X85066095Y-63351628D01*
X85066095Y-63351628D02*
X85113714Y-63256390D01*
X86560819Y-66508238D02*
X86560819Y-67079666D01*
X86560819Y-66793952D02*
X85560819Y-66793952D01*
X85560819Y-66793952D02*
X85703676Y-66889190D01*
X85703676Y-66889190D02*
X85798914Y-66984428D01*
X85798914Y-66984428D02*
X85846533Y-67079666D01*
X85894152Y-65651095D02*
X86560819Y-65651095D01*
X85894152Y-66079666D02*
X86417961Y-66079666D01*
X86417961Y-66079666D02*
X86513200Y-66032047D01*
X86513200Y-66032047D02*
X86560819Y-65936809D01*
X86560819Y-65936809D02*
X86560819Y-65793952D01*
X86560819Y-65793952D02*
X86513200Y-65698714D01*
X86513200Y-65698714D02*
X86465580Y-65651095D01*
X86037009Y-64841571D02*
X86037009Y-65174904D01*
X86560819Y-65174904D02*
X85560819Y-65174904D01*
X85560819Y-65174904D02*
X85560819Y-64698714D01*
X69510819Y-52496566D02*
X69034628Y-52829899D01*
X69510819Y-53067994D02*
X68510819Y-53067994D01*
X68510819Y-53067994D02*
X68510819Y-52687042D01*
X68510819Y-52687042D02*
X68558438Y-52591804D01*
X68558438Y-52591804D02*
X68606057Y-52544185D01*
X68606057Y-52544185D02*
X68701295Y-52496566D01*
X68701295Y-52496566D02*
X68844152Y-52496566D01*
X68844152Y-52496566D02*
X68939390Y-52544185D01*
X68939390Y-52544185D02*
X68987009Y-52591804D01*
X68987009Y-52591804D02*
X69034628Y-52687042D01*
X69034628Y-52687042D02*
X69034628Y-53067994D01*
X68606057Y-52115613D02*
X68558438Y-52067994D01*
X68558438Y-52067994D02*
X68510819Y-51972756D01*
X68510819Y-51972756D02*
X68510819Y-51734661D01*
X68510819Y-51734661D02*
X68558438Y-51639423D01*
X68558438Y-51639423D02*
X68606057Y-51591804D01*
X68606057Y-51591804D02*
X68701295Y-51544185D01*
X68701295Y-51544185D02*
X68796533Y-51544185D01*
X68796533Y-51544185D02*
X68939390Y-51591804D01*
X68939390Y-51591804D02*
X69510819Y-52163232D01*
X69510819Y-52163232D02*
X69510819Y-51544185D01*
X74717819Y-52615614D02*
X74717819Y-53187042D01*
X74717819Y-52901328D02*
X73717819Y-52901328D01*
X73717819Y-52901328D02*
X73860676Y-52996566D01*
X73860676Y-52996566D02*
X73955914Y-53091804D01*
X73955914Y-53091804D02*
X74003533Y-53187042D01*
X74717819Y-52187042D02*
X73717819Y-52187042D01*
X73717819Y-52187042D02*
X74432104Y-51853709D01*
X74432104Y-51853709D02*
X73717819Y-51520376D01*
X73717819Y-51520376D02*
X74717819Y-51520376D01*
X87830819Y-69381666D02*
X87354628Y-69714999D01*
X87830819Y-69953094D02*
X86830819Y-69953094D01*
X86830819Y-69953094D02*
X86830819Y-69572142D01*
X86830819Y-69572142D02*
X86878438Y-69476904D01*
X86878438Y-69476904D02*
X86926057Y-69429285D01*
X86926057Y-69429285D02*
X87021295Y-69381666D01*
X87021295Y-69381666D02*
X87164152Y-69381666D01*
X87164152Y-69381666D02*
X87259390Y-69429285D01*
X87259390Y-69429285D02*
X87307009Y-69476904D01*
X87307009Y-69476904D02*
X87354628Y-69572142D01*
X87354628Y-69572142D02*
X87354628Y-69953094D01*
X87164152Y-68524523D02*
X87830819Y-68524523D01*
X86783200Y-68762618D02*
X87497485Y-69000713D01*
X87497485Y-69000713D02*
X87497485Y-68381666D01*
X81719057Y-69976904D02*
X81671438Y-69929285D01*
X81671438Y-69929285D02*
X81623819Y-69834047D01*
X81623819Y-69834047D02*
X81623819Y-69595952D01*
X81623819Y-69595952D02*
X81671438Y-69500714D01*
X81671438Y-69500714D02*
X81719057Y-69453095D01*
X81719057Y-69453095D02*
X81814295Y-69405476D01*
X81814295Y-69405476D02*
X81909533Y-69405476D01*
X81909533Y-69405476D02*
X82052390Y-69453095D01*
X82052390Y-69453095D02*
X82623819Y-70024523D01*
X82623819Y-70024523D02*
X82623819Y-69405476D01*
X81719057Y-69024523D02*
X81671438Y-68976904D01*
X81671438Y-68976904D02*
X81623819Y-68881666D01*
X81623819Y-68881666D02*
X81623819Y-68643571D01*
X81623819Y-68643571D02*
X81671438Y-68548333D01*
X81671438Y-68548333D02*
X81719057Y-68500714D01*
X81719057Y-68500714D02*
X81814295Y-68453095D01*
X81814295Y-68453095D02*
X81909533Y-68453095D01*
X81909533Y-68453095D02*
X82052390Y-68500714D01*
X82052390Y-68500714D02*
X82623819Y-69072142D01*
X82623819Y-69072142D02*
X82623819Y-68453095D01*
X87830819Y-71667666D02*
X87354628Y-72000999D01*
X87830819Y-72239094D02*
X86830819Y-72239094D01*
X86830819Y-72239094D02*
X86830819Y-71858142D01*
X86830819Y-71858142D02*
X86878438Y-71762904D01*
X86878438Y-71762904D02*
X86926057Y-71715285D01*
X86926057Y-71715285D02*
X87021295Y-71667666D01*
X87021295Y-71667666D02*
X87164152Y-71667666D01*
X87164152Y-71667666D02*
X87259390Y-71715285D01*
X87259390Y-71715285D02*
X87307009Y-71762904D01*
X87307009Y-71762904D02*
X87354628Y-71858142D01*
X87354628Y-71858142D02*
X87354628Y-72239094D01*
X86830819Y-70762904D02*
X86830819Y-71239094D01*
X86830819Y-71239094D02*
X87307009Y-71286713D01*
X87307009Y-71286713D02*
X87259390Y-71239094D01*
X87259390Y-71239094D02*
X87211771Y-71143856D01*
X87211771Y-71143856D02*
X87211771Y-70905761D01*
X87211771Y-70905761D02*
X87259390Y-70810523D01*
X87259390Y-70810523D02*
X87307009Y-70762904D01*
X87307009Y-70762904D02*
X87402247Y-70715285D01*
X87402247Y-70715285D02*
X87640342Y-70715285D01*
X87640342Y-70715285D02*
X87735580Y-70762904D01*
X87735580Y-70762904D02*
X87783200Y-70810523D01*
X87783200Y-70810523D02*
X87830819Y-70905761D01*
X87830819Y-70905761D02*
X87830819Y-71143856D01*
X87830819Y-71143856D02*
X87783200Y-71239094D01*
X87783200Y-71239094D02*
X87735580Y-71286713D01*
X81719057Y-72262904D02*
X81671438Y-72215285D01*
X81671438Y-72215285D02*
X81623819Y-72120047D01*
X81623819Y-72120047D02*
X81623819Y-71881952D01*
X81623819Y-71881952D02*
X81671438Y-71786714D01*
X81671438Y-71786714D02*
X81719057Y-71739095D01*
X81719057Y-71739095D02*
X81814295Y-71691476D01*
X81814295Y-71691476D02*
X81909533Y-71691476D01*
X81909533Y-71691476D02*
X82052390Y-71739095D01*
X82052390Y-71739095D02*
X82623819Y-72310523D01*
X82623819Y-72310523D02*
X82623819Y-71691476D01*
X81719057Y-71310523D02*
X81671438Y-71262904D01*
X81671438Y-71262904D02*
X81623819Y-71167666D01*
X81623819Y-71167666D02*
X81623819Y-70929571D01*
X81623819Y-70929571D02*
X81671438Y-70834333D01*
X81671438Y-70834333D02*
X81719057Y-70786714D01*
X81719057Y-70786714D02*
X81814295Y-70739095D01*
X81814295Y-70739095D02*
X81909533Y-70739095D01*
X81909533Y-70739095D02*
X82052390Y-70786714D01*
X82052390Y-70786714D02*
X82623819Y-71358142D01*
X82623819Y-71358142D02*
X82623819Y-70739095D01*
X49984819Y-60967666D02*
X49508628Y-61300999D01*
X49984819Y-61539094D02*
X48984819Y-61539094D01*
X48984819Y-61539094D02*
X48984819Y-61158142D01*
X48984819Y-61158142D02*
X49032438Y-61062904D01*
X49032438Y-61062904D02*
X49080057Y-61015285D01*
X49080057Y-61015285D02*
X49175295Y-60967666D01*
X49175295Y-60967666D02*
X49318152Y-60967666D01*
X49318152Y-60967666D02*
X49413390Y-61015285D01*
X49413390Y-61015285D02*
X49461009Y-61062904D01*
X49461009Y-61062904D02*
X49508628Y-61158142D01*
X49508628Y-61158142D02*
X49508628Y-61539094D01*
X48984819Y-60110523D02*
X48984819Y-60300999D01*
X48984819Y-60300999D02*
X49032438Y-60396237D01*
X49032438Y-60396237D02*
X49080057Y-60443856D01*
X49080057Y-60443856D02*
X49222914Y-60539094D01*
X49222914Y-60539094D02*
X49413390Y-60586713D01*
X49413390Y-60586713D02*
X49794342Y-60586713D01*
X49794342Y-60586713D02*
X49889580Y-60539094D01*
X49889580Y-60539094D02*
X49937200Y-60491475D01*
X49937200Y-60491475D02*
X49984819Y-60396237D01*
X49984819Y-60396237D02*
X49984819Y-60205761D01*
X49984819Y-60205761D02*
X49937200Y-60110523D01*
X49937200Y-60110523D02*
X49889580Y-60062904D01*
X49889580Y-60062904D02*
X49794342Y-60015285D01*
X49794342Y-60015285D02*
X49556247Y-60015285D01*
X49556247Y-60015285D02*
X49461009Y-60062904D01*
X49461009Y-60062904D02*
X49413390Y-60110523D01*
X49413390Y-60110523D02*
X49365771Y-60205761D01*
X49365771Y-60205761D02*
X49365771Y-60396237D01*
X49365771Y-60396237D02*
X49413390Y-60491475D01*
X49413390Y-60491475D02*
X49461009Y-60539094D01*
X49461009Y-60539094D02*
X49556247Y-60586713D01*
X107261819Y-67349666D02*
X106785628Y-67682999D01*
X107261819Y-67921094D02*
X106261819Y-67921094D01*
X106261819Y-67921094D02*
X106261819Y-67540142D01*
X106261819Y-67540142D02*
X106309438Y-67444904D01*
X106309438Y-67444904D02*
X106357057Y-67397285D01*
X106357057Y-67397285D02*
X106452295Y-67349666D01*
X106452295Y-67349666D02*
X106595152Y-67349666D01*
X106595152Y-67349666D02*
X106690390Y-67397285D01*
X106690390Y-67397285D02*
X106738009Y-67444904D01*
X106738009Y-67444904D02*
X106785628Y-67540142D01*
X106785628Y-67540142D02*
X106785628Y-67921094D01*
X106261819Y-67016332D02*
X106261819Y-66397285D01*
X106261819Y-66397285D02*
X106642771Y-66730618D01*
X106642771Y-66730618D02*
X106642771Y-66587761D01*
X106642771Y-66587761D02*
X106690390Y-66492523D01*
X106690390Y-66492523D02*
X106738009Y-66444904D01*
X106738009Y-66444904D02*
X106833247Y-66397285D01*
X106833247Y-66397285D02*
X107071342Y-66397285D01*
X107071342Y-66397285D02*
X107166580Y-66444904D01*
X107166580Y-66444904D02*
X107214200Y-66492523D01*
X107214200Y-66492523D02*
X107261819Y-66587761D01*
X107261819Y-66587761D02*
X107261819Y-66873475D01*
X107261819Y-66873475D02*
X107214200Y-66968713D01*
X107214200Y-66968713D02*
X107166580Y-67016332D01*
X103832819Y-67016238D02*
X103832819Y-67587666D01*
X103832819Y-67301952D02*
X102832819Y-67301952D01*
X102832819Y-67301952D02*
X102975676Y-67397190D01*
X102975676Y-67397190D02*
X103070914Y-67492428D01*
X103070914Y-67492428D02*
X103118533Y-67587666D01*
X102832819Y-66397190D02*
X102832819Y-66301952D01*
X102832819Y-66301952D02*
X102880438Y-66206714D01*
X102880438Y-66206714D02*
X102928057Y-66159095D01*
X102928057Y-66159095D02*
X103023295Y-66111476D01*
X103023295Y-66111476D02*
X103213771Y-66063857D01*
X103213771Y-66063857D02*
X103451866Y-66063857D01*
X103451866Y-66063857D02*
X103642342Y-66111476D01*
X103642342Y-66111476D02*
X103737580Y-66159095D01*
X103737580Y-66159095D02*
X103785200Y-66206714D01*
X103785200Y-66206714D02*
X103832819Y-66301952D01*
X103832819Y-66301952D02*
X103832819Y-66397190D01*
X103832819Y-66397190D02*
X103785200Y-66492428D01*
X103785200Y-66492428D02*
X103737580Y-66540047D01*
X103737580Y-66540047D02*
X103642342Y-66587666D01*
X103642342Y-66587666D02*
X103451866Y-66635285D01*
X103451866Y-66635285D02*
X103213771Y-66635285D01*
X103213771Y-66635285D02*
X103023295Y-66587666D01*
X103023295Y-66587666D02*
X102928057Y-66540047D01*
X102928057Y-66540047D02*
X102880438Y-66492428D01*
X102880438Y-66492428D02*
X102832819Y-66397190D01*
X103832819Y-65635285D02*
X102832819Y-65635285D01*
X103451866Y-65540047D02*
X103832819Y-65254333D01*
X103166152Y-65254333D02*
X103547104Y-65635285D01*
X48111580Y-64301666D02*
X48159200Y-64349285D01*
X48159200Y-64349285D02*
X48206819Y-64492142D01*
X48206819Y-64492142D02*
X48206819Y-64587380D01*
X48206819Y-64587380D02*
X48159200Y-64730237D01*
X48159200Y-64730237D02*
X48063961Y-64825475D01*
X48063961Y-64825475D02*
X47968723Y-64873094D01*
X47968723Y-64873094D02*
X47778247Y-64920713D01*
X47778247Y-64920713D02*
X47635390Y-64920713D01*
X47635390Y-64920713D02*
X47444914Y-64873094D01*
X47444914Y-64873094D02*
X47349676Y-64825475D01*
X47349676Y-64825475D02*
X47254438Y-64730237D01*
X47254438Y-64730237D02*
X47206819Y-64587380D01*
X47206819Y-64587380D02*
X47206819Y-64492142D01*
X47206819Y-64492142D02*
X47254438Y-64349285D01*
X47254438Y-64349285D02*
X47302057Y-64301666D01*
X47302057Y-63920713D02*
X47254438Y-63873094D01*
X47254438Y-63873094D02*
X47206819Y-63777856D01*
X47206819Y-63777856D02*
X47206819Y-63539761D01*
X47206819Y-63539761D02*
X47254438Y-63444523D01*
X47254438Y-63444523D02*
X47302057Y-63396904D01*
X47302057Y-63396904D02*
X47397295Y-63349285D01*
X47397295Y-63349285D02*
X47492533Y-63349285D01*
X47492533Y-63349285D02*
X47635390Y-63396904D01*
X47635390Y-63396904D02*
X48206819Y-63968332D01*
X48206819Y-63968332D02*
X48206819Y-63349285D01*
X40221819Y-70738904D02*
X41031342Y-70738904D01*
X41031342Y-70738904D02*
X41126580Y-70691285D01*
X41126580Y-70691285D02*
X41174200Y-70643666D01*
X41174200Y-70643666D02*
X41221819Y-70548428D01*
X41221819Y-70548428D02*
X41221819Y-70357952D01*
X41221819Y-70357952D02*
X41174200Y-70262714D01*
X41174200Y-70262714D02*
X41126580Y-70215095D01*
X41126580Y-70215095D02*
X41031342Y-70167476D01*
X41031342Y-70167476D02*
X40221819Y-70167476D01*
X40555152Y-69262714D02*
X41221819Y-69262714D01*
X40174200Y-69500809D02*
X40888485Y-69738904D01*
X40888485Y-69738904D02*
X40888485Y-69119857D01*
X42237286Y-74711819D02*
X42903952Y-74711819D01*
X42903952Y-74711819D02*
X42475381Y-75711819D01*
X43713476Y-75045152D02*
X43713476Y-75711819D01*
X43475381Y-74664200D02*
X43237286Y-75378485D01*
X43237286Y-75378485D02*
X43856333Y-75378485D01*
X44237286Y-75711819D02*
X44237286Y-74711819D01*
X44237286Y-75188009D02*
X44808714Y-75188009D01*
X44808714Y-75711819D02*
X44808714Y-74711819D01*
X45856333Y-75616580D02*
X45808714Y-75664200D01*
X45808714Y-75664200D02*
X45665857Y-75711819D01*
X45665857Y-75711819D02*
X45570619Y-75711819D01*
X45570619Y-75711819D02*
X45427762Y-75664200D01*
X45427762Y-75664200D02*
X45332524Y-75568961D01*
X45332524Y-75568961D02*
X45284905Y-75473723D01*
X45284905Y-75473723D02*
X45237286Y-75283247D01*
X45237286Y-75283247D02*
X45237286Y-75140390D01*
X45237286Y-75140390D02*
X45284905Y-74949914D01*
X45284905Y-74949914D02*
X45332524Y-74854676D01*
X45332524Y-74854676D02*
X45427762Y-74759438D01*
X45427762Y-74759438D02*
X45570619Y-74711819D01*
X45570619Y-74711819D02*
X45665857Y-74711819D01*
X45665857Y-74711819D02*
X45808714Y-74759438D01*
X45808714Y-74759438D02*
X45856333Y-74807057D01*
X46475381Y-74711819D02*
X46570619Y-74711819D01*
X46570619Y-74711819D02*
X46665857Y-74759438D01*
X46665857Y-74759438D02*
X46713476Y-74807057D01*
X46713476Y-74807057D02*
X46761095Y-74902295D01*
X46761095Y-74902295D02*
X46808714Y-75092771D01*
X46808714Y-75092771D02*
X46808714Y-75330866D01*
X46808714Y-75330866D02*
X46761095Y-75521342D01*
X46761095Y-75521342D02*
X46713476Y-75616580D01*
X46713476Y-75616580D02*
X46665857Y-75664200D01*
X46665857Y-75664200D02*
X46570619Y-75711819D01*
X46570619Y-75711819D02*
X46475381Y-75711819D01*
X46475381Y-75711819D02*
X46380143Y-75664200D01*
X46380143Y-75664200D02*
X46332524Y-75616580D01*
X46332524Y-75616580D02*
X46284905Y-75521342D01*
X46284905Y-75521342D02*
X46237286Y-75330866D01*
X46237286Y-75330866D02*
X46237286Y-75092771D01*
X46237286Y-75092771D02*
X46284905Y-74902295D01*
X46284905Y-74902295D02*
X46332524Y-74807057D01*
X46332524Y-74807057D02*
X46380143Y-74759438D01*
X46380143Y-74759438D02*
X46475381Y-74711819D01*
X47665857Y-75045152D02*
X47665857Y-75711819D01*
X47427762Y-74664200D02*
X47189667Y-75378485D01*
X47189667Y-75378485D02*
X47808714Y-75378485D01*
X78700333Y-60811580D02*
X78652714Y-60859200D01*
X78652714Y-60859200D02*
X78509857Y-60906819D01*
X78509857Y-60906819D02*
X78414619Y-60906819D01*
X78414619Y-60906819D02*
X78271762Y-60859200D01*
X78271762Y-60859200D02*
X78176524Y-60763961D01*
X78176524Y-60763961D02*
X78128905Y-60668723D01*
X78128905Y-60668723D02*
X78081286Y-60478247D01*
X78081286Y-60478247D02*
X78081286Y-60335390D01*
X78081286Y-60335390D02*
X78128905Y-60144914D01*
X78128905Y-60144914D02*
X78176524Y-60049676D01*
X78176524Y-60049676D02*
X78271762Y-59954438D01*
X78271762Y-59954438D02*
X78414619Y-59906819D01*
X78414619Y-59906819D02*
X78509857Y-59906819D01*
X78509857Y-59906819D02*
X78652714Y-59954438D01*
X78652714Y-59954438D02*
X78700333Y-60002057D01*
X79557476Y-59906819D02*
X79367000Y-59906819D01*
X79367000Y-59906819D02*
X79271762Y-59954438D01*
X79271762Y-59954438D02*
X79224143Y-60002057D01*
X79224143Y-60002057D02*
X79128905Y-60144914D01*
X79128905Y-60144914D02*
X79081286Y-60335390D01*
X79081286Y-60335390D02*
X79081286Y-60716342D01*
X79081286Y-60716342D02*
X79128905Y-60811580D01*
X79128905Y-60811580D02*
X79176524Y-60859200D01*
X79176524Y-60859200D02*
X79271762Y-60906819D01*
X79271762Y-60906819D02*
X79462238Y-60906819D01*
X79462238Y-60906819D02*
X79557476Y-60859200D01*
X79557476Y-60859200D02*
X79605095Y-60811580D01*
X79605095Y-60811580D02*
X79652714Y-60716342D01*
X79652714Y-60716342D02*
X79652714Y-60478247D01*
X79652714Y-60478247D02*
X79605095Y-60383009D01*
X79605095Y-60383009D02*
X79557476Y-60335390D01*
X79557476Y-60335390D02*
X79462238Y-60287771D01*
X79462238Y-60287771D02*
X79271762Y-60287771D01*
X79271762Y-60287771D02*
X79176524Y-60335390D01*
X79176524Y-60335390D02*
X79128905Y-60383009D01*
X79128905Y-60383009D02*
X79081286Y-60478247D01*
X107238580Y-72486357D02*
X107286200Y-72533976D01*
X107286200Y-72533976D02*
X107333819Y-72676833D01*
X107333819Y-72676833D02*
X107333819Y-72772071D01*
X107333819Y-72772071D02*
X107286200Y-72914928D01*
X107286200Y-72914928D02*
X107190961Y-73010166D01*
X107190961Y-73010166D02*
X107095723Y-73057785D01*
X107095723Y-73057785D02*
X106905247Y-73105404D01*
X106905247Y-73105404D02*
X106762390Y-73105404D01*
X106762390Y-73105404D02*
X106571914Y-73057785D01*
X106571914Y-73057785D02*
X106476676Y-73010166D01*
X106476676Y-73010166D02*
X106381438Y-72914928D01*
X106381438Y-72914928D02*
X106333819Y-72772071D01*
X106333819Y-72772071D02*
X106333819Y-72676833D01*
X106333819Y-72676833D02*
X106381438Y-72533976D01*
X106381438Y-72533976D02*
X106429057Y-72486357D01*
X107333819Y-71533976D02*
X107333819Y-72105404D01*
X107333819Y-71819690D02*
X106333819Y-71819690D01*
X106333819Y-71819690D02*
X106476676Y-71914928D01*
X106476676Y-71914928D02*
X106571914Y-72010166D01*
X106571914Y-72010166D02*
X106619533Y-72105404D01*
X106429057Y-71153023D02*
X106381438Y-71105404D01*
X106381438Y-71105404D02*
X106333819Y-71010166D01*
X106333819Y-71010166D02*
X106333819Y-70772071D01*
X106333819Y-70772071D02*
X106381438Y-70676833D01*
X106381438Y-70676833D02*
X106429057Y-70629214D01*
X106429057Y-70629214D02*
X106524295Y-70581595D01*
X106524295Y-70581595D02*
X106619533Y-70581595D01*
X106619533Y-70581595D02*
X106762390Y-70629214D01*
X106762390Y-70629214D02*
X107333819Y-71200642D01*
X107333819Y-71200642D02*
X107333819Y-70581595D01*
X103633819Y-73391119D02*
X103633819Y-73962547D01*
X103633819Y-73676833D02*
X102633819Y-73676833D01*
X102633819Y-73676833D02*
X102776676Y-73772071D01*
X102776676Y-73772071D02*
X102871914Y-73867309D01*
X102871914Y-73867309D02*
X102919533Y-73962547D01*
X102633819Y-72772071D02*
X102633819Y-72676833D01*
X102633819Y-72676833D02*
X102681438Y-72581595D01*
X102681438Y-72581595D02*
X102729057Y-72533976D01*
X102729057Y-72533976D02*
X102824295Y-72486357D01*
X102824295Y-72486357D02*
X103014771Y-72438738D01*
X103014771Y-72438738D02*
X103252866Y-72438738D01*
X103252866Y-72438738D02*
X103443342Y-72486357D01*
X103443342Y-72486357D02*
X103538580Y-72533976D01*
X103538580Y-72533976D02*
X103586200Y-72581595D01*
X103586200Y-72581595D02*
X103633819Y-72676833D01*
X103633819Y-72676833D02*
X103633819Y-72772071D01*
X103633819Y-72772071D02*
X103586200Y-72867309D01*
X103586200Y-72867309D02*
X103538580Y-72914928D01*
X103538580Y-72914928D02*
X103443342Y-72962547D01*
X103443342Y-72962547D02*
X103252866Y-73010166D01*
X103252866Y-73010166D02*
X103014771Y-73010166D01*
X103014771Y-73010166D02*
X102824295Y-72962547D01*
X102824295Y-72962547D02*
X102729057Y-72914928D01*
X102729057Y-72914928D02*
X102681438Y-72867309D01*
X102681438Y-72867309D02*
X102633819Y-72772071D01*
X102633819Y-71819690D02*
X102633819Y-71724452D01*
X102633819Y-71724452D02*
X102681438Y-71629214D01*
X102681438Y-71629214D02*
X102729057Y-71581595D01*
X102729057Y-71581595D02*
X102824295Y-71533976D01*
X102824295Y-71533976D02*
X103014771Y-71486357D01*
X103014771Y-71486357D02*
X103252866Y-71486357D01*
X103252866Y-71486357D02*
X103443342Y-71533976D01*
X103443342Y-71533976D02*
X103538580Y-71581595D01*
X103538580Y-71581595D02*
X103586200Y-71629214D01*
X103586200Y-71629214D02*
X103633819Y-71724452D01*
X103633819Y-71724452D02*
X103633819Y-71819690D01*
X103633819Y-71819690D02*
X103586200Y-71914928D01*
X103586200Y-71914928D02*
X103538580Y-71962547D01*
X103538580Y-71962547D02*
X103443342Y-72010166D01*
X103443342Y-72010166D02*
X103252866Y-72057785D01*
X103252866Y-72057785D02*
X103014771Y-72057785D01*
X103014771Y-72057785D02*
X102824295Y-72010166D01*
X102824295Y-72010166D02*
X102729057Y-71962547D01*
X102729057Y-71962547D02*
X102681438Y-71914928D01*
X102681438Y-71914928D02*
X102633819Y-71819690D01*
X102967152Y-70629214D02*
X103633819Y-70629214D01*
X102967152Y-71057785D02*
X103490961Y-71057785D01*
X103490961Y-71057785D02*
X103586200Y-71010166D01*
X103586200Y-71010166D02*
X103633819Y-70914928D01*
X103633819Y-70914928D02*
X103633819Y-70772071D01*
X103633819Y-70772071D02*
X103586200Y-70676833D01*
X103586200Y-70676833D02*
X103538580Y-70629214D01*
X103110009Y-69819690D02*
X103110009Y-70153023D01*
X103633819Y-70153023D02*
X102633819Y-70153023D01*
X102633819Y-70153023D02*
X102633819Y-69676833D01*
X59128819Y-60967666D02*
X58652628Y-61300999D01*
X59128819Y-61539094D02*
X58128819Y-61539094D01*
X58128819Y-61539094D02*
X58128819Y-61158142D01*
X58128819Y-61158142D02*
X58176438Y-61062904D01*
X58176438Y-61062904D02*
X58224057Y-61015285D01*
X58224057Y-61015285D02*
X58319295Y-60967666D01*
X58319295Y-60967666D02*
X58462152Y-60967666D01*
X58462152Y-60967666D02*
X58557390Y-61015285D01*
X58557390Y-61015285D02*
X58605009Y-61062904D01*
X58605009Y-61062904D02*
X58652628Y-61158142D01*
X58652628Y-61158142D02*
X58652628Y-61539094D01*
X59128819Y-60491475D02*
X59128819Y-60300999D01*
X59128819Y-60300999D02*
X59081200Y-60205761D01*
X59081200Y-60205761D02*
X59033580Y-60158142D01*
X59033580Y-60158142D02*
X58890723Y-60062904D01*
X58890723Y-60062904D02*
X58700247Y-60015285D01*
X58700247Y-60015285D02*
X58319295Y-60015285D01*
X58319295Y-60015285D02*
X58224057Y-60062904D01*
X58224057Y-60062904D02*
X58176438Y-60110523D01*
X58176438Y-60110523D02*
X58128819Y-60205761D01*
X58128819Y-60205761D02*
X58128819Y-60396237D01*
X58128819Y-60396237D02*
X58176438Y-60491475D01*
X58176438Y-60491475D02*
X58224057Y-60539094D01*
X58224057Y-60539094D02*
X58319295Y-60586713D01*
X58319295Y-60586713D02*
X58557390Y-60586713D01*
X58557390Y-60586713D02*
X58652628Y-60539094D01*
X58652628Y-60539094D02*
X58700247Y-60491475D01*
X58700247Y-60491475D02*
X58747866Y-60396237D01*
X58747866Y-60396237D02*
X58747866Y-60205761D01*
X58747866Y-60205761D02*
X58700247Y-60110523D01*
X58700247Y-60110523D02*
X58652628Y-60062904D01*
X58652628Y-60062904D02*
X58557390Y-60015285D01*
X49871333Y-66605819D02*
X49538000Y-66129628D01*
X49299905Y-66605819D02*
X49299905Y-65605819D01*
X49299905Y-65605819D02*
X49680857Y-65605819D01*
X49680857Y-65605819D02*
X49776095Y-65653438D01*
X49776095Y-65653438D02*
X49823714Y-65701057D01*
X49823714Y-65701057D02*
X49871333Y-65796295D01*
X49871333Y-65796295D02*
X49871333Y-65939152D01*
X49871333Y-65939152D02*
X49823714Y-66034390D01*
X49823714Y-66034390D02*
X49776095Y-66082009D01*
X49776095Y-66082009D02*
X49680857Y-66129628D01*
X49680857Y-66129628D02*
X49299905Y-66129628D01*
X50823714Y-66605819D02*
X50252286Y-66605819D01*
X50538000Y-66605819D02*
X50538000Y-65605819D01*
X50538000Y-65605819D02*
X50442762Y-65748676D01*
X50442762Y-65748676D02*
X50347524Y-65843914D01*
X50347524Y-65843914D02*
X50252286Y-65891533D01*
X73372095Y-83380819D02*
X73372095Y-84190342D01*
X73372095Y-84190342D02*
X73419714Y-84285580D01*
X73419714Y-84285580D02*
X73467333Y-84333200D01*
X73467333Y-84333200D02*
X73562571Y-84380819D01*
X73562571Y-84380819D02*
X73753047Y-84380819D01*
X73753047Y-84380819D02*
X73848285Y-84333200D01*
X73848285Y-84333200D02*
X73895904Y-84285580D01*
X73895904Y-84285580D02*
X73943523Y-84190342D01*
X73943523Y-84190342D02*
X73943523Y-83380819D01*
X74943523Y-84380819D02*
X74372095Y-84380819D01*
X74657809Y-84380819D02*
X74657809Y-83380819D01*
X74657809Y-83380819D02*
X74562571Y-83523676D01*
X74562571Y-83523676D02*
X74467333Y-83618914D01*
X74467333Y-83618914D02*
X74372095Y-83666533D01*
X59459905Y-57731819D02*
X59459905Y-56731819D01*
X59459905Y-56731819D02*
X59698000Y-56731819D01*
X59698000Y-56731819D02*
X59840857Y-56779438D01*
X59840857Y-56779438D02*
X59936095Y-56874676D01*
X59936095Y-56874676D02*
X59983714Y-56969914D01*
X59983714Y-56969914D02*
X60031333Y-57160390D01*
X60031333Y-57160390D02*
X60031333Y-57303247D01*
X60031333Y-57303247D02*
X59983714Y-57493723D01*
X59983714Y-57493723D02*
X59936095Y-57588961D01*
X59936095Y-57588961D02*
X59840857Y-57684200D01*
X59840857Y-57684200D02*
X59698000Y-57731819D01*
X59698000Y-57731819D02*
X59459905Y-57731819D01*
X60888476Y-57065152D02*
X60888476Y-57731819D01*
X60650381Y-56684200D02*
X60412286Y-57398485D01*
X60412286Y-57398485D02*
X61031333Y-57398485D01*
X50315905Y-57731819D02*
X50315905Y-56731819D01*
X50315905Y-56731819D02*
X50554000Y-56731819D01*
X50554000Y-56731819D02*
X50696857Y-56779438D01*
X50696857Y-56779438D02*
X50792095Y-56874676D01*
X50792095Y-56874676D02*
X50839714Y-56969914D01*
X50839714Y-56969914D02*
X50887333Y-57160390D01*
X50887333Y-57160390D02*
X50887333Y-57303247D01*
X50887333Y-57303247D02*
X50839714Y-57493723D01*
X50839714Y-57493723D02*
X50792095Y-57588961D01*
X50792095Y-57588961D02*
X50696857Y-57684200D01*
X50696857Y-57684200D02*
X50554000Y-57731819D01*
X50554000Y-57731819D02*
X50315905Y-57731819D01*
X51839714Y-57731819D02*
X51268286Y-57731819D01*
X51554000Y-57731819D02*
X51554000Y-56731819D01*
X51554000Y-56731819D02*
X51458762Y-56874676D01*
X51458762Y-56874676D02*
X51363524Y-56969914D01*
X51363524Y-56969914D02*
X51268286Y-57017533D01*
X53236905Y-57731819D02*
X53236905Y-56731819D01*
X53236905Y-56731819D02*
X53475000Y-56731819D01*
X53475000Y-56731819D02*
X53617857Y-56779438D01*
X53617857Y-56779438D02*
X53713095Y-56874676D01*
X53713095Y-56874676D02*
X53760714Y-56969914D01*
X53760714Y-56969914D02*
X53808333Y-57160390D01*
X53808333Y-57160390D02*
X53808333Y-57303247D01*
X53808333Y-57303247D02*
X53760714Y-57493723D01*
X53760714Y-57493723D02*
X53713095Y-57588961D01*
X53713095Y-57588961D02*
X53617857Y-57684200D01*
X53617857Y-57684200D02*
X53475000Y-57731819D01*
X53475000Y-57731819D02*
X53236905Y-57731819D01*
X54189286Y-56827057D02*
X54236905Y-56779438D01*
X54236905Y-56779438D02*
X54332143Y-56731819D01*
X54332143Y-56731819D02*
X54570238Y-56731819D01*
X54570238Y-56731819D02*
X54665476Y-56779438D01*
X54665476Y-56779438D02*
X54713095Y-56827057D01*
X54713095Y-56827057D02*
X54760714Y-56922295D01*
X54760714Y-56922295D02*
X54760714Y-57017533D01*
X54760714Y-57017533D02*
X54713095Y-57160390D01*
X54713095Y-57160390D02*
X54141667Y-57731819D01*
X54141667Y-57731819D02*
X54760714Y-57731819D01*
X47267905Y-57731819D02*
X47267905Y-56731819D01*
X47267905Y-56731819D02*
X47506000Y-56731819D01*
X47506000Y-56731819D02*
X47648857Y-56779438D01*
X47648857Y-56779438D02*
X47744095Y-56874676D01*
X47744095Y-56874676D02*
X47791714Y-56969914D01*
X47791714Y-56969914D02*
X47839333Y-57160390D01*
X47839333Y-57160390D02*
X47839333Y-57303247D01*
X47839333Y-57303247D02*
X47791714Y-57493723D01*
X47791714Y-57493723D02*
X47744095Y-57588961D01*
X47744095Y-57588961D02*
X47648857Y-57684200D01*
X47648857Y-57684200D02*
X47506000Y-57731819D01*
X47506000Y-57731819D02*
X47267905Y-57731819D01*
X48744095Y-56731819D02*
X48267905Y-56731819D01*
X48267905Y-56731819D02*
X48220286Y-57208009D01*
X48220286Y-57208009D02*
X48267905Y-57160390D01*
X48267905Y-57160390D02*
X48363143Y-57112771D01*
X48363143Y-57112771D02*
X48601238Y-57112771D01*
X48601238Y-57112771D02*
X48696476Y-57160390D01*
X48696476Y-57160390D02*
X48744095Y-57208009D01*
X48744095Y-57208009D02*
X48791714Y-57303247D01*
X48791714Y-57303247D02*
X48791714Y-57541342D01*
X48791714Y-57541342D02*
X48744095Y-57636580D01*
X48744095Y-57636580D02*
X48696476Y-57684200D01*
X48696476Y-57684200D02*
X48601238Y-57731819D01*
X48601238Y-57731819D02*
X48363143Y-57731819D01*
X48363143Y-57731819D02*
X48267905Y-57684200D01*
X48267905Y-57684200D02*
X48220286Y-57636580D01*
X56284905Y-57731819D02*
X56284905Y-56731819D01*
X56284905Y-56731819D02*
X56523000Y-56731819D01*
X56523000Y-56731819D02*
X56665857Y-56779438D01*
X56665857Y-56779438D02*
X56761095Y-56874676D01*
X56761095Y-56874676D02*
X56808714Y-56969914D01*
X56808714Y-56969914D02*
X56856333Y-57160390D01*
X56856333Y-57160390D02*
X56856333Y-57303247D01*
X56856333Y-57303247D02*
X56808714Y-57493723D01*
X56808714Y-57493723D02*
X56761095Y-57588961D01*
X56761095Y-57588961D02*
X56665857Y-57684200D01*
X56665857Y-57684200D02*
X56523000Y-57731819D01*
X56523000Y-57731819D02*
X56284905Y-57731819D01*
X57189667Y-56731819D02*
X57808714Y-56731819D01*
X57808714Y-56731819D02*
X57475381Y-57112771D01*
X57475381Y-57112771D02*
X57618238Y-57112771D01*
X57618238Y-57112771D02*
X57713476Y-57160390D01*
X57713476Y-57160390D02*
X57761095Y-57208009D01*
X57761095Y-57208009D02*
X57808714Y-57303247D01*
X57808714Y-57303247D02*
X57808714Y-57541342D01*
X57808714Y-57541342D02*
X57761095Y-57636580D01*
X57761095Y-57636580D02*
X57713476Y-57684200D01*
X57713476Y-57684200D02*
X57618238Y-57731819D01*
X57618238Y-57731819D02*
X57332524Y-57731819D01*
X57332524Y-57731819D02*
X57237286Y-57684200D01*
X57237286Y-57684200D02*
X57189667Y-57636580D01*
X104695666Y-59367009D02*
X104362333Y-59367009D01*
X104362333Y-59890819D02*
X104362333Y-58890819D01*
X104362333Y-58890819D02*
X104838523Y-58890819D01*
X105743285Y-59890819D02*
X105171857Y-59890819D01*
X105457571Y-59890819D02*
X105457571Y-58890819D01*
X105457571Y-58890819D02*
X105362333Y-59033676D01*
X105362333Y-59033676D02*
X105267095Y-59128914D01*
X105267095Y-59128914D02*
X105171857Y-59176533D01*
D14*
X96784667Y-54382718D02*
X96784667Y-55289861D01*
X96784667Y-55289861D02*
X96724190Y-55471289D01*
X96724190Y-55471289D02*
X96603238Y-55592242D01*
X96603238Y-55592242D02*
X96421809Y-55652718D01*
X96421809Y-55652718D02*
X96300857Y-55652718D01*
X98054667Y-55652718D02*
X97328952Y-55652718D01*
X97691809Y-55652718D02*
X97691809Y-54382718D01*
X97691809Y-54382718D02*
X97570857Y-54564146D01*
X97570857Y-54564146D02*
X97449905Y-54685099D01*
X97449905Y-54685099D02*
X97328952Y-54745575D01*
D11*
X90170095Y-63970819D02*
X90170095Y-64780342D01*
X90170095Y-64780342D02*
X90217714Y-64875580D01*
X90217714Y-64875580D02*
X90265333Y-64923200D01*
X90265333Y-64923200D02*
X90360571Y-64970819D01*
X90360571Y-64970819D02*
X90551047Y-64970819D01*
X90551047Y-64970819D02*
X90646285Y-64923200D01*
X90646285Y-64923200D02*
X90693904Y-64875580D01*
X90693904Y-64875580D02*
X90741523Y-64780342D01*
X90741523Y-64780342D02*
X90741523Y-63970819D01*
X91693904Y-63970819D02*
X91217714Y-63970819D01*
X91217714Y-63970819D02*
X91170095Y-64447009D01*
X91170095Y-64447009D02*
X91217714Y-64399390D01*
X91217714Y-64399390D02*
X91312952Y-64351771D01*
X91312952Y-64351771D02*
X91551047Y-64351771D01*
X91551047Y-64351771D02*
X91646285Y-64399390D01*
X91646285Y-64399390D02*
X91693904Y-64447009D01*
X91693904Y-64447009D02*
X91741523Y-64542247D01*
X91741523Y-64542247D02*
X91741523Y-64780342D01*
X91741523Y-64780342D02*
X91693904Y-64875580D01*
X91693904Y-64875580D02*
X91646285Y-64923200D01*
X91646285Y-64923200D02*
X91551047Y-64970819D01*
X91551047Y-64970819D02*
X91312952Y-64970819D01*
X91312952Y-64970819D02*
X91217714Y-64923200D01*
X91217714Y-64923200D02*
X91170095Y-64875580D01*
X89956095Y-78321819D02*
X90622761Y-78321819D01*
X90622761Y-78321819D02*
X90194190Y-79321819D01*
X91432285Y-78655152D02*
X91432285Y-79321819D01*
X91194190Y-78274200D02*
X90956095Y-78988485D01*
X90956095Y-78988485D02*
X91575142Y-78988485D01*
X91956095Y-79321819D02*
X91956095Y-78321819D01*
X91956095Y-78798009D02*
X92527523Y-78798009D01*
X92527523Y-79321819D02*
X92527523Y-78321819D01*
X93575142Y-79226580D02*
X93527523Y-79274200D01*
X93527523Y-79274200D02*
X93384666Y-79321819D01*
X93384666Y-79321819D02*
X93289428Y-79321819D01*
X93289428Y-79321819D02*
X93146571Y-79274200D01*
X93146571Y-79274200D02*
X93051333Y-79178961D01*
X93051333Y-79178961D02*
X93003714Y-79083723D01*
X93003714Y-79083723D02*
X92956095Y-78893247D01*
X92956095Y-78893247D02*
X92956095Y-78750390D01*
X92956095Y-78750390D02*
X93003714Y-78559914D01*
X93003714Y-78559914D02*
X93051333Y-78464676D01*
X93051333Y-78464676D02*
X93146571Y-78369438D01*
X93146571Y-78369438D02*
X93289428Y-78321819D01*
X93289428Y-78321819D02*
X93384666Y-78321819D01*
X93384666Y-78321819D02*
X93527523Y-78369438D01*
X93527523Y-78369438D02*
X93575142Y-78417057D01*
X93956095Y-78417057D02*
X94003714Y-78369438D01*
X94003714Y-78369438D02*
X94098952Y-78321819D01*
X94098952Y-78321819D02*
X94337047Y-78321819D01*
X94337047Y-78321819D02*
X94432285Y-78369438D01*
X94432285Y-78369438D02*
X94479904Y-78417057D01*
X94479904Y-78417057D02*
X94527523Y-78512295D01*
X94527523Y-78512295D02*
X94527523Y-78607533D01*
X94527523Y-78607533D02*
X94479904Y-78750390D01*
X94479904Y-78750390D02*
X93908476Y-79321819D01*
X93908476Y-79321819D02*
X94527523Y-79321819D01*
X94860857Y-78321819D02*
X95527523Y-78321819D01*
X95527523Y-78321819D02*
X95098952Y-79321819D01*
X95813238Y-78321819D02*
X96432285Y-78321819D01*
X96432285Y-78321819D02*
X96098952Y-78702771D01*
X96098952Y-78702771D02*
X96241809Y-78702771D01*
X96241809Y-78702771D02*
X96337047Y-78750390D01*
X96337047Y-78750390D02*
X96384666Y-78798009D01*
X96384666Y-78798009D02*
X96432285Y-78893247D01*
X96432285Y-78893247D02*
X96432285Y-79131342D01*
X96432285Y-79131342D02*
X96384666Y-79226580D01*
X96384666Y-79226580D02*
X96337047Y-79274200D01*
X96337047Y-79274200D02*
X96241809Y-79321819D01*
X96241809Y-79321819D02*
X95956095Y-79321819D01*
X95956095Y-79321819D02*
X95860857Y-79274200D01*
X95860857Y-79274200D02*
X95813238Y-79226580D01*
X66071809Y-52816528D02*
X66071809Y-53292719D01*
X65738476Y-52292719D02*
X66071809Y-52816528D01*
X66071809Y-52816528D02*
X66405142Y-52292719D01*
X67262285Y-53292719D02*
X66690857Y-53292719D01*
X66976571Y-53292719D02*
X66976571Y-52292719D01*
X66976571Y-52292719D02*
X66881333Y-52435576D01*
X66881333Y-52435576D02*
X66786095Y-52530814D01*
X66786095Y-52530814D02*
X66690857Y-52578433D01*
X53086095Y-63970819D02*
X53086095Y-64780342D01*
X53086095Y-64780342D02*
X53133714Y-64875580D01*
X53133714Y-64875580D02*
X53181333Y-64923200D01*
X53181333Y-64923200D02*
X53276571Y-64970819D01*
X53276571Y-64970819D02*
X53467047Y-64970819D01*
X53467047Y-64970819D02*
X53562285Y-64923200D01*
X53562285Y-64923200D02*
X53609904Y-64875580D01*
X53609904Y-64875580D02*
X53657523Y-64780342D01*
X53657523Y-64780342D02*
X53657523Y-63970819D01*
X54562285Y-63970819D02*
X54371809Y-63970819D01*
X54371809Y-63970819D02*
X54276571Y-64018438D01*
X54276571Y-64018438D02*
X54228952Y-64066057D01*
X54228952Y-64066057D02*
X54133714Y-64208914D01*
X54133714Y-64208914D02*
X54086095Y-64399390D01*
X54086095Y-64399390D02*
X54086095Y-64780342D01*
X54086095Y-64780342D02*
X54133714Y-64875580D01*
X54133714Y-64875580D02*
X54181333Y-64923200D01*
X54181333Y-64923200D02*
X54276571Y-64970819D01*
X54276571Y-64970819D02*
X54467047Y-64970819D01*
X54467047Y-64970819D02*
X54562285Y-64923200D01*
X54562285Y-64923200D02*
X54609904Y-64875580D01*
X54609904Y-64875580D02*
X54657523Y-64780342D01*
X54657523Y-64780342D02*
X54657523Y-64542247D01*
X54657523Y-64542247D02*
X54609904Y-64447009D01*
X54609904Y-64447009D02*
X54562285Y-64399390D01*
X54562285Y-64399390D02*
X54467047Y-64351771D01*
X54467047Y-64351771D02*
X54276571Y-64351771D01*
X54276571Y-64351771D02*
X54181333Y-64399390D01*
X54181333Y-64399390D02*
X54133714Y-64447009D01*
X54133714Y-64447009D02*
X54086095Y-64542247D01*
X55363095Y-78305819D02*
X56029761Y-78305819D01*
X56029761Y-78305819D02*
X55601190Y-79305819D01*
X56839285Y-78639152D02*
X56839285Y-79305819D01*
X56601190Y-78258200D02*
X56363095Y-78972485D01*
X56363095Y-78972485D02*
X56982142Y-78972485D01*
X57363095Y-79305819D02*
X57363095Y-78305819D01*
X57363095Y-78782009D02*
X57934523Y-78782009D01*
X57934523Y-79305819D02*
X57934523Y-78305819D01*
X58982142Y-79210580D02*
X58934523Y-79258200D01*
X58934523Y-79258200D02*
X58791666Y-79305819D01*
X58791666Y-79305819D02*
X58696428Y-79305819D01*
X58696428Y-79305819D02*
X58553571Y-79258200D01*
X58553571Y-79258200D02*
X58458333Y-79162961D01*
X58458333Y-79162961D02*
X58410714Y-79067723D01*
X58410714Y-79067723D02*
X58363095Y-78877247D01*
X58363095Y-78877247D02*
X58363095Y-78734390D01*
X58363095Y-78734390D02*
X58410714Y-78543914D01*
X58410714Y-78543914D02*
X58458333Y-78448676D01*
X58458333Y-78448676D02*
X58553571Y-78353438D01*
X58553571Y-78353438D02*
X58696428Y-78305819D01*
X58696428Y-78305819D02*
X58791666Y-78305819D01*
X58791666Y-78305819D02*
X58934523Y-78353438D01*
X58934523Y-78353438D02*
X58982142Y-78401057D01*
X59363095Y-78401057D02*
X59410714Y-78353438D01*
X59410714Y-78353438D02*
X59505952Y-78305819D01*
X59505952Y-78305819D02*
X59744047Y-78305819D01*
X59744047Y-78305819D02*
X59839285Y-78353438D01*
X59839285Y-78353438D02*
X59886904Y-78401057D01*
X59886904Y-78401057D02*
X59934523Y-78496295D01*
X59934523Y-78496295D02*
X59934523Y-78591533D01*
X59934523Y-78591533D02*
X59886904Y-78734390D01*
X59886904Y-78734390D02*
X59315476Y-79305819D01*
X59315476Y-79305819D02*
X59934523Y-79305819D01*
X60267857Y-78305819D02*
X60934523Y-78305819D01*
X60934523Y-78305819D02*
X60505952Y-79305819D01*
X61220238Y-78305819D02*
X61839285Y-78305819D01*
X61839285Y-78305819D02*
X61505952Y-78686771D01*
X61505952Y-78686771D02*
X61648809Y-78686771D01*
X61648809Y-78686771D02*
X61744047Y-78734390D01*
X61744047Y-78734390D02*
X61791666Y-78782009D01*
X61791666Y-78782009D02*
X61839285Y-78877247D01*
X61839285Y-78877247D02*
X61839285Y-79115342D01*
X61839285Y-79115342D02*
X61791666Y-79210580D01*
X61791666Y-79210580D02*
X61744047Y-79258200D01*
X61744047Y-79258200D02*
X61648809Y-79305819D01*
X61648809Y-79305819D02*
X61363095Y-79305819D01*
X61363095Y-79305819D02*
X61267857Y-79258200D01*
X61267857Y-79258200D02*
X61220238Y-79210580D01*
X74676095Y-74765819D02*
X74676095Y-75575342D01*
X74676095Y-75575342D02*
X74723714Y-75670580D01*
X74723714Y-75670580D02*
X74771333Y-75718200D01*
X74771333Y-75718200D02*
X74866571Y-75765819D01*
X74866571Y-75765819D02*
X75057047Y-75765819D01*
X75057047Y-75765819D02*
X75152285Y-75718200D01*
X75152285Y-75718200D02*
X75199904Y-75670580D01*
X75199904Y-75670580D02*
X75247523Y-75575342D01*
X75247523Y-75575342D02*
X75247523Y-74765819D01*
X75676095Y-74861057D02*
X75723714Y-74813438D01*
X75723714Y-74813438D02*
X75818952Y-74765819D01*
X75818952Y-74765819D02*
X76057047Y-74765819D01*
X76057047Y-74765819D02*
X76152285Y-74813438D01*
X76152285Y-74813438D02*
X76199904Y-74861057D01*
X76199904Y-74861057D02*
X76247523Y-74956295D01*
X76247523Y-74956295D02*
X76247523Y-75051533D01*
X76247523Y-75051533D02*
X76199904Y-75194390D01*
X76199904Y-75194390D02*
X75628476Y-75765819D01*
X75628476Y-75765819D02*
X76247523Y-75765819D01*
X88370580Y-62364857D02*
X88418200Y-62412476D01*
X88418200Y-62412476D02*
X88465819Y-62555333D01*
X88465819Y-62555333D02*
X88465819Y-62650571D01*
X88465819Y-62650571D02*
X88418200Y-62793428D01*
X88418200Y-62793428D02*
X88322961Y-62888666D01*
X88322961Y-62888666D02*
X88227723Y-62936285D01*
X88227723Y-62936285D02*
X88037247Y-62983904D01*
X88037247Y-62983904D02*
X87894390Y-62983904D01*
X87894390Y-62983904D02*
X87703914Y-62936285D01*
X87703914Y-62936285D02*
X87608676Y-62888666D01*
X87608676Y-62888666D02*
X87513438Y-62793428D01*
X87513438Y-62793428D02*
X87465819Y-62650571D01*
X87465819Y-62650571D02*
X87465819Y-62555333D01*
X87465819Y-62555333D02*
X87513438Y-62412476D01*
X87513438Y-62412476D02*
X87561057Y-62364857D01*
X88465819Y-61412476D02*
X88465819Y-61983904D01*
X88465819Y-61698190D02*
X87465819Y-61698190D01*
X87465819Y-61698190D02*
X87608676Y-61793428D01*
X87608676Y-61793428D02*
X87703914Y-61888666D01*
X87703914Y-61888666D02*
X87751533Y-61983904D01*
X87465819Y-61079142D02*
X87465819Y-60460095D01*
X87465819Y-60460095D02*
X87846771Y-60793428D01*
X87846771Y-60793428D02*
X87846771Y-60650571D01*
X87846771Y-60650571D02*
X87894390Y-60555333D01*
X87894390Y-60555333D02*
X87942009Y-60507714D01*
X87942009Y-60507714D02*
X88037247Y-60460095D01*
X88037247Y-60460095D02*
X88275342Y-60460095D01*
X88275342Y-60460095D02*
X88370580Y-60507714D01*
X88370580Y-60507714D02*
X88418200Y-60555333D01*
X88418200Y-60555333D02*
X88465819Y-60650571D01*
X88465819Y-60650571D02*
X88465819Y-60936285D01*
X88465819Y-60936285D02*
X88418200Y-61031523D01*
X88418200Y-61031523D02*
X88370580Y-61079142D01*
D13*
%TO.C,C4*%
X78132000Y-54220652D02*
X78132000Y-53698148D01*
X79602000Y-54220652D02*
X79602000Y-53698148D01*
%TO.C,C3*%
X63527000Y-56676652D02*
X63527000Y-56154148D01*
X64997000Y-56676652D02*
X64997000Y-56154148D01*
%TO.C,R7*%
X53240000Y-60028064D02*
X53240000Y-59573936D01*
X54710000Y-60028064D02*
X54710000Y-59573936D01*
%TO.C,R8*%
X56288000Y-60028064D02*
X56288000Y-59573936D01*
X57758000Y-60028064D02*
X57758000Y-59573936D01*
%TO.C,R10*%
X47271000Y-60107064D02*
X47271000Y-59652936D01*
X48741000Y-60107064D02*
X48741000Y-59652936D01*
%TO.C,SW1*%
X89606000Y-56884000D02*
X89606000Y-55384000D01*
X88356000Y-52884000D02*
X83856000Y-52884000D01*
X83856000Y-59384000D02*
X88356000Y-59384000D01*
X82606000Y-55384000D02*
X82606000Y-56884000D01*
%TO.C,C11*%
X85710752Y-76681000D02*
X85188248Y-76681000D01*
X85710752Y-75211000D02*
X85188248Y-75211000D01*
%TO.C,C1*%
X58561248Y-63019000D02*
X59083752Y-63019000D01*
X58561248Y-64489000D02*
X59083752Y-64489000D01*
%TO.C,C10*%
X95348248Y-62892000D02*
X95870752Y-62892000D01*
X95348248Y-64362000D02*
X95870752Y-64362000D01*
%TO.C,C5*%
X77528748Y-76354000D02*
X78051252Y-76354000D01*
X77528748Y-77824000D02*
X78051252Y-77824000D01*
%TO.C,C7*%
X66902000Y-64066748D02*
X66902000Y-64589252D01*
X65432000Y-64066748D02*
X65432000Y-64589252D01*
%TO.C,C8*%
X71486752Y-77824000D02*
X70964248Y-77824000D01*
X71486752Y-76354000D02*
X70964248Y-76354000D01*
%TO.C,C9*%
X85063000Y-65673248D02*
X85063000Y-66195752D01*
X83593000Y-65673248D02*
X83593000Y-66195752D01*
%TO.C,R2*%
X71384936Y-51594900D02*
X71839064Y-51594900D01*
X71384936Y-53064900D02*
X71839064Y-53064900D01*
%TO.C,R4*%
X84545936Y-68480000D02*
X85000064Y-68480000D01*
X84545936Y-69950000D02*
X85000064Y-69950000D01*
%TO.C,R5*%
X84545936Y-70766000D02*
X85000064Y-70766000D01*
X84545936Y-72236000D02*
X85000064Y-72236000D01*
%TO.C,R6*%
X50319000Y-60107064D02*
X50319000Y-59652936D01*
X51789000Y-60107064D02*
X51789000Y-59652936D01*
%TO.C,R3*%
X105764000Y-66939936D02*
X105764000Y-67394064D01*
X104294000Y-66939936D02*
X104294000Y-67394064D01*
%TO.C,C2*%
X44827748Y-63400000D02*
X45350252Y-63400000D01*
X44827748Y-64870000D02*
X45350252Y-64870000D01*
%TO.C,U4*%
X45023000Y-65542000D02*
X41573000Y-65542000D01*
X45023000Y-65542000D02*
X46973000Y-65542000D01*
X45023000Y-74412000D02*
X43073000Y-74412000D01*
X45023000Y-74412000D02*
X46973000Y-74412000D01*
%TO.C,C6*%
X79602000Y-57629248D02*
X79602000Y-58151752D01*
X78132000Y-57629248D02*
X78132000Y-58151752D01*
%TO.C,C12*%
X105939000Y-71132248D02*
X105939000Y-72554752D01*
X104119000Y-71132248D02*
X104119000Y-72554752D01*
%TO.C,R9*%
X59590000Y-60028064D02*
X59590000Y-59573936D01*
X61060000Y-60028064D02*
X61060000Y-59573936D01*
%TO.C,R1*%
X49303000Y-68918064D02*
X49303000Y-68463936D01*
X50773000Y-68918064D02*
X50773000Y-68463936D01*
%TO.C,U1*%
X45634000Y-82776000D02*
X45634000Y-99276000D01*
X45634000Y-82776000D02*
X102634000Y-82776000D01*
X45634000Y-99276000D02*
X57134000Y-99276000D01*
X57134000Y-98276000D02*
X65134000Y-98276000D01*
X57134000Y-99276000D02*
X57134000Y-98276000D01*
X65134000Y-98276000D02*
X65134000Y-99276000D01*
X83134000Y-98276000D02*
X83134000Y-99276000D01*
X83134000Y-99276000D02*
X65134000Y-99276000D01*
X91134000Y-98276000D02*
X83134000Y-98276000D01*
X91134000Y-99276000D02*
X91134000Y-98276000D01*
X102634000Y-99276000D02*
X91134000Y-99276000D01*
X102634000Y-99276000D02*
X102634000Y-82776000D01*
%TO.C,D4*%
X59365000Y-56495500D02*
X61285000Y-56495500D01*
X61285000Y-56495500D02*
X61285000Y-53635500D01*
X59365000Y-53635500D02*
X59365000Y-56495500D01*
%TO.C,D1*%
X50094000Y-56444500D02*
X52014000Y-56444500D01*
X52014000Y-56444500D02*
X52014000Y-53584500D01*
X50094000Y-53584500D02*
X50094000Y-56444500D01*
%TO.C,D2*%
X53015000Y-56444500D02*
X54935000Y-56444500D01*
X54935000Y-56444500D02*
X54935000Y-53584500D01*
X53015000Y-53584500D02*
X53015000Y-56444500D01*
%TO.C,D5*%
X47046000Y-56496000D02*
X48966000Y-56496000D01*
X48966000Y-56496000D02*
X48966000Y-53636000D01*
X47046000Y-53636000D02*
X47046000Y-56496000D01*
%TO.C,D3*%
X56063000Y-56444500D02*
X57983000Y-56444500D01*
X57983000Y-56444500D02*
X57983000Y-53584500D01*
X56063000Y-53584500D02*
X56063000Y-56444500D01*
%TO.C,F1*%
X104119000Y-63312064D02*
X104119000Y-61857936D01*
X105939000Y-63312064D02*
X105939000Y-61857936D01*
D15*
%TO.C,J1*%
X100624000Y-57730400D02*
X100624000Y-55242400D01*
X100624000Y-50972400D02*
X92924000Y-50972400D01*
X92924000Y-57730400D02*
X92924000Y-55242400D01*
X98463260Y-60993400D02*
G75*
G03*
X98366740Y-60993400I-48260J0D01*
G01*
X98366740Y-60993400D02*
G75*
G03*
X98463260Y-60993400I48260J0D01*
G01*
D13*
%TO.C,U5*%
X91898000Y-64991000D02*
X91898000Y-65226000D01*
X91898000Y-65226000D02*
X90083000Y-65226000D01*
X91898000Y-78011000D02*
X91898000Y-77776000D01*
X95758000Y-64991000D02*
X91898000Y-64991000D01*
X95758000Y-64991000D02*
X99618000Y-64991000D01*
X95758000Y-78011000D02*
X91898000Y-78011000D01*
X95758000Y-78011000D02*
X99618000Y-78011000D01*
X99618000Y-64991000D02*
X99618000Y-65226000D01*
X99618000Y-78011000D02*
X99618000Y-77776000D01*
%TO.C,Y1*%
X74726000Y-58918900D02*
X68476000Y-58918900D01*
X74726000Y-53868900D02*
X68476000Y-53868900D01*
X74726000Y-58918900D02*
G75*
G03*
X74726000Y-53868900I0J2525000D01*
G01*
X68476000Y-53868900D02*
G75*
G03*
X68476000Y-58918900I0J-2525000D01*
G01*
%TO.C,U6*%
X54765000Y-64991000D02*
X54765000Y-65226000D01*
X54765000Y-65226000D02*
X52950000Y-65226000D01*
X54765000Y-78011000D02*
X54765000Y-77776000D01*
X58625000Y-64991000D02*
X54765000Y-64991000D01*
X58625000Y-64991000D02*
X62485000Y-64991000D01*
X58625000Y-78011000D02*
X54765000Y-78011000D01*
X58625000Y-78011000D02*
X62485000Y-78011000D01*
X62485000Y-64991000D02*
X62485000Y-65226000D01*
X62485000Y-78011000D02*
X62485000Y-77776000D01*
D11*
%TO.C,U2*%
X79963000Y-73183000D02*
X79963000Y-72608000D01*
X79963000Y-73183000D02*
X79288000Y-73183000D01*
X79963000Y-72608000D02*
X81238000Y-72608000D01*
X79963000Y-62833000D02*
X79963000Y-63508000D01*
X79963000Y-62833000D02*
X79288000Y-62833000D01*
X69613000Y-73183000D02*
X70288000Y-73183000D01*
X69613000Y-73183000D02*
X69613000Y-72508000D01*
X69613000Y-62833000D02*
X70288000Y-62833000D01*
X69613000Y-62833000D02*
X69613000Y-63508000D01*
D13*
%TO.C,C13*%
X85583752Y-62076000D02*
X85061248Y-62076000D01*
X85583752Y-60606000D02*
X85061248Y-60606000D01*
%TD*%
M02*
