%TF.GenerationSoftware,KiCad,Pcbnew,7.0.10*%
%TF.CreationDate,2024-03-10T15:03:06+01:00*%
%TF.ProjectId,dmg-gbc-cartridge-reader,646d672d-6762-4632-9d63-617274726964,rev?*%
%TF.SameCoordinates,Original*%
%TF.FileFunction,Copper,L1,Top*%
%TF.FilePolarity,Positive*%
%FSLAX46Y46*%
G04 Gerber Fmt 4.6, Leading zero omitted, Abs format (unit mm)*
G04 Created by KiCad (PCBNEW 7.0.10) date 2024-03-10 15:03:06*
%MOMM*%
%LPD*%
G01*
G04 APERTURE LIST*
G04 Aperture macros list*
%AMRoundRect*
0 Rectangle with rounded corners*
0 $1 Rounding radius*
0 $2 $3 $4 $5 $6 $7 $8 $9 X,Y pos of 4 corners*
0 Add a 4 corners polygon primitive as box body*
4,1,4,$2,$3,$4,$5,$6,$7,$8,$9,$2,$3,0*
0 Add four circle primitives for the rounded corners*
1,1,$1+$1,$2,$3*
1,1,$1+$1,$4,$5*
1,1,$1+$1,$6,$7*
1,1,$1+$1,$8,$9*
0 Add four rect primitives between the rounded corners*
20,1,$1+$1,$2,$3,$4,$5,0*
20,1,$1+$1,$4,$5,$6,$7,0*
20,1,$1+$1,$6,$7,$8,$9,0*
20,1,$1+$1,$8,$9,$2,$3,0*%
G04 Aperture macros list end*
%TA.AperFunction,SMDPad,CuDef*%
%ADD10RoundRect,0.250000X0.475000X-0.337500X0.475000X0.337500X-0.475000X0.337500X-0.475000X-0.337500X0*%
%TD*%
%TA.AperFunction,SMDPad,CuDef*%
%ADD11RoundRect,0.250000X0.450000X-0.350000X0.450000X0.350000X-0.450000X0.350000X-0.450000X-0.350000X0*%
%TD*%
%TA.AperFunction,ComponentPad*%
%ADD12C,2.000000*%
%TD*%
%TA.AperFunction,SMDPad,CuDef*%
%ADD13RoundRect,0.250000X0.337500X0.475000X-0.337500X0.475000X-0.337500X-0.475000X0.337500X-0.475000X0*%
%TD*%
%TA.AperFunction,SMDPad,CuDef*%
%ADD14RoundRect,0.250000X-0.337500X-0.475000X0.337500X-0.475000X0.337500X0.475000X-0.337500X0.475000X0*%
%TD*%
%TA.AperFunction,SMDPad,CuDef*%
%ADD15RoundRect,0.250000X-0.475000X0.337500X-0.475000X-0.337500X0.475000X-0.337500X0.475000X0.337500X0*%
%TD*%
%TA.AperFunction,SMDPad,CuDef*%
%ADD16RoundRect,0.250000X-0.350000X-0.450000X0.350000X-0.450000X0.350000X0.450000X-0.350000X0.450000X0*%
%TD*%
%TA.AperFunction,SMDPad,CuDef*%
%ADD17RoundRect,0.250000X-0.450000X0.350000X-0.450000X-0.350000X0.450000X-0.350000X0.450000X0.350000X0*%
%TD*%
%TA.AperFunction,SMDPad,CuDef*%
%ADD18RoundRect,0.150000X-0.825000X-0.150000X0.825000X-0.150000X0.825000X0.150000X-0.825000X0.150000X0*%
%TD*%
%TA.AperFunction,SMDPad,CuDef*%
%ADD19RoundRect,0.250000X-0.650000X0.412500X-0.650000X-0.412500X0.650000X-0.412500X0.650000X0.412500X0*%
%TD*%
%TA.AperFunction,WasherPad*%
%ADD20C,2.500000*%
%TD*%
%TA.AperFunction,ConnectorPad*%
%ADD21R,5.000000X4.000000*%
%TD*%
%TA.AperFunction,SMDPad,CuDef*%
%ADD22R,0.750000X3.000000*%
%TD*%
%TA.AperFunction,SMDPad,CuDef*%
%ADD23RoundRect,0.250000X0.450000X-0.325000X0.450000X0.325000X-0.450000X0.325000X-0.450000X-0.325000X0*%
%TD*%
%TA.AperFunction,SMDPad,CuDef*%
%ADD24RoundRect,0.250000X0.625000X-0.400000X0.625000X0.400000X-0.625000X0.400000X-0.625000X-0.400000X0*%
%TD*%
%TA.AperFunction,SMDPad,CuDef*%
%ADD25R,0.500000X2.500000*%
%TD*%
%TA.AperFunction,SMDPad,CuDef*%
%ADD26R,2.000000X2.500000*%
%TD*%
%TA.AperFunction,SMDPad,CuDef*%
%ADD27RoundRect,0.150000X-0.875000X-0.150000X0.875000X-0.150000X0.875000X0.150000X-0.875000X0.150000X0*%
%TD*%
%TA.AperFunction,ComponentPad*%
%ADD28C,1.500000*%
%TD*%
%TA.AperFunction,SMDPad,CuDef*%
%ADD29R,1.500000X0.550000*%
%TD*%
%TA.AperFunction,SMDPad,CuDef*%
%ADD30R,0.550000X1.500000*%
%TD*%
%TA.AperFunction,ComponentPad*%
%ADD31RoundRect,0.250000X0.600000X-0.600000X0.600000X0.600000X-0.600000X0.600000X-0.600000X-0.600000X0*%
%TD*%
%TA.AperFunction,ComponentPad*%
%ADD32C,1.700000*%
%TD*%
%TA.AperFunction,ViaPad*%
%ADD33C,0.800000*%
%TD*%
%TA.AperFunction,Conductor*%
%ADD34C,0.250000*%
%TD*%
%TA.AperFunction,Conductor*%
%ADD35C,0.200000*%
%TD*%
G04 APERTURE END LIST*
D10*
%TO.P,C4,1*%
%TO.N,GND*%
X78867000Y-54996900D03*
%TO.P,C4,2*%
%TO.N,Net-(U2-XTAL2)*%
X78867000Y-52921900D03*
%TD*%
%TO.P,C3,1*%
%TO.N,GND*%
X64262000Y-57452900D03*
%TO.P,C3,2*%
%TO.N,Net-(U2-XTAL1)*%
X64262000Y-55377900D03*
%TD*%
D11*
%TO.P,R7,1*%
%TO.N,GND*%
X53975000Y-60801000D03*
%TO.P,R7,2*%
%TO.N,Net-(D2-K)*%
X53975000Y-58801000D03*
%TD*%
%TO.P,R8,1*%
%TO.N,GND*%
X57023000Y-60801000D03*
%TO.P,R8,2*%
%TO.N,Net-(D3-K)*%
X57023000Y-58801000D03*
%TD*%
%TO.P,R10,1*%
%TO.N,GND*%
X48006000Y-60880000D03*
%TO.P,R10,2*%
%TO.N,Net-(D5-K)*%
X48006000Y-58880000D03*
%TD*%
D12*
%TO.P,SW1,1,1*%
%TO.N,~{RESET}*%
X89356000Y-58384000D03*
X82856000Y-58384000D03*
%TO.P,SW1,2,2*%
%TO.N,GND*%
X89356000Y-53884000D03*
X82856000Y-53884000D03*
%TD*%
D13*
%TO.P,C11,1*%
%TO.N,+5V*%
X86487000Y-75946000D03*
%TO.P,C11,2*%
%TO.N,GND*%
X84412000Y-75946000D03*
%TD*%
D14*
%TO.P,C1,1*%
%TO.N,GND*%
X57785000Y-63754000D03*
%TO.P,C1,2*%
%TO.N,+5V*%
X59860000Y-63754000D03*
%TD*%
%TO.P,C10,1*%
%TO.N,GND*%
X94572000Y-63627000D03*
%TO.P,C10,2*%
%TO.N,+5V*%
X96647000Y-63627000D03*
%TD*%
%TO.P,C5,1*%
%TO.N,Net-(U2-AREF)*%
X76752500Y-77089000D03*
%TO.P,C5,2*%
%TO.N,GND*%
X78827500Y-77089000D03*
%TD*%
D15*
%TO.P,C7,1*%
%TO.N,GND*%
X66167000Y-63290500D03*
%TO.P,C7,2*%
%TO.N,+5V*%
X66167000Y-65365500D03*
%TD*%
D13*
%TO.P,C8,1*%
%TO.N,GND*%
X72263000Y-77089000D03*
%TO.P,C8,2*%
%TO.N,+5V*%
X70188000Y-77089000D03*
%TD*%
D15*
%TO.P,C9,1*%
%TO.N,Net-(U2-UCAP)*%
X84328000Y-64897000D03*
%TO.P,C9,2*%
%TO.N,GND*%
X84328000Y-66972000D03*
%TD*%
D16*
%TO.P,R2,1*%
%TO.N,Net-(U2-XTAL1)*%
X70612000Y-52329900D03*
%TO.P,R2,2*%
%TO.N,Net-(U2-XTAL2)*%
X72612000Y-52329900D03*
%TD*%
%TO.P,R4,1*%
%TO.N,USB+*%
X83773000Y-69215000D03*
%TO.P,R4,2*%
%TO.N,/D+*%
X85773000Y-69215000D03*
%TD*%
%TO.P,R5,1*%
%TO.N,USB-*%
X83773000Y-71501000D03*
%TO.P,R5,2*%
%TO.N,/D-*%
X85773000Y-71501000D03*
%TD*%
D11*
%TO.P,R6,1*%
%TO.N,GND*%
X51054000Y-60880000D03*
%TO.P,R6,2*%
%TO.N,Net-(D1-K)*%
X51054000Y-58880000D03*
%TD*%
D17*
%TO.P,R3,1*%
%TO.N,+5V*%
X105029000Y-66167000D03*
%TO.P,R3,2*%
%TO.N,~{RESET}*%
X105029000Y-68167000D03*
%TD*%
D14*
%TO.P,C2,1*%
%TO.N,GND*%
X44051500Y-64135000D03*
%TO.P,C2,2*%
%TO.N,+5V*%
X46126500Y-64135000D03*
%TD*%
D18*
%TO.P,U4,1*%
%TO.N,RD*%
X42548000Y-66167000D03*
%TO.P,U4,2*%
%TO.N,Net-(D1-A)*%
X42548000Y-67437000D03*
%TO.P,U4,3*%
%TO.N,+5V*%
X42548000Y-68707000D03*
%TO.P,U4,4*%
%TO.N,unconnected-(U4-Pad4)*%
X42548000Y-69977000D03*
%TO.P,U4,5*%
%TO.N,WR*%
X42548000Y-71247000D03*
%TO.P,U4,6*%
%TO.N,Net-(D2-A)*%
X42548000Y-72517000D03*
%TO.P,U4,7,GND*%
%TO.N,GND*%
X42548000Y-73787000D03*
%TO.P,U4,8*%
%TO.N,Net-(D3-A)*%
X47498000Y-73787000D03*
%TO.P,U4,9*%
%TO.N,RST*%
X47498000Y-72517000D03*
%TO.P,U4,10*%
%TO.N,Net-(D4-A)*%
X47498000Y-71247000D03*
%TO.P,U4,11*%
%TO.N,SRAM*%
X47498000Y-69977000D03*
%TO.P,U4,12*%
%TO.N,unconnected-(U4-Pad12)*%
X47498000Y-68707000D03*
%TO.P,U4,13*%
%TO.N,+5V*%
X47498000Y-67437000D03*
%TO.P,U4,14,VCC*%
X47498000Y-66167000D03*
%TD*%
D15*
%TO.P,C6,1*%
%TO.N,GND*%
X78867000Y-56853000D03*
%TO.P,C6,2*%
%TO.N,+5V*%
X78867000Y-58928000D03*
%TD*%
D19*
%TO.P,C12,1*%
%TO.N,+5V*%
X105029000Y-70281000D03*
%TO.P,C12,2*%
%TO.N,GND*%
X105029000Y-73406000D03*
%TD*%
D11*
%TO.P,R9,1*%
%TO.N,GND*%
X60325000Y-60801000D03*
%TO.P,R9,2*%
%TO.N,Net-(D4-K)*%
X60325000Y-58801000D03*
%TD*%
%TO.P,R1,1*%
%TO.N,SRAM*%
X50038000Y-69691000D03*
%TO.P,R1,2*%
%TO.N,+5V*%
X50038000Y-67691000D03*
%TD*%
D20*
%TO.P,U1,*%
%TO.N,*%
X61134000Y-88976000D03*
D21*
X61134000Y-100376000D03*
D20*
X87134000Y-88976000D03*
D21*
X87134000Y-100376000D03*
D22*
%TO.P,U1,1,VCC*%
%TO.N,+5V*%
X97384000Y-81276000D03*
%TO.P,U1,2,CLK*%
%TO.N,GND*%
X95884000Y-81276000D03*
%TO.P,U1,3,WR*%
%TO.N,WR*%
X94384000Y-81276000D03*
%TO.P,U1,4,RD*%
%TO.N,RD*%
X92884000Y-81276000D03*
%TO.P,U1,5,CS*%
%TO.N,SRAM*%
X91384000Y-81276000D03*
%TO.P,U1,6,A0*%
%TO.N,A0*%
X89884000Y-81276000D03*
%TO.P,U1,7,A1*%
%TO.N,A1*%
X88384000Y-81276000D03*
%TO.P,U1,8,A2*%
%TO.N,A2*%
X86884000Y-81276000D03*
%TO.P,U1,9,A3*%
%TO.N,A3*%
X85384000Y-81276000D03*
%TO.P,U1,10,A4*%
%TO.N,A4*%
X83884000Y-81276000D03*
%TO.P,U1,11,A5*%
%TO.N,A5*%
X82384000Y-81276000D03*
%TO.P,U1,12,A6*%
%TO.N,A6*%
X80884000Y-81276000D03*
%TO.P,U1,13,A7*%
%TO.N,A7*%
X79384000Y-81276000D03*
%TO.P,U1,14,A8*%
%TO.N,A8*%
X77884000Y-81276000D03*
%TO.P,U1,15,A9*%
%TO.N,A9*%
X76384000Y-81276000D03*
%TO.P,U1,16,A10*%
%TO.N,A10*%
X74884000Y-81276000D03*
%TO.P,U1,17,A11*%
%TO.N,A11*%
X73384000Y-81276000D03*
%TO.P,U1,18,A12*%
%TO.N,A12*%
X71884000Y-81276000D03*
%TO.P,U1,19,A13*%
%TO.N,A13*%
X70384000Y-81276000D03*
%TO.P,U1,20,A14*%
%TO.N,A14*%
X68884000Y-81276000D03*
%TO.P,U1,21,A15*%
%TO.N,A15*%
X67384000Y-81276000D03*
%TO.P,U1,22,D0*%
%TO.N,D0*%
X65884000Y-81276000D03*
%TO.P,U1,23,D1*%
%TO.N,D1*%
X64384000Y-81276000D03*
%TO.P,U1,24,D2*%
%TO.N,D2*%
X62884000Y-81276000D03*
%TO.P,U1,25,D3*%
%TO.N,D3*%
X61384000Y-81276000D03*
%TO.P,U1,26,D4*%
%TO.N,D4*%
X59884000Y-81276000D03*
%TO.P,U1,27,D5*%
%TO.N,D5*%
X58384000Y-81276000D03*
%TO.P,U1,28,D6*%
%TO.N,D6*%
X56884000Y-81276000D03*
%TO.P,U1,29,D7*%
%TO.N,D7*%
X55384000Y-81276000D03*
%TO.P,U1,30,RESET*%
%TO.N,RST*%
X53884000Y-81276000D03*
%TO.P,U1,31,AUDIO*%
%TO.N,AUDIO*%
X52384000Y-81276000D03*
%TO.P,U1,32,GND*%
%TO.N,GND*%
X50884000Y-81276000D03*
%TD*%
D23*
%TO.P,D4,1,K*%
%TO.N,Net-(D4-K)*%
X60325000Y-55660500D03*
%TO.P,D4,2,A*%
%TO.N,Net-(D4-A)*%
X60325000Y-53610500D03*
%TD*%
%TO.P,D1,1,K*%
%TO.N,Net-(D1-K)*%
X51054000Y-55609500D03*
%TO.P,D1,2,A*%
%TO.N,Net-(D1-A)*%
X51054000Y-53559500D03*
%TD*%
%TO.P,D2,1,K*%
%TO.N,Net-(D2-K)*%
X53975000Y-55609500D03*
%TO.P,D2,2,A*%
%TO.N,Net-(D2-A)*%
X53975000Y-53559500D03*
%TD*%
%TO.P,D5,1,K*%
%TO.N,Net-(D5-K)*%
X48006000Y-55661000D03*
%TO.P,D5,2,A*%
%TO.N,+5V*%
X48006000Y-53611000D03*
%TD*%
%TO.P,D3,1,K*%
%TO.N,Net-(D3-K)*%
X57023000Y-55609500D03*
%TO.P,D3,2,A*%
%TO.N,Net-(D3-A)*%
X57023000Y-53559500D03*
%TD*%
D24*
%TO.P,F1,1*%
%TO.N,+5V*%
X105029000Y-64135000D03*
%TO.P,F1,2*%
%TO.N,VIN*%
X105029000Y-61035000D03*
%TD*%
D25*
%TO.P,J1,1,VBUS*%
%TO.N,VIN*%
X98374000Y-59222400D03*
%TO.P,J1,2,D-*%
%TO.N,/D-*%
X97574000Y-59222400D03*
%TO.P,J1,3,D+*%
%TO.N,/D+*%
X96774000Y-59222400D03*
%TO.P,J1,4,ID*%
%TO.N,unconnected-(J1-ID-Pad4)*%
X95974000Y-59222400D03*
%TO.P,J1,5,GND*%
%TO.N,GND*%
X95174000Y-59222400D03*
D26*
%TO.P,J1,6,Shield*%
%TO.N,unconnected-(J1-Shield-Pad6)*%
X101174000Y-59222400D03*
%TO.P,J1,7*%
%TO.N,N/C*%
X92374000Y-59222400D03*
%TO.P,J1,8*%
X92374000Y-53722400D03*
%TO.P,J1,9*%
X101174000Y-53722400D03*
%TD*%
D27*
%TO.P,U5,1,~{Mr}*%
%TO.N,~{RESET}*%
X91108000Y-65786000D03*
%TO.P,U5,2,Q0*%
%TO.N,A8*%
X91108000Y-67056000D03*
%TO.P,U5,3,D0*%
%TO.N,D0*%
X91108000Y-68326000D03*
%TO.P,U5,4,D1*%
%TO.N,D1*%
X91108000Y-69596000D03*
%TO.P,U5,5,Q1*%
%TO.N,A9*%
X91108000Y-70866000D03*
%TO.P,U5,6,Q2*%
%TO.N,A10*%
X91108000Y-72136000D03*
%TO.P,U5,7,D2*%
%TO.N,D2*%
X91108000Y-73406000D03*
%TO.P,U5,8,D3*%
%TO.N,D3*%
X91108000Y-74676000D03*
%TO.P,U5,9,Q3*%
%TO.N,A11*%
X91108000Y-75946000D03*
%TO.P,U5,10,GND*%
%TO.N,GND*%
X91108000Y-77216000D03*
%TO.P,U5,11,Cp*%
%TO.N,CPH*%
X100408000Y-77216000D03*
%TO.P,U5,12,Q4*%
%TO.N,A12*%
X100408000Y-75946000D03*
%TO.P,U5,13,D4*%
%TO.N,D4*%
X100408000Y-74676000D03*
%TO.P,U5,14,D5*%
%TO.N,D5*%
X100408000Y-73406000D03*
%TO.P,U5,15,Q5*%
%TO.N,A13*%
X100408000Y-72136000D03*
%TO.P,U5,16,Q6*%
%TO.N,A14*%
X100408000Y-70866000D03*
%TO.P,U5,17,D6*%
%TO.N,D6*%
X100408000Y-69596000D03*
%TO.P,U5,18,D7*%
%TO.N,D7*%
X100408000Y-68326000D03*
%TO.P,U5,19,Q7*%
%TO.N,A15*%
X100408000Y-67056000D03*
%TO.P,U5,20,VCC*%
%TO.N,+5V*%
X100408000Y-65786000D03*
%TD*%
D28*
%TO.P,Y1,1,1*%
%TO.N,Net-(U2-XTAL2)*%
X74041000Y-56393900D03*
%TO.P,Y1,2,2*%
%TO.N,Net-(U2-XTAL1)*%
X69161000Y-56393900D03*
%TD*%
D27*
%TO.P,U6,1,~{Mr}*%
%TO.N,~{RESET}*%
X53975000Y-65786000D03*
%TO.P,U6,2,Q0*%
%TO.N,A0*%
X53975000Y-67056000D03*
%TO.P,U6,3,D0*%
%TO.N,D0*%
X53975000Y-68326000D03*
%TO.P,U6,4,D1*%
%TO.N,D1*%
X53975000Y-69596000D03*
%TO.P,U6,5,Q1*%
%TO.N,A1*%
X53975000Y-70866000D03*
%TO.P,U6,6,Q2*%
%TO.N,A2*%
X53975000Y-72136000D03*
%TO.P,U6,7,D2*%
%TO.N,D2*%
X53975000Y-73406000D03*
%TO.P,U6,8,D3*%
%TO.N,D3*%
X53975000Y-74676000D03*
%TO.P,U6,9,Q3*%
%TO.N,A3*%
X53975000Y-75946000D03*
%TO.P,U6,10,GND*%
%TO.N,GND*%
X53975000Y-77216000D03*
%TO.P,U6,11,Cp*%
%TO.N,CPL*%
X63275000Y-77216000D03*
%TO.P,U6,12,Q4*%
%TO.N,A4*%
X63275000Y-75946000D03*
%TO.P,U6,13,D4*%
%TO.N,D4*%
X63275000Y-74676000D03*
%TO.P,U6,14,D5*%
%TO.N,D5*%
X63275000Y-73406000D03*
%TO.P,U6,15,Q5*%
%TO.N,A5*%
X63275000Y-72136000D03*
%TO.P,U6,16,Q6*%
%TO.N,A6*%
X63275000Y-70866000D03*
%TO.P,U6,17,D6*%
%TO.N,D6*%
X63275000Y-69596000D03*
%TO.P,U6,18,D7*%
%TO.N,D7*%
X63275000Y-68326000D03*
%TO.P,U6,19,Q7*%
%TO.N,A7*%
X63275000Y-67056000D03*
%TO.P,U6,20,VCC*%
%TO.N,+5V*%
X63275000Y-65786000D03*
%TD*%
D29*
%TO.P,U2,1,PE6*%
%TO.N,SRAM*%
X80488000Y-72008000D03*
%TO.P,U2,2,UVCC*%
%TO.N,+5V*%
X80488000Y-71208000D03*
%TO.P,U2,3,D-*%
%TO.N,USB-*%
X80488000Y-70408000D03*
%TO.P,U2,4,D+*%
%TO.N,USB+*%
X80488000Y-69608000D03*
%TO.P,U2,5,UGND*%
%TO.N,GND*%
X80488000Y-68808000D03*
%TO.P,U2,6,UCAP*%
%TO.N,Net-(U2-UCAP)*%
X80488000Y-68008000D03*
%TO.P,U2,7,VBUS*%
%TO.N,+5V*%
X80488000Y-67208000D03*
%TO.P,U2,8,PB0*%
%TO.N,unconnected-(U2-PB0-Pad8)*%
X80488000Y-66408000D03*
%TO.P,U2,9,PB1*%
%TO.N,SCK*%
X80488000Y-65608000D03*
%TO.P,U2,10,PB2*%
%TO.N,MOSI*%
X80488000Y-64808000D03*
%TO.P,U2,11,PB3*%
%TO.N,MISO*%
X80488000Y-64008000D03*
D30*
%TO.P,U2,12,PB7*%
%TO.N,unconnected-(U2-PB7-Pad12)*%
X78788000Y-62308000D03*
%TO.P,U2,13,~{RESET}*%
%TO.N,~{RESET}*%
X77988000Y-62308000D03*
%TO.P,U2,14,VCC*%
%TO.N,+5V*%
X77188000Y-62308000D03*
%TO.P,U2,15,GND*%
%TO.N,GND*%
X76388000Y-62308000D03*
%TO.P,U2,16,XTAL2*%
%TO.N,Net-(U2-XTAL2)*%
X75588000Y-62308000D03*
%TO.P,U2,17,XTAL1*%
%TO.N,Net-(U2-XTAL1)*%
X74788000Y-62308000D03*
%TO.P,U2,18,PD0*%
%TO.N,D0*%
X73988000Y-62308000D03*
%TO.P,U2,19,PD1*%
%TO.N,D1*%
X73188000Y-62308000D03*
%TO.P,U2,20,PD2*%
%TO.N,D2*%
X72388000Y-62308000D03*
%TO.P,U2,21,PD3*%
%TO.N,D3*%
X71588000Y-62308000D03*
%TO.P,U2,22,PD5*%
%TO.N,D5*%
X70788000Y-62308000D03*
D29*
%TO.P,U2,23,GND*%
%TO.N,GND*%
X69088000Y-64008000D03*
%TO.P,U2,24,AVCC*%
%TO.N,+5V*%
X69088000Y-64808000D03*
%TO.P,U2,25,PD4*%
%TO.N,D4*%
X69088000Y-65608000D03*
%TO.P,U2,26,PD6*%
%TO.N,D6*%
X69088000Y-66408000D03*
%TO.P,U2,27,PD7*%
%TO.N,D7*%
X69088000Y-67208000D03*
%TO.P,U2,28,PB4*%
%TO.N,unconnected-(U2-PB4-Pad28)*%
X69088000Y-68008000D03*
%TO.P,U2,29,PB5*%
%TO.N,RD*%
X69088000Y-68808000D03*
%TO.P,U2,30,PB6*%
%TO.N,WR*%
X69088000Y-69608000D03*
%TO.P,U2,31,PC6*%
%TO.N,unconnected-(U2-PC6-Pad31)*%
X69088000Y-70408000D03*
%TO.P,U2,32,PC7*%
%TO.N,unconnected-(U2-PC7-Pad32)*%
X69088000Y-71208000D03*
%TO.P,U2,33,~{HWB}/PE2*%
%TO.N,unconnected-(U2-~{HWB}{slash}PE2-Pad33)*%
X69088000Y-72008000D03*
D30*
%TO.P,U2,34,VCC*%
%TO.N,+5V*%
X70788000Y-73708000D03*
%TO.P,U2,35,GND*%
%TO.N,GND*%
X71588000Y-73708000D03*
%TO.P,U2,36,PF7*%
%TO.N,RST*%
X72388000Y-73708000D03*
%TO.P,U2,37,PF6*%
%TO.N,AUDIO*%
X73188000Y-73708000D03*
%TO.P,U2,38,PF5*%
%TO.N,unconnected-(U2-PF5-Pad38)*%
X73988000Y-73708000D03*
%TO.P,U2,39,PF4*%
%TO.N,unconnected-(U2-PF4-Pad39)*%
X74788000Y-73708000D03*
%TO.P,U2,40,PF1*%
%TO.N,CPH*%
X75588000Y-73708000D03*
%TO.P,U2,41,PF0*%
%TO.N,CPL*%
X76388000Y-73708000D03*
%TO.P,U2,42,AREF*%
%TO.N,Net-(U2-AREF)*%
X77188000Y-73708000D03*
%TO.P,U2,43,GND*%
%TO.N,GND*%
X77988000Y-73708000D03*
%TO.P,U2,44,AVCC*%
%TO.N,+5V*%
X78788000Y-73708000D03*
%TD*%
D13*
%TO.P,C13,1*%
%TO.N,GND*%
X86360000Y-61341000D03*
%TO.P,C13,2*%
%TO.N,+5V*%
X84285000Y-61341000D03*
%TD*%
D31*
%TO.P,J2,1,MISO*%
%TO.N,MISO*%
X76835000Y-92837000D03*
D32*
%TO.P,J2,2,VCC*%
%TO.N,+5V*%
X76835000Y-90297000D03*
%TO.P,J2,3,SCK*%
%TO.N,SCK*%
X74295000Y-92837000D03*
%TO.P,J2,4,MOSI*%
%TO.N,MOSI*%
X74295000Y-90297000D03*
%TO.P,J2,5,~{RST}*%
%TO.N,~{RESET}*%
X71755000Y-92837000D03*
%TO.P,J2,6,GND*%
%TO.N,GND*%
X71755000Y-90297000D03*
%TD*%
D33*
%TO.N,GND*%
X56388000Y-63754000D03*
X105029000Y-74930000D03*
X83058000Y-75946000D03*
X73660000Y-77089000D03*
X77495100Y-58140900D03*
X85979000Y-67691000D03*
X67495500Y-63424900D03*
X51110700Y-83400300D03*
X42799000Y-64135000D03*
X86360000Y-62738000D03*
X93218000Y-63627000D03*
X64262000Y-58801000D03*
X80137000Y-77089000D03*
X61849000Y-60833000D03*
%TO.N,+5V*%
X79133400Y-71509800D03*
X82928500Y-61597500D03*
X61214000Y-63754000D03*
X68834000Y-77089000D03*
X49343600Y-53690800D03*
X106807000Y-64135000D03*
X87757000Y-75946000D03*
X77188000Y-60765200D03*
X79066400Y-75061700D03*
X46228000Y-62484000D03*
X98044000Y-63627000D03*
X41102100Y-68083100D03*
%TO.N,A0*%
X52314500Y-66875200D03*
X89677800Y-83404700D03*
%TO.N,A7*%
X63634000Y-83278700D03*
X65337200Y-68700700D03*
%TO.N,A6*%
X66780200Y-70184500D03*
X80200800Y-78893600D03*
%TO.N,A5*%
X67722100Y-73708300D03*
X82593800Y-79052900D03*
%TO.N,A4*%
X83664100Y-79168200D03*
X64916600Y-76332200D03*
%TO.N,A3*%
X85115100Y-79022800D03*
X55863900Y-76062600D03*
%TO.N,A2*%
X86726800Y-83952300D03*
X55604800Y-71662900D03*
%TO.N,A1*%
X88204800Y-83501900D03*
X52334300Y-71225700D03*
%TO.N,A14*%
X93518100Y-85482300D03*
X101904900Y-71457300D03*
%TO.N,A13*%
X95154000Y-84771000D03*
X102063300Y-72515600D03*
%TO.N,A12*%
X91558900Y-84732000D03*
X101456300Y-79208700D03*
%TO.N,A11*%
X75580900Y-83972500D03*
X81350600Y-77944200D03*
%TO.N,A10*%
X83769700Y-84399700D03*
X86987800Y-71520300D03*
%TO.N,A9*%
X89455200Y-74869900D03*
X88119400Y-79036900D03*
%TO.N,D7*%
X56620600Y-83859800D03*
X61002900Y-72178200D03*
%TO.N,D6*%
X63939500Y-85051200D03*
X66407000Y-68267800D03*
%TO.N,D2*%
X88831700Y-73406000D03*
X70528400Y-64985500D03*
X59934800Y-83848500D03*
X56777100Y-73230700D03*
%TO.N,D5*%
X62141900Y-84213800D03*
X71272700Y-63835800D03*
X61783200Y-74026300D03*
%TO.N,D1*%
X89478300Y-69596000D03*
X57046600Y-69596000D03*
X65571200Y-83385900D03*
X71209500Y-67418000D03*
X69195200Y-59945700D03*
%TO.N,D0*%
X56743600Y-66098100D03*
X91450400Y-64813400D03*
X72529800Y-67218300D03*
X70996400Y-58933700D03*
X66612500Y-83298000D03*
%TO.N,D4*%
X63598100Y-87265800D03*
X61169500Y-74990100D03*
X60902500Y-83401400D03*
%TO.N,MOSI*%
X77455900Y-70978600D03*
%TO.N,SCK*%
X79130500Y-65608000D03*
%TO.N,MISO*%
X81800900Y-63406700D03*
%TO.N,~{RESET}*%
X103055400Y-68167000D03*
X55602900Y-65786000D03*
X92477700Y-64812300D03*
%TO.N,WR*%
X72869900Y-84545600D03*
X70559400Y-70215800D03*
X69894600Y-92206900D03*
%TO.N,SRAM*%
X90678200Y-83312700D03*
X49161700Y-70839100D03*
X86680500Y-72745900D03*
%TO.N,Net-(D2-A)*%
X41702300Y-74689400D03*
X52970900Y-54563600D03*
%TO.N,Net-(D3-A)*%
X55713500Y-53733200D03*
X49500900Y-72891100D03*
%TO.N,CPH*%
X89444800Y-72409600D03*
X99845200Y-78123800D03*
%TO.N,CPL*%
X73843100Y-75059400D03*
X70042300Y-74887300D03*
%TD*%
D34*
%TO.N,GND*%
X57023000Y-60801000D02*
X57023000Y-61722000D01*
X57023000Y-60801000D02*
X60325000Y-60801000D01*
X95174000Y-57353000D02*
X95504000Y-57023000D01*
X84412000Y-75946000D02*
X84854400Y-75946000D01*
X53975000Y-60801000D02*
X51030000Y-60801000D01*
X51030000Y-60801000D02*
X51054000Y-60825000D01*
X43561000Y-73787000D02*
X44051500Y-73296500D01*
X95504000Y-57023000D02*
X95504000Y-56261000D01*
X86360000Y-61341000D02*
X86360000Y-62738000D01*
X57785000Y-62484000D02*
X57785000Y-63754000D01*
X78783000Y-56853000D02*
X77495100Y-58140900D01*
X66719500Y-63290500D02*
X67174700Y-63745700D01*
X57785000Y-63754000D02*
X57785000Y-76581000D01*
X94572000Y-76624000D02*
X93980000Y-77216000D01*
X94572000Y-63627000D02*
X94572000Y-76624000D01*
X83396000Y-66972000D02*
X81560000Y-68808000D01*
X57785000Y-63754000D02*
X56388000Y-63754000D01*
X57785000Y-76581000D02*
X57150000Y-77216000D01*
X78827500Y-76033500D02*
X78827500Y-77089000D01*
X42548000Y-73787000D02*
X43561000Y-73787000D01*
X78867000Y-56853000D02*
X78783000Y-56853000D01*
X94742000Y-55499000D02*
X90170000Y-55499000D01*
X51110700Y-83400300D02*
X50884000Y-83173600D01*
X84328000Y-66972000D02*
X85260000Y-66972000D01*
X78827500Y-77089000D02*
X80137000Y-77089000D01*
X86124400Y-77216000D02*
X86868000Y-77216000D01*
X77988000Y-73708000D02*
X77988000Y-75194000D01*
X66167000Y-63290500D02*
X66719500Y-63290500D01*
X50884000Y-83173600D02*
X50884000Y-83101300D01*
X67437000Y-64008000D02*
X69088000Y-64008000D01*
X71588000Y-73708000D02*
X71588000Y-75144000D01*
X76388000Y-59248000D02*
X76388000Y-62308000D01*
X77495100Y-58140900D02*
X76388000Y-59248000D01*
X94938000Y-78301000D02*
X95885000Y-79248000D01*
X72263000Y-77089000D02*
X73660000Y-77089000D01*
X85260000Y-66972000D02*
X85979000Y-67691000D01*
X95884000Y-79249000D02*
X95884000Y-81276000D01*
X72263000Y-75819000D02*
X72263000Y-77089000D01*
X51030000Y-60801000D02*
X48085000Y-60801000D01*
X84328000Y-66972000D02*
X83396000Y-66972000D01*
X64262000Y-57452900D02*
X64262000Y-58801000D01*
X93980000Y-77216000D02*
X91108000Y-77216000D01*
X87953000Y-78301000D02*
X94938000Y-78301000D01*
X81560000Y-68808000D02*
X80488000Y-68808000D01*
X78867000Y-54996900D02*
X78867000Y-56853000D01*
X48085000Y-60801000D02*
X48006000Y-60880000D01*
X57023000Y-60801000D02*
X53975000Y-60801000D01*
X57023000Y-61722000D02*
X57785000Y-62484000D01*
X84412000Y-75946000D02*
X83058000Y-75946000D01*
X67495500Y-63424900D02*
X67174700Y-63745700D01*
X77988000Y-75194000D02*
X78827500Y-76033500D01*
X44051500Y-64135000D02*
X42799000Y-64135000D01*
X57150000Y-77216000D02*
X53975000Y-77216000D01*
X86868000Y-77216000D02*
X87953000Y-78301000D01*
X95504000Y-56261000D02*
X94742000Y-55499000D01*
X51054000Y-60825000D02*
X51054000Y-60880000D01*
X44051500Y-73296500D02*
X44051500Y-64135000D01*
X94572000Y-63627000D02*
X93218000Y-63627000D01*
X90170000Y-55499000D02*
X89356000Y-54685000D01*
X95174000Y-59222400D02*
X95174000Y-57353000D01*
X84854400Y-75946000D02*
X86124400Y-77216000D01*
X71588000Y-75144000D02*
X72263000Y-75819000D01*
X95885000Y-79248000D02*
X95884000Y-79249000D01*
X50884000Y-81276000D02*
X50884000Y-83101300D01*
X61817000Y-60801000D02*
X61849000Y-60833000D01*
X60325000Y-60801000D02*
X61817000Y-60801000D01*
X67174700Y-63745700D02*
X67437000Y-64008000D01*
X89356000Y-54685000D02*
X89356000Y-53884000D01*
X105029000Y-73406000D02*
X105029000Y-74930000D01*
%TO.N,+5V*%
X78788000Y-74783300D02*
X79066400Y-75061700D01*
X66968500Y-65365500D02*
X67526000Y-64808000D01*
X82550000Y-66038600D02*
X82550000Y-61976000D01*
X103505000Y-66167000D02*
X105029000Y-66167000D01*
X86487000Y-75946000D02*
X88392000Y-77851000D01*
X77188000Y-59337000D02*
X77597000Y-58928000D01*
X97028000Y-65786000D02*
X96647000Y-65405000D01*
X50038000Y-67691000D02*
X50038000Y-66548000D01*
X70188000Y-77089000D02*
X68834000Y-77089000D01*
X80488000Y-67208000D02*
X81380600Y-67208000D01*
X97384000Y-78461000D02*
X97384000Y-81276000D01*
X79412700Y-71230500D02*
X79412700Y-71208000D01*
X46126500Y-64135000D02*
X46126500Y-66065500D01*
X50038000Y-66548000D02*
X49657000Y-66167000D01*
X47498000Y-67437000D02*
X47498000Y-66167000D01*
X78788000Y-73708000D02*
X78788000Y-74783300D01*
X106249000Y-70281000D02*
X106680000Y-69850000D01*
X103124000Y-65786000D02*
X103505000Y-66167000D01*
X48085800Y-53690800D02*
X48006000Y-53611000D01*
X70188000Y-77089000D02*
X70188000Y-76116000D01*
X60706000Y-65786000D02*
X63275000Y-65786000D01*
X106426000Y-66167000D02*
X105029000Y-66167000D01*
X46126500Y-66065500D02*
X46228000Y-66167000D01*
X49343600Y-53690800D02*
X48085800Y-53690800D01*
X59860000Y-64940000D02*
X60706000Y-65786000D01*
X46228000Y-66167000D02*
X47498000Y-66167000D01*
X77188000Y-62308000D02*
X77188000Y-60765200D01*
X59860000Y-63754000D02*
X59860000Y-64940000D01*
X106680000Y-69850000D02*
X106680000Y-66421000D01*
X63275000Y-65786000D02*
X65746500Y-65786000D01*
X96647000Y-65405000D02*
X96647000Y-63627000D01*
X77597000Y-58928000D02*
X78867000Y-58928000D01*
X49657000Y-66167000D02*
X47498000Y-66167000D01*
X67526000Y-64808000D02*
X69088000Y-64808000D01*
X77188000Y-60765200D02*
X77188000Y-59337000D01*
X105029000Y-64135000D02*
X105029000Y-66167000D01*
X66167000Y-65365500D02*
X66968500Y-65365500D01*
X86487000Y-75946000D02*
X87757000Y-75946000D01*
X79133400Y-71509800D02*
X79412700Y-71230500D01*
X80488000Y-71208000D02*
X79412700Y-71208000D01*
X83185000Y-61341000D02*
X84285000Y-61341000D01*
X41726000Y-68707000D02*
X42548000Y-68707000D01*
X70788000Y-75516000D02*
X70788000Y-73708000D01*
X96774000Y-77851000D02*
X97384000Y-78461000D01*
X59860000Y-63754000D02*
X61214000Y-63754000D01*
X105029000Y-70281000D02*
X106249000Y-70281000D01*
X65746500Y-65786000D02*
X66167000Y-65365500D01*
X106680000Y-66421000D02*
X106426000Y-66167000D01*
X88392000Y-77851000D02*
X96774000Y-77851000D01*
X82550000Y-61976000D02*
X82928500Y-61597500D01*
X81380600Y-67208000D02*
X82550000Y-66038600D01*
X100408000Y-65786000D02*
X97028000Y-65786000D01*
X70188000Y-76116000D02*
X70788000Y-75516000D01*
X100408000Y-65786000D02*
X103124000Y-65786000D01*
X96647000Y-63627000D02*
X98044000Y-63627000D01*
X82928500Y-61597500D02*
X83185000Y-61341000D01*
X46126500Y-62585500D02*
X46228000Y-62484000D01*
X105029000Y-64135000D02*
X106807000Y-64135000D01*
X46126500Y-64135000D02*
X46126500Y-62585500D01*
X41102100Y-68083100D02*
X41726000Y-68707000D01*
D35*
%TO.N,/D+*%
X96949000Y-60847800D02*
X96299800Y-61497000D01*
X87709700Y-67229000D02*
X87409700Y-67529000D01*
X87709700Y-67829000D02*
X87740000Y-67829000D01*
X96299800Y-61497000D02*
X93124800Y-61497000D01*
X88040000Y-69691800D02*
X87598800Y-70133000D01*
X88933800Y-63910000D02*
X88040000Y-64803800D01*
X93124800Y-61497000D02*
X90711800Y-63910000D01*
X87598800Y-70133000D02*
X86791000Y-70133000D01*
X90711800Y-63910000D02*
X88933800Y-63910000D01*
X88040000Y-68129000D02*
X88040000Y-69691800D01*
X88040000Y-64803800D02*
X88040000Y-66929000D01*
X96774000Y-60222400D02*
X96949000Y-60397400D01*
X96774000Y-59222400D02*
X96774000Y-60222400D01*
X86791000Y-70133000D02*
X85873000Y-69215000D01*
X87409700Y-67529000D02*
X87709700Y-67829000D01*
X87740000Y-67829000D02*
X88040000Y-68129000D01*
X87740000Y-67229000D02*
X87709700Y-67229000D01*
X96949000Y-60397400D02*
X96949000Y-60847800D01*
X88040000Y-66929000D02*
X87740000Y-67229000D01*
X85873000Y-69215000D02*
X85773000Y-69215000D01*
%TO.N,/D-*%
X97399000Y-61034200D02*
X96486200Y-61947000D01*
X97399000Y-60397400D02*
X97399000Y-61034200D01*
X88490000Y-64990200D02*
X88490000Y-69878200D01*
X90898200Y-64360000D02*
X89120200Y-64360000D01*
X88490000Y-69878200D02*
X87785200Y-70583000D01*
X87785200Y-70583000D02*
X86791000Y-70583000D01*
X85873000Y-71501000D02*
X85773000Y-71501000D01*
X97574000Y-59222400D02*
X97574000Y-60222400D01*
X93311200Y-61947000D02*
X90898200Y-64360000D01*
X86791000Y-70583000D02*
X85873000Y-71501000D01*
X97574000Y-60222400D02*
X97399000Y-60397400D01*
X96486200Y-61947000D02*
X93311200Y-61947000D01*
X89120200Y-64360000D02*
X88490000Y-64990200D01*
D34*
%TO.N,A0*%
X52314500Y-66875200D02*
X53794200Y-66875200D01*
X53794200Y-66875200D02*
X53975000Y-67056000D01*
X89884000Y-83101300D02*
X89677800Y-83307500D01*
X89884000Y-81276000D02*
X89884000Y-83101300D01*
X89677800Y-83307500D02*
X89677800Y-83404700D01*
%TO.N,A7*%
X63722900Y-67056000D02*
X65337200Y-68670300D01*
X63874200Y-79450700D02*
X63634000Y-79690900D01*
X63275000Y-67056000D02*
X63722900Y-67056000D01*
X63634000Y-79690900D02*
X63634000Y-83278700D01*
X79384000Y-81276000D02*
X79384000Y-79450700D01*
X65337200Y-68670300D02*
X65337200Y-68700700D01*
X79384000Y-79450700D02*
X63874200Y-79450700D01*
%TO.N,A6*%
X66780200Y-70184500D02*
X66098700Y-70866000D01*
X80884000Y-79450700D02*
X80757900Y-79450700D01*
X66098700Y-70866000D02*
X63275000Y-70866000D01*
X80884000Y-81276000D02*
X80884000Y-79450700D01*
X80757900Y-79450700D02*
X80200800Y-78893600D01*
%TO.N,A5*%
X82384000Y-81276000D02*
X82384000Y-79262700D01*
X67722100Y-73708300D02*
X66149800Y-72136000D01*
X66149800Y-72136000D02*
X63275000Y-72136000D01*
X82384000Y-79262700D02*
X82593800Y-79052900D01*
%TO.N,A4*%
X63661100Y-76332100D02*
X64916600Y-76332100D01*
X83664100Y-79230800D02*
X83664100Y-79168200D01*
X83884000Y-81276000D02*
X83884000Y-79450700D01*
X83884000Y-79450700D02*
X83664100Y-79230800D01*
X63275000Y-75946000D02*
X63661100Y-76332100D01*
X64916600Y-76332100D02*
X64916600Y-76332200D01*
%TO.N,A3*%
X54091600Y-76062600D02*
X53975000Y-75946000D01*
X85384000Y-79450700D02*
X85115100Y-79181800D01*
X55863900Y-76062600D02*
X54091600Y-76062600D01*
X85115100Y-79181800D02*
X85115100Y-79022800D01*
X85384000Y-81276000D02*
X85384000Y-79450700D01*
%TO.N,A2*%
X86884000Y-81276000D02*
X86884000Y-83101300D01*
X55604800Y-71662900D02*
X55131700Y-72136000D01*
X86726800Y-83258500D02*
X86726800Y-83952300D01*
X86884000Y-83101300D02*
X86726800Y-83258500D01*
X55131700Y-72136000D02*
X53975000Y-72136000D01*
%TO.N,A1*%
X88204900Y-83501900D02*
X88204800Y-83501900D01*
X88384000Y-81276000D02*
X88384000Y-83101300D01*
X53975000Y-70866000D02*
X52694000Y-70866000D01*
X52694000Y-70866000D02*
X52334300Y-71225700D01*
X88204900Y-83280400D02*
X88204900Y-83501900D01*
X88384000Y-83101300D02*
X88204900Y-83280400D01*
%TO.N,A8*%
X89421600Y-76581000D02*
X92179600Y-76581000D01*
X77884000Y-83101300D02*
X84476000Y-83101300D01*
X82282000Y-75610600D02*
X83049600Y-74843000D01*
X84389800Y-78433400D02*
X82282000Y-76325600D01*
X92179600Y-76581000D02*
X92960000Y-75800600D01*
X91638600Y-67056000D02*
X91108000Y-67056000D01*
X92960000Y-68377400D02*
X91638600Y-67056000D01*
X82282000Y-76325600D02*
X82282000Y-75610600D01*
X77884000Y-81276000D02*
X77884000Y-83101300D01*
X84476000Y-83101300D02*
X84600200Y-82977100D01*
X84600200Y-79533600D02*
X84389800Y-79323200D01*
X84389800Y-79323200D02*
X84389800Y-78433400D01*
X92960000Y-75800600D02*
X92960000Y-68377400D01*
X87769200Y-75214500D02*
X88055100Y-75214500D01*
X83049600Y-74843000D02*
X87397700Y-74843000D01*
X87397700Y-74843000D02*
X87769200Y-75214500D01*
X88055100Y-75214500D02*
X89421600Y-76581000D01*
X84600200Y-82977100D02*
X84600200Y-79533600D01*
%TO.N,A15*%
X98539700Y-68375400D02*
X98539700Y-83112700D01*
X100408000Y-67056000D02*
X99859100Y-67056000D01*
X98539700Y-83112700D02*
X94726200Y-86926200D01*
X71208900Y-86926200D02*
X67384000Y-83101300D01*
X67384000Y-81276000D02*
X67384000Y-83101300D01*
X94726200Y-86926200D02*
X71208900Y-86926200D01*
X99859100Y-67056000D02*
X98539700Y-68375400D01*
%TO.N,A14*%
X101313600Y-70866000D02*
X101904900Y-71457300D01*
X68884000Y-81276000D02*
X68884000Y-83101300D01*
X92524500Y-86475900D02*
X72258600Y-86475900D01*
X93518100Y-85482300D02*
X92524500Y-86475900D01*
X72258600Y-86475900D02*
X68884000Y-83101300D01*
X100408000Y-70866000D02*
X101313600Y-70866000D01*
%TO.N,A13*%
X93256200Y-84718500D02*
X95101500Y-84718500D01*
X70384000Y-83101300D02*
X73308300Y-86025600D01*
X70384000Y-81276000D02*
X70384000Y-83101300D01*
X102063300Y-72515600D02*
X100787600Y-72515600D01*
X95101500Y-84718500D02*
X95154000Y-84771000D01*
X91949200Y-86025500D02*
X93256200Y-84718500D01*
X73308300Y-86025600D02*
X91949200Y-86025600D01*
X100787600Y-72515600D02*
X100408000Y-72136000D01*
X91949200Y-86025600D02*
X91949200Y-86025500D01*
%TO.N,A12*%
X72744100Y-83101300D02*
X74767800Y-85125000D01*
X101759500Y-76815100D02*
X101759500Y-78905500D01*
X100408000Y-75946000D02*
X100890400Y-75946000D01*
X71884000Y-81276000D02*
X71884000Y-83101300D01*
X74767800Y-85125000D02*
X91165900Y-85125000D01*
X101759500Y-78905500D02*
X101456300Y-79208700D01*
X100890400Y-75946000D02*
X101759500Y-76815100D01*
X91165900Y-85125000D02*
X91558900Y-84732000D01*
X71884000Y-83101300D02*
X72744100Y-83101300D01*
%TO.N,A11*%
X88323800Y-74764200D02*
X89505600Y-75946000D01*
X81470200Y-77824600D02*
X81470200Y-75737500D01*
X82815100Y-74392600D02*
X87584200Y-74392600D01*
X73384000Y-81276000D02*
X73384000Y-83101300D01*
X89505600Y-75946000D02*
X91108000Y-75946000D01*
X74255200Y-83972500D02*
X73384000Y-83101300D01*
X81350600Y-77944200D02*
X81470200Y-77824600D01*
X87584200Y-74392600D02*
X87955800Y-74764200D01*
X75580900Y-83972500D02*
X74255200Y-83972500D01*
X81470200Y-75737500D02*
X82815100Y-74392600D01*
X87955800Y-74764200D02*
X88323800Y-74764200D01*
%TO.N,A10*%
X91108000Y-72136000D02*
X90492300Y-71520300D01*
X75736100Y-83101300D02*
X77034500Y-84399700D01*
X74884000Y-81276000D02*
X74884000Y-83101300D01*
X90492300Y-71520300D02*
X86987800Y-71520300D01*
X77034500Y-84399700D02*
X83769700Y-84399700D01*
X74884000Y-83101300D02*
X75736100Y-83101300D01*
%TO.N,A9*%
X76384000Y-81276000D02*
X76384000Y-83101300D01*
X92484300Y-75045500D02*
X92484300Y-71784600D01*
X89455200Y-74869900D02*
X89896300Y-75311000D01*
X89896300Y-75311000D02*
X92218800Y-75311000D01*
X86109400Y-79650100D02*
X86722600Y-79036900D01*
X85506100Y-83551700D02*
X86109400Y-82948400D01*
X92218800Y-75311000D02*
X92484300Y-75045500D01*
X76384000Y-83101300D02*
X76834400Y-83551700D01*
X91565700Y-70866000D02*
X91108000Y-70866000D01*
X92484300Y-71784600D02*
X91565700Y-70866000D01*
X86722600Y-79036900D02*
X88119400Y-79036900D01*
X76834400Y-83551700D02*
X85506100Y-83551700D01*
X86109400Y-82948400D02*
X86109400Y-79650100D01*
%TO.N,D7*%
X106726600Y-81374400D02*
X96607000Y-91494000D01*
X66051700Y-91481600D02*
X61617900Y-87047800D01*
X62828400Y-68326000D02*
X63275000Y-68326000D01*
X61924000Y-70231000D02*
X61924000Y-69230400D01*
X61924000Y-69230400D02*
X62828400Y-68326000D01*
X68012700Y-67208000D02*
X68012700Y-67688000D01*
X106726600Y-79878400D02*
X106726600Y-81374400D01*
X61924000Y-71257100D02*
X61924000Y-70231000D01*
X55862100Y-83101300D02*
X56620600Y-83859800D01*
X65469700Y-70231000D02*
X61924000Y-70231000D01*
X61617900Y-87047800D02*
X59808600Y-87047800D01*
X96607000Y-91494000D02*
X70207500Y-91494000D01*
X69088000Y-67208000D02*
X68012700Y-67208000D01*
X68012700Y-67688000D02*
X65469700Y-70231000D01*
X59808600Y-87047800D02*
X56620600Y-83859800D01*
X103566600Y-71056200D02*
X103566600Y-76718400D01*
X103566600Y-76718400D02*
X106726600Y-79878400D01*
X61002900Y-72178200D02*
X61924000Y-71257100D01*
X100836400Y-68326000D02*
X103566600Y-71056200D01*
X100408000Y-68326000D02*
X100836400Y-68326000D01*
X55384000Y-83101300D02*
X55862100Y-83101300D01*
X70207500Y-91494000D02*
X70195100Y-91481600D01*
X55384000Y-81276000D02*
X55384000Y-83101300D01*
X70195100Y-91481600D02*
X66051700Y-91481600D01*
%TO.N,D3*%
X80353000Y-77916100D02*
X80094400Y-77916100D01*
X91108000Y-74676000D02*
X90560200Y-74128200D01*
X54683600Y-83001900D02*
X53520700Y-84164800D01*
X52865200Y-77873000D02*
X52597800Y-77605600D01*
X57140800Y-77873000D02*
X52865200Y-77873000D01*
X90560200Y-74128200D02*
X89135300Y-74128200D01*
X68191100Y-61957700D02*
X59997900Y-61957700D01*
X88255800Y-74221000D02*
X87977100Y-73942300D01*
X89135300Y-74128200D02*
X89042500Y-74221000D01*
X46452200Y-71882000D02*
X49517600Y-71882000D01*
X52597800Y-77605600D02*
X52597800Y-74962200D01*
X80094400Y-77916100D02*
X79010100Y-79000400D01*
X59997900Y-61957700D02*
X58887900Y-63067700D01*
X79010100Y-79000400D02*
X61834300Y-79000400D01*
X58887900Y-76125900D02*
X57140800Y-77873000D01*
X54683600Y-79641300D02*
X54683600Y-83001900D01*
X53975000Y-74676000D02*
X52884000Y-74676000D01*
X61384000Y-79450700D02*
X54874200Y-79450700D01*
X45718900Y-72615300D02*
X46452200Y-71882000D01*
X45718900Y-79034500D02*
X45718900Y-72615300D01*
X49517600Y-71882000D02*
X52597800Y-74962200D01*
X50849200Y-84164800D02*
X45718900Y-79034500D01*
X71588000Y-61232700D02*
X68916100Y-61232700D01*
X87977100Y-73942300D02*
X82522200Y-73942300D01*
X61834300Y-79000400D02*
X61384000Y-79450700D01*
X82522200Y-73942300D02*
X80907400Y-75557100D01*
X80907400Y-75557100D02*
X80907400Y-77361700D01*
X61384000Y-81276000D02*
X61384000Y-79450700D01*
X71588000Y-62308000D02*
X71588000Y-61232700D01*
X80907400Y-77361700D02*
X80353000Y-77916100D01*
X68916100Y-61232700D02*
X68191100Y-61957700D01*
X53520700Y-84164800D02*
X50849200Y-84164800D01*
X52884000Y-74676000D02*
X52597800Y-74962200D01*
X54874200Y-79450700D02*
X54683600Y-79641300D01*
X58887900Y-63067700D02*
X58887900Y-76125900D01*
X89042500Y-74221000D02*
X88255800Y-74221000D01*
%TO.N,D6*%
X63870000Y-88615500D02*
X62830300Y-87575800D01*
X101154700Y-69596000D02*
X102839600Y-71280900D01*
X66407000Y-68656800D02*
X65467800Y-69596000D01*
X92580700Y-91043500D02*
X79927800Y-91043500D01*
X66407000Y-68267800D02*
X66407000Y-68656800D01*
X69088000Y-66408000D02*
X68012700Y-66408000D01*
X62830300Y-87575800D02*
X62830300Y-85051200D01*
X65467800Y-69596000D02*
X63275000Y-69596000D01*
X62830300Y-85051200D02*
X59474700Y-85051200D01*
X57524800Y-83101300D02*
X56884000Y-83101300D01*
X59474700Y-85051200D02*
X57524800Y-83101300D01*
X68012700Y-66408000D02*
X66407000Y-68013700D01*
X102839600Y-71280900D02*
X102839600Y-80784600D01*
X66407000Y-68013700D02*
X66407000Y-68267800D01*
X100408000Y-69596000D02*
X101154700Y-69596000D01*
X102839600Y-80784600D02*
X92580700Y-91043500D01*
X63939500Y-85051200D02*
X62830300Y-85051200D01*
X77499800Y-88615500D02*
X63870000Y-88615500D01*
X56884000Y-81276000D02*
X56884000Y-83101300D01*
X79927800Y-91043500D02*
X77499800Y-88615500D01*
%TO.N,D2*%
X54150300Y-73230700D02*
X56777100Y-73230700D01*
X53975000Y-73406000D02*
X54150300Y-73230700D01*
X62884000Y-83101300D02*
X62228400Y-83101300D01*
X62884000Y-81276000D02*
X62884000Y-83101300D01*
X72388000Y-62308000D02*
X72388000Y-63383300D01*
X91108000Y-73406000D02*
X88831700Y-73406000D01*
X60213000Y-84126700D02*
X59934800Y-83848500D01*
X72388000Y-63752400D02*
X72388000Y-63383300D01*
X71154900Y-64985500D02*
X72388000Y-63752400D01*
X61203000Y-84126700D02*
X60213000Y-84126700D01*
X70528400Y-64985500D02*
X71154900Y-64985500D01*
X62228400Y-83101300D02*
X61203000Y-84126700D01*
%TO.N,D5*%
X58384000Y-81276000D02*
X58384000Y-83101300D01*
X70820200Y-63383300D02*
X70788000Y-63383300D01*
X58384000Y-83323600D02*
X59637400Y-84577000D01*
X100408000Y-73406000D02*
X99901300Y-73406000D01*
X61778700Y-84577000D02*
X62141900Y-84213800D01*
X63275000Y-73406000D02*
X62403500Y-73406000D01*
X62403500Y-73406000D02*
X61783200Y-74026300D01*
X70788000Y-62308000D02*
X70788000Y-63383300D01*
X94915200Y-87376500D02*
X67290600Y-87376500D01*
X58384000Y-83101300D02*
X58384000Y-83323600D01*
X71272700Y-63835800D02*
X70820200Y-63383300D01*
X98990100Y-83301600D02*
X94915200Y-87376500D01*
X67290600Y-87376500D02*
X64127900Y-84213800D01*
X99901300Y-73406000D02*
X98990100Y-74317200D01*
X98990100Y-74317200D02*
X98990100Y-83301600D01*
X64127900Y-84213800D02*
X62141900Y-84213800D01*
X59637400Y-84577000D02*
X61778700Y-84577000D01*
%TO.N,D1*%
X73188000Y-65439500D02*
X71209500Y-67418000D01*
X71901000Y-59945700D02*
X69195200Y-59945700D01*
X64384000Y-83101300D02*
X65286600Y-83101300D01*
X64384000Y-81276000D02*
X64384000Y-83101300D01*
X91108000Y-69596000D02*
X89478300Y-69596000D01*
X53975000Y-69596000D02*
X57046600Y-69596000D01*
X73188000Y-62308000D02*
X73188000Y-61232700D01*
X73188000Y-62308000D02*
X73188000Y-65439500D01*
X73188000Y-61232700D02*
X71901000Y-59945700D01*
X65286600Y-83101300D02*
X65571200Y-83385900D01*
%TO.N,D0*%
X89729900Y-65465900D02*
X89729900Y-67430700D01*
X91450400Y-64813400D02*
X90382400Y-64813400D01*
X73988000Y-62308000D02*
X73988000Y-63383300D01*
X56743600Y-66098100D02*
X54515700Y-68326000D01*
X73988000Y-62308000D02*
X73988000Y-61232700D01*
X73988000Y-65760100D02*
X72529800Y-67218300D01*
X90625200Y-68326000D02*
X91108000Y-68326000D01*
X90382400Y-64813400D02*
X89729900Y-65465900D01*
X54515700Y-68326000D02*
X53975000Y-68326000D01*
X65884000Y-82569500D02*
X66612500Y-83298000D01*
X65884000Y-81276000D02*
X65884000Y-82569500D01*
X73988000Y-61232700D02*
X71689000Y-58933700D01*
X89729900Y-67430700D02*
X90625200Y-68326000D01*
X73988000Y-63383300D02*
X73988000Y-65760100D01*
X71689000Y-58933700D02*
X70996400Y-58933700D01*
%TO.N,D4*%
X92380200Y-90557400D02*
X80078600Y-90557400D01*
X68012700Y-65608000D02*
X67199700Y-66421000D01*
X62165800Y-66421000D02*
X60277600Y-68309200D01*
X61407900Y-74751700D02*
X63199300Y-74751700D01*
X60602400Y-83101300D02*
X59884000Y-83101300D01*
X63199300Y-74751700D02*
X63275000Y-74676000D01*
X64497500Y-88165200D02*
X63598100Y-87265800D01*
X60902500Y-83401400D02*
X60602400Y-83101300D01*
X60277600Y-73621400D02*
X61407900Y-74751700D01*
X100911500Y-74676000D02*
X102266900Y-76031400D01*
X67199700Y-66421000D02*
X62165800Y-66421000D01*
X60277600Y-68309200D02*
X60277600Y-73621400D01*
X102266900Y-76031400D02*
X102266900Y-80670700D01*
X69088000Y-65608000D02*
X68012700Y-65608000D01*
X102266900Y-80670700D02*
X92380200Y-90557400D01*
X59884000Y-81276000D02*
X59884000Y-83101300D01*
X61169500Y-74990100D02*
X61407900Y-74751700D01*
X77686400Y-88165200D02*
X64497500Y-88165200D01*
X100408000Y-74676000D02*
X100911500Y-74676000D01*
X80078600Y-90557400D02*
X77686400Y-88165200D01*
%TO.N,Net-(U2-XTAL1)*%
X64262000Y-55377900D02*
X68145000Y-55377900D01*
X70221700Y-56393900D02*
X74788000Y-60960200D01*
X69161000Y-56393900D02*
X70221700Y-56393900D01*
X74788000Y-60960200D02*
X74788000Y-62308000D01*
X70612000Y-52329900D02*
X70612000Y-54942900D01*
X70612000Y-54942900D02*
X69161000Y-56393900D01*
X68145000Y-55377900D02*
X69161000Y-56393900D01*
%TO.N,MOSI*%
X77455900Y-66234900D02*
X78882800Y-64808000D01*
X77455900Y-70978600D02*
X77455900Y-66234900D01*
X78882800Y-64808000D02*
X80488000Y-64808000D01*
%TO.N,SCK*%
X79412700Y-65608000D02*
X79130500Y-65608000D01*
X80488000Y-65608000D02*
X79412700Y-65608000D01*
%TO.N,MISO*%
X80488000Y-64008000D02*
X81563300Y-64008000D01*
X81563300Y-64008000D02*
X81563300Y-63644300D01*
X81563300Y-63644300D02*
X81800900Y-63406700D01*
D35*
%TO.N,USB+*%
X82423000Y-69215000D02*
X83773000Y-69215000D01*
X80488000Y-69608000D02*
X82030000Y-69608000D01*
X82030000Y-69608000D02*
X82423000Y-69215000D01*
%TO.N,USB-*%
X81457000Y-70408000D02*
X82550000Y-71501000D01*
X80488000Y-70408000D02*
X81457000Y-70408000D01*
X82550000Y-71501000D02*
X83773000Y-71501000D01*
D34*
%TO.N,Net-(U2-XTAL2)*%
X77513000Y-52921900D02*
X78867000Y-52921900D01*
X72612000Y-54964900D02*
X74041000Y-56393900D01*
X74041000Y-56393900D02*
X77513000Y-52921900D01*
X72612000Y-52329900D02*
X72612000Y-54964900D01*
X74041000Y-56393900D02*
X75588000Y-57940900D01*
X75588000Y-57940900D02*
X75588000Y-62308000D01*
%TO.N,Net-(U2-AREF)*%
X76752500Y-75647500D02*
X76752500Y-77089000D01*
X77188000Y-73708000D02*
X77188000Y-75212000D01*
X77188000Y-75212000D02*
X76752500Y-75647500D01*
%TO.N,Net-(U2-UCAP)*%
X84328000Y-64897000D02*
X81217000Y-68008000D01*
X81217000Y-68008000D02*
X80488000Y-68008000D01*
%TO.N,~{RESET}*%
X91504000Y-65786000D02*
X91108000Y-65786000D01*
X82856000Y-58384000D02*
X80007300Y-61232700D01*
X77988000Y-62308000D02*
X77988000Y-61232700D01*
X92477700Y-64812300D02*
X91504000Y-65786000D01*
X105029000Y-68167000D02*
X103055400Y-68167000D01*
X53975000Y-65786000D02*
X55602900Y-65786000D01*
X80007300Y-61232700D02*
X77988000Y-61232700D01*
%TO.N,AUDIO*%
X53509800Y-78324900D02*
X52384000Y-79450700D01*
X58934400Y-78324900D02*
X53509800Y-78324900D01*
X73188000Y-72632700D02*
X70163300Y-72632700D01*
X52384000Y-81276000D02*
X52384000Y-79450700D01*
X67484900Y-75311100D02*
X61948200Y-75311100D01*
X73188000Y-73708000D02*
X73188000Y-72632700D01*
X70163300Y-72632700D02*
X67484900Y-75311100D01*
X61948200Y-75311100D02*
X58934400Y-78324900D01*
%TO.N,WR*%
X94384000Y-81276000D02*
X94384000Y-83101300D01*
X73899600Y-85575300D02*
X72869900Y-84545600D01*
X42151200Y-71247000D02*
X42548000Y-71247000D01*
X94236400Y-83101300D02*
X91762400Y-85575300D01*
X94384000Y-83101300D02*
X94236400Y-83101300D01*
X70559400Y-70215800D02*
X70163300Y-69819700D01*
X58164500Y-92206900D02*
X40743500Y-74785900D01*
X40743500Y-72654700D02*
X42151200Y-71247000D01*
X70163300Y-69819700D02*
X70163300Y-69608000D01*
X40743500Y-74785900D02*
X40743500Y-72654700D01*
X69088000Y-69608000D02*
X70163300Y-69608000D01*
X69894600Y-92206900D02*
X58164500Y-92206900D01*
X91762400Y-85575300D02*
X73899600Y-85575300D01*
%TO.N,RD*%
X98089400Y-77845700D02*
X98089400Y-82926100D01*
X72442800Y-68808000D02*
X77843200Y-63407600D01*
X70163300Y-68808000D02*
X72442800Y-68808000D01*
X106278100Y-60399600D02*
X106278100Y-61677500D01*
X77843200Y-63407600D02*
X79768400Y-63407600D01*
X54586700Y-51282900D02*
X82141000Y-51282900D01*
X95084400Y-79611600D02*
X94923500Y-79450700D01*
X84234800Y-53376700D02*
X85528300Y-52083200D01*
X84234800Y-58941200D02*
X84234800Y-53376700D01*
X85528300Y-52083200D02*
X95685300Y-52083200D01*
X99199100Y-55597000D02*
X101475500Y-55597000D01*
X42032300Y-65651300D02*
X42032300Y-60012400D01*
X95317500Y-83101600D02*
X95084400Y-82868500D01*
X52514500Y-53355100D02*
X54586700Y-51282900D01*
X52514500Y-53735200D02*
X52514500Y-53355100D01*
X42032300Y-60012400D02*
X47336600Y-54708100D01*
X82141000Y-51282900D02*
X84234800Y-53376700D01*
X79768400Y-63407600D02*
X84234800Y-58941200D01*
X69088000Y-68808000D02*
X70163300Y-68808000D01*
X98089400Y-82926100D02*
X97913900Y-83101600D01*
X51541600Y-54708100D02*
X52514500Y-53735200D01*
X95688400Y-75444700D02*
X98089400Y-77845700D01*
X95685300Y-52083200D02*
X99199100Y-55597000D01*
X96075100Y-62532500D02*
X95688400Y-62919200D01*
X95688400Y-62919200D02*
X95688400Y-75444700D01*
X94923500Y-79450700D02*
X92884000Y-79450700D01*
X42548000Y-66167000D02*
X42032300Y-65651300D01*
X106278100Y-61677500D02*
X105423100Y-62532500D01*
X105423100Y-62532500D02*
X96075100Y-62532500D01*
X95084400Y-82868500D02*
X95084400Y-79611600D01*
X97913900Y-83101600D02*
X95317500Y-83101600D01*
X47336600Y-54708100D02*
X51541600Y-54708100D01*
X92884000Y-81276000D02*
X92884000Y-79450700D01*
X101475500Y-55597000D02*
X106278100Y-60399600D01*
%TO.N,SRAM*%
X91384000Y-83101300D02*
X90889600Y-83101300D01*
X91384000Y-81276000D02*
X91384000Y-83101300D01*
X49161700Y-70461100D02*
X49161700Y-70839100D01*
X86680500Y-72745900D02*
X83193300Y-72745900D01*
X49752000Y-69977000D02*
X50038000Y-69691000D01*
X90889600Y-83101300D02*
X90678200Y-83312700D01*
X82455400Y-72008000D02*
X80488000Y-72008000D01*
X47498000Y-69977000D02*
X48677600Y-69977000D01*
X48677600Y-69977000D02*
X49161700Y-70461100D01*
X83193300Y-72745900D02*
X82455400Y-72008000D01*
X48677600Y-69977000D02*
X49752000Y-69977000D01*
%TO.N,RST*%
X53884000Y-82188600D02*
X53884000Y-81276000D01*
X51584400Y-79547800D02*
X46169300Y-74132700D01*
X73511900Y-78341500D02*
X74385500Y-77467900D01*
X72388000Y-74789000D02*
X72388000Y-73708000D01*
X53884000Y-81276000D02*
X53884000Y-79450700D01*
X60480200Y-78341500D02*
X73511900Y-78341500D01*
X46169300Y-73373500D02*
X47025800Y-72517000D01*
X47025800Y-72517000D02*
X47498000Y-72517000D01*
X53884000Y-83101300D02*
X51837500Y-83101300D01*
X53884000Y-82188600D02*
X53884000Y-83101300D01*
X74385500Y-77467900D02*
X74385500Y-76786500D01*
X51837500Y-83101300D02*
X51584400Y-82848200D01*
X54334400Y-79000300D02*
X59821400Y-79000300D01*
X46169300Y-74132700D02*
X46169300Y-73373500D01*
X74385500Y-76786500D02*
X72388000Y-74789000D01*
X53884000Y-79450700D02*
X54334400Y-79000300D01*
X59821400Y-79000300D02*
X60480200Y-78341500D01*
X51584400Y-82848200D02*
X51584400Y-79547800D01*
%TO.N,VIN*%
X98374000Y-60782000D02*
X98374000Y-59222400D01*
X105029000Y-61035000D02*
X98627000Y-61035000D01*
X98627000Y-61035000D02*
X98374000Y-60782000D01*
%TO.N,Net-(D1-K)*%
X51054000Y-55609500D02*
X51054000Y-58880000D01*
%TO.N,Net-(D1-A)*%
X42548000Y-67437000D02*
X42116200Y-67437000D01*
X41240300Y-58777800D02*
X47312900Y-52705200D01*
X47312900Y-52705200D02*
X50199700Y-52705200D01*
X42116200Y-67437000D02*
X41240300Y-66561100D01*
X50199700Y-52705200D02*
X51054000Y-53559500D01*
X41240300Y-66561100D02*
X41240300Y-58777800D01*
%TO.N,Net-(D2-K)*%
X53975000Y-55609500D02*
X53975000Y-58801000D01*
%TO.N,Net-(D2-A)*%
X41220500Y-73417300D02*
X42120800Y-72517000D01*
X53975000Y-53559500D02*
X52970900Y-54563600D01*
X41220500Y-74207600D02*
X41220500Y-73417300D01*
X41702300Y-74689400D02*
X41220500Y-74207600D01*
X42120800Y-72517000D02*
X42548000Y-72517000D01*
%TO.N,Net-(D3-K)*%
X57023000Y-55609500D02*
X57023000Y-58801000D01*
%TO.N,Net-(D3-A)*%
X48605000Y-73787000D02*
X47498000Y-73787000D01*
X55887200Y-53559500D02*
X55713500Y-53733200D01*
X49500900Y-72891100D02*
X48605000Y-73787000D01*
X57023000Y-53559500D02*
X55887200Y-53559500D01*
%TO.N,Net-(D4-K)*%
X60325000Y-55660500D02*
X60325000Y-58801000D01*
%TO.N,Net-(D4-A)*%
X55273800Y-55763100D02*
X55273800Y-59178100D01*
X55273800Y-59178100D02*
X54590200Y-59861700D01*
X47050800Y-71247000D02*
X47498000Y-71247000D01*
X45190200Y-69386400D02*
X47050800Y-71247000D01*
X45190200Y-62007500D02*
X45190200Y-69386400D01*
X59474700Y-54460800D02*
X56576100Y-54460800D01*
X54590200Y-59861700D02*
X47336000Y-59861700D01*
X60325000Y-53610500D02*
X59474700Y-54460800D01*
X56576100Y-54460800D02*
X55273800Y-55763100D01*
X47336000Y-59861700D02*
X45190200Y-62007500D01*
%TO.N,Net-(D5-K)*%
X48006000Y-58880000D02*
X48006000Y-55661000D01*
%TO.N,CPH*%
X80661700Y-72632700D02*
X81500200Y-73471200D01*
X100408000Y-77561000D02*
X100408000Y-77216000D01*
X81500200Y-73471200D02*
X87006900Y-73471200D01*
X88068500Y-72409600D02*
X89444800Y-72409600D01*
X75588000Y-72632700D02*
X80661700Y-72632700D01*
X99845200Y-78123800D02*
X100408000Y-77561000D01*
X87006900Y-73471200D02*
X88068500Y-72409600D01*
X75588000Y-73708000D02*
X75588000Y-72632700D01*
%TO.N,CPL*%
X74119200Y-74783300D02*
X73843100Y-75059400D01*
X76388000Y-74783300D02*
X74119200Y-74783300D01*
X76388000Y-73708000D02*
X76388000Y-74783300D01*
X67418100Y-77216000D02*
X69746800Y-74887300D01*
X63275000Y-77216000D02*
X67418100Y-77216000D01*
X69746800Y-74887300D02*
X70042300Y-74887300D01*
%TD*%
M02*
