%TF.GenerationSoftware,KiCad,Pcbnew,7.0.10*%
%TF.CreationDate,2024-03-24T11:08:13+01:00*%
%TF.ProjectId,dmg-gbc-cartridge-reader.kicad_pro,646d672d-6762-4632-9d63-617274726964,rev?*%
%TF.SameCoordinates,Original*%
%TF.FileFunction,Legend,Top*%
%TF.FilePolarity,Positive*%
%FSLAX46Y46*%
G04 Gerber Fmt 4.6, Leading zero omitted, Abs format (unit mm)*
G04 Created by KiCad (PCBNEW 7.0.10) date 2024-03-24 11:08:13*
%MOMM*%
%LPD*%
G01*
G04 APERTURE LIST*
%ADD10C,0.343981*%
%ADD11C,0.150000*%
%ADD12C,0.100000*%
%ADD13C,0.254000*%
%ADD14C,0.120000*%
%ADD15C,0.200000*%
G04 APERTURE END LIST*
D10*
X35096990Y-57607200D02*
G75*
G03*
X34753010Y-57607200I-171990J0D01*
G01*
X34753010Y-57607200D02*
G75*
G03*
X35096990Y-57607200I171990J0D01*
G01*
D11*
X75883237Y-30442819D02*
X75883237Y-31157104D01*
X75883237Y-31157104D02*
X75835618Y-31299961D01*
X75835618Y-31299961D02*
X75740380Y-31395200D01*
X75740380Y-31395200D02*
X75597523Y-31442819D01*
X75597523Y-31442819D02*
X75502285Y-31442819D01*
X76835618Y-31442819D02*
X76359428Y-31442819D01*
X76359428Y-31442819D02*
X76359428Y-30442819D01*
X77740380Y-31347580D02*
X77692761Y-31395200D01*
X77692761Y-31395200D02*
X77549904Y-31442819D01*
X77549904Y-31442819D02*
X77454666Y-31442819D01*
X77454666Y-31442819D02*
X77311809Y-31395200D01*
X77311809Y-31395200D02*
X77216571Y-31299961D01*
X77216571Y-31299961D02*
X77168952Y-31204723D01*
X77168952Y-31204723D02*
X77121333Y-31014247D01*
X77121333Y-31014247D02*
X77121333Y-30871390D01*
X77121333Y-30871390D02*
X77168952Y-30680914D01*
X77168952Y-30680914D02*
X77216571Y-30585676D01*
X77216571Y-30585676D02*
X77311809Y-30490438D01*
X77311809Y-30490438D02*
X77454666Y-30442819D01*
X77454666Y-30442819D02*
X77549904Y-30442819D01*
X77549904Y-30442819D02*
X77692761Y-30490438D01*
X77692761Y-30490438D02*
X77740380Y-30538057D01*
X78454666Y-30442819D02*
X78454666Y-31157104D01*
X78454666Y-31157104D02*
X78407047Y-31299961D01*
X78407047Y-31299961D02*
X78311809Y-31395200D01*
X78311809Y-31395200D02*
X78168952Y-31442819D01*
X78168952Y-31442819D02*
X78073714Y-31442819D01*
X79407047Y-31442819D02*
X78930857Y-31442819D01*
X78930857Y-31442819D02*
X78930857Y-30442819D01*
X80311809Y-31347580D02*
X80264190Y-31395200D01*
X80264190Y-31395200D02*
X80121333Y-31442819D01*
X80121333Y-31442819D02*
X80026095Y-31442819D01*
X80026095Y-31442819D02*
X79883238Y-31395200D01*
X79883238Y-31395200D02*
X79788000Y-31299961D01*
X79788000Y-31299961D02*
X79740381Y-31204723D01*
X79740381Y-31204723D02*
X79692762Y-31014247D01*
X79692762Y-31014247D02*
X79692762Y-30871390D01*
X79692762Y-30871390D02*
X79740381Y-30680914D01*
X79740381Y-30680914D02*
X79788000Y-30585676D01*
X79788000Y-30585676D02*
X79883238Y-30490438D01*
X79883238Y-30490438D02*
X80026095Y-30442819D01*
X80026095Y-30442819D02*
X80121333Y-30442819D01*
X80121333Y-30442819D02*
X80264190Y-30490438D01*
X80264190Y-30490438D02*
X80311809Y-30538057D01*
X81026095Y-30442819D02*
X81026095Y-31157104D01*
X81026095Y-31157104D02*
X80978476Y-31299961D01*
X80978476Y-31299961D02*
X80883238Y-31395200D01*
X80883238Y-31395200D02*
X80740381Y-31442819D01*
X80740381Y-31442819D02*
X80645143Y-31442819D01*
X81978476Y-31442819D02*
X81502286Y-31442819D01*
X81502286Y-31442819D02*
X81502286Y-30442819D01*
X82883238Y-31347580D02*
X82835619Y-31395200D01*
X82835619Y-31395200D02*
X82692762Y-31442819D01*
X82692762Y-31442819D02*
X82597524Y-31442819D01*
X82597524Y-31442819D02*
X82454667Y-31395200D01*
X82454667Y-31395200D02*
X82359429Y-31299961D01*
X82359429Y-31299961D02*
X82311810Y-31204723D01*
X82311810Y-31204723D02*
X82264191Y-31014247D01*
X82264191Y-31014247D02*
X82264191Y-30871390D01*
X82264191Y-30871390D02*
X82311810Y-30680914D01*
X82311810Y-30680914D02*
X82359429Y-30585676D01*
X82359429Y-30585676D02*
X82454667Y-30490438D01*
X82454667Y-30490438D02*
X82597524Y-30442819D01*
X82597524Y-30442819D02*
X82692762Y-30442819D01*
X82692762Y-30442819D02*
X82835619Y-30490438D01*
X82835619Y-30490438D02*
X82883238Y-30538057D01*
X83597524Y-30442819D02*
X83597524Y-31157104D01*
X83597524Y-31157104D02*
X83549905Y-31299961D01*
X83549905Y-31299961D02*
X83454667Y-31395200D01*
X83454667Y-31395200D02*
X83311810Y-31442819D01*
X83311810Y-31442819D02*
X83216572Y-31442819D01*
X84549905Y-31442819D02*
X84073715Y-31442819D01*
X84073715Y-31442819D02*
X84073715Y-30442819D01*
X85454667Y-31347580D02*
X85407048Y-31395200D01*
X85407048Y-31395200D02*
X85264191Y-31442819D01*
X85264191Y-31442819D02*
X85168953Y-31442819D01*
X85168953Y-31442819D02*
X85026096Y-31395200D01*
X85026096Y-31395200D02*
X84930858Y-31299961D01*
X84930858Y-31299961D02*
X84883239Y-31204723D01*
X84883239Y-31204723D02*
X84835620Y-31014247D01*
X84835620Y-31014247D02*
X84835620Y-30871390D01*
X84835620Y-30871390D02*
X84883239Y-30680914D01*
X84883239Y-30680914D02*
X84930858Y-30585676D01*
X84930858Y-30585676D02*
X85026096Y-30490438D01*
X85026096Y-30490438D02*
X85168953Y-30442819D01*
X85168953Y-30442819D02*
X85264191Y-30442819D01*
X85264191Y-30442819D02*
X85407048Y-30490438D01*
X85407048Y-30490438D02*
X85454667Y-30538057D01*
X86168953Y-30442819D02*
X86168953Y-31157104D01*
X86168953Y-31157104D02*
X86121334Y-31299961D01*
X86121334Y-31299961D02*
X86026096Y-31395200D01*
X86026096Y-31395200D02*
X85883239Y-31442819D01*
X85883239Y-31442819D02*
X85788001Y-31442819D01*
X87121334Y-31442819D02*
X86645144Y-31442819D01*
X86645144Y-31442819D02*
X86645144Y-30442819D01*
X88026096Y-31347580D02*
X87978477Y-31395200D01*
X87978477Y-31395200D02*
X87835620Y-31442819D01*
X87835620Y-31442819D02*
X87740382Y-31442819D01*
X87740382Y-31442819D02*
X87597525Y-31395200D01*
X87597525Y-31395200D02*
X87502287Y-31299961D01*
X87502287Y-31299961D02*
X87454668Y-31204723D01*
X87454668Y-31204723D02*
X87407049Y-31014247D01*
X87407049Y-31014247D02*
X87407049Y-30871390D01*
X87407049Y-30871390D02*
X87454668Y-30680914D01*
X87454668Y-30680914D02*
X87502287Y-30585676D01*
X87502287Y-30585676D02*
X87597525Y-30490438D01*
X87597525Y-30490438D02*
X87740382Y-30442819D01*
X87740382Y-30442819D02*
X87835620Y-30442819D01*
X87835620Y-30442819D02*
X87978477Y-30490438D01*
X87978477Y-30490438D02*
X88026096Y-30538057D01*
D12*
X90757438Y-75016706D02*
X90709819Y-75111944D01*
X90709819Y-75111944D02*
X90709819Y-75254801D01*
X90709819Y-75254801D02*
X90757438Y-75397658D01*
X90757438Y-75397658D02*
X90852676Y-75492896D01*
X90852676Y-75492896D02*
X90947914Y-75540515D01*
X90947914Y-75540515D02*
X91138390Y-75588134D01*
X91138390Y-75588134D02*
X91281247Y-75588134D01*
X91281247Y-75588134D02*
X91471723Y-75540515D01*
X91471723Y-75540515D02*
X91566961Y-75492896D01*
X91566961Y-75492896D02*
X91662200Y-75397658D01*
X91662200Y-75397658D02*
X91709819Y-75254801D01*
X91709819Y-75254801D02*
X91709819Y-75159563D01*
X91709819Y-75159563D02*
X91662200Y-75016706D01*
X91662200Y-75016706D02*
X91614580Y-74969087D01*
X91614580Y-74969087D02*
X91281247Y-74969087D01*
X91281247Y-74969087D02*
X91281247Y-75159563D01*
X91709819Y-74111944D02*
X91186009Y-74111944D01*
X91186009Y-74111944D02*
X91090771Y-74159563D01*
X91090771Y-74159563D02*
X91043152Y-74254801D01*
X91043152Y-74254801D02*
X91043152Y-74445277D01*
X91043152Y-74445277D02*
X91090771Y-74540515D01*
X91662200Y-74111944D02*
X91709819Y-74207182D01*
X91709819Y-74207182D02*
X91709819Y-74445277D01*
X91709819Y-74445277D02*
X91662200Y-74540515D01*
X91662200Y-74540515D02*
X91566961Y-74588134D01*
X91566961Y-74588134D02*
X91471723Y-74588134D01*
X91471723Y-74588134D02*
X91376485Y-74540515D01*
X91376485Y-74540515D02*
X91328866Y-74445277D01*
X91328866Y-74445277D02*
X91328866Y-74207182D01*
X91328866Y-74207182D02*
X91281247Y-74111944D01*
X91709819Y-73635753D02*
X91043152Y-73635753D01*
X91138390Y-73635753D02*
X91090771Y-73588134D01*
X91090771Y-73588134D02*
X91043152Y-73492896D01*
X91043152Y-73492896D02*
X91043152Y-73350039D01*
X91043152Y-73350039D02*
X91090771Y-73254801D01*
X91090771Y-73254801D02*
X91186009Y-73207182D01*
X91186009Y-73207182D02*
X91709819Y-73207182D01*
X91186009Y-73207182D02*
X91090771Y-73159563D01*
X91090771Y-73159563D02*
X91043152Y-73064325D01*
X91043152Y-73064325D02*
X91043152Y-72921468D01*
X91043152Y-72921468D02*
X91090771Y-72826229D01*
X91090771Y-72826229D02*
X91186009Y-72778610D01*
X91186009Y-72778610D02*
X91709819Y-72778610D01*
X91662200Y-71921468D02*
X91709819Y-72016706D01*
X91709819Y-72016706D02*
X91709819Y-72207182D01*
X91709819Y-72207182D02*
X91662200Y-72302420D01*
X91662200Y-72302420D02*
X91566961Y-72350039D01*
X91566961Y-72350039D02*
X91186009Y-72350039D01*
X91186009Y-72350039D02*
X91090771Y-72302420D01*
X91090771Y-72302420D02*
X91043152Y-72207182D01*
X91043152Y-72207182D02*
X91043152Y-72016706D01*
X91043152Y-72016706D02*
X91090771Y-71921468D01*
X91090771Y-71921468D02*
X91186009Y-71873849D01*
X91186009Y-71873849D02*
X91281247Y-71873849D01*
X91281247Y-71873849D02*
X91376485Y-72350039D01*
X91709819Y-71445277D02*
X90709819Y-71445277D01*
X91090771Y-71445277D02*
X91043152Y-71350039D01*
X91043152Y-71350039D02*
X91043152Y-71159563D01*
X91043152Y-71159563D02*
X91090771Y-71064325D01*
X91090771Y-71064325D02*
X91138390Y-71016706D01*
X91138390Y-71016706D02*
X91233628Y-70969087D01*
X91233628Y-70969087D02*
X91519342Y-70969087D01*
X91519342Y-70969087D02*
X91614580Y-71016706D01*
X91614580Y-71016706D02*
X91662200Y-71064325D01*
X91662200Y-71064325D02*
X91709819Y-71159563D01*
X91709819Y-71159563D02*
X91709819Y-71350039D01*
X91709819Y-71350039D02*
X91662200Y-71445277D01*
X91709819Y-70397658D02*
X91662200Y-70492896D01*
X91662200Y-70492896D02*
X91614580Y-70540515D01*
X91614580Y-70540515D02*
X91519342Y-70588134D01*
X91519342Y-70588134D02*
X91233628Y-70588134D01*
X91233628Y-70588134D02*
X91138390Y-70540515D01*
X91138390Y-70540515D02*
X91090771Y-70492896D01*
X91090771Y-70492896D02*
X91043152Y-70397658D01*
X91043152Y-70397658D02*
X91043152Y-70254801D01*
X91043152Y-70254801D02*
X91090771Y-70159563D01*
X91090771Y-70159563D02*
X91138390Y-70111944D01*
X91138390Y-70111944D02*
X91233628Y-70064325D01*
X91233628Y-70064325D02*
X91519342Y-70064325D01*
X91519342Y-70064325D02*
X91614580Y-70111944D01*
X91614580Y-70111944D02*
X91662200Y-70159563D01*
X91662200Y-70159563D02*
X91709819Y-70254801D01*
X91709819Y-70254801D02*
X91709819Y-70397658D01*
X91043152Y-69730991D02*
X91709819Y-69492896D01*
X91043152Y-69254801D02*
X91709819Y-69492896D01*
X91709819Y-69492896D02*
X91947914Y-69588134D01*
X91947914Y-69588134D02*
X91995533Y-69635753D01*
X91995533Y-69635753D02*
X92043152Y-69730991D01*
X93224580Y-74969087D02*
X93272200Y-75016706D01*
X93272200Y-75016706D02*
X93319819Y-75159563D01*
X93319819Y-75159563D02*
X93319819Y-75254801D01*
X93319819Y-75254801D02*
X93272200Y-75397658D01*
X93272200Y-75397658D02*
X93176961Y-75492896D01*
X93176961Y-75492896D02*
X93081723Y-75540515D01*
X93081723Y-75540515D02*
X92891247Y-75588134D01*
X92891247Y-75588134D02*
X92748390Y-75588134D01*
X92748390Y-75588134D02*
X92557914Y-75540515D01*
X92557914Y-75540515D02*
X92462676Y-75492896D01*
X92462676Y-75492896D02*
X92367438Y-75397658D01*
X92367438Y-75397658D02*
X92319819Y-75254801D01*
X92319819Y-75254801D02*
X92319819Y-75159563D01*
X92319819Y-75159563D02*
X92367438Y-75016706D01*
X92367438Y-75016706D02*
X92415057Y-74969087D01*
X93319819Y-74111944D02*
X92796009Y-74111944D01*
X92796009Y-74111944D02*
X92700771Y-74159563D01*
X92700771Y-74159563D02*
X92653152Y-74254801D01*
X92653152Y-74254801D02*
X92653152Y-74445277D01*
X92653152Y-74445277D02*
X92700771Y-74540515D01*
X93272200Y-74111944D02*
X93319819Y-74207182D01*
X93319819Y-74207182D02*
X93319819Y-74445277D01*
X93319819Y-74445277D02*
X93272200Y-74540515D01*
X93272200Y-74540515D02*
X93176961Y-74588134D01*
X93176961Y-74588134D02*
X93081723Y-74588134D01*
X93081723Y-74588134D02*
X92986485Y-74540515D01*
X92986485Y-74540515D02*
X92938866Y-74445277D01*
X92938866Y-74445277D02*
X92938866Y-74207182D01*
X92938866Y-74207182D02*
X92891247Y-74111944D01*
X93319819Y-73635753D02*
X92653152Y-73635753D01*
X92843628Y-73635753D02*
X92748390Y-73588134D01*
X92748390Y-73588134D02*
X92700771Y-73540515D01*
X92700771Y-73540515D02*
X92653152Y-73445277D01*
X92653152Y-73445277D02*
X92653152Y-73350039D01*
X92653152Y-73159562D02*
X92653152Y-72778610D01*
X92319819Y-73016705D02*
X93176961Y-73016705D01*
X93176961Y-73016705D02*
X93272200Y-72969086D01*
X93272200Y-72969086D02*
X93319819Y-72873848D01*
X93319819Y-72873848D02*
X93319819Y-72778610D01*
X93319819Y-72445276D02*
X92653152Y-72445276D01*
X92843628Y-72445276D02*
X92748390Y-72397657D01*
X92748390Y-72397657D02*
X92700771Y-72350038D01*
X92700771Y-72350038D02*
X92653152Y-72254800D01*
X92653152Y-72254800D02*
X92653152Y-72159562D01*
X93319819Y-71826228D02*
X92653152Y-71826228D01*
X92319819Y-71826228D02*
X92367438Y-71873847D01*
X92367438Y-71873847D02*
X92415057Y-71826228D01*
X92415057Y-71826228D02*
X92367438Y-71778609D01*
X92367438Y-71778609D02*
X92319819Y-71826228D01*
X92319819Y-71826228D02*
X92415057Y-71826228D01*
X93319819Y-70921467D02*
X92319819Y-70921467D01*
X93272200Y-70921467D02*
X93319819Y-71016705D01*
X93319819Y-71016705D02*
X93319819Y-71207181D01*
X93319819Y-71207181D02*
X93272200Y-71302419D01*
X93272200Y-71302419D02*
X93224580Y-71350038D01*
X93224580Y-71350038D02*
X93129342Y-71397657D01*
X93129342Y-71397657D02*
X92843628Y-71397657D01*
X92843628Y-71397657D02*
X92748390Y-71350038D01*
X92748390Y-71350038D02*
X92700771Y-71302419D01*
X92700771Y-71302419D02*
X92653152Y-71207181D01*
X92653152Y-71207181D02*
X92653152Y-71016705D01*
X92653152Y-71016705D02*
X92700771Y-70921467D01*
X92653152Y-70016705D02*
X93462676Y-70016705D01*
X93462676Y-70016705D02*
X93557914Y-70064324D01*
X93557914Y-70064324D02*
X93605533Y-70111943D01*
X93605533Y-70111943D02*
X93653152Y-70207181D01*
X93653152Y-70207181D02*
X93653152Y-70350038D01*
X93653152Y-70350038D02*
X93605533Y-70445276D01*
X93272200Y-70016705D02*
X93319819Y-70111943D01*
X93319819Y-70111943D02*
X93319819Y-70302419D01*
X93319819Y-70302419D02*
X93272200Y-70397657D01*
X93272200Y-70397657D02*
X93224580Y-70445276D01*
X93224580Y-70445276D02*
X93129342Y-70492895D01*
X93129342Y-70492895D02*
X92843628Y-70492895D01*
X92843628Y-70492895D02*
X92748390Y-70445276D01*
X92748390Y-70445276D02*
X92700771Y-70397657D01*
X92700771Y-70397657D02*
X92653152Y-70302419D01*
X92653152Y-70302419D02*
X92653152Y-70111943D01*
X92653152Y-70111943D02*
X92700771Y-70016705D01*
X93272200Y-69159562D02*
X93319819Y-69254800D01*
X93319819Y-69254800D02*
X93319819Y-69445276D01*
X93319819Y-69445276D02*
X93272200Y-69540514D01*
X93272200Y-69540514D02*
X93176961Y-69588133D01*
X93176961Y-69588133D02*
X92796009Y-69588133D01*
X92796009Y-69588133D02*
X92700771Y-69540514D01*
X92700771Y-69540514D02*
X92653152Y-69445276D01*
X92653152Y-69445276D02*
X92653152Y-69254800D01*
X92653152Y-69254800D02*
X92700771Y-69159562D01*
X92700771Y-69159562D02*
X92796009Y-69111943D01*
X92796009Y-69111943D02*
X92891247Y-69111943D01*
X92891247Y-69111943D02*
X92986485Y-69588133D01*
X94929819Y-74969087D02*
X94453628Y-75302420D01*
X94929819Y-75540515D02*
X93929819Y-75540515D01*
X93929819Y-75540515D02*
X93929819Y-75159563D01*
X93929819Y-75159563D02*
X93977438Y-75064325D01*
X93977438Y-75064325D02*
X94025057Y-75016706D01*
X94025057Y-75016706D02*
X94120295Y-74969087D01*
X94120295Y-74969087D02*
X94263152Y-74969087D01*
X94263152Y-74969087D02*
X94358390Y-75016706D01*
X94358390Y-75016706D02*
X94406009Y-75064325D01*
X94406009Y-75064325D02*
X94453628Y-75159563D01*
X94453628Y-75159563D02*
X94453628Y-75540515D01*
X94882200Y-74159563D02*
X94929819Y-74254801D01*
X94929819Y-74254801D02*
X94929819Y-74445277D01*
X94929819Y-74445277D02*
X94882200Y-74540515D01*
X94882200Y-74540515D02*
X94786961Y-74588134D01*
X94786961Y-74588134D02*
X94406009Y-74588134D01*
X94406009Y-74588134D02*
X94310771Y-74540515D01*
X94310771Y-74540515D02*
X94263152Y-74445277D01*
X94263152Y-74445277D02*
X94263152Y-74254801D01*
X94263152Y-74254801D02*
X94310771Y-74159563D01*
X94310771Y-74159563D02*
X94406009Y-74111944D01*
X94406009Y-74111944D02*
X94501247Y-74111944D01*
X94501247Y-74111944D02*
X94596485Y-74588134D01*
X94929819Y-73254801D02*
X94406009Y-73254801D01*
X94406009Y-73254801D02*
X94310771Y-73302420D01*
X94310771Y-73302420D02*
X94263152Y-73397658D01*
X94263152Y-73397658D02*
X94263152Y-73588134D01*
X94263152Y-73588134D02*
X94310771Y-73683372D01*
X94882200Y-73254801D02*
X94929819Y-73350039D01*
X94929819Y-73350039D02*
X94929819Y-73588134D01*
X94929819Y-73588134D02*
X94882200Y-73683372D01*
X94882200Y-73683372D02*
X94786961Y-73730991D01*
X94786961Y-73730991D02*
X94691723Y-73730991D01*
X94691723Y-73730991D02*
X94596485Y-73683372D01*
X94596485Y-73683372D02*
X94548866Y-73588134D01*
X94548866Y-73588134D02*
X94548866Y-73350039D01*
X94548866Y-73350039D02*
X94501247Y-73254801D01*
X94929819Y-72350039D02*
X93929819Y-72350039D01*
X94882200Y-72350039D02*
X94929819Y-72445277D01*
X94929819Y-72445277D02*
X94929819Y-72635753D01*
X94929819Y-72635753D02*
X94882200Y-72730991D01*
X94882200Y-72730991D02*
X94834580Y-72778610D01*
X94834580Y-72778610D02*
X94739342Y-72826229D01*
X94739342Y-72826229D02*
X94453628Y-72826229D01*
X94453628Y-72826229D02*
X94358390Y-72778610D01*
X94358390Y-72778610D02*
X94310771Y-72730991D01*
X94310771Y-72730991D02*
X94263152Y-72635753D01*
X94263152Y-72635753D02*
X94263152Y-72445277D01*
X94263152Y-72445277D02*
X94310771Y-72350039D01*
X94882200Y-71492896D02*
X94929819Y-71588134D01*
X94929819Y-71588134D02*
X94929819Y-71778610D01*
X94929819Y-71778610D02*
X94882200Y-71873848D01*
X94882200Y-71873848D02*
X94786961Y-71921467D01*
X94786961Y-71921467D02*
X94406009Y-71921467D01*
X94406009Y-71921467D02*
X94310771Y-71873848D01*
X94310771Y-71873848D02*
X94263152Y-71778610D01*
X94263152Y-71778610D02*
X94263152Y-71588134D01*
X94263152Y-71588134D02*
X94310771Y-71492896D01*
X94310771Y-71492896D02*
X94406009Y-71445277D01*
X94406009Y-71445277D02*
X94501247Y-71445277D01*
X94501247Y-71445277D02*
X94596485Y-71921467D01*
X94929819Y-71016705D02*
X94263152Y-71016705D01*
X94453628Y-71016705D02*
X94358390Y-70969086D01*
X94358390Y-70969086D02*
X94310771Y-70921467D01*
X94310771Y-70921467D02*
X94263152Y-70826229D01*
X94263152Y-70826229D02*
X94263152Y-70730991D01*
X95310771Y-69350038D02*
X95263152Y-69397657D01*
X95263152Y-69397657D02*
X95120295Y-69492895D01*
X95120295Y-69492895D02*
X95025057Y-69540514D01*
X95025057Y-69540514D02*
X94882200Y-69588133D01*
X94882200Y-69588133D02*
X94644104Y-69635752D01*
X94644104Y-69635752D02*
X94453628Y-69635752D01*
X94453628Y-69635752D02*
X94215533Y-69588133D01*
X94215533Y-69588133D02*
X94072676Y-69540514D01*
X94072676Y-69540514D02*
X93977438Y-69492895D01*
X93977438Y-69492895D02*
X93834580Y-69397657D01*
X93834580Y-69397657D02*
X93786961Y-69350038D01*
X94358390Y-68826228D02*
X94310771Y-68921466D01*
X94310771Y-68921466D02*
X94263152Y-68969085D01*
X94263152Y-68969085D02*
X94167914Y-69016704D01*
X94167914Y-69016704D02*
X94120295Y-69016704D01*
X94120295Y-69016704D02*
X94025057Y-68969085D01*
X94025057Y-68969085D02*
X93977438Y-68921466D01*
X93977438Y-68921466D02*
X93929819Y-68826228D01*
X93929819Y-68826228D02*
X93929819Y-68635752D01*
X93929819Y-68635752D02*
X93977438Y-68540514D01*
X93977438Y-68540514D02*
X94025057Y-68492895D01*
X94025057Y-68492895D02*
X94120295Y-68445276D01*
X94120295Y-68445276D02*
X94167914Y-68445276D01*
X94167914Y-68445276D02*
X94263152Y-68492895D01*
X94263152Y-68492895D02*
X94310771Y-68540514D01*
X94310771Y-68540514D02*
X94358390Y-68635752D01*
X94358390Y-68635752D02*
X94358390Y-68826228D01*
X94358390Y-68826228D02*
X94406009Y-68921466D01*
X94406009Y-68921466D02*
X94453628Y-68969085D01*
X94453628Y-68969085D02*
X94548866Y-69016704D01*
X94548866Y-69016704D02*
X94739342Y-69016704D01*
X94739342Y-69016704D02*
X94834580Y-68969085D01*
X94834580Y-68969085D02*
X94882200Y-68921466D01*
X94882200Y-68921466D02*
X94929819Y-68826228D01*
X94929819Y-68826228D02*
X94929819Y-68635752D01*
X94929819Y-68635752D02*
X94882200Y-68540514D01*
X94882200Y-68540514D02*
X94834580Y-68492895D01*
X94834580Y-68492895D02*
X94739342Y-68445276D01*
X94739342Y-68445276D02*
X94548866Y-68445276D01*
X94548866Y-68445276D02*
X94453628Y-68492895D01*
X94453628Y-68492895D02*
X94406009Y-68540514D01*
X94406009Y-68540514D02*
X94358390Y-68635752D01*
X93929819Y-67540514D02*
X93929819Y-68016704D01*
X93929819Y-68016704D02*
X94406009Y-68064323D01*
X94406009Y-68064323D02*
X94358390Y-68016704D01*
X94358390Y-68016704D02*
X94310771Y-67921466D01*
X94310771Y-67921466D02*
X94310771Y-67683371D01*
X94310771Y-67683371D02*
X94358390Y-67588133D01*
X94358390Y-67588133D02*
X94406009Y-67540514D01*
X94406009Y-67540514D02*
X94501247Y-67492895D01*
X94501247Y-67492895D02*
X94739342Y-67492895D01*
X94739342Y-67492895D02*
X94834580Y-67540514D01*
X94834580Y-67540514D02*
X94882200Y-67588133D01*
X94882200Y-67588133D02*
X94929819Y-67683371D01*
X94929819Y-67683371D02*
X94929819Y-67921466D01*
X94929819Y-67921466D02*
X94882200Y-68016704D01*
X94882200Y-68016704D02*
X94834580Y-68064323D01*
X94929819Y-66540514D02*
X94929819Y-67111942D01*
X94929819Y-66826228D02*
X93929819Y-66826228D01*
X93929819Y-66826228D02*
X94072676Y-66921466D01*
X94072676Y-66921466D02*
X94167914Y-67016704D01*
X94167914Y-67016704D02*
X94215533Y-67111942D01*
X93929819Y-65635752D02*
X93929819Y-66111942D01*
X93929819Y-66111942D02*
X94406009Y-66159561D01*
X94406009Y-66159561D02*
X94358390Y-66111942D01*
X94358390Y-66111942D02*
X94310771Y-66016704D01*
X94310771Y-66016704D02*
X94310771Y-65778609D01*
X94310771Y-65778609D02*
X94358390Y-65683371D01*
X94358390Y-65683371D02*
X94406009Y-65635752D01*
X94406009Y-65635752D02*
X94501247Y-65588133D01*
X94501247Y-65588133D02*
X94739342Y-65588133D01*
X94739342Y-65588133D02*
X94834580Y-65635752D01*
X94834580Y-65635752D02*
X94882200Y-65683371D01*
X94882200Y-65683371D02*
X94929819Y-65778609D01*
X94929819Y-65778609D02*
X94929819Y-66016704D01*
X94929819Y-66016704D02*
X94882200Y-66111942D01*
X94882200Y-66111942D02*
X94834580Y-66159561D01*
X95310771Y-65254799D02*
X95263152Y-65207180D01*
X95263152Y-65207180D02*
X95120295Y-65111942D01*
X95120295Y-65111942D02*
X95025057Y-65064323D01*
X95025057Y-65064323D02*
X94882200Y-65016704D01*
X94882200Y-65016704D02*
X94644104Y-64969085D01*
X94644104Y-64969085D02*
X94453628Y-64969085D01*
X94453628Y-64969085D02*
X94215533Y-65016704D01*
X94215533Y-65016704D02*
X94072676Y-65064323D01*
X94072676Y-65064323D02*
X93977438Y-65111942D01*
X93977438Y-65111942D02*
X93834580Y-65207180D01*
X93834580Y-65207180D02*
X93786961Y-65254799D01*
D11*
X62230095Y-40032819D02*
X62230095Y-40842342D01*
X62230095Y-40842342D02*
X62277714Y-40937580D01*
X62277714Y-40937580D02*
X62325333Y-40985200D01*
X62325333Y-40985200D02*
X62420571Y-41032819D01*
X62420571Y-41032819D02*
X62611047Y-41032819D01*
X62611047Y-41032819D02*
X62706285Y-40985200D01*
X62706285Y-40985200D02*
X62753904Y-40937580D01*
X62753904Y-40937580D02*
X62801523Y-40842342D01*
X62801523Y-40842342D02*
X62801523Y-40032819D01*
X63801523Y-41032819D02*
X63230095Y-41032819D01*
X63515809Y-41032819D02*
X63515809Y-40032819D01*
X63515809Y-40032819D02*
X63420571Y-40175676D01*
X63420571Y-40175676D02*
X63325333Y-40270914D01*
X63325333Y-40270914D02*
X63230095Y-40318533D01*
X33361333Y-58271580D02*
X33313714Y-58319200D01*
X33313714Y-58319200D02*
X33170857Y-58366819D01*
X33170857Y-58366819D02*
X33075619Y-58366819D01*
X33075619Y-58366819D02*
X32932762Y-58319200D01*
X32932762Y-58319200D02*
X32837524Y-58223961D01*
X32837524Y-58223961D02*
X32789905Y-58128723D01*
X32789905Y-58128723D02*
X32742286Y-57938247D01*
X32742286Y-57938247D02*
X32742286Y-57795390D01*
X32742286Y-57795390D02*
X32789905Y-57604914D01*
X32789905Y-57604914D02*
X32837524Y-57509676D01*
X32837524Y-57509676D02*
X32932762Y-57414438D01*
X32932762Y-57414438D02*
X33075619Y-57366819D01*
X33075619Y-57366819D02*
X33170857Y-57366819D01*
X33170857Y-57366819D02*
X33313714Y-57414438D01*
X33313714Y-57414438D02*
X33361333Y-57462057D01*
X33694667Y-57366819D02*
X34361333Y-57366819D01*
X34361333Y-57366819D02*
X33932762Y-58366819D01*
X47585333Y-65891580D02*
X47537714Y-65939200D01*
X47537714Y-65939200D02*
X47394857Y-65986819D01*
X47394857Y-65986819D02*
X47299619Y-65986819D01*
X47299619Y-65986819D02*
X47156762Y-65939200D01*
X47156762Y-65939200D02*
X47061524Y-65843961D01*
X47061524Y-65843961D02*
X47013905Y-65748723D01*
X47013905Y-65748723D02*
X46966286Y-65558247D01*
X46966286Y-65558247D02*
X46966286Y-65415390D01*
X46966286Y-65415390D02*
X47013905Y-65224914D01*
X47013905Y-65224914D02*
X47061524Y-65129676D01*
X47061524Y-65129676D02*
X47156762Y-65034438D01*
X47156762Y-65034438D02*
X47299619Y-64986819D01*
X47299619Y-64986819D02*
X47394857Y-64986819D01*
X47394857Y-64986819D02*
X47537714Y-65034438D01*
X47537714Y-65034438D02*
X47585333Y-65082057D01*
X48442476Y-64986819D02*
X48252000Y-64986819D01*
X48252000Y-64986819D02*
X48156762Y-65034438D01*
X48156762Y-65034438D02*
X48109143Y-65082057D01*
X48109143Y-65082057D02*
X48013905Y-65224914D01*
X48013905Y-65224914D02*
X47966286Y-65415390D01*
X47966286Y-65415390D02*
X47966286Y-65796342D01*
X47966286Y-65796342D02*
X48013905Y-65891580D01*
X48013905Y-65891580D02*
X48061524Y-65939200D01*
X48061524Y-65939200D02*
X48156762Y-65986819D01*
X48156762Y-65986819D02*
X48347238Y-65986819D01*
X48347238Y-65986819D02*
X48442476Y-65939200D01*
X48442476Y-65939200D02*
X48490095Y-65891580D01*
X48490095Y-65891580D02*
X48537714Y-65796342D01*
X48537714Y-65796342D02*
X48537714Y-65558247D01*
X48537714Y-65558247D02*
X48490095Y-65463009D01*
X48490095Y-65463009D02*
X48442476Y-65415390D01*
X48442476Y-65415390D02*
X48347238Y-65367771D01*
X48347238Y-65367771D02*
X48156762Y-65367771D01*
X48156762Y-65367771D02*
X48061524Y-65415390D01*
X48061524Y-65415390D02*
X48013905Y-65463009D01*
X48013905Y-65463009D02*
X47966286Y-65558247D01*
X63819833Y-47955580D02*
X63772214Y-48003200D01*
X63772214Y-48003200D02*
X63629357Y-48050819D01*
X63629357Y-48050819D02*
X63534119Y-48050819D01*
X63534119Y-48050819D02*
X63391262Y-48003200D01*
X63391262Y-48003200D02*
X63296024Y-47907961D01*
X63296024Y-47907961D02*
X63248405Y-47812723D01*
X63248405Y-47812723D02*
X63200786Y-47622247D01*
X63200786Y-47622247D02*
X63200786Y-47479390D01*
X63200786Y-47479390D02*
X63248405Y-47288914D01*
X63248405Y-47288914D02*
X63296024Y-47193676D01*
X63296024Y-47193676D02*
X63391262Y-47098438D01*
X63391262Y-47098438D02*
X63534119Y-47050819D01*
X63534119Y-47050819D02*
X63629357Y-47050819D01*
X63629357Y-47050819D02*
X63772214Y-47098438D01*
X63772214Y-47098438D02*
X63819833Y-47146057D01*
X64724595Y-47050819D02*
X64248405Y-47050819D01*
X64248405Y-47050819D02*
X64200786Y-47527009D01*
X64200786Y-47527009D02*
X64248405Y-47479390D01*
X64248405Y-47479390D02*
X64343643Y-47431771D01*
X64343643Y-47431771D02*
X64581738Y-47431771D01*
X64581738Y-47431771D02*
X64676976Y-47479390D01*
X64676976Y-47479390D02*
X64724595Y-47527009D01*
X64724595Y-47527009D02*
X64772214Y-47622247D01*
X64772214Y-47622247D02*
X64772214Y-47860342D01*
X64772214Y-47860342D02*
X64724595Y-47955580D01*
X64724595Y-47955580D02*
X64676976Y-48003200D01*
X64676976Y-48003200D02*
X64581738Y-48050819D01*
X64581738Y-48050819D02*
X64343643Y-48050819D01*
X64343643Y-48050819D02*
X64248405Y-48003200D01*
X64248405Y-48003200D02*
X64200786Y-47955580D01*
X40494833Y-49791580D02*
X40447214Y-49839200D01*
X40447214Y-49839200D02*
X40304357Y-49886819D01*
X40304357Y-49886819D02*
X40209119Y-49886819D01*
X40209119Y-49886819D02*
X40066262Y-49839200D01*
X40066262Y-49839200D02*
X39971024Y-49743961D01*
X39971024Y-49743961D02*
X39923405Y-49648723D01*
X39923405Y-49648723D02*
X39875786Y-49458247D01*
X39875786Y-49458247D02*
X39875786Y-49315390D01*
X39875786Y-49315390D02*
X39923405Y-49124914D01*
X39923405Y-49124914D02*
X39971024Y-49029676D01*
X39971024Y-49029676D02*
X40066262Y-48934438D01*
X40066262Y-48934438D02*
X40209119Y-48886819D01*
X40209119Y-48886819D02*
X40304357Y-48886819D01*
X40304357Y-48886819D02*
X40447214Y-48934438D01*
X40447214Y-48934438D02*
X40494833Y-48982057D01*
X41351976Y-49220152D02*
X41351976Y-49886819D01*
X41113881Y-48839200D02*
X40875786Y-49553485D01*
X40875786Y-49553485D02*
X41494833Y-49553485D01*
X55205333Y-82147580D02*
X55157714Y-82195200D01*
X55157714Y-82195200D02*
X55014857Y-82242819D01*
X55014857Y-82242819D02*
X54919619Y-82242819D01*
X54919619Y-82242819D02*
X54776762Y-82195200D01*
X54776762Y-82195200D02*
X54681524Y-82099961D01*
X54681524Y-82099961D02*
X54633905Y-82004723D01*
X54633905Y-82004723D02*
X54586286Y-81814247D01*
X54586286Y-81814247D02*
X54586286Y-81671390D01*
X54586286Y-81671390D02*
X54633905Y-81480914D01*
X54633905Y-81480914D02*
X54681524Y-81385676D01*
X54681524Y-81385676D02*
X54776762Y-81290438D01*
X54776762Y-81290438D02*
X54919619Y-81242819D01*
X54919619Y-81242819D02*
X55014857Y-81242819D01*
X55014857Y-81242819D02*
X55157714Y-81290438D01*
X55157714Y-81290438D02*
X55205333Y-81338057D01*
X55538667Y-81242819D02*
X56157714Y-81242819D01*
X56157714Y-81242819D02*
X55824381Y-81623771D01*
X55824381Y-81623771D02*
X55967238Y-81623771D01*
X55967238Y-81623771D02*
X56062476Y-81671390D01*
X56062476Y-81671390D02*
X56110095Y-81719009D01*
X56110095Y-81719009D02*
X56157714Y-81814247D01*
X56157714Y-81814247D02*
X56157714Y-82052342D01*
X56157714Y-82052342D02*
X56110095Y-82147580D01*
X56110095Y-82147580D02*
X56062476Y-82195200D01*
X56062476Y-82195200D02*
X55967238Y-82242819D01*
X55967238Y-82242819D02*
X55681524Y-82242819D01*
X55681524Y-82242819D02*
X55586286Y-82195200D01*
X55586286Y-82195200D02*
X55538667Y-82147580D01*
X52890057Y-80361356D02*
X52842438Y-80313737D01*
X52842438Y-80313737D02*
X52794819Y-80218499D01*
X52794819Y-80218499D02*
X52794819Y-79980404D01*
X52794819Y-79980404D02*
X52842438Y-79885166D01*
X52842438Y-79885166D02*
X52890057Y-79837547D01*
X52890057Y-79837547D02*
X52985295Y-79789928D01*
X52985295Y-79789928D02*
X53080533Y-79789928D01*
X53080533Y-79789928D02*
X53223390Y-79837547D01*
X53223390Y-79837547D02*
X53794819Y-80408975D01*
X53794819Y-80408975D02*
X53794819Y-79789928D01*
X52890057Y-79408975D02*
X52842438Y-79361356D01*
X52842438Y-79361356D02*
X52794819Y-79266118D01*
X52794819Y-79266118D02*
X52794819Y-79028023D01*
X52794819Y-79028023D02*
X52842438Y-78932785D01*
X52842438Y-78932785D02*
X52890057Y-78885166D01*
X52890057Y-78885166D02*
X52985295Y-78837547D01*
X52985295Y-78837547D02*
X53080533Y-78837547D01*
X53080533Y-78837547D02*
X53223390Y-78885166D01*
X53223390Y-78885166D02*
X53794819Y-79456594D01*
X53794819Y-79456594D02*
X53794819Y-78837547D01*
X53128152Y-78408975D02*
X54128152Y-78408975D01*
X53175771Y-78408975D02*
X53128152Y-78313737D01*
X53128152Y-78313737D02*
X53128152Y-78123261D01*
X53128152Y-78123261D02*
X53175771Y-78028023D01*
X53175771Y-78028023D02*
X53223390Y-77980404D01*
X53223390Y-77980404D02*
X53318628Y-77932785D01*
X53318628Y-77932785D02*
X53604342Y-77932785D01*
X53604342Y-77932785D02*
X53699580Y-77980404D01*
X53699580Y-77980404D02*
X53747200Y-78028023D01*
X53747200Y-78028023D02*
X53794819Y-78123261D01*
X53794819Y-78123261D02*
X53794819Y-78313737D01*
X53794819Y-78313737D02*
X53747200Y-78408975D01*
X53271009Y-77170880D02*
X53271009Y-77504213D01*
X53794819Y-77504213D02*
X52794819Y-77504213D01*
X52794819Y-77504213D02*
X52794819Y-77028023D01*
X70953333Y-82147580D02*
X70905714Y-82195200D01*
X70905714Y-82195200D02*
X70762857Y-82242819D01*
X70762857Y-82242819D02*
X70667619Y-82242819D01*
X70667619Y-82242819D02*
X70524762Y-82195200D01*
X70524762Y-82195200D02*
X70429524Y-82099961D01*
X70429524Y-82099961D02*
X70381905Y-82004723D01*
X70381905Y-82004723D02*
X70334286Y-81814247D01*
X70334286Y-81814247D02*
X70334286Y-81671390D01*
X70334286Y-81671390D02*
X70381905Y-81480914D01*
X70381905Y-81480914D02*
X70429524Y-81385676D01*
X70429524Y-81385676D02*
X70524762Y-81290438D01*
X70524762Y-81290438D02*
X70667619Y-81242819D01*
X70667619Y-81242819D02*
X70762857Y-81242819D01*
X70762857Y-81242819D02*
X70905714Y-81290438D01*
X70905714Y-81290438D02*
X70953333Y-81338057D01*
X71334286Y-81338057D02*
X71381905Y-81290438D01*
X71381905Y-81290438D02*
X71477143Y-81242819D01*
X71477143Y-81242819D02*
X71715238Y-81242819D01*
X71715238Y-81242819D02*
X71810476Y-81290438D01*
X71810476Y-81290438D02*
X71858095Y-81338057D01*
X71858095Y-81338057D02*
X71905714Y-81433295D01*
X71905714Y-81433295D02*
X71905714Y-81528533D01*
X71905714Y-81528533D02*
X71858095Y-81671390D01*
X71858095Y-81671390D02*
X71286667Y-82242819D01*
X71286667Y-82242819D02*
X71905714Y-82242819D01*
X72702057Y-80382856D02*
X72654438Y-80335237D01*
X72654438Y-80335237D02*
X72606819Y-80239999D01*
X72606819Y-80239999D02*
X72606819Y-80001904D01*
X72606819Y-80001904D02*
X72654438Y-79906666D01*
X72654438Y-79906666D02*
X72702057Y-79859047D01*
X72702057Y-79859047D02*
X72797295Y-79811428D01*
X72797295Y-79811428D02*
X72892533Y-79811428D01*
X72892533Y-79811428D02*
X73035390Y-79859047D01*
X73035390Y-79859047D02*
X73606819Y-80430475D01*
X73606819Y-80430475D02*
X73606819Y-79811428D01*
X72702057Y-79430475D02*
X72654438Y-79382856D01*
X72654438Y-79382856D02*
X72606819Y-79287618D01*
X72606819Y-79287618D02*
X72606819Y-79049523D01*
X72606819Y-79049523D02*
X72654438Y-78954285D01*
X72654438Y-78954285D02*
X72702057Y-78906666D01*
X72702057Y-78906666D02*
X72797295Y-78859047D01*
X72797295Y-78859047D02*
X72892533Y-78859047D01*
X72892533Y-78859047D02*
X73035390Y-78906666D01*
X73035390Y-78906666D02*
X73606819Y-79478094D01*
X73606819Y-79478094D02*
X73606819Y-78859047D01*
X72940152Y-78430475D02*
X73940152Y-78430475D01*
X72987771Y-78430475D02*
X72940152Y-78335237D01*
X72940152Y-78335237D02*
X72940152Y-78144761D01*
X72940152Y-78144761D02*
X72987771Y-78049523D01*
X72987771Y-78049523D02*
X73035390Y-78001904D01*
X73035390Y-78001904D02*
X73130628Y-77954285D01*
X73130628Y-77954285D02*
X73416342Y-77954285D01*
X73416342Y-77954285D02*
X73511580Y-78001904D01*
X73511580Y-78001904D02*
X73559200Y-78049523D01*
X73559200Y-78049523D02*
X73606819Y-78144761D01*
X73606819Y-78144761D02*
X73606819Y-78335237D01*
X73606819Y-78335237D02*
X73559200Y-78430475D01*
X73083009Y-77192380D02*
X73083009Y-77525713D01*
X73606819Y-77525713D02*
X72606819Y-77525713D01*
X72606819Y-77525713D02*
X72606819Y-77049523D01*
X37951580Y-54014666D02*
X37999200Y-54062285D01*
X37999200Y-54062285D02*
X38046819Y-54205142D01*
X38046819Y-54205142D02*
X38046819Y-54300380D01*
X38046819Y-54300380D02*
X37999200Y-54443237D01*
X37999200Y-54443237D02*
X37903961Y-54538475D01*
X37903961Y-54538475D02*
X37808723Y-54586094D01*
X37808723Y-54586094D02*
X37618247Y-54633713D01*
X37618247Y-54633713D02*
X37475390Y-54633713D01*
X37475390Y-54633713D02*
X37284914Y-54586094D01*
X37284914Y-54586094D02*
X37189676Y-54538475D01*
X37189676Y-54538475D02*
X37094438Y-54443237D01*
X37094438Y-54443237D02*
X37046819Y-54300380D01*
X37046819Y-54300380D02*
X37046819Y-54205142D01*
X37046819Y-54205142D02*
X37094438Y-54062285D01*
X37094438Y-54062285D02*
X37142057Y-54014666D01*
X38046819Y-53062285D02*
X38046819Y-53633713D01*
X38046819Y-53347999D02*
X37046819Y-53347999D01*
X37046819Y-53347999D02*
X37189676Y-53443237D01*
X37189676Y-53443237D02*
X37284914Y-53538475D01*
X37284914Y-53538475D02*
X37332533Y-53633713D01*
X88733333Y-71066819D02*
X88400000Y-70590628D01*
X88161905Y-71066819D02*
X88161905Y-70066819D01*
X88161905Y-70066819D02*
X88542857Y-70066819D01*
X88542857Y-70066819D02*
X88638095Y-70114438D01*
X88638095Y-70114438D02*
X88685714Y-70162057D01*
X88685714Y-70162057D02*
X88733333Y-70257295D01*
X88733333Y-70257295D02*
X88733333Y-70400152D01*
X88733333Y-70400152D02*
X88685714Y-70495390D01*
X88685714Y-70495390D02*
X88638095Y-70543009D01*
X88638095Y-70543009D02*
X88542857Y-70590628D01*
X88542857Y-70590628D02*
X88161905Y-70590628D01*
X89209524Y-71066819D02*
X89400000Y-71066819D01*
X89400000Y-71066819D02*
X89495238Y-71019200D01*
X89495238Y-71019200D02*
X89542857Y-70971580D01*
X89542857Y-70971580D02*
X89638095Y-70828723D01*
X89638095Y-70828723D02*
X89685714Y-70638247D01*
X89685714Y-70638247D02*
X89685714Y-70257295D01*
X89685714Y-70257295D02*
X89638095Y-70162057D01*
X89638095Y-70162057D02*
X89590476Y-70114438D01*
X89590476Y-70114438D02*
X89495238Y-70066819D01*
X89495238Y-70066819D02*
X89304762Y-70066819D01*
X89304762Y-70066819D02*
X89209524Y-70114438D01*
X89209524Y-70114438D02*
X89161905Y-70162057D01*
X89161905Y-70162057D02*
X89114286Y-70257295D01*
X89114286Y-70257295D02*
X89114286Y-70495390D01*
X89114286Y-70495390D02*
X89161905Y-70590628D01*
X89161905Y-70590628D02*
X89209524Y-70638247D01*
X89209524Y-70638247D02*
X89304762Y-70685866D01*
X89304762Y-70685866D02*
X89495238Y-70685866D01*
X89495238Y-70685866D02*
X89590476Y-70638247D01*
X89590476Y-70638247D02*
X89638095Y-70590628D01*
X89638095Y-70590628D02*
X89685714Y-70495390D01*
X86193333Y-71066819D02*
X85860000Y-70590628D01*
X85621905Y-71066819D02*
X85621905Y-70066819D01*
X85621905Y-70066819D02*
X86002857Y-70066819D01*
X86002857Y-70066819D02*
X86098095Y-70114438D01*
X86098095Y-70114438D02*
X86145714Y-70162057D01*
X86145714Y-70162057D02*
X86193333Y-70257295D01*
X86193333Y-70257295D02*
X86193333Y-70400152D01*
X86193333Y-70400152D02*
X86145714Y-70495390D01*
X86145714Y-70495390D02*
X86098095Y-70543009D01*
X86098095Y-70543009D02*
X86002857Y-70590628D01*
X86002857Y-70590628D02*
X85621905Y-70590628D01*
X86764762Y-70495390D02*
X86669524Y-70447771D01*
X86669524Y-70447771D02*
X86621905Y-70400152D01*
X86621905Y-70400152D02*
X86574286Y-70304914D01*
X86574286Y-70304914D02*
X86574286Y-70257295D01*
X86574286Y-70257295D02*
X86621905Y-70162057D01*
X86621905Y-70162057D02*
X86669524Y-70114438D01*
X86669524Y-70114438D02*
X86764762Y-70066819D01*
X86764762Y-70066819D02*
X86955238Y-70066819D01*
X86955238Y-70066819D02*
X87050476Y-70114438D01*
X87050476Y-70114438D02*
X87098095Y-70162057D01*
X87098095Y-70162057D02*
X87145714Y-70257295D01*
X87145714Y-70257295D02*
X87145714Y-70304914D01*
X87145714Y-70304914D02*
X87098095Y-70400152D01*
X87098095Y-70400152D02*
X87050476Y-70447771D01*
X87050476Y-70447771D02*
X86955238Y-70495390D01*
X86955238Y-70495390D02*
X86764762Y-70495390D01*
X86764762Y-70495390D02*
X86669524Y-70543009D01*
X86669524Y-70543009D02*
X86621905Y-70590628D01*
X86621905Y-70590628D02*
X86574286Y-70685866D01*
X86574286Y-70685866D02*
X86574286Y-70876342D01*
X86574286Y-70876342D02*
X86621905Y-70971580D01*
X86621905Y-70971580D02*
X86669524Y-71019200D01*
X86669524Y-71019200D02*
X86764762Y-71066819D01*
X86764762Y-71066819D02*
X86955238Y-71066819D01*
X86955238Y-71066819D02*
X87050476Y-71019200D01*
X87050476Y-71019200D02*
X87098095Y-70971580D01*
X87098095Y-70971580D02*
X87145714Y-70876342D01*
X87145714Y-70876342D02*
X87145714Y-70685866D01*
X87145714Y-70685866D02*
X87098095Y-70590628D01*
X87098095Y-70590628D02*
X87050476Y-70543009D01*
X87050476Y-70543009D02*
X86955238Y-70495390D01*
X78573333Y-71066819D02*
X78240000Y-70590628D01*
X78001905Y-71066819D02*
X78001905Y-70066819D01*
X78001905Y-70066819D02*
X78382857Y-70066819D01*
X78382857Y-70066819D02*
X78478095Y-70114438D01*
X78478095Y-70114438D02*
X78525714Y-70162057D01*
X78525714Y-70162057D02*
X78573333Y-70257295D01*
X78573333Y-70257295D02*
X78573333Y-70400152D01*
X78573333Y-70400152D02*
X78525714Y-70495390D01*
X78525714Y-70495390D02*
X78478095Y-70543009D01*
X78478095Y-70543009D02*
X78382857Y-70590628D01*
X78382857Y-70590628D02*
X78001905Y-70590628D01*
X78906667Y-70066819D02*
X79573333Y-70066819D01*
X79573333Y-70066819D02*
X79144762Y-71066819D01*
X83653333Y-71066819D02*
X83320000Y-70590628D01*
X83081905Y-71066819D02*
X83081905Y-70066819D01*
X83081905Y-70066819D02*
X83462857Y-70066819D01*
X83462857Y-70066819D02*
X83558095Y-70114438D01*
X83558095Y-70114438D02*
X83605714Y-70162057D01*
X83605714Y-70162057D02*
X83653333Y-70257295D01*
X83653333Y-70257295D02*
X83653333Y-70400152D01*
X83653333Y-70400152D02*
X83605714Y-70495390D01*
X83605714Y-70495390D02*
X83558095Y-70543009D01*
X83558095Y-70543009D02*
X83462857Y-70590628D01*
X83462857Y-70590628D02*
X83081905Y-70590628D01*
X84510476Y-70066819D02*
X84320000Y-70066819D01*
X84320000Y-70066819D02*
X84224762Y-70114438D01*
X84224762Y-70114438D02*
X84177143Y-70162057D01*
X84177143Y-70162057D02*
X84081905Y-70304914D01*
X84081905Y-70304914D02*
X84034286Y-70495390D01*
X84034286Y-70495390D02*
X84034286Y-70876342D01*
X84034286Y-70876342D02*
X84081905Y-70971580D01*
X84081905Y-70971580D02*
X84129524Y-71019200D01*
X84129524Y-71019200D02*
X84224762Y-71066819D01*
X84224762Y-71066819D02*
X84415238Y-71066819D01*
X84415238Y-71066819D02*
X84510476Y-71019200D01*
X84510476Y-71019200D02*
X84558095Y-70971580D01*
X84558095Y-70971580D02*
X84605714Y-70876342D01*
X84605714Y-70876342D02*
X84605714Y-70638247D01*
X84605714Y-70638247D02*
X84558095Y-70543009D01*
X84558095Y-70543009D02*
X84510476Y-70495390D01*
X84510476Y-70495390D02*
X84415238Y-70447771D01*
X84415238Y-70447771D02*
X84224762Y-70447771D01*
X84224762Y-70447771D02*
X84129524Y-70495390D01*
X84129524Y-70495390D02*
X84081905Y-70543009D01*
X84081905Y-70543009D02*
X84034286Y-70638247D01*
X81113333Y-71066819D02*
X80780000Y-70590628D01*
X80541905Y-71066819D02*
X80541905Y-70066819D01*
X80541905Y-70066819D02*
X80922857Y-70066819D01*
X80922857Y-70066819D02*
X81018095Y-70114438D01*
X81018095Y-70114438D02*
X81065714Y-70162057D01*
X81065714Y-70162057D02*
X81113333Y-70257295D01*
X81113333Y-70257295D02*
X81113333Y-70400152D01*
X81113333Y-70400152D02*
X81065714Y-70495390D01*
X81065714Y-70495390D02*
X81018095Y-70543009D01*
X81018095Y-70543009D02*
X80922857Y-70590628D01*
X80922857Y-70590628D02*
X80541905Y-70590628D01*
X82018095Y-70066819D02*
X81541905Y-70066819D01*
X81541905Y-70066819D02*
X81494286Y-70543009D01*
X81494286Y-70543009D02*
X81541905Y-70495390D01*
X81541905Y-70495390D02*
X81637143Y-70447771D01*
X81637143Y-70447771D02*
X81875238Y-70447771D01*
X81875238Y-70447771D02*
X81970476Y-70495390D01*
X81970476Y-70495390D02*
X82018095Y-70543009D01*
X82018095Y-70543009D02*
X82065714Y-70638247D01*
X82065714Y-70638247D02*
X82065714Y-70876342D01*
X82065714Y-70876342D02*
X82018095Y-70971580D01*
X82018095Y-70971580D02*
X81970476Y-71019200D01*
X81970476Y-71019200D02*
X81875238Y-71066819D01*
X81875238Y-71066819D02*
X81637143Y-71066819D01*
X81637143Y-71066819D02*
X81541905Y-71019200D01*
X81541905Y-71019200D02*
X81494286Y-70971580D01*
X51286819Y-57570666D02*
X50810628Y-57903999D01*
X51286819Y-58142094D02*
X50286819Y-58142094D01*
X50286819Y-58142094D02*
X50286819Y-57761142D01*
X50286819Y-57761142D02*
X50334438Y-57665904D01*
X50334438Y-57665904D02*
X50382057Y-57618285D01*
X50382057Y-57618285D02*
X50477295Y-57570666D01*
X50477295Y-57570666D02*
X50620152Y-57570666D01*
X50620152Y-57570666D02*
X50715390Y-57618285D01*
X50715390Y-57618285D02*
X50763009Y-57665904D01*
X50763009Y-57665904D02*
X50810628Y-57761142D01*
X50810628Y-57761142D02*
X50810628Y-58142094D01*
X50620152Y-56713523D02*
X51286819Y-56713523D01*
X50239200Y-56951618D02*
X50953485Y-57189713D01*
X50953485Y-57189713D02*
X50953485Y-56570666D01*
X48140952Y-59636819D02*
X47569524Y-59636819D01*
X47855238Y-59636819D02*
X47855238Y-58636819D01*
X47855238Y-58636819D02*
X47760000Y-58779676D01*
X47760000Y-58779676D02*
X47664762Y-58874914D01*
X47664762Y-58874914D02*
X47569524Y-58922533D01*
X48569524Y-59636819D02*
X48569524Y-58636819D01*
X48664762Y-59255866D02*
X48950476Y-59636819D01*
X48950476Y-58970152D02*
X48569524Y-59351104D01*
X51286819Y-55030666D02*
X50810628Y-55363999D01*
X51286819Y-55602094D02*
X50286819Y-55602094D01*
X50286819Y-55602094D02*
X50286819Y-55221142D01*
X50286819Y-55221142D02*
X50334438Y-55125904D01*
X50334438Y-55125904D02*
X50382057Y-55078285D01*
X50382057Y-55078285D02*
X50477295Y-55030666D01*
X50477295Y-55030666D02*
X50620152Y-55030666D01*
X50620152Y-55030666D02*
X50715390Y-55078285D01*
X50715390Y-55078285D02*
X50763009Y-55125904D01*
X50763009Y-55125904D02*
X50810628Y-55221142D01*
X50810628Y-55221142D02*
X50810628Y-55602094D01*
X50286819Y-54697332D02*
X50286819Y-54078285D01*
X50286819Y-54078285D02*
X50667771Y-54411618D01*
X50667771Y-54411618D02*
X50667771Y-54268761D01*
X50667771Y-54268761D02*
X50715390Y-54173523D01*
X50715390Y-54173523D02*
X50763009Y-54125904D01*
X50763009Y-54125904D02*
X50858247Y-54078285D01*
X50858247Y-54078285D02*
X51096342Y-54078285D01*
X51096342Y-54078285D02*
X51191580Y-54125904D01*
X51191580Y-54125904D02*
X51239200Y-54173523D01*
X51239200Y-54173523D02*
X51286819Y-54268761D01*
X51286819Y-54268761D02*
X51286819Y-54554475D01*
X51286819Y-54554475D02*
X51239200Y-54649713D01*
X51239200Y-54649713D02*
X51191580Y-54697332D01*
X48140952Y-53540819D02*
X47569524Y-53540819D01*
X47855238Y-53540819D02*
X47855238Y-52540819D01*
X47855238Y-52540819D02*
X47760000Y-52683676D01*
X47760000Y-52683676D02*
X47664762Y-52778914D01*
X47664762Y-52778914D02*
X47569524Y-52826533D01*
X48569524Y-53540819D02*
X48569524Y-52540819D01*
X48664762Y-53159866D02*
X48950476Y-53540819D01*
X48950476Y-52874152D02*
X48569524Y-53255104D01*
X92289333Y-59382819D02*
X91956000Y-58906628D01*
X91717905Y-59382819D02*
X91717905Y-58382819D01*
X91717905Y-58382819D02*
X92098857Y-58382819D01*
X92098857Y-58382819D02*
X92194095Y-58430438D01*
X92194095Y-58430438D02*
X92241714Y-58478057D01*
X92241714Y-58478057D02*
X92289333Y-58573295D01*
X92289333Y-58573295D02*
X92289333Y-58716152D01*
X92289333Y-58716152D02*
X92241714Y-58811390D01*
X92241714Y-58811390D02*
X92194095Y-58859009D01*
X92194095Y-58859009D02*
X92098857Y-58906628D01*
X92098857Y-58906628D02*
X91717905Y-58906628D01*
X92670286Y-58478057D02*
X92717905Y-58430438D01*
X92717905Y-58430438D02*
X92813143Y-58382819D01*
X92813143Y-58382819D02*
X93051238Y-58382819D01*
X93051238Y-58382819D02*
X93146476Y-58430438D01*
X93146476Y-58430438D02*
X93194095Y-58478057D01*
X93194095Y-58478057D02*
X93241714Y-58573295D01*
X93241714Y-58573295D02*
X93241714Y-58668533D01*
X93241714Y-58668533D02*
X93194095Y-58811390D01*
X93194095Y-58811390D02*
X92622667Y-59382819D01*
X92622667Y-59382819D02*
X93241714Y-59382819D01*
X94560819Y-62047238D02*
X94560819Y-62618666D01*
X94560819Y-62332952D02*
X93560819Y-62332952D01*
X93560819Y-62332952D02*
X93703676Y-62428190D01*
X93703676Y-62428190D02*
X93798914Y-62523428D01*
X93798914Y-62523428D02*
X93846533Y-62618666D01*
X93560819Y-61428190D02*
X93560819Y-61332952D01*
X93560819Y-61332952D02*
X93608438Y-61237714D01*
X93608438Y-61237714D02*
X93656057Y-61190095D01*
X93656057Y-61190095D02*
X93751295Y-61142476D01*
X93751295Y-61142476D02*
X93941771Y-61094857D01*
X93941771Y-61094857D02*
X94179866Y-61094857D01*
X94179866Y-61094857D02*
X94370342Y-61142476D01*
X94370342Y-61142476D02*
X94465580Y-61190095D01*
X94465580Y-61190095D02*
X94513200Y-61237714D01*
X94513200Y-61237714D02*
X94560819Y-61332952D01*
X94560819Y-61332952D02*
X94560819Y-61428190D01*
X94560819Y-61428190D02*
X94513200Y-61523428D01*
X94513200Y-61523428D02*
X94465580Y-61571047D01*
X94465580Y-61571047D02*
X94370342Y-61618666D01*
X94370342Y-61618666D02*
X94179866Y-61666285D01*
X94179866Y-61666285D02*
X93941771Y-61666285D01*
X93941771Y-61666285D02*
X93751295Y-61618666D01*
X93751295Y-61618666D02*
X93656057Y-61571047D01*
X93656057Y-61571047D02*
X93608438Y-61523428D01*
X93608438Y-61523428D02*
X93560819Y-61428190D01*
X94560819Y-60666285D02*
X93560819Y-60666285D01*
X94179866Y-60571047D02*
X94560819Y-60285333D01*
X93894152Y-60285333D02*
X94275104Y-60666285D01*
X83145333Y-52270819D02*
X82812000Y-51794628D01*
X82573905Y-52270819D02*
X82573905Y-51270819D01*
X82573905Y-51270819D02*
X82954857Y-51270819D01*
X82954857Y-51270819D02*
X83050095Y-51318438D01*
X83050095Y-51318438D02*
X83097714Y-51366057D01*
X83097714Y-51366057D02*
X83145333Y-51461295D01*
X83145333Y-51461295D02*
X83145333Y-51604152D01*
X83145333Y-51604152D02*
X83097714Y-51699390D01*
X83097714Y-51699390D02*
X83050095Y-51747009D01*
X83050095Y-51747009D02*
X82954857Y-51794628D01*
X82954857Y-51794628D02*
X82573905Y-51794628D01*
X84097714Y-52270819D02*
X83526286Y-52270819D01*
X83812000Y-52270819D02*
X83812000Y-51270819D01*
X83812000Y-51270819D02*
X83716762Y-51413676D01*
X83716762Y-51413676D02*
X83621524Y-51508914D01*
X83621524Y-51508914D02*
X83526286Y-51556533D01*
X81988819Y-49379238D02*
X81988819Y-49950666D01*
X81988819Y-49664952D02*
X80988819Y-49664952D01*
X80988819Y-49664952D02*
X81131676Y-49760190D01*
X81131676Y-49760190D02*
X81226914Y-49855428D01*
X81226914Y-49855428D02*
X81274533Y-49950666D01*
X80988819Y-48760190D02*
X80988819Y-48664952D01*
X80988819Y-48664952D02*
X81036438Y-48569714D01*
X81036438Y-48569714D02*
X81084057Y-48522095D01*
X81084057Y-48522095D02*
X81179295Y-48474476D01*
X81179295Y-48474476D02*
X81369771Y-48426857D01*
X81369771Y-48426857D02*
X81607866Y-48426857D01*
X81607866Y-48426857D02*
X81798342Y-48474476D01*
X81798342Y-48474476D02*
X81893580Y-48522095D01*
X81893580Y-48522095D02*
X81941200Y-48569714D01*
X81941200Y-48569714D02*
X81988819Y-48664952D01*
X81988819Y-48664952D02*
X81988819Y-48760190D01*
X81988819Y-48760190D02*
X81941200Y-48855428D01*
X81941200Y-48855428D02*
X81893580Y-48903047D01*
X81893580Y-48903047D02*
X81798342Y-48950666D01*
X81798342Y-48950666D02*
X81607866Y-48998285D01*
X81607866Y-48998285D02*
X81369771Y-48998285D01*
X81369771Y-48998285D02*
X81179295Y-48950666D01*
X81179295Y-48950666D02*
X81084057Y-48903047D01*
X81084057Y-48903047D02*
X81036438Y-48855428D01*
X81036438Y-48855428D02*
X80988819Y-48760190D01*
X81988819Y-47998285D02*
X80988819Y-47998285D01*
X81607866Y-47903047D02*
X81988819Y-47617333D01*
X81322152Y-47617333D02*
X81703104Y-47998285D01*
X88161905Y-77153819D02*
X88161905Y-76153819D01*
X88161905Y-76153819D02*
X88400000Y-76153819D01*
X88400000Y-76153819D02*
X88542857Y-76201438D01*
X88542857Y-76201438D02*
X88638095Y-76296676D01*
X88638095Y-76296676D02*
X88685714Y-76391914D01*
X88685714Y-76391914D02*
X88733333Y-76582390D01*
X88733333Y-76582390D02*
X88733333Y-76725247D01*
X88733333Y-76725247D02*
X88685714Y-76915723D01*
X88685714Y-76915723D02*
X88638095Y-77010961D01*
X88638095Y-77010961D02*
X88542857Y-77106200D01*
X88542857Y-77106200D02*
X88400000Y-77153819D01*
X88400000Y-77153819D02*
X88161905Y-77153819D01*
X89638095Y-76153819D02*
X89161905Y-76153819D01*
X89161905Y-76153819D02*
X89114286Y-76630009D01*
X89114286Y-76630009D02*
X89161905Y-76582390D01*
X89161905Y-76582390D02*
X89257143Y-76534771D01*
X89257143Y-76534771D02*
X89495238Y-76534771D01*
X89495238Y-76534771D02*
X89590476Y-76582390D01*
X89590476Y-76582390D02*
X89638095Y-76630009D01*
X89638095Y-76630009D02*
X89685714Y-76725247D01*
X89685714Y-76725247D02*
X89685714Y-76963342D01*
X89685714Y-76963342D02*
X89638095Y-77058580D01*
X89638095Y-77058580D02*
X89590476Y-77106200D01*
X89590476Y-77106200D02*
X89495238Y-77153819D01*
X89495238Y-77153819D02*
X89257143Y-77153819D01*
X89257143Y-77153819D02*
X89161905Y-77106200D01*
X89161905Y-77106200D02*
X89114286Y-77058580D01*
X87971429Y-81233819D02*
X88209524Y-82233819D01*
X88209524Y-82233819D02*
X88400000Y-81519533D01*
X88400000Y-81519533D02*
X88590476Y-82233819D01*
X88590476Y-82233819D02*
X88828572Y-81233819D01*
X89780952Y-82233819D02*
X89447619Y-81757628D01*
X89209524Y-82233819D02*
X89209524Y-81233819D01*
X89209524Y-81233819D02*
X89590476Y-81233819D01*
X89590476Y-81233819D02*
X89685714Y-81281438D01*
X89685714Y-81281438D02*
X89733333Y-81329057D01*
X89733333Y-81329057D02*
X89780952Y-81424295D01*
X89780952Y-81424295D02*
X89780952Y-81567152D01*
X89780952Y-81567152D02*
X89733333Y-81662390D01*
X89733333Y-81662390D02*
X89685714Y-81710009D01*
X89685714Y-81710009D02*
X89590476Y-81757628D01*
X89590476Y-81757628D02*
X89209524Y-81757628D01*
X85621905Y-77153819D02*
X85621905Y-76153819D01*
X85621905Y-76153819D02*
X85860000Y-76153819D01*
X85860000Y-76153819D02*
X86002857Y-76201438D01*
X86002857Y-76201438D02*
X86098095Y-76296676D01*
X86098095Y-76296676D02*
X86145714Y-76391914D01*
X86145714Y-76391914D02*
X86193333Y-76582390D01*
X86193333Y-76582390D02*
X86193333Y-76725247D01*
X86193333Y-76725247D02*
X86145714Y-76915723D01*
X86145714Y-76915723D02*
X86098095Y-77010961D01*
X86098095Y-77010961D02*
X86002857Y-77106200D01*
X86002857Y-77106200D02*
X85860000Y-77153819D01*
X85860000Y-77153819D02*
X85621905Y-77153819D01*
X87050476Y-76487152D02*
X87050476Y-77153819D01*
X86812381Y-76106200D02*
X86574286Y-76820485D01*
X86574286Y-76820485D02*
X87193333Y-76820485D01*
X86169523Y-82233819D02*
X85836190Y-81757628D01*
X85598095Y-82233819D02*
X85598095Y-81233819D01*
X85598095Y-81233819D02*
X85979047Y-81233819D01*
X85979047Y-81233819D02*
X86074285Y-81281438D01*
X86074285Y-81281438D02*
X86121904Y-81329057D01*
X86121904Y-81329057D02*
X86169523Y-81424295D01*
X86169523Y-81424295D02*
X86169523Y-81567152D01*
X86169523Y-81567152D02*
X86121904Y-81662390D01*
X86121904Y-81662390D02*
X86074285Y-81710009D01*
X86074285Y-81710009D02*
X85979047Y-81757628D01*
X85979047Y-81757628D02*
X85598095Y-81757628D01*
X86598095Y-82233819D02*
X86598095Y-81233819D01*
X86598095Y-81233819D02*
X86836190Y-81233819D01*
X86836190Y-81233819D02*
X86979047Y-81281438D01*
X86979047Y-81281438D02*
X87074285Y-81376676D01*
X87074285Y-81376676D02*
X87121904Y-81471914D01*
X87121904Y-81471914D02*
X87169523Y-81662390D01*
X87169523Y-81662390D02*
X87169523Y-81805247D01*
X87169523Y-81805247D02*
X87121904Y-81995723D01*
X87121904Y-81995723D02*
X87074285Y-82090961D01*
X87074285Y-82090961D02*
X86979047Y-82186200D01*
X86979047Y-82186200D02*
X86836190Y-82233819D01*
X86836190Y-82233819D02*
X86598095Y-82233819D01*
X78001905Y-77153819D02*
X78001905Y-76153819D01*
X78001905Y-76153819D02*
X78240000Y-76153819D01*
X78240000Y-76153819D02*
X78382857Y-76201438D01*
X78382857Y-76201438D02*
X78478095Y-76296676D01*
X78478095Y-76296676D02*
X78525714Y-76391914D01*
X78525714Y-76391914D02*
X78573333Y-76582390D01*
X78573333Y-76582390D02*
X78573333Y-76725247D01*
X78573333Y-76725247D02*
X78525714Y-76915723D01*
X78525714Y-76915723D02*
X78478095Y-77010961D01*
X78478095Y-77010961D02*
X78382857Y-77106200D01*
X78382857Y-77106200D02*
X78240000Y-77153819D01*
X78240000Y-77153819D02*
X78001905Y-77153819D01*
X78906667Y-76153819D02*
X79525714Y-76153819D01*
X79525714Y-76153819D02*
X79192381Y-76534771D01*
X79192381Y-76534771D02*
X79335238Y-76534771D01*
X79335238Y-76534771D02*
X79430476Y-76582390D01*
X79430476Y-76582390D02*
X79478095Y-76630009D01*
X79478095Y-76630009D02*
X79525714Y-76725247D01*
X79525714Y-76725247D02*
X79525714Y-76963342D01*
X79525714Y-76963342D02*
X79478095Y-77058580D01*
X79478095Y-77058580D02*
X79430476Y-77106200D01*
X79430476Y-77106200D02*
X79335238Y-77153819D01*
X79335238Y-77153819D02*
X79049524Y-77153819D01*
X79049524Y-77153819D02*
X78954286Y-77106200D01*
X78954286Y-77106200D02*
X78906667Y-77058580D01*
X78120952Y-81233819D02*
X78311428Y-81233819D01*
X78311428Y-81233819D02*
X78406666Y-81281438D01*
X78406666Y-81281438D02*
X78501904Y-81376676D01*
X78501904Y-81376676D02*
X78549523Y-81567152D01*
X78549523Y-81567152D02*
X78549523Y-81900485D01*
X78549523Y-81900485D02*
X78501904Y-82090961D01*
X78501904Y-82090961D02*
X78406666Y-82186200D01*
X78406666Y-82186200D02*
X78311428Y-82233819D01*
X78311428Y-82233819D02*
X78120952Y-82233819D01*
X78120952Y-82233819D02*
X78025714Y-82186200D01*
X78025714Y-82186200D02*
X77930476Y-82090961D01*
X77930476Y-82090961D02*
X77882857Y-81900485D01*
X77882857Y-81900485D02*
X77882857Y-81567152D01*
X77882857Y-81567152D02*
X77930476Y-81376676D01*
X77930476Y-81376676D02*
X78025714Y-81281438D01*
X78025714Y-81281438D02*
X78120952Y-81233819D01*
X78978095Y-82233819D02*
X78978095Y-81233819D01*
X78978095Y-81233819D02*
X79549523Y-82233819D01*
X79549523Y-82233819D02*
X79549523Y-81233819D01*
X83081905Y-77153819D02*
X83081905Y-76153819D01*
X83081905Y-76153819D02*
X83320000Y-76153819D01*
X83320000Y-76153819D02*
X83462857Y-76201438D01*
X83462857Y-76201438D02*
X83558095Y-76296676D01*
X83558095Y-76296676D02*
X83605714Y-76391914D01*
X83605714Y-76391914D02*
X83653333Y-76582390D01*
X83653333Y-76582390D02*
X83653333Y-76725247D01*
X83653333Y-76725247D02*
X83605714Y-76915723D01*
X83605714Y-76915723D02*
X83558095Y-77010961D01*
X83558095Y-77010961D02*
X83462857Y-77106200D01*
X83462857Y-77106200D02*
X83320000Y-77153819D01*
X83320000Y-77153819D02*
X83081905Y-77153819D01*
X84034286Y-76249057D02*
X84081905Y-76201438D01*
X84081905Y-76201438D02*
X84177143Y-76153819D01*
X84177143Y-76153819D02*
X84415238Y-76153819D01*
X84415238Y-76153819D02*
X84510476Y-76201438D01*
X84510476Y-76201438D02*
X84558095Y-76249057D01*
X84558095Y-76249057D02*
X84605714Y-76344295D01*
X84605714Y-76344295D02*
X84605714Y-76439533D01*
X84605714Y-76439533D02*
X84558095Y-76582390D01*
X84558095Y-76582390D02*
X83986667Y-77153819D01*
X83986667Y-77153819D02*
X84605714Y-77153819D01*
X83653333Y-82233819D02*
X83320000Y-81757628D01*
X83081905Y-82233819D02*
X83081905Y-81233819D01*
X83081905Y-81233819D02*
X83462857Y-81233819D01*
X83462857Y-81233819D02*
X83558095Y-81281438D01*
X83558095Y-81281438D02*
X83605714Y-81329057D01*
X83605714Y-81329057D02*
X83653333Y-81424295D01*
X83653333Y-81424295D02*
X83653333Y-81567152D01*
X83653333Y-81567152D02*
X83605714Y-81662390D01*
X83605714Y-81662390D02*
X83558095Y-81710009D01*
X83558095Y-81710009D02*
X83462857Y-81757628D01*
X83462857Y-81757628D02*
X83081905Y-81757628D01*
X83986667Y-81233819D02*
X84653333Y-82233819D01*
X84653333Y-81233819D02*
X83986667Y-82233819D01*
X80541905Y-77153819D02*
X80541905Y-76153819D01*
X80541905Y-76153819D02*
X80780000Y-76153819D01*
X80780000Y-76153819D02*
X80922857Y-76201438D01*
X80922857Y-76201438D02*
X81018095Y-76296676D01*
X81018095Y-76296676D02*
X81065714Y-76391914D01*
X81065714Y-76391914D02*
X81113333Y-76582390D01*
X81113333Y-76582390D02*
X81113333Y-76725247D01*
X81113333Y-76725247D02*
X81065714Y-76915723D01*
X81065714Y-76915723D02*
X81018095Y-77010961D01*
X81018095Y-77010961D02*
X80922857Y-77106200D01*
X80922857Y-77106200D02*
X80780000Y-77153819D01*
X80780000Y-77153819D02*
X80541905Y-77153819D01*
X82065714Y-77153819D02*
X81494286Y-77153819D01*
X81780000Y-77153819D02*
X81780000Y-76153819D01*
X81780000Y-76153819D02*
X81684762Y-76296676D01*
X81684762Y-76296676D02*
X81589524Y-76391914D01*
X81589524Y-76391914D02*
X81494286Y-76439533D01*
X80518095Y-81233819D02*
X81089523Y-81233819D01*
X80803809Y-82233819D02*
X80803809Y-81233819D01*
X81327619Y-81233819D02*
X81994285Y-82233819D01*
X81994285Y-81233819D02*
X81327619Y-82233819D01*
X53594095Y-49238819D02*
X53594095Y-50048342D01*
X53594095Y-50048342D02*
X53641714Y-50143580D01*
X53641714Y-50143580D02*
X53689333Y-50191200D01*
X53689333Y-50191200D02*
X53784571Y-50238819D01*
X53784571Y-50238819D02*
X53975047Y-50238819D01*
X53975047Y-50238819D02*
X54070285Y-50191200D01*
X54070285Y-50191200D02*
X54117904Y-50143580D01*
X54117904Y-50143580D02*
X54165523Y-50048342D01*
X54165523Y-50048342D02*
X54165523Y-49238819D01*
X54594095Y-49334057D02*
X54641714Y-49286438D01*
X54641714Y-49286438D02*
X54736952Y-49238819D01*
X54736952Y-49238819D02*
X54975047Y-49238819D01*
X54975047Y-49238819D02*
X55070285Y-49286438D01*
X55070285Y-49286438D02*
X55117904Y-49334057D01*
X55117904Y-49334057D02*
X55165523Y-49429295D01*
X55165523Y-49429295D02*
X55165523Y-49524533D01*
X55165523Y-49524533D02*
X55117904Y-49667390D01*
X55117904Y-49667390D02*
X54546476Y-50238819D01*
X54546476Y-50238819D02*
X55165523Y-50238819D01*
X50969104Y-74548190D02*
X50969104Y-74072000D01*
X51254819Y-74643428D02*
X50254819Y-74310095D01*
X50254819Y-74310095D02*
X51254819Y-73976762D01*
X50254819Y-73786285D02*
X50254819Y-73214857D01*
X51254819Y-73500571D02*
X50254819Y-73500571D01*
X51254819Y-72881523D02*
X50588152Y-72881523D01*
X50683390Y-72881523D02*
X50635771Y-72833904D01*
X50635771Y-72833904D02*
X50588152Y-72738666D01*
X50588152Y-72738666D02*
X50588152Y-72595809D01*
X50588152Y-72595809D02*
X50635771Y-72500571D01*
X50635771Y-72500571D02*
X50731009Y-72452952D01*
X50731009Y-72452952D02*
X51254819Y-72452952D01*
X50731009Y-72452952D02*
X50635771Y-72405333D01*
X50635771Y-72405333D02*
X50588152Y-72310095D01*
X50588152Y-72310095D02*
X50588152Y-72167238D01*
X50588152Y-72167238D02*
X50635771Y-72071999D01*
X50635771Y-72071999D02*
X50731009Y-72024380D01*
X50731009Y-72024380D02*
X51254819Y-72024380D01*
X51207200Y-71167238D02*
X51254819Y-71262476D01*
X51254819Y-71262476D02*
X51254819Y-71452952D01*
X51254819Y-71452952D02*
X51207200Y-71548190D01*
X51207200Y-71548190D02*
X51111961Y-71595809D01*
X51111961Y-71595809D02*
X50731009Y-71595809D01*
X50731009Y-71595809D02*
X50635771Y-71548190D01*
X50635771Y-71548190D02*
X50588152Y-71452952D01*
X50588152Y-71452952D02*
X50588152Y-71262476D01*
X50588152Y-71262476D02*
X50635771Y-71167238D01*
X50635771Y-71167238D02*
X50731009Y-71119619D01*
X50731009Y-71119619D02*
X50826247Y-71119619D01*
X50826247Y-71119619D02*
X50921485Y-71595809D01*
X50588152Y-70262476D02*
X51397676Y-70262476D01*
X51397676Y-70262476D02*
X51492914Y-70310095D01*
X51492914Y-70310095D02*
X51540533Y-70357714D01*
X51540533Y-70357714D02*
X51588152Y-70452952D01*
X51588152Y-70452952D02*
X51588152Y-70595809D01*
X51588152Y-70595809D02*
X51540533Y-70691047D01*
X51207200Y-70262476D02*
X51254819Y-70357714D01*
X51254819Y-70357714D02*
X51254819Y-70548190D01*
X51254819Y-70548190D02*
X51207200Y-70643428D01*
X51207200Y-70643428D02*
X51159580Y-70691047D01*
X51159580Y-70691047D02*
X51064342Y-70738666D01*
X51064342Y-70738666D02*
X50778628Y-70738666D01*
X50778628Y-70738666D02*
X50683390Y-70691047D01*
X50683390Y-70691047D02*
X50635771Y-70643428D01*
X50635771Y-70643428D02*
X50588152Y-70548190D01*
X50588152Y-70548190D02*
X50588152Y-70357714D01*
X50588152Y-70357714D02*
X50635771Y-70262476D01*
X51254819Y-69357714D02*
X50731009Y-69357714D01*
X50731009Y-69357714D02*
X50635771Y-69405333D01*
X50635771Y-69405333D02*
X50588152Y-69500571D01*
X50588152Y-69500571D02*
X50588152Y-69691047D01*
X50588152Y-69691047D02*
X50635771Y-69786285D01*
X51207200Y-69357714D02*
X51254819Y-69452952D01*
X51254819Y-69452952D02*
X51254819Y-69691047D01*
X51254819Y-69691047D02*
X51207200Y-69786285D01*
X51207200Y-69786285D02*
X51111961Y-69833904D01*
X51111961Y-69833904D02*
X51016723Y-69833904D01*
X51016723Y-69833904D02*
X50921485Y-69786285D01*
X50921485Y-69786285D02*
X50873866Y-69691047D01*
X50873866Y-69691047D02*
X50873866Y-69452952D01*
X50873866Y-69452952D02*
X50826247Y-69357714D01*
X50683390Y-68738666D02*
X50635771Y-68833904D01*
X50635771Y-68833904D02*
X50588152Y-68881523D01*
X50588152Y-68881523D02*
X50492914Y-68929142D01*
X50492914Y-68929142D02*
X50445295Y-68929142D01*
X50445295Y-68929142D02*
X50350057Y-68881523D01*
X50350057Y-68881523D02*
X50302438Y-68833904D01*
X50302438Y-68833904D02*
X50254819Y-68738666D01*
X50254819Y-68738666D02*
X50254819Y-68548190D01*
X50254819Y-68548190D02*
X50302438Y-68452952D01*
X50302438Y-68452952D02*
X50350057Y-68405333D01*
X50350057Y-68405333D02*
X50445295Y-68357714D01*
X50445295Y-68357714D02*
X50492914Y-68357714D01*
X50492914Y-68357714D02*
X50588152Y-68405333D01*
X50588152Y-68405333D02*
X50635771Y-68452952D01*
X50635771Y-68452952D02*
X50683390Y-68548190D01*
X50683390Y-68548190D02*
X50683390Y-68738666D01*
X50683390Y-68738666D02*
X50731009Y-68833904D01*
X50731009Y-68833904D02*
X50778628Y-68881523D01*
X50778628Y-68881523D02*
X50873866Y-68929142D01*
X50873866Y-68929142D02*
X51064342Y-68929142D01*
X51064342Y-68929142D02*
X51159580Y-68881523D01*
X51159580Y-68881523D02*
X51207200Y-68833904D01*
X51207200Y-68833904D02*
X51254819Y-68738666D01*
X51254819Y-68738666D02*
X51254819Y-68548190D01*
X51254819Y-68548190D02*
X51207200Y-68452952D01*
X51207200Y-68452952D02*
X51159580Y-68405333D01*
X51159580Y-68405333D02*
X51064342Y-68357714D01*
X51064342Y-68357714D02*
X50873866Y-68357714D01*
X50873866Y-68357714D02*
X50778628Y-68405333D01*
X50778628Y-68405333D02*
X50731009Y-68452952D01*
X50731009Y-68452952D02*
X50683390Y-68548190D01*
X50254819Y-67452952D02*
X50254819Y-67929142D01*
X50254819Y-67929142D02*
X50731009Y-67976761D01*
X50731009Y-67976761D02*
X50683390Y-67929142D01*
X50683390Y-67929142D02*
X50635771Y-67833904D01*
X50635771Y-67833904D02*
X50635771Y-67595809D01*
X50635771Y-67595809D02*
X50683390Y-67500571D01*
X50683390Y-67500571D02*
X50731009Y-67452952D01*
X50731009Y-67452952D02*
X50826247Y-67405333D01*
X50826247Y-67405333D02*
X51064342Y-67405333D01*
X51064342Y-67405333D02*
X51159580Y-67452952D01*
X51159580Y-67452952D02*
X51207200Y-67500571D01*
X51207200Y-67500571D02*
X51254819Y-67595809D01*
X51254819Y-67595809D02*
X51254819Y-67833904D01*
X51254819Y-67833904D02*
X51207200Y-67929142D01*
X51207200Y-67929142D02*
X51159580Y-67976761D01*
X51254819Y-66452952D02*
X51254819Y-67024380D01*
X51254819Y-66738666D02*
X50254819Y-66738666D01*
X50254819Y-66738666D02*
X50397676Y-66833904D01*
X50397676Y-66833904D02*
X50492914Y-66929142D01*
X50492914Y-66929142D02*
X50540533Y-67024380D01*
X50254819Y-65548190D02*
X50254819Y-66024380D01*
X50254819Y-66024380D02*
X50731009Y-66071999D01*
X50731009Y-66071999D02*
X50683390Y-66024380D01*
X50683390Y-66024380D02*
X50635771Y-65929142D01*
X50635771Y-65929142D02*
X50635771Y-65691047D01*
X50635771Y-65691047D02*
X50683390Y-65595809D01*
X50683390Y-65595809D02*
X50731009Y-65548190D01*
X50731009Y-65548190D02*
X50826247Y-65500571D01*
X50826247Y-65500571D02*
X51064342Y-65500571D01*
X51064342Y-65500571D02*
X51159580Y-65548190D01*
X51159580Y-65548190D02*
X51207200Y-65595809D01*
X51207200Y-65595809D02*
X51254819Y-65691047D01*
X51254819Y-65691047D02*
X51254819Y-65929142D01*
X51254819Y-65929142D02*
X51207200Y-66024380D01*
X51207200Y-66024380D02*
X51159580Y-66071999D01*
X50873866Y-65071999D02*
X50873866Y-64310095D01*
X51254819Y-63310095D02*
X51254819Y-63881523D01*
X51254819Y-63595809D02*
X50254819Y-63595809D01*
X50254819Y-63595809D02*
X50397676Y-63691047D01*
X50397676Y-63691047D02*
X50492914Y-63786285D01*
X50492914Y-63786285D02*
X50540533Y-63881523D01*
X50254819Y-62452952D02*
X50254819Y-62643428D01*
X50254819Y-62643428D02*
X50302438Y-62738666D01*
X50302438Y-62738666D02*
X50350057Y-62786285D01*
X50350057Y-62786285D02*
X50492914Y-62881523D01*
X50492914Y-62881523D02*
X50683390Y-62929142D01*
X50683390Y-62929142D02*
X51064342Y-62929142D01*
X51064342Y-62929142D02*
X51159580Y-62881523D01*
X51159580Y-62881523D02*
X51207200Y-62833904D01*
X51207200Y-62833904D02*
X51254819Y-62738666D01*
X51254819Y-62738666D02*
X51254819Y-62548190D01*
X51254819Y-62548190D02*
X51207200Y-62452952D01*
X51207200Y-62452952D02*
X51159580Y-62405333D01*
X51159580Y-62405333D02*
X51064342Y-62357714D01*
X51064342Y-62357714D02*
X50826247Y-62357714D01*
X50826247Y-62357714D02*
X50731009Y-62405333D01*
X50731009Y-62405333D02*
X50683390Y-62452952D01*
X50683390Y-62452952D02*
X50635771Y-62548190D01*
X50635771Y-62548190D02*
X50635771Y-62738666D01*
X50635771Y-62738666D02*
X50683390Y-62833904D01*
X50683390Y-62833904D02*
X50731009Y-62881523D01*
X50731009Y-62881523D02*
X50826247Y-62929142D01*
X50254819Y-61643428D02*
X50969104Y-61643428D01*
X50969104Y-61643428D02*
X51111961Y-61691047D01*
X51111961Y-61691047D02*
X51207200Y-61786285D01*
X51207200Y-61786285D02*
X51254819Y-61929142D01*
X51254819Y-61929142D02*
X51254819Y-62024380D01*
X58451809Y-82274628D02*
X58451809Y-82750819D01*
X58118476Y-81750819D02*
X58451809Y-82274628D01*
X58451809Y-82274628D02*
X58785142Y-81750819D01*
X59642285Y-82750819D02*
X59070857Y-82750819D01*
X59356571Y-82750819D02*
X59356571Y-81750819D01*
X59356571Y-81750819D02*
X59261333Y-81893676D01*
X59261333Y-81893676D02*
X59166095Y-81988914D01*
X59166095Y-81988914D02*
X59070857Y-82036533D01*
X61523809Y-82179390D02*
X61428571Y-82131771D01*
X61428571Y-82131771D02*
X61380952Y-82084152D01*
X61380952Y-82084152D02*
X61333333Y-81988914D01*
X61333333Y-81988914D02*
X61333333Y-81941295D01*
X61333333Y-81941295D02*
X61380952Y-81846057D01*
X61380952Y-81846057D02*
X61428571Y-81798438D01*
X61428571Y-81798438D02*
X61523809Y-81750819D01*
X61523809Y-81750819D02*
X61714285Y-81750819D01*
X61714285Y-81750819D02*
X61809523Y-81798438D01*
X61809523Y-81798438D02*
X61857142Y-81846057D01*
X61857142Y-81846057D02*
X61904761Y-81941295D01*
X61904761Y-81941295D02*
X61904761Y-81988914D01*
X61904761Y-81988914D02*
X61857142Y-82084152D01*
X61857142Y-82084152D02*
X61809523Y-82131771D01*
X61809523Y-82131771D02*
X61714285Y-82179390D01*
X61714285Y-82179390D02*
X61523809Y-82179390D01*
X61523809Y-82179390D02*
X61428571Y-82227009D01*
X61428571Y-82227009D02*
X61380952Y-82274628D01*
X61380952Y-82274628D02*
X61333333Y-82369866D01*
X61333333Y-82369866D02*
X61333333Y-82560342D01*
X61333333Y-82560342D02*
X61380952Y-82655580D01*
X61380952Y-82655580D02*
X61428571Y-82703200D01*
X61428571Y-82703200D02*
X61523809Y-82750819D01*
X61523809Y-82750819D02*
X61714285Y-82750819D01*
X61714285Y-82750819D02*
X61809523Y-82703200D01*
X61809523Y-82703200D02*
X61857142Y-82655580D01*
X61857142Y-82655580D02*
X61904761Y-82560342D01*
X61904761Y-82560342D02*
X61904761Y-82369866D01*
X61904761Y-82369866D02*
X61857142Y-82274628D01*
X61857142Y-82274628D02*
X61809523Y-82227009D01*
X61809523Y-82227009D02*
X61714285Y-82179390D01*
X63095238Y-82750819D02*
X63095238Y-81750819D01*
X63095238Y-81750819D02*
X63428571Y-82465104D01*
X63428571Y-82465104D02*
X63761904Y-81750819D01*
X63761904Y-81750819D02*
X63761904Y-82750819D01*
X64238095Y-82750819D02*
X64238095Y-81750819D01*
X64238095Y-82227009D02*
X64809523Y-82227009D01*
X64809523Y-82750819D02*
X64809523Y-81750819D01*
X65190476Y-82084152D02*
X65714285Y-82084152D01*
X65714285Y-82084152D02*
X65190476Y-82750819D01*
X65190476Y-82750819D02*
X65714285Y-82750819D01*
X39326095Y-55019819D02*
X39326095Y-55829342D01*
X39326095Y-55829342D02*
X39373714Y-55924580D01*
X39373714Y-55924580D02*
X39421333Y-55972200D01*
X39421333Y-55972200D02*
X39516571Y-56019819D01*
X39516571Y-56019819D02*
X39707047Y-56019819D01*
X39707047Y-56019819D02*
X39802285Y-55972200D01*
X39802285Y-55972200D02*
X39849904Y-55924580D01*
X39849904Y-55924580D02*
X39897523Y-55829342D01*
X39897523Y-55829342D02*
X39897523Y-55019819D01*
X40278476Y-55019819D02*
X40897523Y-55019819D01*
X40897523Y-55019819D02*
X40564190Y-55400771D01*
X40564190Y-55400771D02*
X40707047Y-55400771D01*
X40707047Y-55400771D02*
X40802285Y-55448390D01*
X40802285Y-55448390D02*
X40849904Y-55496009D01*
X40849904Y-55496009D02*
X40897523Y-55591247D01*
X40897523Y-55591247D02*
X40897523Y-55829342D01*
X40897523Y-55829342D02*
X40849904Y-55924580D01*
X40849904Y-55924580D02*
X40802285Y-55972200D01*
X40802285Y-55972200D02*
X40707047Y-56019819D01*
X40707047Y-56019819D02*
X40421333Y-56019819D01*
X40421333Y-56019819D02*
X40326095Y-55972200D01*
X40326095Y-55972200D02*
X40278476Y-55924580D01*
X37516571Y-67996009D02*
X37183238Y-67996009D01*
X37183238Y-68519819D02*
X37183238Y-67519819D01*
X37183238Y-67519819D02*
X37659428Y-67519819D01*
X37897524Y-67519819D02*
X38468952Y-67519819D01*
X38183238Y-68519819D02*
X38183238Y-67519819D01*
X38754667Y-67615057D02*
X38802286Y-67567438D01*
X38802286Y-67567438D02*
X38897524Y-67519819D01*
X38897524Y-67519819D02*
X39135619Y-67519819D01*
X39135619Y-67519819D02*
X39230857Y-67567438D01*
X39230857Y-67567438D02*
X39278476Y-67615057D01*
X39278476Y-67615057D02*
X39326095Y-67710295D01*
X39326095Y-67710295D02*
X39326095Y-67805533D01*
X39326095Y-67805533D02*
X39278476Y-67948390D01*
X39278476Y-67948390D02*
X38707048Y-68519819D01*
X38707048Y-68519819D02*
X39326095Y-68519819D01*
X39659429Y-67519819D02*
X40278476Y-67519819D01*
X40278476Y-67519819D02*
X39945143Y-67900771D01*
X39945143Y-67900771D02*
X40088000Y-67900771D01*
X40088000Y-67900771D02*
X40183238Y-67948390D01*
X40183238Y-67948390D02*
X40230857Y-67996009D01*
X40230857Y-67996009D02*
X40278476Y-68091247D01*
X40278476Y-68091247D02*
X40278476Y-68329342D01*
X40278476Y-68329342D02*
X40230857Y-68424580D01*
X40230857Y-68424580D02*
X40183238Y-68472200D01*
X40183238Y-68472200D02*
X40088000Y-68519819D01*
X40088000Y-68519819D02*
X39802286Y-68519819D01*
X39802286Y-68519819D02*
X39707048Y-68472200D01*
X39707048Y-68472200D02*
X39659429Y-68424580D01*
X40659429Y-67615057D02*
X40707048Y-67567438D01*
X40707048Y-67567438D02*
X40802286Y-67519819D01*
X40802286Y-67519819D02*
X41040381Y-67519819D01*
X41040381Y-67519819D02*
X41135619Y-67567438D01*
X41135619Y-67567438D02*
X41183238Y-67615057D01*
X41183238Y-67615057D02*
X41230857Y-67710295D01*
X41230857Y-67710295D02*
X41230857Y-67805533D01*
X41230857Y-67805533D02*
X41183238Y-67948390D01*
X41183238Y-67948390D02*
X40611810Y-68519819D01*
X40611810Y-68519819D02*
X41230857Y-68519819D01*
X42230857Y-68519819D02*
X41897524Y-68043628D01*
X41659429Y-68519819D02*
X41659429Y-67519819D01*
X41659429Y-67519819D02*
X42040381Y-67519819D01*
X42040381Y-67519819D02*
X42135619Y-67567438D01*
X42135619Y-67567438D02*
X42183238Y-67615057D01*
X42183238Y-67615057D02*
X42230857Y-67710295D01*
X42230857Y-67710295D02*
X42230857Y-67853152D01*
X42230857Y-67853152D02*
X42183238Y-67948390D01*
X42183238Y-67948390D02*
X42135619Y-67996009D01*
X42135619Y-67996009D02*
X42040381Y-68043628D01*
X42040381Y-68043628D02*
X41659429Y-68043628D01*
X43135619Y-68519819D02*
X42659429Y-68519819D01*
X42659429Y-68519819D02*
X42659429Y-67519819D01*
X82792667Y-57407200D02*
X82935524Y-57454819D01*
X82935524Y-57454819D02*
X83173619Y-57454819D01*
X83173619Y-57454819D02*
X83268857Y-57407200D01*
X83268857Y-57407200D02*
X83316476Y-57359580D01*
X83316476Y-57359580D02*
X83364095Y-57264342D01*
X83364095Y-57264342D02*
X83364095Y-57169104D01*
X83364095Y-57169104D02*
X83316476Y-57073866D01*
X83316476Y-57073866D02*
X83268857Y-57026247D01*
X83268857Y-57026247D02*
X83173619Y-56978628D01*
X83173619Y-56978628D02*
X82983143Y-56931009D01*
X82983143Y-56931009D02*
X82887905Y-56883390D01*
X82887905Y-56883390D02*
X82840286Y-56835771D01*
X82840286Y-56835771D02*
X82792667Y-56740533D01*
X82792667Y-56740533D02*
X82792667Y-56645295D01*
X82792667Y-56645295D02*
X82840286Y-56550057D01*
X82840286Y-56550057D02*
X82887905Y-56502438D01*
X82887905Y-56502438D02*
X82983143Y-56454819D01*
X82983143Y-56454819D02*
X83221238Y-56454819D01*
X83221238Y-56454819D02*
X83364095Y-56502438D01*
X83697429Y-56454819D02*
X83935524Y-57454819D01*
X83935524Y-57454819D02*
X84126000Y-56740533D01*
X84126000Y-56740533D02*
X84316476Y-57454819D01*
X84316476Y-57454819D02*
X84554572Y-56454819D01*
X85459333Y-57454819D02*
X84887905Y-57454819D01*
X85173619Y-57454819D02*
X85173619Y-56454819D01*
X85173619Y-56454819D02*
X85078381Y-56597676D01*
X85078381Y-56597676D02*
X84983143Y-56692914D01*
X84983143Y-56692914D02*
X84887905Y-56740533D01*
X83173618Y-66154819D02*
X82840285Y-65678628D01*
X82602190Y-66154819D02*
X82602190Y-65154819D01*
X82602190Y-65154819D02*
X82983142Y-65154819D01*
X82983142Y-65154819D02*
X83078380Y-65202438D01*
X83078380Y-65202438D02*
X83125999Y-65250057D01*
X83125999Y-65250057D02*
X83173618Y-65345295D01*
X83173618Y-65345295D02*
X83173618Y-65488152D01*
X83173618Y-65488152D02*
X83125999Y-65583390D01*
X83125999Y-65583390D02*
X83078380Y-65631009D01*
X83078380Y-65631009D02*
X82983142Y-65678628D01*
X82983142Y-65678628D02*
X82602190Y-65678628D01*
X83602190Y-65631009D02*
X83935523Y-65631009D01*
X84078380Y-66154819D02*
X83602190Y-66154819D01*
X83602190Y-66154819D02*
X83602190Y-65154819D01*
X83602190Y-65154819D02*
X84078380Y-65154819D01*
X84459333Y-66107200D02*
X84602190Y-66154819D01*
X84602190Y-66154819D02*
X84840285Y-66154819D01*
X84840285Y-66154819D02*
X84935523Y-66107200D01*
X84935523Y-66107200D02*
X84983142Y-66059580D01*
X84983142Y-66059580D02*
X85030761Y-65964342D01*
X85030761Y-65964342D02*
X85030761Y-65869104D01*
X85030761Y-65869104D02*
X84983142Y-65773866D01*
X84983142Y-65773866D02*
X84935523Y-65726247D01*
X84935523Y-65726247D02*
X84840285Y-65678628D01*
X84840285Y-65678628D02*
X84649809Y-65631009D01*
X84649809Y-65631009D02*
X84554571Y-65583390D01*
X84554571Y-65583390D02*
X84506952Y-65535771D01*
X84506952Y-65535771D02*
X84459333Y-65440533D01*
X84459333Y-65440533D02*
X84459333Y-65345295D01*
X84459333Y-65345295D02*
X84506952Y-65250057D01*
X84506952Y-65250057D02*
X84554571Y-65202438D01*
X84554571Y-65202438D02*
X84649809Y-65154819D01*
X84649809Y-65154819D02*
X84887904Y-65154819D01*
X84887904Y-65154819D02*
X85030761Y-65202438D01*
X85459333Y-65631009D02*
X85792666Y-65631009D01*
X85935523Y-66154819D02*
X85459333Y-66154819D01*
X85459333Y-66154819D02*
X85459333Y-65154819D01*
X85459333Y-65154819D02*
X85935523Y-65154819D01*
X86221238Y-65154819D02*
X86792666Y-65154819D01*
X86506952Y-66154819D02*
X86506952Y-65154819D01*
D13*
X44991867Y-71237118D02*
X44991867Y-72144261D01*
X44991867Y-72144261D02*
X44931390Y-72325689D01*
X44931390Y-72325689D02*
X44810438Y-72446642D01*
X44810438Y-72446642D02*
X44629009Y-72507118D01*
X44629009Y-72507118D02*
X44508057Y-72507118D01*
X45536152Y-71358070D02*
X45596628Y-71297594D01*
X45596628Y-71297594D02*
X45717581Y-71237118D01*
X45717581Y-71237118D02*
X46019962Y-71237118D01*
X46019962Y-71237118D02*
X46140914Y-71297594D01*
X46140914Y-71297594D02*
X46201390Y-71358070D01*
X46201390Y-71358070D02*
X46261867Y-71479022D01*
X46261867Y-71479022D02*
X46261867Y-71599975D01*
X46261867Y-71599975D02*
X46201390Y-71781403D01*
X46201390Y-71781403D02*
X45475676Y-72507118D01*
X45475676Y-72507118D02*
X46261867Y-72507118D01*
D11*
X34771009Y-74019333D02*
X34771009Y-74352666D01*
X35294819Y-74352666D02*
X34294819Y-74352666D01*
X34294819Y-74352666D02*
X34294819Y-73876476D01*
X35294819Y-72971714D02*
X35294819Y-73543142D01*
X35294819Y-73257428D02*
X34294819Y-73257428D01*
X34294819Y-73257428D02*
X34437676Y-73352666D01*
X34437676Y-73352666D02*
X34532914Y-73447904D01*
X34532914Y-73447904D02*
X34580533Y-73543142D01*
X32853333Y-65891580D02*
X32805714Y-65939200D01*
X32805714Y-65939200D02*
X32662857Y-65986819D01*
X32662857Y-65986819D02*
X32567619Y-65986819D01*
X32567619Y-65986819D02*
X32424762Y-65939200D01*
X32424762Y-65939200D02*
X32329524Y-65843961D01*
X32329524Y-65843961D02*
X32281905Y-65748723D01*
X32281905Y-65748723D02*
X32234286Y-65558247D01*
X32234286Y-65558247D02*
X32234286Y-65415390D01*
X32234286Y-65415390D02*
X32281905Y-65224914D01*
X32281905Y-65224914D02*
X32329524Y-65129676D01*
X32329524Y-65129676D02*
X32424762Y-65034438D01*
X32424762Y-65034438D02*
X32567619Y-64986819D01*
X32567619Y-64986819D02*
X32662857Y-64986819D01*
X32662857Y-64986819D02*
X32805714Y-65034438D01*
X32805714Y-65034438D02*
X32853333Y-65082057D01*
X33424762Y-65415390D02*
X33329524Y-65367771D01*
X33329524Y-65367771D02*
X33281905Y-65320152D01*
X33281905Y-65320152D02*
X33234286Y-65224914D01*
X33234286Y-65224914D02*
X33234286Y-65177295D01*
X33234286Y-65177295D02*
X33281905Y-65082057D01*
X33281905Y-65082057D02*
X33329524Y-65034438D01*
X33329524Y-65034438D02*
X33424762Y-64986819D01*
X33424762Y-64986819D02*
X33615238Y-64986819D01*
X33615238Y-64986819D02*
X33710476Y-65034438D01*
X33710476Y-65034438D02*
X33758095Y-65082057D01*
X33758095Y-65082057D02*
X33805714Y-65177295D01*
X33805714Y-65177295D02*
X33805714Y-65224914D01*
X33805714Y-65224914D02*
X33758095Y-65320152D01*
X33758095Y-65320152D02*
X33710476Y-65367771D01*
X33710476Y-65367771D02*
X33615238Y-65415390D01*
X33615238Y-65415390D02*
X33424762Y-65415390D01*
X33424762Y-65415390D02*
X33329524Y-65463009D01*
X33329524Y-65463009D02*
X33281905Y-65510628D01*
X33281905Y-65510628D02*
X33234286Y-65605866D01*
X33234286Y-65605866D02*
X33234286Y-65796342D01*
X33234286Y-65796342D02*
X33281905Y-65891580D01*
X33281905Y-65891580D02*
X33329524Y-65939200D01*
X33329524Y-65939200D02*
X33424762Y-65986819D01*
X33424762Y-65986819D02*
X33615238Y-65986819D01*
X33615238Y-65986819D02*
X33710476Y-65939200D01*
X33710476Y-65939200D02*
X33758095Y-65891580D01*
X33758095Y-65891580D02*
X33805714Y-65796342D01*
X33805714Y-65796342D02*
X33805714Y-65605866D01*
X33805714Y-65605866D02*
X33758095Y-65510628D01*
X33758095Y-65510628D02*
X33710476Y-65463009D01*
X33710476Y-65463009D02*
X33615238Y-65415390D01*
X30776152Y-69697666D02*
X31442819Y-69697666D01*
X30395200Y-69935761D02*
X31109485Y-70173856D01*
X31109485Y-70173856D02*
X31109485Y-69554809D01*
X30442819Y-69269094D02*
X30442819Y-68602428D01*
X30442819Y-68602428D02*
X31442819Y-69030999D01*
X30776152Y-67792904D02*
X31442819Y-67792904D01*
X30776152Y-68221475D02*
X31299961Y-68221475D01*
X31299961Y-68221475D02*
X31395200Y-68173856D01*
X31395200Y-68173856D02*
X31442819Y-68078618D01*
X31442819Y-68078618D02*
X31442819Y-67935761D01*
X31442819Y-67935761D02*
X31395200Y-67840523D01*
X31395200Y-67840523D02*
X31347580Y-67792904D01*
X30919009Y-66983380D02*
X30919009Y-67316713D01*
X31442819Y-67316713D02*
X30442819Y-67316713D01*
X30442819Y-67316713D02*
X30442819Y-66840523D01*
D14*
%TO.C,U1*%
X91492000Y-41728000D02*
X34492000Y-41728000D01*
X91492000Y-41728000D02*
X91492000Y-25228000D01*
X34492000Y-25228000D02*
X34492000Y-41728000D01*
X91492000Y-25228000D02*
X79992000Y-25228000D01*
X79992000Y-25228000D02*
X79992000Y-26228000D01*
X79992000Y-26228000D02*
X71992000Y-26228000D01*
X71992000Y-26228000D02*
X71992000Y-25228000D01*
X34492000Y-25228000D02*
X45992000Y-25228000D01*
X45992000Y-25228000D02*
X45992000Y-26228000D01*
X45992000Y-26228000D02*
X53992000Y-26228000D01*
X53992000Y-26228000D02*
X53992000Y-25228000D01*
X53992000Y-25228000D02*
X71992000Y-25228000D01*
%TO.C,C7*%
X34263000Y-60169248D02*
X34263000Y-60691752D01*
X32793000Y-60169248D02*
X32793000Y-60691752D01*
%TO.C,C6*%
X48487000Y-62709248D02*
X48487000Y-63231752D01*
X47017000Y-62709248D02*
X47017000Y-63231752D01*
%TO.C,C5*%
X63725248Y-48541000D02*
X64247752Y-48541000D01*
X63725248Y-50011000D02*
X64247752Y-50011000D01*
%TO.C,C4*%
X40922752Y-48487000D02*
X40400248Y-48487000D01*
X40922752Y-47017000D02*
X40400248Y-47017000D01*
%TO.C,C3*%
X56107000Y-78457248D02*
X56107000Y-78979752D01*
X54637000Y-78457248D02*
X54637000Y-78979752D01*
%TO.C,C2*%
X71855000Y-78500248D02*
X71855000Y-79022752D01*
X70385000Y-78500248D02*
X70385000Y-79022752D01*
%TO.C,C1*%
X40371752Y-54583000D02*
X39849248Y-54583000D01*
X40371752Y-53113000D02*
X39849248Y-53113000D01*
%TO.C,R9*%
X89635000Y-72940936D02*
X89635000Y-73395064D01*
X88165000Y-72940936D02*
X88165000Y-73395064D01*
%TO.C,R8*%
X87095000Y-72972936D02*
X87095000Y-73427064D01*
X85625000Y-72972936D02*
X85625000Y-73427064D01*
%TO.C,R7*%
X79475000Y-72972936D02*
X79475000Y-73427064D01*
X78005000Y-72972936D02*
X78005000Y-73427064D01*
%TO.C,R6*%
X84555000Y-72972936D02*
X84555000Y-73427064D01*
X83085000Y-72972936D02*
X83085000Y-73427064D01*
%TO.C,R5*%
X82015000Y-72972936D02*
X82015000Y-73427064D01*
X80545000Y-72972936D02*
X80545000Y-73427064D01*
%TO.C,R4*%
X48503064Y-58139000D02*
X48048936Y-58139000D01*
X48503064Y-56669000D02*
X48048936Y-56669000D01*
%TO.C,R3*%
X48503064Y-55599000D02*
X48048936Y-55599000D01*
X48503064Y-54129000D02*
X48048936Y-54129000D01*
%TO.C,R2*%
X91721000Y-61679064D02*
X91721000Y-61224936D01*
X93191000Y-61679064D02*
X93191000Y-61224936D01*
%TO.C,R1*%
X82577000Y-49011064D02*
X82577000Y-48556936D01*
X84047000Y-49011064D02*
X84047000Y-48556936D01*
%TO.C,D5*%
X89860000Y-81099000D02*
X89860000Y-78239000D01*
X87940000Y-78239000D02*
X87940000Y-81099000D01*
X87940000Y-81099000D02*
X89860000Y-81099000D01*
%TO.C,D4*%
X85400000Y-81090000D02*
X87320000Y-81090000D01*
X85400000Y-78230000D02*
X85400000Y-81090000D01*
X87320000Y-81090000D02*
X87320000Y-78230000D01*
%TO.C,D3*%
X79700000Y-81090000D02*
X79700000Y-78230000D01*
X77780000Y-78230000D02*
X77780000Y-81090000D01*
X77780000Y-81090000D02*
X79700000Y-81090000D01*
%TO.C,D2*%
X84780000Y-81090000D02*
X84780000Y-78230000D01*
X82860000Y-78230000D02*
X82860000Y-81090000D01*
X82860000Y-81090000D02*
X84780000Y-81090000D01*
%TO.C,D1*%
X82240000Y-81090000D02*
X82240000Y-78230000D01*
X80320000Y-78230000D02*
X80320000Y-81090000D01*
X80320000Y-81090000D02*
X82240000Y-81090000D01*
%TO.C,U2*%
X75604000Y-74715000D02*
X75604000Y-51015000D01*
X62754000Y-51015000D02*
X52904000Y-51015000D01*
X52904000Y-51015000D02*
X51904000Y-52015000D01*
X75604000Y-51015000D02*
X64754000Y-51015000D01*
X51904000Y-74715000D02*
X75604000Y-74715000D01*
X51904000Y-52015000D02*
X51904000Y-74715000D01*
%TO.C,Y1*%
X60475000Y-81265000D02*
X66725000Y-81265000D01*
X60475000Y-76215000D02*
X66725000Y-76215000D01*
X66725000Y-81265000D02*
G75*
G03*
X66725000Y-76215000I0J2525000D01*
G01*
X60475000Y-76215000D02*
G75*
G03*
X60475000Y-81265000I0J-2525000D01*
G01*
D11*
%TO.C,U3*%
X37213000Y-56490000D02*
X37213000Y-57065000D01*
X42963000Y-56490000D02*
X42963000Y-57140000D01*
X42963000Y-67140000D02*
X42963000Y-66490000D01*
X37213000Y-67140000D02*
X37213000Y-66490000D01*
X37213000Y-56490000D02*
X42963000Y-56490000D01*
X37213000Y-67140000D02*
X42963000Y-67140000D01*
X37213000Y-57065000D02*
X35613000Y-57065000D01*
D14*
%TO.C,SW1*%
X81876000Y-64500000D02*
X86376000Y-64500000D01*
X80626000Y-60500000D02*
X80626000Y-62000000D01*
X86376000Y-58000000D02*
X81876000Y-58000000D01*
X87626000Y-62000000D02*
X87626000Y-60500000D01*
D15*
%TO.C,J2*%
X38822000Y-82910000D02*
X46522000Y-82910000D01*
X38822000Y-76152000D02*
X38822000Y-78640000D01*
X46522000Y-76152000D02*
X46522000Y-78640000D01*
X41079260Y-72889000D02*
G75*
G03*
X40982740Y-72889000I-48260J0D01*
G01*
X40982740Y-72889000D02*
G75*
G03*
X41079260Y-72889000I48260J0D01*
G01*
D14*
%TO.C,F1*%
X33930000Y-72958936D02*
X33930000Y-74413064D01*
X32110000Y-72958936D02*
X32110000Y-74413064D01*
%TO.C,C8*%
X32110000Y-69242252D02*
X32110000Y-67819748D01*
X33930000Y-69242252D02*
X33930000Y-67819748D01*
%TD*%
M02*
