%TF.GenerationSoftware,KiCad,Pcbnew,7.0.10*%
%TF.CreationDate,2024-03-24T11:08:13+01:00*%
%TF.ProjectId,dmg-gbc-cartridge-reader.kicad_pro,646d672d-6762-4632-9d63-617274726964,rev?*%
%TF.SameCoordinates,Original*%
%TF.FileFunction,Soldermask,Bot*%
%TF.FilePolarity,Negative*%
%FSLAX46Y46*%
G04 Gerber Fmt 4.6, Leading zero omitted, Abs format (unit mm)*
G04 Created by KiCad (PCBNEW 7.0.10) date 2024-03-24 11:08:13*
%MOMM*%
%LPD*%
G01*
G04 APERTURE LIST*
G04 Aperture macros list*
%AMRoundRect*
0 Rectangle with rounded corners*
0 $1 Rounding radius*
0 $2 $3 $4 $5 $6 $7 $8 $9 X,Y pos of 4 corners*
0 Add a 4 corners polygon primitive as box body*
4,1,4,$2,$3,$4,$5,$6,$7,$8,$9,$2,$3,0*
0 Add four circle primitives for the rounded corners*
1,1,$1+$1,$2,$3*
1,1,$1+$1,$4,$5*
1,1,$1+$1,$6,$7*
1,1,$1+$1,$8,$9*
0 Add four rect primitives between the rounded corners*
20,1,$1+$1,$2,$3,$4,$5,0*
20,1,$1+$1,$4,$5,$6,$7,0*
20,1,$1+$1,$6,$7,$8,$9,0*
20,1,$1+$1,$8,$9,$2,$3,0*%
G04 Aperture macros list end*
%ADD10C,2.500000*%
%ADD11R,1.422400X1.422400*%
%ADD12C,1.422400*%
%ADD13C,1.500000*%
%ADD14C,2.000000*%
%ADD15C,1.700000*%
%ADD16RoundRect,0.250000X-0.600000X0.600000X-0.600000X-0.600000X0.600000X-0.600000X0.600000X0.600000X0*%
%ADD17C,0.001000*%
%ADD18C,2.200000*%
G04 APERTURE END LIST*
D10*
%TO.C,U1*%
X75992000Y-35528000D03*
X49992000Y-35528000D03*
%TD*%
D11*
%TO.C,U2*%
X65024000Y-56515000D03*
D12*
X62484000Y-53975000D03*
X62484000Y-56515000D03*
X59944000Y-53975000D03*
X59944000Y-56515000D03*
X57404000Y-53975000D03*
X54864000Y-56515000D03*
X57404000Y-56515000D03*
X54864000Y-59055000D03*
X57404000Y-59055000D03*
X54864000Y-61595000D03*
X57404000Y-61595000D03*
X54864000Y-64135000D03*
X57404000Y-64135000D03*
X54864000Y-66675000D03*
X57404000Y-66675000D03*
X54864000Y-69215000D03*
X57404000Y-71755000D03*
X57404000Y-69215000D03*
X59944000Y-71755000D03*
X59944000Y-69215000D03*
X62484000Y-71755000D03*
X62484000Y-69215000D03*
X65024000Y-71755000D03*
X65024000Y-69215000D03*
X67564000Y-71755000D03*
X67564000Y-69215000D03*
X70104000Y-71755000D03*
X72644000Y-69215000D03*
X70104000Y-69215000D03*
X72644000Y-66675000D03*
X70104000Y-66675000D03*
X72644000Y-64135000D03*
X70104000Y-64135000D03*
X72644000Y-61595000D03*
X70104000Y-61595000D03*
X72644000Y-59055000D03*
X70104000Y-59055000D03*
X72644000Y-56515000D03*
X70104000Y-53975000D03*
X70104000Y-56515000D03*
X67564000Y-53975000D03*
X67564000Y-56515000D03*
X65024000Y-53975000D03*
%TD*%
D13*
%TO.C,Y1*%
X61160000Y-78740000D03*
X66040000Y-78740000D03*
%TD*%
D14*
%TO.C,SW1*%
X87376000Y-59000000D03*
X87376000Y-63500000D03*
X80876000Y-59000000D03*
X80876000Y-63500000D03*
%TD*%
D15*
%TO.C,J1*%
X65532000Y-35052000D03*
X62992000Y-35052000D03*
X60452000Y-35052000D03*
X65532000Y-32512000D03*
X62992000Y-32512000D03*
D16*
X60452000Y-32512000D03*
%TD*%
D17*
%TO.C,J2*%
X44872000Y-77260000D03*
X40472000Y-77260000D03*
%TD*%
D18*
%TO.C,H4*%
X32385000Y-44958000D03*
%TD*%
%TO.C,H3*%
X32385000Y-80645000D03*
%TD*%
%TO.C,H2*%
X93345000Y-44958000D03*
%TD*%
%TO.C,H1*%
X93345000Y-80645000D03*
%TD*%
M02*
