M48
; DRILL file {KiCad 7.0.10} date Sun Mar 24 11:08:14 2024
; FORMAT={-:-/ absolute / inch / decimal}
; #@! TF.CreationDate,2024-03-24T11:08:14+01:00
; #@! TF.GenerationSoftware,Kicad,Pcbnew,7.0.10
; #@! TF.FileFunction,Plated,1,2,PTH
FMAT,2
INCH
; #@! TA.AperFunction,Plated,PTH,ViaDrill
T1C0.0157
; #@! TA.AperFunction,Plated,PTH,ComponentDrill
T2C0.0315
; #@! TA.AperFunction,Plated,PTH,ComponentDrill
T3C0.0394
; #@! TA.AperFunction,Plated,PTH,ComponentDrill
T4C0.0433
%
G90
G05
T1
X1.22Y-2.26
X1.22Y-2.8
X1.44Y-2.12
X1.48Y-1.88
X1.5098Y-2.26
X1.5383Y-2.3117
X1.55Y-2.47
X1.57Y-2.27
X1.6918Y-1.8052
X1.781Y-2.4174
X1.7828Y-2.4867
X1.8Y-2.16
X1.8Y-2.26
X1.9855Y-1.785
X2.0258Y-1.87
X2.2001Y-1.8486
X2.3Y-3.0659
X2.4157Y-2.9315
X2.5137Y-2.8819
X2.7707Y-1.7853
X2.9856Y-1.9537
X3.036Y-3.208
X3.0634Y-2.1327
X3.0792Y-2.0463
X3.34Y-1.96
X3.3577Y-2.7893
X3.5493Y-2.3822
X3.64Y-2.54
T2
X2.16Y-2.225
X2.16Y-2.325
X2.16Y-2.425
X2.16Y-2.525
X2.16Y-2.625
X2.16Y-2.725
X2.26Y-2.125
X2.26Y-2.225
X2.26Y-2.325
X2.26Y-2.425
X2.26Y-2.525
X2.26Y-2.625
X2.26Y-2.725
X2.26Y-2.825
X2.36Y-2.125
X2.36Y-2.225
X2.36Y-2.725
X2.36Y-2.825
X2.4079Y-3.1
X2.46Y-2.125
X2.46Y-2.225
X2.46Y-2.725
X2.46Y-2.825
X2.56Y-2.125
X2.56Y-2.225
X2.56Y-2.725
X2.56Y-2.825
X2.6Y-3.1
X2.66Y-2.125
X2.66Y-2.225
X2.66Y-2.725
X2.66Y-2.825
X2.76Y-2.125
X2.76Y-2.225
X2.76Y-2.325
X2.76Y-2.425
X2.76Y-2.525
X2.76Y-2.625
X2.76Y-2.725
X2.76Y-2.825
X2.86Y-2.225
X2.86Y-2.325
X2.86Y-2.425
X2.86Y-2.525
X2.86Y-2.625
X2.86Y-2.725
T3
X2.38Y-1.28
X2.38Y-1.38
X2.48Y-1.28
X2.48Y-1.38
X2.58Y-1.28
X2.58Y-1.38
T4
X3.1841Y-2.3228
X3.1841Y-2.5
X3.44Y-2.3228
X3.44Y-2.5
M30
