%TF.GenerationSoftware,KiCad,Pcbnew,7.0.10*%
%TF.CreationDate,2024-03-24T11:08:13+01:00*%
%TF.ProjectId,dmg-gbc-cartridge-reader.kicad_pro,646d672d-6762-4632-9d63-617274726964,rev?*%
%TF.SameCoordinates,Original*%
%TF.FileFunction,Copper,L1,Top*%
%TF.FilePolarity,Positive*%
%FSLAX46Y46*%
G04 Gerber Fmt 4.6, Leading zero omitted, Abs format (unit mm)*
G04 Created by KiCad (PCBNEW 7.0.10) date 2024-03-24 11:08:13*
%MOMM*%
%LPD*%
G01*
G04 APERTURE LIST*
G04 Aperture macros list*
%AMRoundRect*
0 Rectangle with rounded corners*
0 $1 Rounding radius*
0 $2 $3 $4 $5 $6 $7 $8 $9 X,Y pos of 4 corners*
0 Add a 4 corners polygon primitive as box body*
4,1,4,$2,$3,$4,$5,$6,$7,$8,$9,$2,$3,0*
0 Add four circle primitives for the rounded corners*
1,1,$1+$1,$2,$3*
1,1,$1+$1,$4,$5*
1,1,$1+$1,$6,$7*
1,1,$1+$1,$8,$9*
0 Add four rect primitives between the rounded corners*
20,1,$1+$1,$2,$3,$4,$5,0*
20,1,$1+$1,$4,$5,$6,$7,0*
20,1,$1+$1,$6,$7,$8,$9,0*
20,1,$1+$1,$8,$9,$2,$3,0*%
G04 Aperture macros list end*
%TA.AperFunction,SMDPad,CuDef*%
%ADD10R,0.750000X3.000000*%
%TD*%
%TA.AperFunction,WasherPad*%
%ADD11C,2.500000*%
%TD*%
%TA.AperFunction,SMDPad,CuDef*%
%ADD12R,5.000000X4.000000*%
%TD*%
%TA.AperFunction,SMDPad,CuDef*%
%ADD13RoundRect,0.250000X-0.475000X0.337500X-0.475000X-0.337500X0.475000X-0.337500X0.475000X0.337500X0*%
%TD*%
%TA.AperFunction,SMDPad,CuDef*%
%ADD14RoundRect,0.250000X-0.337500X-0.475000X0.337500X-0.475000X0.337500X0.475000X-0.337500X0.475000X0*%
%TD*%
%TA.AperFunction,SMDPad,CuDef*%
%ADD15RoundRect,0.250000X0.337500X0.475000X-0.337500X0.475000X-0.337500X-0.475000X0.337500X-0.475000X0*%
%TD*%
%TA.AperFunction,SMDPad,CuDef*%
%ADD16RoundRect,0.250000X-0.450000X0.350000X-0.450000X-0.350000X0.450000X-0.350000X0.450000X0.350000X0*%
%TD*%
%TA.AperFunction,SMDPad,CuDef*%
%ADD17RoundRect,0.250000X0.350000X0.450000X-0.350000X0.450000X-0.350000X-0.450000X0.350000X-0.450000X0*%
%TD*%
%TA.AperFunction,SMDPad,CuDef*%
%ADD18RoundRect,0.250000X0.450000X-0.350000X0.450000X0.350000X-0.450000X0.350000X-0.450000X-0.350000X0*%
%TD*%
%TA.AperFunction,SMDPad,CuDef*%
%ADD19RoundRect,0.250000X0.450000X-0.325000X0.450000X0.325000X-0.450000X0.325000X-0.450000X-0.325000X0*%
%TD*%
%TA.AperFunction,ComponentPad*%
%ADD20R,1.422400X1.422400*%
%TD*%
%TA.AperFunction,ComponentPad*%
%ADD21C,1.422400*%
%TD*%
%TA.AperFunction,ComponentPad*%
%ADD22C,1.500000*%
%TD*%
%TA.AperFunction,SMDPad,CuDef*%
%ADD23R,1.750000X0.450000*%
%TD*%
%TA.AperFunction,ComponentPad*%
%ADD24C,2.000000*%
%TD*%
%TA.AperFunction,ComponentPad*%
%ADD25C,1.700000*%
%TD*%
%TA.AperFunction,ComponentPad*%
%ADD26RoundRect,0.250000X-0.600000X0.600000X-0.600000X-0.600000X0.600000X-0.600000X0.600000X0.600000X0*%
%TD*%
%TA.AperFunction,SMDPad,CuDef*%
%ADD27R,2.000000X2.500000*%
%TD*%
%TA.AperFunction,SMDPad,CuDef*%
%ADD28R,0.500000X2.500000*%
%TD*%
%TA.AperFunction,SMDPad,CuDef*%
%ADD29RoundRect,0.249999X-0.625001X0.400001X-0.625001X-0.400001X0.625001X-0.400001X0.625001X0.400001X0*%
%TD*%
%TA.AperFunction,SMDPad,CuDef*%
%ADD30RoundRect,0.249999X0.650001X-0.325001X0.650001X0.325001X-0.650001X0.325001X-0.650001X-0.325001X0*%
%TD*%
%TA.AperFunction,ViaPad*%
%ADD31C,0.800000*%
%TD*%
%TA.AperFunction,Conductor*%
%ADD32C,0.250000*%
%TD*%
%TA.AperFunction,Conductor*%
%ADD33C,0.200000*%
%TD*%
G04 APERTURE END LIST*
D10*
%TO.P,U1,1,VCC*%
%TO.N,VCC*%
X39742000Y-43228000D03*
%TO.P,U1,2,CLK*%
%TO.N,GND*%
X41242000Y-43228000D03*
%TO.P,U1,3,WR*%
%TO.N,WR*%
X42742000Y-43228000D03*
%TO.P,U1,4,RD*%
%TO.N,RD*%
X44242000Y-43228000D03*
%TO.P,U1,5,CS*%
%TO.N,SRAM*%
X45742000Y-43228000D03*
%TO.P,U1,6,A0*%
%TO.N,A0*%
X47242000Y-43228000D03*
%TO.P,U1,7,A1*%
%TO.N,A1*%
X48742000Y-43228000D03*
%TO.P,U1,8,A2*%
%TO.N,A2*%
X50242000Y-43228000D03*
%TO.P,U1,9,A3*%
%TO.N,A3*%
X51742000Y-43228000D03*
%TO.P,U1,10,A4*%
%TO.N,A4*%
X53242000Y-43228000D03*
%TO.P,U1,11,A5*%
%TO.N,A5_MOSI*%
X54742000Y-43228000D03*
%TO.P,U1,12,A6*%
%TO.N,A6_MISO*%
X56242000Y-43228000D03*
%TO.P,U1,13,A7*%
%TO.N,A7_SCK*%
X57742000Y-43228000D03*
%TO.P,U1,14,A8*%
%TO.N,A8*%
X59242000Y-43228000D03*
%TO.P,U1,15,A9*%
%TO.N,A9*%
X60742000Y-43228000D03*
%TO.P,U1,16,A10*%
%TO.N,A10*%
X62242000Y-43228000D03*
%TO.P,U1,17,A11*%
%TO.N,A11*%
X63742000Y-43228000D03*
%TO.P,U1,18,A12*%
%TO.N,A12*%
X65242000Y-43228000D03*
%TO.P,U1,19,A13*%
%TO.N,A13*%
X66742000Y-43228000D03*
%TO.P,U1,20,A14*%
%TO.N,A14*%
X68242000Y-43228000D03*
%TO.P,U1,21,A15*%
%TO.N,A15*%
X69742000Y-43228000D03*
%TO.P,U1,22,D0*%
%TO.N,D0*%
X71242000Y-43228000D03*
%TO.P,U1,23,D1*%
%TO.N,D1*%
X72742000Y-43228000D03*
%TO.P,U1,24,D2*%
%TO.N,D2*%
X74242000Y-43228000D03*
%TO.P,U1,25,D3*%
%TO.N,D3*%
X75742000Y-43228000D03*
%TO.P,U1,26,D4*%
%TO.N,D4*%
X77242000Y-43228000D03*
%TO.P,U1,27,D5*%
%TO.N,D5*%
X78742000Y-43228000D03*
%TO.P,U1,28,D6*%
%TO.N,D6*%
X80242000Y-43228000D03*
%TO.P,U1,29,D7*%
%TO.N,D7*%
X81742000Y-43228000D03*
%TO.P,U1,30,RESET*%
%TO.N,RST*%
X83242000Y-43228000D03*
%TO.P,U1,31,AUDIO*%
%TO.N,AUDIO*%
X84742000Y-43228000D03*
%TO.P,U1,32,GND*%
%TO.N,GND*%
X86242000Y-43228000D03*
D11*
%TO.P,U1,*%
%TO.N,*%
X75992000Y-35528000D03*
X49992000Y-35528000D03*
D12*
X75992000Y-24128000D03*
X49992000Y-24128000D03*
%TD*%
D13*
%TO.P,C7,1*%
%TO.N,VCC*%
X33528000Y-59393000D03*
%TO.P,C7,2*%
%TO.N,GND*%
X33528000Y-61468000D03*
%TD*%
%TO.P,C6,1*%
%TO.N,GND*%
X47752000Y-61933000D03*
%TO.P,C6,2*%
%TO.N,Net-(U3-3V3OUT)*%
X47752000Y-64008000D03*
%TD*%
D14*
%TO.P,C5,1*%
%TO.N,GND*%
X62949000Y-49276000D03*
%TO.P,C5,2*%
%TO.N,VCC*%
X65024000Y-49276000D03*
%TD*%
D15*
%TO.P,C4,1*%
%TO.N,GND*%
X41699000Y-47752000D03*
%TO.P,C4,2*%
%TO.N,VCC*%
X39624000Y-47752000D03*
%TD*%
D13*
%TO.P,C3,1*%
%TO.N,GND*%
X55372000Y-77681000D03*
%TO.P,C3,2*%
%TO.N,Net-(U2-XTAL2)*%
X55372000Y-79756000D03*
%TD*%
%TO.P,C2,1*%
%TO.N,GND*%
X71120000Y-77724000D03*
%TO.P,C2,2*%
%TO.N,Net-(U2-XTAL1)*%
X71120000Y-79799000D03*
%TD*%
D15*
%TO.P,C1,1*%
%TO.N,GND*%
X41148000Y-53848000D03*
%TO.P,C1,2*%
%TO.N,VCC*%
X39073000Y-53848000D03*
%TD*%
D16*
%TO.P,R9,1*%
%TO.N,LED_WR*%
X88900000Y-72168000D03*
%TO.P,R9,2*%
%TO.N,Net-(D5-A)*%
X88900000Y-74168000D03*
%TD*%
%TO.P,R8,1*%
%TO.N,LED_RD*%
X86360000Y-72200000D03*
%TO.P,R8,2*%
%TO.N,Net-(D4-A)*%
X86360000Y-74200000D03*
%TD*%
%TO.P,R7,1*%
%TO.N,VCC*%
X78740000Y-72200000D03*
%TO.P,R7,2*%
%TO.N,Net-(D3-A)*%
X78740000Y-74200000D03*
%TD*%
%TO.P,R6,1*%
%TO.N,VCC*%
X83820000Y-72200000D03*
%TO.P,R6,2*%
%TO.N,Net-(D2-A)*%
X83820000Y-74200000D03*
%TD*%
%TO.P,R5,1*%
%TO.N,VCC*%
X81280000Y-72200000D03*
%TO.P,R5,2*%
%TO.N,Net-(D1-A)*%
X81280000Y-74200000D03*
%TD*%
D17*
%TO.P,R4,1*%
%TO.N,AVR_TX*%
X49276000Y-57404000D03*
%TO.P,R4,2*%
%TO.N,Net-(U3-RXD)*%
X47276000Y-57404000D03*
%TD*%
%TO.P,R3,1*%
%TO.N,AVR_RX*%
X49276000Y-54864000D03*
%TO.P,R3,2*%
%TO.N,Net-(U3-TXD)*%
X47276000Y-54864000D03*
%TD*%
D18*
%TO.P,R2,1*%
%TO.N,VCC*%
X92456000Y-62452000D03*
%TO.P,R2,2*%
%TO.N,RESET*%
X92456000Y-60452000D03*
%TD*%
%TO.P,R1,1*%
%TO.N,VCC*%
X83312000Y-49784000D03*
%TO.P,R1,2*%
%TO.N,RST*%
X83312000Y-47784000D03*
%TD*%
D19*
%TO.P,D5,1,K*%
%TO.N,GND*%
X88900000Y-80264000D03*
%TO.P,D5,2,A*%
%TO.N,Net-(D5-A)*%
X88900000Y-78214000D03*
%TD*%
%TO.P,D4,2,A*%
%TO.N,Net-(D4-A)*%
X86360000Y-78205000D03*
%TO.P,D4,1,K*%
%TO.N,GND*%
X86360000Y-80255000D03*
%TD*%
%TO.P,D3,1,K*%
%TO.N,GND*%
X78740000Y-80255000D03*
%TO.P,D3,2,A*%
%TO.N,Net-(D3-A)*%
X78740000Y-78205000D03*
%TD*%
%TO.P,D2,1,K*%
%TO.N,Net-(D2-K)*%
X83820000Y-80255000D03*
%TO.P,D2,2,A*%
%TO.N,Net-(D2-A)*%
X83820000Y-78205000D03*
%TD*%
%TO.P,D1,1,K*%
%TO.N,Net-(D1-K)*%
X81280000Y-80255000D03*
%TO.P,D1,2,A*%
%TO.N,Net-(D1-A)*%
X81280000Y-78205000D03*
%TD*%
D20*
%TO.P,U2,1,NC*%
%TO.N,unconnected-(U2-NC-Pad1)*%
X65024000Y-56515000D03*
D21*
%TO.P,U2,2,PB0*%
%TO.N,A0*%
X62484000Y-53975000D03*
%TO.P,U2,3,PB1*%
%TO.N,A1*%
X62484000Y-56515000D03*
%TO.P,U2,4,PB2*%
%TO.N,A2*%
X59944000Y-53975000D03*
%TO.P,U2,5,PB3*%
%TO.N,A3*%
X59944000Y-56515000D03*
%TO.P,U2,6,PB4*%
%TO.N,A4*%
X57404000Y-53975000D03*
%TO.P,U2,7,PB5*%
%TO.N,A5_MOSI*%
X54864000Y-56515000D03*
%TO.P,U2,8,PB6*%
%TO.N,A6_MISO*%
X57404000Y-56515000D03*
%TO.P,U2,9,PB7*%
%TO.N,A7_SCK*%
X54864000Y-59055000D03*
%TO.P,U2,10,~{RESET}*%
%TO.N,RESET*%
X57404000Y-59055000D03*
%TO.P,U2,11,PD0*%
%TO.N,AVR_RX*%
X54864000Y-61595000D03*
%TO.P,U2,12,NC*%
%TO.N,unconnected-(U2-NC-Pad12)*%
X57404000Y-61595000D03*
%TO.P,U2,13,PD1*%
%TO.N,AVR_TX*%
X54864000Y-64135000D03*
%TO.P,U2,14,PD2*%
%TO.N,LED_RD*%
X57404000Y-64135000D03*
%TO.P,U2,15,PD3*%
%TO.N,LED_WR*%
X54864000Y-66675000D03*
%TO.P,U2,16,PD4*%
%TO.N,SRAM*%
X57404000Y-66675000D03*
%TO.P,U2,17,PD5*%
%TO.N,RD*%
X54864000Y-69215000D03*
%TO.P,U2,18,PD6*%
%TO.N,WR*%
X57404000Y-71755000D03*
%TO.P,U2,19,PD7*%
%TO.N,unconnected-(U2-PD7-Pad19)*%
X57404000Y-69215000D03*
%TO.P,U2,20,XTAL2*%
%TO.N,Net-(U2-XTAL2)*%
X59944000Y-71755000D03*
%TO.P,U2,21,XTAL1*%
%TO.N,Net-(U2-XTAL1)*%
X59944000Y-69215000D03*
%TO.P,U2,22,GND*%
%TO.N,GND*%
X62484000Y-71755000D03*
%TO.P,U2,23,NC*%
%TO.N,unconnected-(U2-NC-Pad23)*%
X62484000Y-69215000D03*
%TO.P,U2,24,PC0*%
%TO.N,D0*%
X65024000Y-71755000D03*
%TO.P,U2,25,PC1*%
%TO.N,D1*%
X65024000Y-69215000D03*
%TO.P,U2,26,PC2*%
%TO.N,D2*%
X67564000Y-71755000D03*
%TO.P,U2,27,PC3*%
%TO.N,D3*%
X67564000Y-69215000D03*
%TO.P,U2,28,PC4*%
%TO.N,D4*%
X70104000Y-71755000D03*
%TO.P,U2,29,PC5*%
%TO.N,D5*%
X72644000Y-69215000D03*
%TO.P,U2,30,PC6*%
%TO.N,D6*%
X70104000Y-69215000D03*
%TO.P,U2,31,PC7*%
%TO.N,D7*%
X72644000Y-66675000D03*
%TO.P,U2,32,PE2*%
%TO.N,RST*%
X70104000Y-66675000D03*
%TO.P,U2,33,PE1*%
%TO.N,AUDIO*%
X72644000Y-64135000D03*
%TO.P,U2,34,NC*%
%TO.N,unconnected-(U2-NC-Pad34)*%
X70104000Y-64135000D03*
%TO.P,U2,35,PE0*%
%TO.N,unconnected-(U2-PE0-Pad35)*%
X72644000Y-61595000D03*
%TO.P,U2,36,PA7*%
%TO.N,A15*%
X70104000Y-61595000D03*
%TO.P,U2,37,PA6*%
%TO.N,A14*%
X72644000Y-59055000D03*
%TO.P,U2,38,PA5*%
%TO.N,A13*%
X70104000Y-59055000D03*
%TO.P,U2,39,PA4*%
%TO.N,A12*%
X72644000Y-56515000D03*
%TO.P,U2,40,PA3*%
%TO.N,A11*%
X70104000Y-53975000D03*
%TO.P,U2,41,PA2*%
%TO.N,A10*%
X70104000Y-56515000D03*
%TO.P,U2,42,PA1*%
%TO.N,A9*%
X67564000Y-53975000D03*
%TO.P,U2,43,PA0*%
%TO.N,A8*%
X67564000Y-56515000D03*
%TO.P,U2,44,VCC*%
%TO.N,VCC*%
X65024000Y-53975000D03*
%TD*%
D22*
%TO.P,Y1,1,1*%
%TO.N,Net-(U2-XTAL2)*%
X61160000Y-78740000D03*
%TO.P,Y1,2,2*%
%TO.N,Net-(U2-XTAL1)*%
X66040000Y-78740000D03*
%TD*%
D23*
%TO.P,U3,28,OSCO*%
%TO.N,unconnected-(U3-OSCO-Pad28)*%
X43688000Y-57590000D03*
%TO.P,U3,27,OSCI*%
%TO.N,unconnected-(U3-OSCI-Pad27)*%
X43688000Y-58240000D03*
%TO.P,U3,26,TEST*%
%TO.N,GND*%
X43688000Y-58890000D03*
%TO.P,U3,25,AGND*%
X43688000Y-59540000D03*
%TO.P,U3,24*%
%TO.N,N/C*%
X43688000Y-60190000D03*
%TO.P,U3,23,CBUS0*%
%TO.N,Net-(D1-K)*%
X43688000Y-60840000D03*
%TO.P,U3,22,CBUS1*%
%TO.N,Net-(D2-K)*%
X43688000Y-61490000D03*
%TO.P,U3,21,GND*%
%TO.N,GND*%
X43688000Y-62140000D03*
%TO.P,U3,20,VCC*%
%TO.N,VCC*%
X43688000Y-62790000D03*
%TO.P,U3,19,~{RESET}*%
%TO.N,RESET*%
X43688000Y-63440000D03*
%TO.P,U3,18,GND*%
%TO.N,GND*%
X43688000Y-64090000D03*
%TO.P,U3,17,3V3OUT*%
%TO.N,Net-(U3-3V3OUT)*%
X43688000Y-64740000D03*
%TO.P,U3,16,USBD-*%
%TO.N,USB-*%
X43688000Y-65390000D03*
%TO.P,U3,15,USBD+*%
%TO.N,USB+*%
X43688000Y-66040000D03*
%TO.P,U3,14,CBUS3*%
%TO.N,unconnected-(U3-CBUS3-Pad14)*%
X36488000Y-66040000D03*
%TO.P,U3,13,CBUS2*%
%TO.N,unconnected-(U3-CBUS2-Pad13)*%
X36488000Y-65390000D03*
%TO.P,U3,12,CBUS4*%
%TO.N,unconnected-(U3-CBUS4-Pad12)*%
X36488000Y-64740000D03*
%TO.P,U3,11,CTS*%
%TO.N,unconnected-(U3-CTS-Pad11)*%
X36488000Y-64090000D03*
%TO.P,U3,10,DCD*%
%TO.N,unconnected-(U3-DCD-Pad10)*%
X36488000Y-63440000D03*
%TO.P,U3,9,DCR*%
%TO.N,unconnected-(U3-DCR-Pad9)*%
X36488000Y-62790000D03*
%TO.P,U3,8*%
%TO.N,N/C*%
X36488000Y-62140000D03*
%TO.P,U3,7,GND*%
%TO.N,GND*%
X36488000Y-61490000D03*
%TO.P,U3,6,RI*%
%TO.N,unconnected-(U3-RI-Pad6)*%
X36488000Y-60840000D03*
%TO.P,U3,5,RXD*%
%TO.N,Net-(U3-RXD)*%
X36488000Y-60190000D03*
%TO.P,U3,4,VCCIO*%
%TO.N,VCC*%
X36488000Y-59540000D03*
%TO.P,U3,3,RTS*%
%TO.N,unconnected-(U3-RTS-Pad3)*%
X36488000Y-58890000D03*
%TO.P,U3,2,DTR*%
%TO.N,unconnected-(U3-DTR-Pad2)*%
X36488000Y-58240000D03*
%TO.P,U3,1,TXD*%
%TO.N,Net-(U3-TXD)*%
X36488000Y-57590000D03*
%TD*%
D24*
%TO.P,SW1,1,1*%
%TO.N,RESET*%
X87376000Y-59000000D03*
%TO.P,SW1,2,2*%
%TO.N,GND*%
X87376000Y-63500000D03*
%TO.P,SW1,1,1*%
%TO.N,RESET*%
X80876000Y-59000000D03*
%TO.P,SW1,2,2*%
%TO.N,GND*%
X80876000Y-63500000D03*
%TD*%
D25*
%TO.P,J1,6,GND*%
%TO.N,GND*%
X65532000Y-35052000D03*
%TO.P,J1,4,MOSI*%
%TO.N,A5_MOSI*%
X62992000Y-35052000D03*
%TO.P,J1,2,VCC*%
%TO.N,VCC*%
X60452000Y-35052000D03*
%TO.P,J1,5,~{RST}*%
%TO.N,RESET*%
X65532000Y-32512000D03*
%TO.P,J1,3,SCK*%
%TO.N,A7_SCK*%
X62992000Y-32512000D03*
D26*
%TO.P,J1,1,MISO*%
%TO.N,A6_MISO*%
X60452000Y-32512000D03*
%TD*%
D27*
%TO.P,J2,9*%
%TO.N,N/C*%
X38272000Y-80160000D03*
%TO.P,J2,8*%
X47072000Y-80160000D03*
%TO.P,J2,7*%
X47072000Y-74660000D03*
%TO.P,J2,6,Shield*%
%TO.N,unconnected-(J2-Shield-Pad6)*%
X38272000Y-74660000D03*
D28*
%TO.P,J2,5,GND*%
%TO.N,GND*%
X44272000Y-74660000D03*
%TO.P,J2,4,ID*%
%TO.N,unconnected-(J2-ID-Pad4)*%
X43472000Y-74660000D03*
%TO.P,J2,3,D+*%
%TO.N,USB+*%
X42672000Y-74660000D03*
%TO.P,J2,2,D-*%
%TO.N,USB-*%
X41872000Y-74660000D03*
%TO.P,J2,1,VBUS*%
%TO.N,Net-(J2-VBUS)*%
X41072000Y-74660000D03*
%TD*%
D29*
%TO.P,F1,2*%
%TO.N,Net-(J2-VBUS)*%
X33020000Y-75236000D03*
%TO.P,F1,1*%
%TO.N,VCC*%
X33020000Y-72136000D03*
%TD*%
D30*
%TO.P,C8,2*%
%TO.N,GND*%
X33020000Y-67056000D03*
%TO.P,C8,1*%
%TO.N,VCC*%
X33020000Y-70006000D03*
%TD*%
D31*
%TO.N,Net-(D1-K)*%
X77114400Y-81483200D03*
%TO.N,LED_WR*%
X63848000Y-73200000D03*
%TO.N,LED_RD*%
X85284700Y-70847900D03*
%TO.N,Net-(U3-RXD)*%
X45720000Y-57404000D03*
X39878000Y-57658000D03*
%TO.N,Net-(U3-TXD)*%
X38348000Y-57404000D03*
X45720000Y-54864000D03*
%TO.N,Net-(D2-K)*%
X45236200Y-61402000D03*
X58419800Y-77873900D03*
%TO.N,A0*%
X55882800Y-46955500D03*
%TO.N,A2*%
X50431800Y-45339700D03*
%TO.N,A3*%
X51455900Y-47497000D03*
%TO.N,WR*%
X42970500Y-45851400D03*
%TO.N,D3*%
X75835400Y-49624500D03*
%TO.N,D5*%
X78212000Y-51975400D03*
%TO.N,D6*%
X77809400Y-54169500D03*
%TO.N,A15*%
X70376600Y-45345400D03*
%TO.N,Net-(D1-K)*%
X61357700Y-74458900D03*
%TO.N,RESET*%
X90152900Y-60508800D03*
X45284200Y-63162700D03*
%TO.N,VCC*%
X39370000Y-62738000D03*
X39073000Y-58717000D03*
X84836000Y-49784000D03*
X92456000Y-64516000D03*
X36576000Y-53848000D03*
X37592000Y-47752000D03*
X30988000Y-57404000D03*
X30988000Y-71120000D03*
%TD*%
D32*
%TO.N,GND*%
X88392000Y-82296000D02*
X85547200Y-82296000D01*
X85547200Y-82296000D02*
X85852000Y-82296000D01*
X74726800Y-82296000D02*
X85547200Y-82296000D01*
X85852000Y-82296000D02*
X86360000Y-81788000D01*
X74726800Y-82296000D02*
X76767800Y-80255000D01*
X76767800Y-80255000D02*
X78740000Y-80255000D01*
X55372000Y-82296000D02*
X74726800Y-82296000D01*
X50757000Y-77681000D02*
X55372000Y-82296000D01*
%TO.N,Net-(D1-K)*%
X80051800Y-81483200D02*
X77114400Y-81483200D01*
X81280000Y-80255000D02*
X80051800Y-81483200D01*
%TO.N,LED_WR*%
X87868000Y-73200000D02*
X63848000Y-73200000D01*
X88900000Y-72168000D02*
X87868000Y-73200000D01*
%TO.N,LED_RD*%
X86360000Y-71923200D02*
X86360000Y-72200000D01*
X85284700Y-70847900D02*
X86360000Y-71923200D01*
%TO.N,Net-(D5-A)*%
X88900000Y-78214000D02*
X88900000Y-74168000D01*
%TO.N,Net-(D4-A)*%
X86360000Y-74200000D02*
X86360000Y-78205000D01*
%TO.N,Net-(U3-RXD)*%
X45720000Y-57404000D02*
X47276000Y-57404000D01*
X39878000Y-59182000D02*
X39878000Y-57658000D01*
X38870000Y-60190000D02*
X39878000Y-59182000D01*
X36488000Y-60190000D02*
X38870000Y-60190000D01*
%TO.N,Net-(U3-TXD)*%
X38162000Y-57590000D02*
X38348000Y-57404000D01*
X36488000Y-57590000D02*
X38162000Y-57590000D01*
X47276000Y-54864000D02*
X45720000Y-54864000D01*
%TO.N,Net-(J2-VBUS)*%
X35000000Y-75236000D02*
X33020000Y-75236000D01*
X35560000Y-74676000D02*
X35000000Y-75236000D01*
X35560000Y-71628000D02*
X35560000Y-74676000D01*
X36068000Y-71120000D02*
X35560000Y-71628000D01*
X40640000Y-71120000D02*
X36068000Y-71120000D01*
X41072000Y-71552000D02*
X40640000Y-71120000D01*
X41072000Y-74660000D02*
X41072000Y-71552000D01*
%TO.N,Net-(D3-A)*%
X78740000Y-74200000D02*
X78740000Y-78205000D01*
%TO.N,A6_MISO*%
X56242000Y-36722000D02*
X56242000Y-43228000D01*
X60452000Y-32512000D02*
X56242000Y-36722000D01*
X58442400Y-55476600D02*
X57404000Y-56515000D01*
X58442400Y-47253700D02*
X58442400Y-55476600D01*
X56242000Y-45053300D02*
X58442400Y-47253700D01*
X56242000Y-43228000D02*
X56242000Y-45053300D01*
%TO.N,A7_SCK*%
X57742000Y-39899800D02*
X57742000Y-43228000D01*
X61722000Y-35919800D02*
X57742000Y-39899800D01*
X61722000Y-33782000D02*
X61722000Y-35919800D01*
X62992000Y-32512000D02*
X61722000Y-33782000D01*
X57742000Y-43228000D02*
X57742000Y-45053300D01*
X58892700Y-46204000D02*
X57742000Y-45053300D01*
X58892700Y-56508100D02*
X58892700Y-46204000D01*
X57390600Y-58010200D02*
X58892700Y-56508100D01*
X55908800Y-58010200D02*
X57390600Y-58010200D01*
X54864000Y-59055000D02*
X55908800Y-58010200D01*
%TO.N,A5_MOSI*%
X54742000Y-56393000D02*
X54864000Y-56515000D01*
X54742000Y-43228000D02*
X54742000Y-56393000D01*
%TO.N,Net-(D2-K)*%
X45148200Y-61490000D02*
X45236200Y-61402000D01*
X43688000Y-61490000D02*
X45148200Y-61490000D01*
X82795000Y-79230000D02*
X83820000Y-80255000D01*
X75114600Y-79230000D02*
X82795000Y-79230000D01*
X74522500Y-78637900D02*
X75114600Y-79230000D01*
X68694900Y-78637900D02*
X74522500Y-78637900D01*
X67697800Y-77640800D02*
X68694900Y-78637900D01*
X58652900Y-77640800D02*
X67697800Y-77640800D01*
X58419800Y-77873900D02*
X58652900Y-77640800D01*
%TO.N,Net-(D2-A)*%
X83820000Y-74200000D02*
X83820000Y-78205000D01*
%TO.N,AVR_TX*%
X53213000Y-64135000D02*
X54864000Y-64135000D01*
X49276000Y-60198000D02*
X53213000Y-64135000D01*
X49276000Y-57404000D02*
X49276000Y-60198000D01*
%TO.N,AVR_RX*%
X52959000Y-61595000D02*
X54864000Y-61595000D01*
X51816000Y-60452000D02*
X52959000Y-61595000D01*
X51816000Y-57404000D02*
X51816000Y-60452000D01*
X49276000Y-54864000D02*
X51816000Y-57404000D01*
%TO.N,A0*%
X55442400Y-46515100D02*
X55882800Y-46955500D01*
X55442400Y-41585600D02*
X55442400Y-46515100D01*
X55259500Y-41402700D02*
X55442400Y-41585600D01*
X47242000Y-41402700D02*
X55259500Y-41402700D01*
X47242000Y-43228000D02*
X47242000Y-41402700D01*
%TO.N,A1*%
X58888700Y-60110300D02*
X62484000Y-56515000D01*
X54448200Y-60110300D02*
X58888700Y-60110300D01*
X53518000Y-59180100D02*
X54448200Y-60110300D01*
X53518000Y-57271800D02*
X53518000Y-59180100D01*
X48742000Y-52495800D02*
X53518000Y-57271800D01*
X48742000Y-43228000D02*
X48742000Y-52495800D01*
%TO.N,A2*%
X50242000Y-45149900D02*
X50242000Y-43228000D01*
X50431800Y-45339700D02*
X50242000Y-45149900D01*
%TO.N,A3*%
X51742000Y-47210900D02*
X51455900Y-47497000D01*
X51742000Y-43228000D02*
X51742000Y-47210900D01*
%TO.N,A4*%
X56278500Y-55100500D02*
X57404000Y-53975000D01*
X56278500Y-56652600D02*
X56278500Y-55100500D01*
X55370800Y-57560300D02*
X56278500Y-56652600D01*
X54443400Y-57560300D02*
X55370800Y-57560300D01*
X53242000Y-56358900D02*
X54443400Y-57560300D01*
X53242000Y-43228000D02*
X53242000Y-56358900D01*
%TO.N,A8*%
X59242000Y-43228000D02*
X59242000Y-45053300D01*
X66302300Y-55253300D02*
X67564000Y-56515000D01*
X64822400Y-55253300D02*
X66302300Y-55253300D01*
X63970600Y-54401500D02*
X64822400Y-55253300D01*
X63970600Y-48666300D02*
X63970600Y-54401500D01*
X60357600Y-45053300D02*
X63970600Y-48666300D01*
X59242000Y-45053300D02*
X60357600Y-45053300D01*
%TO.N,A9*%
X67564000Y-50188500D02*
X67564000Y-53975000D01*
X64501300Y-47125800D02*
X67564000Y-50188500D01*
X63677500Y-47125800D02*
X64501300Y-47125800D01*
X60742000Y-44190300D02*
X63677500Y-47125800D01*
X60742000Y-43228000D02*
X60742000Y-44190300D01*
%TO.N,A10*%
X68834000Y-55245000D02*
X70104000Y-56515000D01*
X68834000Y-50821600D02*
X68834000Y-55245000D01*
X63065700Y-45053300D02*
X68834000Y-50821600D01*
X62242000Y-45053300D02*
X63065700Y-45053300D01*
X62242000Y-43228000D02*
X62242000Y-45053300D01*
%TO.N,A11*%
X63742000Y-43228000D02*
X63742000Y-45053300D01*
X70104000Y-51415300D02*
X63742000Y-45053300D01*
X70104000Y-53975000D02*
X70104000Y-51415300D01*
%TO.N,SRAM*%
X45742000Y-47773000D02*
X45742000Y-43228000D01*
X48202400Y-50233400D02*
X45742000Y-47773000D01*
X48202400Y-55415200D02*
X48202400Y-50233400D01*
X48921200Y-56134000D02*
X48202400Y-55415200D01*
X49656300Y-56134000D02*
X48921200Y-56134000D01*
X50234000Y-56711700D02*
X49656300Y-56134000D01*
X50234000Y-59534000D02*
X50234000Y-56711700D01*
X53741600Y-63041600D02*
X50234000Y-59534000D01*
X55291100Y-63041600D02*
X53741600Y-63041600D01*
X55900600Y-63651100D02*
X55291100Y-63041600D01*
X55900600Y-65171600D02*
X55900600Y-63651100D01*
X57404000Y-66675000D02*
X55900600Y-65171600D01*
%TO.N,RD*%
X53360600Y-67711600D02*
X54864000Y-69215000D01*
X53360600Y-65201600D02*
X53360600Y-67711600D01*
X48209800Y-60050800D02*
X53360600Y-65201600D01*
X48209800Y-56694700D02*
X48209800Y-60050800D01*
X47747100Y-56232000D02*
X48209800Y-56694700D01*
X46032300Y-56232000D02*
X47747100Y-56232000D01*
X44242000Y-54441700D02*
X46032300Y-56232000D01*
X44242000Y-43228000D02*
X44242000Y-54441700D01*
%TO.N,WR*%
X42970500Y-45281800D02*
X42970500Y-45851400D01*
X42742000Y-45053300D02*
X42970500Y-45281800D01*
X42742000Y-43228000D02*
X42742000Y-45053300D01*
%TO.N,D0*%
X63970600Y-70701600D02*
X65024000Y-71755000D01*
X63970600Y-63674200D02*
X63970600Y-70701600D01*
X69859800Y-57785000D02*
X63970600Y-63674200D01*
X70309900Y-57785000D02*
X69859800Y-57785000D01*
X71175600Y-56919300D02*
X70309900Y-57785000D01*
X71175600Y-51623800D02*
X71175600Y-56919300D01*
X64514300Y-44962500D02*
X71175600Y-51623800D01*
X64514300Y-41591800D02*
X64514300Y-44962500D01*
X64703400Y-41402700D02*
X64514300Y-41591800D01*
X71242000Y-41402700D02*
X64703400Y-41402700D01*
X71242000Y-43228000D02*
X71242000Y-41402700D01*
%TO.N,D1*%
X65024000Y-65205000D02*
X65024000Y-69215000D01*
X70137400Y-60091600D02*
X65024000Y-65205000D01*
X73086000Y-60091600D02*
X70137400Y-60091600D01*
X74592300Y-58585300D02*
X73086000Y-60091600D01*
X74592300Y-46903600D02*
X74592300Y-58585300D01*
X72742000Y-45053300D02*
X74592300Y-46903600D01*
X72742000Y-43228000D02*
X72742000Y-45053300D01*
%TO.N,D2*%
X74242000Y-43228000D02*
X74242000Y-45053300D01*
X75042700Y-45854000D02*
X74242000Y-45053300D01*
X75042700Y-58771800D02*
X75042700Y-45854000D01*
X73272500Y-60542000D02*
X75042700Y-58771800D01*
X72203900Y-60542000D02*
X73272500Y-60542000D01*
X71140600Y-61605300D02*
X72203900Y-60542000D01*
X71140600Y-62078900D02*
X71140600Y-61605300D01*
X70136000Y-63083500D02*
X71140600Y-62078900D01*
X69601700Y-63083500D02*
X70136000Y-63083500D01*
X66522200Y-66163000D02*
X69601700Y-63083500D01*
X66522200Y-70713200D02*
X66522200Y-66163000D01*
X67564000Y-71755000D02*
X66522200Y-70713200D01*
%TO.N,D3*%
X75742000Y-43228000D02*
X75742000Y-45053300D01*
X75835400Y-45146700D02*
X75835400Y-49624500D01*
X75742000Y-45053300D02*
X75835400Y-45146700D01*
%TO.N,D4*%
X69034900Y-70685900D02*
X70104000Y-71755000D01*
X69034900Y-66275600D02*
X69034900Y-70685900D01*
X69905500Y-65405000D02*
X69034900Y-66275600D01*
X70354500Y-65405000D02*
X69905500Y-65405000D01*
X71140600Y-64618900D02*
X70354500Y-65405000D01*
X71140600Y-64111200D02*
X71140600Y-64618900D01*
X72386800Y-62865000D02*
X71140600Y-64111200D01*
X72867100Y-62865000D02*
X72386800Y-62865000D01*
X73978000Y-61754100D02*
X72867100Y-62865000D01*
X73978000Y-60473400D02*
X73978000Y-61754100D01*
X77084100Y-57367300D02*
X73978000Y-60473400D01*
X77084100Y-45211200D02*
X77084100Y-57367300D01*
X77242000Y-45053300D02*
X77084100Y-45211200D01*
X77242000Y-43228000D02*
X77242000Y-45053300D01*
%TO.N,D5*%
X78742000Y-43228000D02*
X78742000Y-45053300D01*
X78212000Y-45583300D02*
X78212000Y-51975400D01*
X78742000Y-45053300D02*
X78212000Y-45583300D01*
%TO.N,D6*%
X80242000Y-51736900D02*
X77809400Y-54169500D01*
X80242000Y-43228000D02*
X80242000Y-51736900D01*
%TO.N,D7*%
X78014400Y-61304600D02*
X72644000Y-66675000D01*
X78014400Y-57876600D02*
X78014400Y-61304600D01*
X81742000Y-54149000D02*
X78014400Y-57876600D01*
X81742000Y-43228000D02*
X81742000Y-54149000D01*
%TO.N,AUDIO*%
X84742000Y-43228000D02*
X84742000Y-41402700D01*
X77106200Y-59672800D02*
X72644000Y-64135000D01*
X77106200Y-58147900D02*
X77106200Y-59672800D01*
X80992100Y-54262000D02*
X77106200Y-58147900D01*
X80992100Y-41626300D02*
X80992100Y-54262000D01*
X81215700Y-41402700D02*
X80992100Y-41626300D01*
X84742000Y-41402700D02*
X81215700Y-41402700D01*
%TO.N,A15*%
X70084500Y-45053300D02*
X70376600Y-45345400D01*
X69742000Y-45053300D02*
X70084500Y-45053300D01*
X69742000Y-43228000D02*
X69742000Y-45053300D01*
%TO.N,A14*%
X74132400Y-57566600D02*
X72644000Y-59055000D01*
X74132400Y-51706700D02*
X74132400Y-57566600D01*
X68242000Y-45816300D02*
X74132400Y-51706700D01*
X68242000Y-43228000D02*
X68242000Y-45816300D01*
%TO.N,A13*%
X66742000Y-43228000D02*
X66742000Y-45053300D01*
X71148900Y-58010100D02*
X70104000Y-59055000D01*
X72662000Y-58010100D02*
X71148900Y-58010100D01*
X73682100Y-56990000D02*
X72662000Y-58010100D01*
X73682100Y-51993400D02*
X73682100Y-56990000D01*
X66742000Y-45053300D02*
X73682100Y-51993400D01*
%TO.N,A12*%
X72644000Y-52455300D02*
X65242000Y-45053300D01*
X72644000Y-56515000D02*
X72644000Y-52455300D01*
X65242000Y-43228000D02*
X65242000Y-45053300D01*
%TO.N,Net-(D1-K)*%
X44772500Y-60840000D02*
X43688000Y-60840000D01*
X44948500Y-60664000D02*
X44772500Y-60840000D01*
X48170700Y-60664000D02*
X44948500Y-60664000D01*
X49219100Y-61712400D02*
X48170700Y-60664000D01*
X49219100Y-65061400D02*
X49219100Y-61712400D01*
X58616600Y-74458900D02*
X49219100Y-65061400D01*
X61357700Y-74458900D02*
X58616600Y-74458900D01*
%TO.N,RST*%
X83242000Y-47714000D02*
X83242000Y-43228000D01*
X83312000Y-47784000D02*
X83242000Y-47714000D01*
X71145700Y-67716700D02*
X70104000Y-66675000D01*
X73070600Y-67716700D02*
X71145700Y-67716700D01*
X78464700Y-62322600D02*
X73070600Y-67716700D01*
X78464700Y-58063200D02*
X78464700Y-62322600D01*
X82285600Y-54242300D02*
X78464700Y-58063200D01*
X82285600Y-48810400D02*
X82285600Y-54242300D01*
X83312000Y-47784000D02*
X82285600Y-48810400D01*
%TO.N,Net-(D1-A)*%
X81280000Y-74200000D02*
X81280000Y-78205000D01*
%TO.N,Net-(U3-3V3OUT)*%
X47020000Y-64740000D02*
X43688000Y-64740000D01*
X47752000Y-64008000D02*
X47020000Y-64740000D01*
%TO.N,RESET*%
X80876000Y-59000000D02*
X87376000Y-59000000D01*
X92399200Y-60508800D02*
X90152900Y-60508800D01*
X92456000Y-60452000D02*
X92399200Y-60508800D01*
X45006900Y-63440000D02*
X43688000Y-63440000D01*
X45284200Y-63162700D02*
X45006900Y-63440000D01*
D33*
%TO.N,USB-*%
X41872000Y-72785000D02*
X41872000Y-74660000D01*
X42047000Y-72610000D02*
X41872000Y-72785000D01*
X42047000Y-70305200D02*
X42047000Y-72610000D01*
X39399000Y-67657200D02*
X42047000Y-70305200D01*
X39399000Y-66129700D02*
X39399000Y-67657200D01*
X40038700Y-65490000D02*
X39399000Y-66129700D01*
X42275500Y-65490000D02*
X40038700Y-65490000D01*
X42375500Y-65390000D02*
X42275500Y-65490000D01*
X43688000Y-65390000D02*
X42375500Y-65390000D01*
%TO.N,USB+*%
X42375500Y-66040000D02*
X43688000Y-66040000D01*
X42275500Y-65940000D02*
X42375500Y-66040000D01*
X40225100Y-65940000D02*
X42275500Y-65940000D01*
X39849000Y-66316100D02*
X40225100Y-65940000D01*
X39849000Y-67470800D02*
X39849000Y-66316100D01*
X40966600Y-68588400D02*
X39849000Y-67470800D01*
X41390800Y-68588400D02*
X40966600Y-68588400D01*
X41412300Y-68566900D02*
X41390800Y-68588400D01*
X41836600Y-68566900D02*
X41412300Y-68566900D01*
X41836600Y-68991200D02*
X41836600Y-68566900D01*
X41815100Y-69012600D02*
X41836600Y-68991200D01*
X41815100Y-69436900D02*
X41815100Y-69012600D01*
X42497000Y-70118800D02*
X41815100Y-69436900D01*
X42497000Y-72610000D02*
X42497000Y-70118800D01*
X42672000Y-72785000D02*
X42497000Y-72610000D01*
X42672000Y-74660000D02*
X42672000Y-72785000D01*
D32*
%TO.N,Net-(U2-XTAL2)*%
X60144000Y-79756000D02*
X61160000Y-78740000D01*
X55372000Y-79756000D02*
X60144000Y-79756000D01*
%TO.N,VCC*%
X39422000Y-62790000D02*
X39370000Y-62738000D01*
X43688000Y-62790000D02*
X39422000Y-62790000D01*
X38250000Y-59540000D02*
X36488000Y-59540000D01*
X39073000Y-58717000D02*
X38250000Y-59540000D01*
X39073000Y-53848000D02*
X39073000Y-58717000D01*
X33675000Y-59540000D02*
X36488000Y-59540000D01*
X33528000Y-59393000D02*
X33675000Y-59540000D01*
X92456000Y-64516000D02*
X92456000Y-62452000D01*
X65024000Y-49276000D02*
X65024000Y-53975000D01*
X39742000Y-47634000D02*
X39624000Y-47752000D01*
X39742000Y-43228000D02*
X39742000Y-47634000D01*
X36576000Y-53848000D02*
X39073000Y-53848000D01*
X37592000Y-47752000D02*
X39624000Y-47752000D01*
X33528000Y-57912000D02*
X33528000Y-59393000D01*
X33020000Y-57404000D02*
X33528000Y-57912000D01*
X30988000Y-57404000D02*
X33020000Y-57404000D01*
X30988000Y-70612000D02*
X30988000Y-71120000D01*
X31594000Y-70006000D02*
X30988000Y-70612000D01*
X33020000Y-70006000D02*
X31594000Y-70006000D01*
X33020000Y-72136000D02*
X33020000Y-70006000D01*
X83820000Y-72200000D02*
X81280000Y-72200000D01*
X84836000Y-49784000D02*
X84074000Y-49784000D01*
X84074000Y-49784000D02*
X83312000Y-49784000D01*
X79524600Y-57640200D02*
X79524600Y-72200000D01*
X84074000Y-53090800D02*
X79524600Y-57640200D01*
X84074000Y-49784000D02*
X84074000Y-53090800D01*
X81280000Y-72200000D02*
X79524600Y-72200000D01*
X79524600Y-72200000D02*
X78740000Y-72200000D01*
%TO.N,Net-(U2-XTAL1)*%
X67099000Y-79799000D02*
X71120000Y-79799000D01*
X66040000Y-78740000D02*
X67099000Y-79799000D01*
%TO.N,GND*%
X41148000Y-58674000D02*
X41148000Y-59436000D01*
X41364000Y-58890000D02*
X41148000Y-58674000D01*
X43688000Y-58890000D02*
X41364000Y-58890000D01*
X41148000Y-53848000D02*
X41148000Y-58674000D01*
X36466000Y-61468000D02*
X36488000Y-61490000D01*
X33528000Y-61468000D02*
X36466000Y-61468000D01*
X47541000Y-61933000D02*
X47752000Y-61933000D01*
X45384000Y-64090000D02*
X47541000Y-61933000D01*
X43688000Y-64090000D02*
X45384000Y-64090000D01*
X47545000Y-62140000D02*
X43688000Y-62140000D01*
X47752000Y-61933000D02*
X47545000Y-62140000D01*
X44272000Y-76160000D02*
X44272000Y-74660000D01*
X43688000Y-76744000D02*
X44272000Y-76160000D01*
X43688000Y-79756000D02*
X43688000Y-76744000D01*
X41148000Y-79756000D02*
X43688000Y-79756000D01*
X39116000Y-77724000D02*
X41148000Y-79756000D01*
X37084000Y-77724000D02*
X39116000Y-77724000D01*
X36576000Y-77216000D02*
X37084000Y-77724000D01*
X32512000Y-77216000D02*
X36576000Y-77216000D01*
X30263000Y-74967000D02*
X32512000Y-77216000D01*
X30263000Y-64299000D02*
X30263000Y-74967000D01*
X30263000Y-64299000D02*
X33020000Y-67056000D01*
X30263000Y-58711000D02*
X30263000Y-64299000D01*
X33020000Y-61468000D02*
X33528000Y-61468000D01*
X30263000Y-58711000D02*
X33020000Y-61468000D01*
X30263000Y-56605000D02*
X30263000Y-58711000D01*
X35560000Y-51308000D02*
X30263000Y-56605000D01*
X35560000Y-39116000D02*
X35560000Y-51308000D01*
X41242000Y-33434000D02*
X35560000Y-39116000D01*
X41242000Y-33434000D02*
X41242000Y-43228000D01*
X47752000Y-26924000D02*
X41242000Y-33434000D01*
X53340000Y-26924000D02*
X47752000Y-26924000D01*
X54356000Y-25908000D02*
X53340000Y-26924000D01*
X68580000Y-25908000D02*
X54356000Y-25908000D01*
X68580000Y-32004000D02*
X65532000Y-35052000D01*
X68580000Y-25908000D02*
X68580000Y-32004000D01*
X71120000Y-25908000D02*
X68580000Y-25908000D01*
X73152000Y-27940000D02*
X71120000Y-25908000D01*
X79248000Y-27940000D02*
X73152000Y-27940000D01*
X82296000Y-24892000D02*
X79248000Y-27940000D01*
X92456000Y-24892000D02*
X82296000Y-24892000D01*
X92456000Y-39116000D02*
X92456000Y-24892000D01*
X89408000Y-42164000D02*
X92456000Y-39116000D01*
X89408000Y-50800000D02*
X89408000Y-42164000D01*
X89408000Y-63500000D02*
X89408000Y-50800000D01*
X86242000Y-47634000D02*
X86242000Y-43228000D01*
X89408000Y-50800000D02*
X86242000Y-47634000D01*
X92964000Y-67056000D02*
X89408000Y-63500000D01*
X92964000Y-74676000D02*
X92964000Y-67056000D01*
X90424000Y-77216000D02*
X92964000Y-74676000D01*
X90424000Y-81280000D02*
X90424000Y-77216000D01*
X89408000Y-82296000D02*
X90424000Y-81280000D01*
X88392000Y-82296000D02*
X89408000Y-82296000D01*
X88900000Y-81788000D02*
X88900000Y-80264000D01*
X88392000Y-82296000D02*
X88900000Y-81788000D01*
X86360000Y-81788000D02*
X86360000Y-80255000D01*
X50757000Y-77681000D02*
X55372000Y-77681000D01*
X49276000Y-76200000D02*
X50757000Y-77681000D01*
X49276000Y-73152000D02*
X49276000Y-76200000D01*
X48260000Y-72136000D02*
X49276000Y-73152000D01*
X44704000Y-72136000D02*
X48260000Y-72136000D01*
X44272000Y-72568000D02*
X44704000Y-72136000D01*
X44272000Y-74660000D02*
X44272000Y-72568000D01*
X62484000Y-75692000D02*
X62484000Y-74676000D01*
X63500000Y-76708000D02*
X62484000Y-75692000D01*
X70104000Y-76708000D02*
X63500000Y-76708000D01*
X71120000Y-77724000D02*
X70104000Y-76708000D01*
X63520200Y-70718800D02*
X62484000Y-71755000D01*
X63520200Y-49847200D02*
X63520200Y-70718800D01*
X62949000Y-49276000D02*
X63520200Y-49847200D01*
X41699000Y-45763000D02*
X41699000Y-47752000D01*
X41242000Y-45306000D02*
X41699000Y-45763000D01*
X41242000Y-43228000D02*
X41242000Y-45306000D01*
X62484000Y-74676000D02*
X62484000Y-71755000D01*
X60960000Y-76200000D02*
X62484000Y-74676000D01*
X55880000Y-76200000D02*
X60960000Y-76200000D01*
X55372000Y-76708000D02*
X55880000Y-76200000D01*
X55372000Y-77681000D02*
X55372000Y-76708000D01*
X62484000Y-74676000D02*
X62484000Y-71755000D01*
X41252000Y-59540000D02*
X41148000Y-59436000D01*
X43688000Y-59540000D02*
X41252000Y-59540000D01*
X41148000Y-59436000D02*
X41148000Y-61390400D01*
X41820000Y-62140000D02*
X43688000Y-62140000D01*
X41148000Y-61468000D02*
X41820000Y-62140000D01*
X41148000Y-61390400D02*
X41148000Y-61468000D01*
X37787900Y-61390400D02*
X37688300Y-61490000D01*
X41148000Y-61390400D02*
X37787900Y-61390400D01*
X36488000Y-61490000D02*
X37688300Y-61490000D01*
X89408000Y-63500000D02*
X87376000Y-63500000D01*
X87376000Y-63500000D02*
X80876000Y-63500000D01*
%TD*%
%TA.AperFunction,Conductor*%
%TO.N,GND*%
G36*
X61262812Y-69552965D02*
G01*
X61316690Y-69597451D01*
X61331040Y-69628873D01*
X61331625Y-69628661D01*
X61333481Y-69633761D01*
X61416560Y-69811924D01*
X61423674Y-69827180D01*
X61546087Y-70002003D01*
X61696997Y-70152913D01*
X61871820Y-70275326D01*
X61983985Y-70327629D01*
X62065238Y-70365518D01*
X62065240Y-70365519D01*
X62065245Y-70365521D01*
X62080557Y-70369624D01*
X62140217Y-70405987D01*
X62170748Y-70468833D01*
X62162454Y-70538209D01*
X62117970Y-70592088D01*
X62080561Y-70609173D01*
X62068173Y-70612492D01*
X62068161Y-70612497D01*
X61876088Y-70702062D01*
X61822286Y-70739733D01*
X62439599Y-71357046D01*
X62358852Y-71369835D01*
X62245955Y-71427359D01*
X62156359Y-71516955D01*
X62098835Y-71629852D01*
X62086046Y-71710599D01*
X61468733Y-71093286D01*
X61431062Y-71147088D01*
X61341497Y-71339161D01*
X61341492Y-71339173D01*
X61338173Y-71351561D01*
X61301807Y-71411221D01*
X61238959Y-71441749D01*
X61169584Y-71433452D01*
X61115707Y-71388966D01*
X61098624Y-71351559D01*
X61094521Y-71336245D01*
X61004326Y-71142821D01*
X61004324Y-71142818D01*
X61004323Y-71142816D01*
X60881916Y-70968001D01*
X60881911Y-70967995D01*
X60731003Y-70817087D01*
X60686305Y-70785789D01*
X60556180Y-70694674D01*
X60556176Y-70694672D01*
X60362761Y-70604481D01*
X60357661Y-70602625D01*
X60358146Y-70601291D01*
X60304200Y-70568410D01*
X60273671Y-70505564D01*
X60281965Y-70436188D01*
X60326451Y-70382310D01*
X60357873Y-70367959D01*
X60357661Y-70367375D01*
X60362746Y-70365523D01*
X60362755Y-70365521D01*
X60556180Y-70275326D01*
X60731003Y-70152913D01*
X60881913Y-70002003D01*
X61004326Y-69827180D01*
X61094521Y-69633755D01*
X61094523Y-69633746D01*
X61096375Y-69628661D01*
X61097708Y-69629146D01*
X61130590Y-69575200D01*
X61193436Y-69544671D01*
X61262812Y-69552965D01*
G37*
%TD.AperFunction*%
%TA.AperFunction,Conductor*%
G36*
X68882812Y-56852965D02*
G01*
X68936690Y-56897451D01*
X68951040Y-56928873D01*
X68951625Y-56928661D01*
X68953481Y-56933761D01*
X69040530Y-57120438D01*
X69043674Y-57127180D01*
X69147065Y-57274837D01*
X69166087Y-57302003D01*
X69218808Y-57354724D01*
X69252293Y-57416047D01*
X69247309Y-57485739D01*
X69218808Y-57530086D01*
X63581779Y-63167114D01*
X63569420Y-63177018D01*
X63569593Y-63177227D01*
X63563582Y-63182200D01*
X63516938Y-63231869D01*
X63514233Y-63234660D01*
X63494473Y-63254421D01*
X63494458Y-63254438D01*
X63491917Y-63257713D01*
X63484353Y-63266567D01*
X63454020Y-63298871D01*
X63454012Y-63298881D01*
X63444179Y-63316767D01*
X63433503Y-63333020D01*
X63420986Y-63349157D01*
X63420985Y-63349160D01*
X63403385Y-63389829D01*
X63398248Y-63400315D01*
X63376903Y-63439141D01*
X63376903Y-63439142D01*
X63371825Y-63458920D01*
X63365525Y-63477322D01*
X63357418Y-63496057D01*
X63350488Y-63539809D01*
X63348120Y-63551245D01*
X63337100Y-63594165D01*
X63337100Y-63614584D01*
X63335573Y-63633983D01*
X63332380Y-63654141D01*
X63332380Y-63654142D01*
X63336550Y-63698257D01*
X63337100Y-63709926D01*
X63337100Y-68085166D01*
X63317415Y-68152205D01*
X63264611Y-68197960D01*
X63195453Y-68207904D01*
X63141977Y-68186741D01*
X63096184Y-68154676D01*
X63096176Y-68154672D01*
X62902761Y-68064481D01*
X62902747Y-68064476D01*
X62696613Y-68009243D01*
X62696603Y-68009241D01*
X62484001Y-67990641D01*
X62483999Y-67990641D01*
X62271396Y-68009241D01*
X62271386Y-68009243D01*
X62065252Y-68064476D01*
X62065243Y-68064480D01*
X61871820Y-68154674D01*
X61871816Y-68154676D01*
X61697001Y-68277083D01*
X61696995Y-68277088D01*
X61546088Y-68427995D01*
X61546083Y-68428001D01*
X61423676Y-68602816D01*
X61423674Y-68602820D01*
X61333480Y-68796243D01*
X61331625Y-68801339D01*
X61330292Y-68800854D01*
X61297405Y-68854804D01*
X61234556Y-68885329D01*
X61165181Y-68877031D01*
X61111306Y-68832542D01*
X61096958Y-68801126D01*
X61096375Y-68801339D01*
X61094524Y-68796258D01*
X61094521Y-68796245D01*
X61004326Y-68602821D01*
X61004324Y-68602818D01*
X61004323Y-68602816D01*
X60881916Y-68428001D01*
X60881911Y-68427995D01*
X60731003Y-68277087D01*
X60632200Y-68207904D01*
X60556180Y-68154674D01*
X60556176Y-68154672D01*
X60362761Y-68064481D01*
X60362747Y-68064476D01*
X60156613Y-68009243D01*
X60156603Y-68009241D01*
X59944001Y-67990641D01*
X59943999Y-67990641D01*
X59731396Y-68009241D01*
X59731386Y-68009243D01*
X59525252Y-68064476D01*
X59525243Y-68064480D01*
X59331820Y-68154674D01*
X59331816Y-68154676D01*
X59157001Y-68277083D01*
X59156995Y-68277088D01*
X59006088Y-68427995D01*
X59006083Y-68428001D01*
X58883676Y-68602816D01*
X58883674Y-68602820D01*
X58793480Y-68796243D01*
X58791625Y-68801339D01*
X58790292Y-68800854D01*
X58757405Y-68854804D01*
X58694556Y-68885329D01*
X58625181Y-68877031D01*
X58571306Y-68832542D01*
X58556958Y-68801126D01*
X58556375Y-68801339D01*
X58554524Y-68796258D01*
X58554521Y-68796245D01*
X58464326Y-68602821D01*
X58464324Y-68602818D01*
X58464323Y-68602816D01*
X58341916Y-68428001D01*
X58341911Y-68427995D01*
X58191003Y-68277087D01*
X58092200Y-68207904D01*
X58016180Y-68154674D01*
X58016176Y-68154672D01*
X57822761Y-68064481D01*
X57817661Y-68062625D01*
X57818146Y-68061291D01*
X57764200Y-68028410D01*
X57733671Y-67965564D01*
X57741965Y-67896188D01*
X57786451Y-67842310D01*
X57817873Y-67827959D01*
X57817661Y-67827375D01*
X57822746Y-67825523D01*
X57822755Y-67825521D01*
X58016180Y-67735326D01*
X58191003Y-67612913D01*
X58341913Y-67462003D01*
X58464326Y-67287180D01*
X58554521Y-67093755D01*
X58609758Y-66887608D01*
X58628359Y-66675000D01*
X58609758Y-66462392D01*
X58554521Y-66256245D01*
X58464326Y-66062821D01*
X58464324Y-66062818D01*
X58464323Y-66062816D01*
X58341916Y-65888001D01*
X58341911Y-65887995D01*
X58191003Y-65737087D01*
X58178385Y-65728252D01*
X58016180Y-65614674D01*
X57960650Y-65588780D01*
X57822761Y-65524481D01*
X57817661Y-65522625D01*
X57818146Y-65521291D01*
X57764200Y-65488410D01*
X57733671Y-65425564D01*
X57741965Y-65356188D01*
X57786451Y-65302310D01*
X57817873Y-65287959D01*
X57817661Y-65287375D01*
X57822746Y-65285523D01*
X57822755Y-65285521D01*
X58016180Y-65195326D01*
X58191003Y-65072913D01*
X58341913Y-64922003D01*
X58464326Y-64747180D01*
X58554521Y-64553755D01*
X58609758Y-64347608D01*
X58628359Y-64135000D01*
X58609758Y-63922392D01*
X58554521Y-63716245D01*
X58464326Y-63522821D01*
X58464324Y-63522818D01*
X58464323Y-63522816D01*
X58341916Y-63348001D01*
X58341911Y-63347995D01*
X58191003Y-63197087D01*
X58169495Y-63182027D01*
X58016180Y-63074674D01*
X58008389Y-63071041D01*
X57822761Y-62984481D01*
X57817661Y-62982625D01*
X57818146Y-62981291D01*
X57764200Y-62948410D01*
X57733671Y-62885564D01*
X57741965Y-62816188D01*
X57786451Y-62762310D01*
X57817873Y-62747959D01*
X57817661Y-62747375D01*
X57822746Y-62745523D01*
X57822755Y-62745521D01*
X58016180Y-62655326D01*
X58191003Y-62532913D01*
X58341913Y-62382003D01*
X58464326Y-62207180D01*
X58554521Y-62013755D01*
X58609758Y-61807608D01*
X58628359Y-61595000D01*
X58628090Y-61591931D01*
X58620307Y-61502970D01*
X58609758Y-61382392D01*
X58564247Y-61212542D01*
X58554523Y-61176252D01*
X58554522Y-61176251D01*
X58554521Y-61176245D01*
X58464326Y-60982821D01*
X58439594Y-60947500D01*
X58433589Y-60938923D01*
X58411262Y-60872717D01*
X58428272Y-60804949D01*
X58479221Y-60757137D01*
X58535164Y-60743800D01*
X58805066Y-60743800D01*
X58820813Y-60745538D01*
X58820839Y-60745268D01*
X58828605Y-60746001D01*
X58828609Y-60746002D01*
X58896717Y-60743860D01*
X58900613Y-60743800D01*
X58928558Y-60743800D01*
X58928560Y-60743799D01*
X58929962Y-60743622D01*
X58932649Y-60743283D01*
X58944308Y-60742364D01*
X58988589Y-60740973D01*
X59008181Y-60735280D01*
X59027238Y-60731332D01*
X59047497Y-60728774D01*
X59088706Y-60712457D01*
X59099743Y-60708679D01*
X59142293Y-60696318D01*
X59159865Y-60685925D01*
X59177332Y-60677368D01*
X59196317Y-60669852D01*
X59232161Y-60643808D01*
X59241930Y-60637392D01*
X59280062Y-60614842D01*
X59294502Y-60600400D01*
X59309292Y-60587770D01*
X59325807Y-60575772D01*
X59354059Y-60541619D01*
X59361903Y-60532999D01*
X62144075Y-57750828D01*
X62205396Y-57717345D01*
X62263849Y-57718736D01*
X62271392Y-57720758D01*
X62468168Y-57737973D01*
X62483999Y-57739359D01*
X62484000Y-57739359D01*
X62484001Y-57739359D01*
X62537263Y-57734699D01*
X62696608Y-57720758D01*
X62902755Y-57665521D01*
X63096180Y-57575326D01*
X63271003Y-57452913D01*
X63421913Y-57302003D01*
X63544326Y-57127180D01*
X63567919Y-57076583D01*
X63614089Y-57024147D01*
X63681283Y-57004994D01*
X63748164Y-57025209D01*
X63793499Y-57078374D01*
X63804300Y-57128990D01*
X63804300Y-57274854D01*
X63810811Y-57335402D01*
X63810811Y-57335404D01*
X63852306Y-57446653D01*
X63861911Y-57472404D01*
X63949539Y-57589461D01*
X64066596Y-57677089D01*
X64203599Y-57728189D01*
X64230850Y-57731118D01*
X64264145Y-57734699D01*
X64264162Y-57734700D01*
X65783838Y-57734700D01*
X65783854Y-57734699D01*
X65810892Y-57731791D01*
X65844401Y-57728189D01*
X65981404Y-57677089D01*
X66098461Y-57589461D01*
X66186089Y-57472404D01*
X66237189Y-57335401D01*
X66242322Y-57287655D01*
X66243699Y-57274854D01*
X66243700Y-57274837D01*
X66243700Y-57128990D01*
X66263385Y-57061951D01*
X66316189Y-57016196D01*
X66385347Y-57006252D01*
X66448903Y-57035277D01*
X66480079Y-57076581D01*
X66503674Y-57127180D01*
X66626087Y-57302003D01*
X66776997Y-57452913D01*
X66951820Y-57575326D01*
X67048744Y-57620522D01*
X67145238Y-57665518D01*
X67145240Y-57665518D01*
X67145245Y-57665521D01*
X67351392Y-57720758D01*
X67510737Y-57734699D01*
X67563999Y-57739359D01*
X67564000Y-57739359D01*
X67564001Y-57739359D01*
X67617263Y-57734699D01*
X67776608Y-57720758D01*
X67982755Y-57665521D01*
X68176180Y-57575326D01*
X68351003Y-57452913D01*
X68501913Y-57302003D01*
X68624326Y-57127180D01*
X68714521Y-56933755D01*
X68714523Y-56933746D01*
X68716375Y-56928661D01*
X68717708Y-56929146D01*
X68750590Y-56875200D01*
X68813436Y-56844671D01*
X68882812Y-56852965D01*
G37*
%TD.AperFunction*%
%TA.AperFunction,Conductor*%
G36*
X46482284Y-61317185D02*
G01*
X46528039Y-61369989D01*
X46537530Y-61436002D01*
X46538182Y-61436069D01*
X46537915Y-61438677D01*
X46537983Y-61439147D01*
X46537713Y-61440654D01*
X46527000Y-61545513D01*
X46527000Y-61683000D01*
X47878000Y-61683000D01*
X47945039Y-61702685D01*
X47990794Y-61755489D01*
X48002000Y-61807000D01*
X48002000Y-62059000D01*
X47982315Y-62126039D01*
X47929511Y-62171794D01*
X47878000Y-62183000D01*
X46527001Y-62183000D01*
X46527001Y-62320486D01*
X46537494Y-62423197D01*
X46592641Y-62589619D01*
X46592643Y-62589624D01*
X46684684Y-62738845D01*
X46808655Y-62862816D01*
X46814323Y-62867298D01*
X46812592Y-62869486D01*
X46850749Y-62911890D01*
X46861987Y-62980850D01*
X46834158Y-63044938D01*
X46808894Y-63066836D01*
X46809015Y-63066989D01*
X46805627Y-63069667D01*
X46804043Y-63071041D01*
X46803350Y-63071468D01*
X46803347Y-63071470D01*
X46677971Y-63196846D01*
X46584886Y-63347759D01*
X46584884Y-63347764D01*
X46529113Y-63516072D01*
X46518500Y-63619947D01*
X46518500Y-63619955D01*
X46518500Y-63861841D01*
X46518501Y-63982500D01*
X46498817Y-64049539D01*
X46446013Y-64095294D01*
X46394501Y-64106500D01*
X45912436Y-64106500D01*
X45845397Y-64086815D01*
X45799642Y-64034011D01*
X45789698Y-63964853D01*
X45818723Y-63901297D01*
X45839550Y-63882182D01*
X45895453Y-63841566D01*
X46023240Y-63699644D01*
X46118727Y-63534256D01*
X46177742Y-63352628D01*
X46197704Y-63162700D01*
X46177742Y-62972772D01*
X46118727Y-62791144D01*
X46023240Y-62625756D01*
X45895453Y-62483834D01*
X45740952Y-62371582D01*
X45740951Y-62371581D01*
X45735694Y-62367762D01*
X45736731Y-62366333D01*
X45694480Y-62322019D01*
X45681259Y-62253412D01*
X45707229Y-62188547D01*
X45731810Y-62164885D01*
X45847453Y-62080866D01*
X45975240Y-61938944D01*
X46070727Y-61773556D01*
X46129742Y-61591928D01*
X46148265Y-61415689D01*
X46149017Y-61408538D01*
X46175602Y-61343923D01*
X46232899Y-61303939D01*
X46272338Y-61297500D01*
X46415245Y-61297500D01*
X46482284Y-61317185D01*
G37*
%TD.AperFunction*%
%TA.AperFunction,Conductor*%
G36*
X43856039Y-58993185D02*
G01*
X43901794Y-59045989D01*
X43913000Y-59097500D01*
X43913000Y-59332500D01*
X43893315Y-59399539D01*
X43840511Y-59445294D01*
X43789000Y-59456500D01*
X43587000Y-59456500D01*
X43519961Y-59436815D01*
X43474206Y-59384011D01*
X43463000Y-59332500D01*
X43463000Y-59097500D01*
X43482685Y-59030461D01*
X43535489Y-58984706D01*
X43587000Y-58973500D01*
X43789000Y-58973500D01*
X43856039Y-58993185D01*
G37*
%TD.AperFunction*%
%TA.AperFunction,Conductor*%
G36*
X63468896Y-54817534D02*
G01*
X63504602Y-54838172D01*
X63539268Y-54866850D01*
X63547909Y-54874713D01*
X63943955Y-55270760D01*
X63977440Y-55332083D01*
X63972456Y-55401775D01*
X63953008Y-55432058D01*
X63954854Y-55433440D01*
X63949540Y-55440537D01*
X63949539Y-55440539D01*
X63927782Y-55469603D01*
X63861911Y-55557595D01*
X63810811Y-55694595D01*
X63810811Y-55694597D01*
X63804300Y-55755145D01*
X63804300Y-55901009D01*
X63784615Y-55968048D01*
X63731811Y-56013803D01*
X63662653Y-56023747D01*
X63599097Y-55994722D01*
X63567918Y-55953414D01*
X63565374Y-55947959D01*
X63544326Y-55902821D01*
X63544323Y-55902817D01*
X63544323Y-55902816D01*
X63421916Y-55728001D01*
X63421911Y-55727995D01*
X63271003Y-55577087D01*
X63174398Y-55509443D01*
X63096180Y-55454674D01*
X63096176Y-55454672D01*
X62902761Y-55364481D01*
X62897661Y-55362625D01*
X62898146Y-55361291D01*
X62844200Y-55328410D01*
X62813671Y-55265564D01*
X62821965Y-55196188D01*
X62866451Y-55142310D01*
X62897873Y-55127959D01*
X62897661Y-55127375D01*
X62902746Y-55125523D01*
X62902755Y-55125521D01*
X63096180Y-55035326D01*
X63271003Y-54912913D01*
X63337881Y-54846035D01*
X63399204Y-54812550D01*
X63468896Y-54817534D01*
G37*
%TD.AperFunction*%
%TA.AperFunction,Conductor*%
G36*
X60110873Y-45706485D02*
G01*
X60131515Y-45723119D01*
X62325827Y-47917431D01*
X62359312Y-47978754D01*
X62354328Y-48048446D01*
X62312456Y-48104379D01*
X62298466Y-48112755D01*
X62298525Y-48112851D01*
X62143154Y-48208684D01*
X62019184Y-48332654D01*
X61927143Y-48481875D01*
X61927141Y-48481880D01*
X61871994Y-48648302D01*
X61871993Y-48648309D01*
X61861500Y-48751013D01*
X61861500Y-49026000D01*
X63075000Y-49026000D01*
X63142039Y-49045685D01*
X63187794Y-49098489D01*
X63199000Y-49150000D01*
X63199000Y-50500999D01*
X63213100Y-50500999D01*
X63280139Y-50520684D01*
X63325894Y-50573488D01*
X63337100Y-50624999D01*
X63337100Y-52845166D01*
X63317415Y-52912205D01*
X63264611Y-52957960D01*
X63195453Y-52967904D01*
X63141977Y-52946741D01*
X63096184Y-52914676D01*
X63096176Y-52914672D01*
X62902761Y-52824481D01*
X62902747Y-52824476D01*
X62696613Y-52769243D01*
X62696603Y-52769241D01*
X62484001Y-52750641D01*
X62483999Y-52750641D01*
X62271396Y-52769241D01*
X62271386Y-52769243D01*
X62065252Y-52824476D01*
X62065243Y-52824480D01*
X61871820Y-52914674D01*
X61871816Y-52914676D01*
X61697001Y-53037083D01*
X61696995Y-53037088D01*
X61546088Y-53187995D01*
X61546083Y-53188001D01*
X61423676Y-53362816D01*
X61423674Y-53362820D01*
X61333480Y-53556243D01*
X61331625Y-53561339D01*
X61330292Y-53560854D01*
X61297405Y-53614804D01*
X61234556Y-53645329D01*
X61165181Y-53637031D01*
X61111306Y-53592542D01*
X61096958Y-53561126D01*
X61096375Y-53561339D01*
X61094524Y-53556258D01*
X61094521Y-53556245D01*
X61004326Y-53362821D01*
X61004324Y-53362818D01*
X61004323Y-53362816D01*
X60881916Y-53188001D01*
X60881911Y-53187995D01*
X60731003Y-53037087D01*
X60618027Y-52957980D01*
X60556180Y-52914674D01*
X60556176Y-52914672D01*
X60362761Y-52824481D01*
X60362747Y-52824476D01*
X60156613Y-52769243D01*
X60156603Y-52769241D01*
X59944001Y-52750641D01*
X59943999Y-52750641D01*
X59731396Y-52769241D01*
X59731386Y-52769243D01*
X59682293Y-52782398D01*
X59612443Y-52780735D01*
X59554581Y-52741572D01*
X59527077Y-52677344D01*
X59526200Y-52662623D01*
X59526200Y-49526000D01*
X61861501Y-49526000D01*
X61861501Y-49800986D01*
X61871994Y-49903697D01*
X61927141Y-50070119D01*
X61927143Y-50070124D01*
X62019184Y-50219345D01*
X62143154Y-50343315D01*
X62292375Y-50435356D01*
X62292380Y-50435358D01*
X62458802Y-50490505D01*
X62458809Y-50490506D01*
X62561519Y-50500999D01*
X62698999Y-50500999D01*
X62699000Y-50500998D01*
X62699000Y-49526000D01*
X61861501Y-49526000D01*
X59526200Y-49526000D01*
X59526200Y-46287632D01*
X59527939Y-46271880D01*
X59527668Y-46271855D01*
X59528400Y-46264099D01*
X59528402Y-46264092D01*
X59526261Y-46195968D01*
X59526200Y-46192073D01*
X59526200Y-46164147D01*
X59526200Y-46164144D01*
X59525682Y-46160047D01*
X59524765Y-46148398D01*
X59523686Y-46114062D01*
X59523374Y-46104111D01*
X59517674Y-46084492D01*
X59513731Y-46065446D01*
X59511174Y-46045204D01*
X59511174Y-46045203D01*
X59494856Y-46003990D01*
X59491086Y-45992975D01*
X59478719Y-45950407D01*
X59468320Y-45932824D01*
X59459766Y-45915363D01*
X59452252Y-45896383D01*
X59443026Y-45883685D01*
X59419547Y-45817880D01*
X59435372Y-45749826D01*
X59485478Y-45701131D01*
X59543345Y-45686800D01*
X60043834Y-45686800D01*
X60110873Y-45706485D01*
G37*
%TD.AperFunction*%
%TA.AperFunction,Conductor*%
G36*
X64343905Y-33185515D02*
G01*
X64365804Y-33210787D01*
X64456278Y-33349268D01*
X64456283Y-33349273D01*
X64456284Y-33349276D01*
X64608756Y-33514902D01*
X64608760Y-33514906D01*
X64786424Y-33653189D01*
X64822930Y-33672945D01*
X64829695Y-33676606D01*
X64879286Y-33725825D01*
X64894394Y-33794042D01*
X64870224Y-33859597D01*
X64841801Y-33887236D01*
X64770626Y-33937072D01*
X64770625Y-33937072D01*
X65399466Y-34565913D01*
X65389685Y-34567320D01*
X65258900Y-34627048D01*
X65150239Y-34721202D01*
X65072507Y-34842156D01*
X65048923Y-34922476D01*
X64417072Y-34290625D01*
X64417072Y-34290626D01*
X64367131Y-34361950D01*
X64312555Y-34405575D01*
X64243056Y-34412769D01*
X64180701Y-34381246D01*
X64161748Y-34358649D01*
X64067723Y-34214734D01*
X64067715Y-34214723D01*
X63915243Y-34049097D01*
X63915238Y-34049092D01*
X63737577Y-33910812D01*
X63737578Y-33910812D01*
X63737576Y-33910811D01*
X63701070Y-33891055D01*
X63651479Y-33841836D01*
X63636371Y-33773619D01*
X63660541Y-33708064D01*
X63701070Y-33672945D01*
X63701084Y-33672936D01*
X63737576Y-33653189D01*
X63915240Y-33514906D01*
X64067722Y-33349268D01*
X64158193Y-33210790D01*
X64211338Y-33165437D01*
X64280569Y-33156013D01*
X64343905Y-33185515D01*
G37*
%TD.AperFunction*%
%TA.AperFunction,Conductor*%
G36*
X47040837Y-21660485D02*
G01*
X47086592Y-21713289D01*
X47096536Y-21782447D01*
X47073065Y-21839111D01*
X47041111Y-21881795D01*
X46990011Y-22018795D01*
X46990011Y-22018797D01*
X46983500Y-22079345D01*
X46983500Y-26176654D01*
X46990011Y-26237202D01*
X46990011Y-26237204D01*
X47041111Y-26374204D01*
X47128739Y-26491261D01*
X47245796Y-26578889D01*
X47382799Y-26629989D01*
X47410050Y-26632918D01*
X47443345Y-26636499D01*
X47443362Y-26636500D01*
X52540638Y-26636500D01*
X52540654Y-26636499D01*
X52567692Y-26633591D01*
X52601201Y-26629989D01*
X52738204Y-26578889D01*
X52855261Y-26491261D01*
X52942889Y-26374204D01*
X52993989Y-26237201D01*
X52997591Y-26203692D01*
X53000499Y-26176654D01*
X53000500Y-26176637D01*
X53000500Y-22079362D01*
X53000499Y-22079345D01*
X52995664Y-22034382D01*
X52993989Y-22018799D01*
X52942889Y-21881796D01*
X52910934Y-21839110D01*
X52886518Y-21773647D01*
X52901369Y-21705374D01*
X52950775Y-21655968D01*
X53010202Y-21640800D01*
X72973798Y-21640800D01*
X73040837Y-21660485D01*
X73086592Y-21713289D01*
X73096536Y-21782447D01*
X73073065Y-21839111D01*
X73041111Y-21881795D01*
X72990011Y-22018795D01*
X72990011Y-22018797D01*
X72983500Y-22079345D01*
X72983500Y-26176654D01*
X72990011Y-26237202D01*
X72990011Y-26237204D01*
X73041111Y-26374204D01*
X73128739Y-26491261D01*
X73245796Y-26578889D01*
X73382799Y-26629989D01*
X73410050Y-26632918D01*
X73443345Y-26636499D01*
X73443362Y-26636500D01*
X78540638Y-26636500D01*
X78540654Y-26636499D01*
X78567692Y-26633591D01*
X78601201Y-26629989D01*
X78738204Y-26578889D01*
X78855261Y-26491261D01*
X78942889Y-26374204D01*
X78993989Y-26237201D01*
X78997591Y-26203692D01*
X79000499Y-26176654D01*
X79000500Y-26176637D01*
X79000500Y-22079362D01*
X79000499Y-22079345D01*
X78995664Y-22034382D01*
X78993989Y-22018799D01*
X78942889Y-21881796D01*
X78910934Y-21839110D01*
X78886518Y-21773647D01*
X78901369Y-21705374D01*
X78950775Y-21655968D01*
X79010202Y-21640800D01*
X93674833Y-21640800D01*
X93697184Y-21642831D01*
X93939391Y-21687216D01*
X93953916Y-21690797D01*
X94229491Y-21776670D01*
X94243482Y-21781975D01*
X94465273Y-21881795D01*
X94506707Y-21900443D01*
X94519965Y-21907401D01*
X94766986Y-22056730D01*
X94779297Y-22065228D01*
X94969243Y-22214041D01*
X95006520Y-22243246D01*
X95017728Y-22253176D01*
X95221823Y-22457271D01*
X95231753Y-22468479D01*
X95409767Y-22695696D01*
X95418273Y-22708019D01*
X95567597Y-22955033D01*
X95574556Y-22968292D01*
X95693022Y-23231512D01*
X95698331Y-23245513D01*
X95784199Y-23521074D01*
X95787783Y-23535612D01*
X95839813Y-23819532D01*
X95841618Y-23834396D01*
X95859274Y-24126262D01*
X95859500Y-24133750D01*
X95859500Y-80641249D01*
X95859274Y-80648737D01*
X95841618Y-80940603D01*
X95839813Y-80955467D01*
X95787783Y-81239387D01*
X95784199Y-81253925D01*
X95698331Y-81529486D01*
X95693022Y-81543487D01*
X95574556Y-81806707D01*
X95567597Y-81819966D01*
X95418273Y-82066980D01*
X95409767Y-82079303D01*
X95231753Y-82306520D01*
X95221823Y-82317728D01*
X95017728Y-82521823D01*
X95006520Y-82531753D01*
X94779303Y-82709767D01*
X94766980Y-82718273D01*
X94519966Y-82867597D01*
X94506707Y-82874556D01*
X94243487Y-82993022D01*
X94229486Y-82998331D01*
X93953925Y-83084199D01*
X93939388Y-83087783D01*
X93863967Y-83101604D01*
X93835786Y-83106769D01*
X93813437Y-83108800D01*
X31916563Y-83108800D01*
X31894213Y-83106769D01*
X31860202Y-83100536D01*
X31790611Y-83087783D01*
X31776074Y-83084199D01*
X31500513Y-82998331D01*
X31486512Y-82993022D01*
X31223292Y-82874556D01*
X31210033Y-82867597D01*
X31047116Y-82769111D01*
X30963016Y-82718271D01*
X30950696Y-82709767D01*
X30723479Y-82531753D01*
X30712271Y-82521823D01*
X30508176Y-82317728D01*
X30498246Y-82306520D01*
X30385073Y-82162066D01*
X30320228Y-82079297D01*
X30311730Y-82066986D01*
X30162401Y-81819965D01*
X30155443Y-81806707D01*
X30036977Y-81543487D01*
X30031668Y-81529486D01*
X30028463Y-81519202D01*
X29945799Y-81253924D01*
X29942216Y-81239387D01*
X29890186Y-80955467D01*
X29888381Y-80940602D01*
X29886090Y-80902735D01*
X29870726Y-80648736D01*
X29870613Y-80645000D01*
X31029341Y-80645000D01*
X31049936Y-80880403D01*
X31049938Y-80880413D01*
X31111094Y-81108655D01*
X31111096Y-81108659D01*
X31111097Y-81108663D01*
X31161031Y-81215746D01*
X31210964Y-81322828D01*
X31210965Y-81322830D01*
X31346505Y-81516402D01*
X31513597Y-81683494D01*
X31707169Y-81819034D01*
X31707171Y-81819035D01*
X31921337Y-81918903D01*
X32149592Y-81980063D01*
X32326032Y-81995499D01*
X32326033Y-81995500D01*
X32326034Y-81995500D01*
X32443967Y-81995500D01*
X32443967Y-81995499D01*
X32620408Y-81980063D01*
X32848663Y-81918903D01*
X33062829Y-81819035D01*
X33256401Y-81683495D01*
X33423495Y-81516401D01*
X33463930Y-81458654D01*
X36763500Y-81458654D01*
X36770011Y-81519202D01*
X36770011Y-81519204D01*
X36810711Y-81628321D01*
X36821111Y-81656204D01*
X36908739Y-81773261D01*
X37025796Y-81860889D01*
X37140949Y-81903839D01*
X37157538Y-81910027D01*
X37162799Y-81911989D01*
X37190050Y-81914918D01*
X37223345Y-81918499D01*
X37223362Y-81918500D01*
X39320638Y-81918500D01*
X39320654Y-81918499D01*
X39347692Y-81915591D01*
X39381201Y-81911989D01*
X39518204Y-81860889D01*
X39635261Y-81773261D01*
X39722889Y-81656204D01*
X39773989Y-81519201D01*
X39777859Y-81483200D01*
X39780499Y-81458654D01*
X45563500Y-81458654D01*
X45570011Y-81519202D01*
X45570011Y-81519204D01*
X45610711Y-81628321D01*
X45621111Y-81656204D01*
X45708739Y-81773261D01*
X45825796Y-81860889D01*
X45940949Y-81903839D01*
X45957538Y-81910027D01*
X45962799Y-81911989D01*
X45990050Y-81914918D01*
X46023345Y-81918499D01*
X46023362Y-81918500D01*
X48120638Y-81918500D01*
X48120654Y-81918499D01*
X48147692Y-81915591D01*
X48181201Y-81911989D01*
X48318204Y-81860889D01*
X48435261Y-81773261D01*
X48522889Y-81656204D01*
X48573989Y-81519201D01*
X48577859Y-81483200D01*
X48580499Y-81458654D01*
X48580500Y-81458637D01*
X48580500Y-78861362D01*
X48580499Y-78861345D01*
X48575996Y-78819468D01*
X48573989Y-78800799D01*
X48567126Y-78782400D01*
X48533941Y-78693427D01*
X48522889Y-78663796D01*
X48435261Y-78546739D01*
X48318204Y-78459111D01*
X48181203Y-78408011D01*
X48120654Y-78401500D01*
X48120638Y-78401500D01*
X46023362Y-78401500D01*
X46023345Y-78401500D01*
X45962797Y-78408011D01*
X45962795Y-78408011D01*
X45825795Y-78459111D01*
X45708739Y-78546739D01*
X45621111Y-78663795D01*
X45570011Y-78800795D01*
X45570011Y-78800797D01*
X45563500Y-78861345D01*
X45563500Y-81458654D01*
X39780499Y-81458654D01*
X39780500Y-81458637D01*
X39780500Y-78861362D01*
X39780499Y-78861345D01*
X39775996Y-78819468D01*
X39773989Y-78800799D01*
X39767126Y-78782400D01*
X39733941Y-78693427D01*
X39722889Y-78663796D01*
X39635261Y-78546739D01*
X39518204Y-78459111D01*
X39381203Y-78408011D01*
X39320654Y-78401500D01*
X39320638Y-78401500D01*
X37223362Y-78401500D01*
X37223345Y-78401500D01*
X37162797Y-78408011D01*
X37162795Y-78408011D01*
X37025795Y-78459111D01*
X36908739Y-78546739D01*
X36821111Y-78663795D01*
X36770011Y-78800795D01*
X36770011Y-78800797D01*
X36763500Y-78861345D01*
X36763500Y-81458654D01*
X33463930Y-81458654D01*
X33559035Y-81322830D01*
X33658903Y-81108663D01*
X33720063Y-80880408D01*
X33740659Y-80645000D01*
X33720063Y-80409592D01*
X33663905Y-80200005D01*
X33658905Y-80181344D01*
X33658904Y-80181343D01*
X33658903Y-80181337D01*
X33559035Y-79967171D01*
X33559034Y-79967169D01*
X33423494Y-79773597D01*
X33256402Y-79606505D01*
X33062830Y-79470965D01*
X33062828Y-79470964D01*
X32934140Y-79410956D01*
X32848663Y-79371097D01*
X32848659Y-79371096D01*
X32848655Y-79371094D01*
X32620413Y-79309938D01*
X32620403Y-79309936D01*
X32443967Y-79294500D01*
X32443966Y-79294500D01*
X32326034Y-79294500D01*
X32326033Y-79294500D01*
X32149596Y-79309936D01*
X32149586Y-79309938D01*
X31921344Y-79371094D01*
X31921335Y-79371098D01*
X31707171Y-79470964D01*
X31707169Y-79470965D01*
X31513597Y-79606505D01*
X31346506Y-79773597D01*
X31346501Y-79773604D01*
X31210967Y-79967165D01*
X31210965Y-79967169D01*
X31111098Y-80181335D01*
X31111094Y-80181344D01*
X31049938Y-80409586D01*
X31049936Y-80409596D01*
X31029341Y-80644999D01*
X31029341Y-80645000D01*
X29870613Y-80645000D01*
X29870500Y-80641249D01*
X29870500Y-75686553D01*
X31636500Y-75686553D01*
X31647113Y-75790428D01*
X31702884Y-75958736D01*
X31702889Y-75958747D01*
X31795967Y-76109648D01*
X31795970Y-76109652D01*
X31921347Y-76235029D01*
X31921351Y-76235032D01*
X32072252Y-76328110D01*
X32072255Y-76328111D01*
X32072261Y-76328115D01*
X32240573Y-76383887D01*
X32344454Y-76394500D01*
X32344459Y-76394500D01*
X33695541Y-76394500D01*
X33695546Y-76394500D01*
X33799427Y-76383887D01*
X33967739Y-76328115D01*
X34118652Y-76235030D01*
X34244030Y-76109652D01*
X34337115Y-75958739D01*
X34337143Y-75958654D01*
X36763500Y-75958654D01*
X36770011Y-76019202D01*
X36770011Y-76019204D01*
X36819575Y-76152086D01*
X36821111Y-76156204D01*
X36908739Y-76273261D01*
X37025796Y-76360889D01*
X37138549Y-76402944D01*
X37162793Y-76411987D01*
X37162799Y-76411989D01*
X37190050Y-76414918D01*
X37223345Y-76418499D01*
X37223362Y-76418500D01*
X39320638Y-76418500D01*
X39320654Y-76418499D01*
X39347692Y-76415591D01*
X39381201Y-76411989D01*
X39381207Y-76411987D01*
X39405451Y-76402944D01*
X39518204Y-76360889D01*
X39635261Y-76273261D01*
X39722889Y-76156204D01*
X39773989Y-76019201D01*
X39777591Y-75985692D01*
X39780499Y-75958654D01*
X39780500Y-75958637D01*
X39780500Y-73361362D01*
X39780499Y-73361345D01*
X39777157Y-73330270D01*
X39773989Y-73300799D01*
X39771639Y-73294499D01*
X39743468Y-73218970D01*
X39722889Y-73163796D01*
X39635261Y-73046739D01*
X39518204Y-72959111D01*
X39381203Y-72908011D01*
X39320654Y-72901500D01*
X39320638Y-72901500D01*
X37223362Y-72901500D01*
X37223345Y-72901500D01*
X37162797Y-72908011D01*
X37162795Y-72908011D01*
X37025795Y-72959111D01*
X36908739Y-73046739D01*
X36821111Y-73163795D01*
X36770011Y-73300795D01*
X36770011Y-73300797D01*
X36763500Y-73361345D01*
X36763500Y-75958654D01*
X34337143Y-75958654D01*
X34338519Y-75954500D01*
X34378290Y-75897054D01*
X34442804Y-75870229D01*
X34456227Y-75869500D01*
X34916366Y-75869500D01*
X34932113Y-75871238D01*
X34932139Y-75870968D01*
X34939905Y-75871701D01*
X34939909Y-75871702D01*
X35008017Y-75869560D01*
X35011913Y-75869500D01*
X35039858Y-75869500D01*
X35039860Y-75869499D01*
X35041262Y-75869322D01*
X35043949Y-75868983D01*
X35055608Y-75868064D01*
X35099889Y-75866673D01*
X35119481Y-75860980D01*
X35138538Y-75857032D01*
X35158797Y-75854474D01*
X35200006Y-75838157D01*
X35211043Y-75834379D01*
X35253593Y-75822018D01*
X35271165Y-75811625D01*
X35288632Y-75803068D01*
X35307617Y-75795552D01*
X35343461Y-75769508D01*
X35353230Y-75763092D01*
X35391362Y-75740542D01*
X35405802Y-75726100D01*
X35420592Y-75713470D01*
X35437107Y-75701472D01*
X35465359Y-75667319D01*
X35473203Y-75658699D01*
X35948815Y-75183087D01*
X35961180Y-75173183D01*
X35961006Y-75172973D01*
X35967012Y-75168003D01*
X35967018Y-75168000D01*
X36013706Y-75118280D01*
X36016355Y-75115547D01*
X36036135Y-75095769D01*
X36038670Y-75092499D01*
X36046259Y-75083615D01*
X36049723Y-75079926D01*
X36076586Y-75051321D01*
X36086420Y-75033430D01*
X36097098Y-75017174D01*
X36109614Y-75001040D01*
X36127209Y-74960378D01*
X36132350Y-74949885D01*
X36137150Y-74941155D01*
X36153695Y-74911060D01*
X36158774Y-74891274D01*
X36165072Y-74872882D01*
X36173181Y-74854145D01*
X36180113Y-74810372D01*
X36182478Y-74798953D01*
X36193500Y-74756030D01*
X36193500Y-74735615D01*
X36195027Y-74716214D01*
X36196894Y-74704426D01*
X36198220Y-74696057D01*
X36194050Y-74651942D01*
X36193500Y-74640273D01*
X36193500Y-71941766D01*
X36213185Y-71874727D01*
X36229819Y-71854085D01*
X36294085Y-71789819D01*
X36355408Y-71756334D01*
X36381766Y-71753500D01*
X40314500Y-71753500D01*
X40381539Y-71773185D01*
X40427294Y-71825989D01*
X40438500Y-71877500D01*
X40438500Y-73032503D01*
X40418815Y-73099542D01*
X40413767Y-73106813D01*
X40371112Y-73163793D01*
X40371111Y-73163793D01*
X40320011Y-73300795D01*
X40320011Y-73300797D01*
X40313500Y-73361345D01*
X40313500Y-75958654D01*
X40320011Y-76019202D01*
X40320011Y-76019204D01*
X40369575Y-76152086D01*
X40371111Y-76156204D01*
X40458739Y-76273261D01*
X40542860Y-76336233D01*
X40584731Y-76392167D01*
X40589715Y-76461859D01*
X40556230Y-76523182D01*
X40494907Y-76556666D01*
X40468549Y-76559500D01*
X40429626Y-76559500D01*
X40303131Y-76574859D01*
X40303125Y-76574860D01*
X40144068Y-76635182D01*
X40004072Y-76731816D01*
X39891263Y-76859150D01*
X39812210Y-77009773D01*
X39771733Y-77173999D01*
X39771500Y-77174944D01*
X39771500Y-77345056D01*
X39786607Y-77406348D01*
X39812210Y-77510226D01*
X39891263Y-77660849D01*
X39891266Y-77660852D01*
X40004071Y-77788183D01*
X40063865Y-77829456D01*
X40144068Y-77884817D01*
X40144069Y-77884817D01*
X40144070Y-77884818D01*
X40303128Y-77945140D01*
X40379028Y-77954356D01*
X40429626Y-77960500D01*
X40429628Y-77960500D01*
X40514374Y-77960500D01*
X40556538Y-77955380D01*
X40640872Y-77945140D01*
X40799930Y-77884818D01*
X40939929Y-77788183D01*
X41052734Y-77660852D01*
X41060831Y-77645426D01*
X41131789Y-77510226D01*
X41131790Y-77510225D01*
X41172500Y-77345056D01*
X44171500Y-77345056D01*
X44186607Y-77406348D01*
X44212210Y-77510226D01*
X44291263Y-77660849D01*
X44291266Y-77660852D01*
X44404071Y-77788183D01*
X44463865Y-77829456D01*
X44544068Y-77884817D01*
X44544069Y-77884817D01*
X44544070Y-77884818D01*
X44703128Y-77945140D01*
X44779028Y-77954356D01*
X44829626Y-77960500D01*
X44829628Y-77960500D01*
X44914374Y-77960500D01*
X44956538Y-77955380D01*
X45040872Y-77945140D01*
X45199930Y-77884818D01*
X45339929Y-77788183D01*
X45452734Y-77660852D01*
X45460831Y-77645426D01*
X45531789Y-77510226D01*
X45531790Y-77510225D01*
X45551317Y-77431000D01*
X54147000Y-77431000D01*
X55122000Y-77431000D01*
X55122000Y-76593500D01*
X55622000Y-76593500D01*
X55622000Y-77431000D01*
X56596999Y-77431000D01*
X56596999Y-77293528D01*
X56596998Y-77293513D01*
X56586505Y-77190802D01*
X56531358Y-77024380D01*
X56531356Y-77024375D01*
X56439315Y-76875154D01*
X56315345Y-76751184D01*
X56166124Y-76659143D01*
X56166119Y-76659141D01*
X55999697Y-76603994D01*
X55999690Y-76603993D01*
X55896986Y-76593500D01*
X55622000Y-76593500D01*
X55122000Y-76593500D01*
X54847029Y-76593500D01*
X54847012Y-76593501D01*
X54744302Y-76603994D01*
X54577880Y-76659141D01*
X54577875Y-76659143D01*
X54428654Y-76751184D01*
X54304684Y-76875154D01*
X54212643Y-77024375D01*
X54212641Y-77024380D01*
X54157494Y-77190802D01*
X54157493Y-77190809D01*
X54147000Y-77293513D01*
X54147000Y-77431000D01*
X45551317Y-77431000D01*
X45572500Y-77345056D01*
X45572500Y-77174944D01*
X45531790Y-77009775D01*
X45529503Y-77005418D01*
X45452736Y-76859150D01*
X45395181Y-76794184D01*
X45339929Y-76731817D01*
X45290177Y-76697475D01*
X45199931Y-76635182D01*
X45040874Y-76574860D01*
X45040868Y-76574859D01*
X44914374Y-76559500D01*
X44914372Y-76559500D01*
X44861269Y-76559500D01*
X44794230Y-76539815D01*
X44748475Y-76487011D01*
X44738531Y-76417853D01*
X44767556Y-76354297D01*
X44786958Y-76336234D01*
X44879187Y-76267190D01*
X44879190Y-76267187D01*
X44965350Y-76152093D01*
X44965354Y-76152086D01*
X45015596Y-76017379D01*
X45015598Y-76017372D01*
X45021912Y-75958654D01*
X45563500Y-75958654D01*
X45570011Y-76019202D01*
X45570011Y-76019204D01*
X45619575Y-76152086D01*
X45621111Y-76156204D01*
X45708739Y-76273261D01*
X45825796Y-76360889D01*
X45938549Y-76402944D01*
X45962793Y-76411987D01*
X45962799Y-76411989D01*
X45990050Y-76414918D01*
X46023345Y-76418499D01*
X46023362Y-76418500D01*
X48120638Y-76418500D01*
X48120654Y-76418499D01*
X48147692Y-76415591D01*
X48181201Y-76411989D01*
X48181207Y-76411987D01*
X48205451Y-76402944D01*
X48318204Y-76360889D01*
X48435261Y-76273261D01*
X48522889Y-76156204D01*
X48573989Y-76019201D01*
X48577591Y-75985692D01*
X48580499Y-75958654D01*
X48580500Y-75958637D01*
X48580500Y-73361362D01*
X48580499Y-73361345D01*
X48577157Y-73330270D01*
X48573989Y-73300799D01*
X48571639Y-73294499D01*
X48543468Y-73218970D01*
X48522889Y-73163796D01*
X48435261Y-73046739D01*
X48318204Y-72959111D01*
X48181203Y-72908011D01*
X48120654Y-72901500D01*
X48120638Y-72901500D01*
X46023362Y-72901500D01*
X46023345Y-72901500D01*
X45962797Y-72908011D01*
X45962795Y-72908011D01*
X45825795Y-72959111D01*
X45708739Y-73046739D01*
X45621111Y-73163795D01*
X45570011Y-73300795D01*
X45570011Y-73300797D01*
X45563500Y-73361345D01*
X45563500Y-75958654D01*
X45021912Y-75958654D01*
X45021999Y-75957844D01*
X45022000Y-75957827D01*
X45022000Y-74910000D01*
X44522000Y-74910000D01*
X44522000Y-76410000D01*
X44558319Y-76446319D01*
X44555911Y-76448726D01*
X44585166Y-76482489D01*
X44595110Y-76551647D01*
X44566085Y-76615203D01*
X44542814Y-76636048D01*
X44404071Y-76731817D01*
X44404070Y-76731818D01*
X44291263Y-76859150D01*
X44212210Y-77009773D01*
X44171733Y-77173999D01*
X44171500Y-77174944D01*
X44171500Y-77345056D01*
X41172500Y-77345056D01*
X41172500Y-77174944D01*
X41131790Y-77009775D01*
X41129503Y-77005418D01*
X41052736Y-76859150D01*
X40995181Y-76794184D01*
X40939929Y-76731817D01*
X40813502Y-76644550D01*
X40769511Y-76590267D01*
X40761852Y-76520818D01*
X40792956Y-76458253D01*
X40852947Y-76422436D01*
X40883942Y-76418500D01*
X41370638Y-76418500D01*
X41370654Y-76418499D01*
X41429396Y-76412183D01*
X41431201Y-76411989D01*
X41431202Y-76411988D01*
X41438751Y-76410205D01*
X41439218Y-76412183D01*
X41498334Y-76407944D01*
X41509272Y-76411155D01*
X41512799Y-76411989D01*
X41573345Y-76418499D01*
X41573362Y-76418500D01*
X42170638Y-76418500D01*
X42170654Y-76418499D01*
X42229396Y-76412183D01*
X42231201Y-76411989D01*
X42231202Y-76411988D01*
X42238751Y-76410205D01*
X42239218Y-76412183D01*
X42298334Y-76407944D01*
X42309272Y-76411155D01*
X42312799Y-76411989D01*
X42373345Y-76418499D01*
X42373362Y-76418500D01*
X42970638Y-76418500D01*
X42970654Y-76418499D01*
X43029396Y-76412183D01*
X43031201Y-76411989D01*
X43031202Y-76411988D01*
X43038751Y-76410205D01*
X43039218Y-76412183D01*
X43098334Y-76407944D01*
X43109272Y-76411155D01*
X43112799Y-76411989D01*
X43173345Y-76418499D01*
X43173362Y-76418500D01*
X43770638Y-76418500D01*
X43770654Y-76418499D01*
X43808560Y-76414423D01*
X43831201Y-76411989D01*
X43842080Y-76407930D01*
X43906855Y-76403295D01*
X43906912Y-76402769D01*
X43909831Y-76403082D01*
X43911772Y-76402944D01*
X43913939Y-76403436D01*
X43914626Y-76403598D01*
X43974155Y-76409999D01*
X43974172Y-76410000D01*
X44022000Y-76410000D01*
X44022000Y-76382687D01*
X44041685Y-76315648D01*
X44071690Y-76283419D01*
X44085261Y-76273261D01*
X44172889Y-76156204D01*
X44223989Y-76019201D01*
X44227591Y-75985692D01*
X44230499Y-75958654D01*
X44230500Y-75958637D01*
X44230500Y-73361362D01*
X44230499Y-73361345D01*
X44227157Y-73330270D01*
X44223989Y-73300799D01*
X44221639Y-73294499D01*
X44193468Y-73218970D01*
X44172889Y-73163796D01*
X44085261Y-73046739D01*
X44085259Y-73046738D01*
X44085259Y-73046737D01*
X44071687Y-73036577D01*
X44029817Y-72980642D01*
X44022000Y-72937312D01*
X44022000Y-72910000D01*
X44522000Y-72910000D01*
X44522000Y-74410000D01*
X45022000Y-74410000D01*
X45022000Y-73362172D01*
X45021999Y-73362155D01*
X45015598Y-73302627D01*
X45015596Y-73302620D01*
X44965354Y-73167913D01*
X44965350Y-73167906D01*
X44879190Y-73052812D01*
X44879187Y-73052809D01*
X44764093Y-72966649D01*
X44764086Y-72966645D01*
X44629379Y-72916403D01*
X44629372Y-72916401D01*
X44569844Y-72910000D01*
X44522000Y-72910000D01*
X44022000Y-72910000D01*
X43974155Y-72910000D01*
X43914617Y-72916402D01*
X43913917Y-72916568D01*
X43913358Y-72916537D01*
X43906913Y-72917231D01*
X43906800Y-72916185D01*
X43844148Y-72912819D01*
X43842087Y-72912071D01*
X43831201Y-72908011D01*
X43831199Y-72908010D01*
X43770654Y-72901500D01*
X43770638Y-72901500D01*
X43409750Y-72901500D01*
X43342711Y-72881815D01*
X43296956Y-72829011D01*
X43289070Y-72792761D01*
X43286811Y-72793059D01*
X43281031Y-72749157D01*
X43281027Y-72749123D01*
X43280500Y-72745120D01*
X43280500Y-72745115D01*
X43264838Y-72626150D01*
X43216536Y-72509539D01*
X43203526Y-72478129D01*
X43203523Y-72478124D01*
X43143067Y-72399336D01*
X43143066Y-72399335D01*
X43131120Y-72383766D01*
X43105930Y-72318598D01*
X43105500Y-72308285D01*
X43105500Y-70166804D01*
X43106561Y-70150618D01*
X43110750Y-70118800D01*
X43106031Y-70082957D01*
X43106027Y-70082923D01*
X43105500Y-70078920D01*
X43105500Y-70078915D01*
X43089838Y-69959950D01*
X43039390Y-69838157D01*
X43028524Y-69811924D01*
X43028523Y-69811922D01*
X42953006Y-69713508D01*
X42930986Y-69684811D01*
X42905520Y-69665271D01*
X42893325Y-69654576D01*
X42467949Y-69229200D01*
X42434464Y-69167877D01*
X42432691Y-69125338D01*
X42439809Y-69071270D01*
X42450349Y-68992631D01*
X42446123Y-68959941D01*
X42445100Y-68944043D01*
X42445100Y-68614911D01*
X42446161Y-68598725D01*
X42450351Y-68566899D01*
X42429438Y-68408051D01*
X42429436Y-68408046D01*
X42413629Y-68369885D01*
X42375192Y-68277088D01*
X42368126Y-68260029D01*
X42368126Y-68260028D01*
X42366459Y-68257855D01*
X42270587Y-68132913D01*
X42238670Y-68108422D01*
X42143476Y-68035376D01*
X42143474Y-68035374D01*
X41995453Y-67974063D01*
X41995448Y-67974061D01*
X41836601Y-67953149D01*
X41836600Y-67953149D01*
X41804773Y-67957339D01*
X41788589Y-67958400D01*
X41460312Y-67958400D01*
X41444127Y-67957339D01*
X41412301Y-67953149D01*
X41412299Y-67953149D01*
X41278165Y-67970808D01*
X41209130Y-67960042D01*
X41174299Y-67935550D01*
X40493819Y-67255070D01*
X40460334Y-67193747D01*
X40457500Y-67167389D01*
X40457500Y-66672500D01*
X40477185Y-66605461D01*
X40529989Y-66559706D01*
X40581500Y-66548500D01*
X41996527Y-66548500D01*
X42061519Y-66567584D01*
X42061590Y-66567462D01*
X42062093Y-66567752D01*
X42063566Y-66568185D01*
X42066892Y-66570523D01*
X42068623Y-66571522D01*
X42068625Y-66571524D01*
X42068626Y-66571524D01*
X42068629Y-66571526D01*
X42142637Y-66602181D01*
X42216650Y-66632838D01*
X42335615Y-66648500D01*
X42335620Y-66648500D01*
X42339623Y-66649027D01*
X42339641Y-66649029D01*
X42361845Y-66651952D01*
X42375499Y-66653750D01*
X42375500Y-66653750D01*
X42375501Y-66653750D01*
X42407320Y-66649561D01*
X42423505Y-66648500D01*
X42435503Y-66648500D01*
X42502542Y-66668185D01*
X42509813Y-66673233D01*
X42566793Y-66715887D01*
X42566793Y-66715888D01*
X42566796Y-66715889D01*
X42703799Y-66766989D01*
X42731050Y-66769918D01*
X42764345Y-66773499D01*
X42764362Y-66773500D01*
X44611638Y-66773500D01*
X44611654Y-66773499D01*
X44638692Y-66770591D01*
X44672201Y-66766989D01*
X44809204Y-66715889D01*
X44926261Y-66628261D01*
X45013889Y-66511204D01*
X45064989Y-66374201D01*
X45071375Y-66314804D01*
X45071499Y-66313654D01*
X45071500Y-66313637D01*
X45071500Y-65766362D01*
X45071498Y-65766343D01*
X45067404Y-65728255D01*
X45067404Y-65701745D01*
X45071498Y-65663656D01*
X45071500Y-65663637D01*
X45071500Y-65497500D01*
X45091185Y-65430461D01*
X45143989Y-65384706D01*
X45195500Y-65373500D01*
X46936366Y-65373500D01*
X46952113Y-65375238D01*
X46952139Y-65374968D01*
X46959905Y-65375701D01*
X46959909Y-65375702D01*
X47028017Y-65373560D01*
X47031913Y-65373500D01*
X47059858Y-65373500D01*
X47059860Y-65373499D01*
X47061262Y-65373322D01*
X47063949Y-65372983D01*
X47075608Y-65372064D01*
X47119889Y-65370673D01*
X47139481Y-65364980D01*
X47158538Y-65361032D01*
X47178797Y-65358474D01*
X47220006Y-65342157D01*
X47231043Y-65338379D01*
X47273593Y-65326018D01*
X47291165Y-65315625D01*
X47308632Y-65307068D01*
X47327617Y-65299552D01*
X47363461Y-65273508D01*
X47373230Y-65267092D01*
X47395502Y-65253921D01*
X47411362Y-65244542D01*
X47425802Y-65230100D01*
X47440592Y-65217470D01*
X47457107Y-65205472D01*
X47485359Y-65171319D01*
X47493205Y-65162697D01*
X47515587Y-65140316D01*
X47576911Y-65106832D01*
X47603266Y-65103999D01*
X48277537Y-65103999D01*
X48277544Y-65103999D01*
X48381426Y-65093387D01*
X48430083Y-65077263D01*
X48499908Y-65074862D01*
X48559950Y-65110593D01*
X48588163Y-65160379D01*
X48588426Y-65161287D01*
X48588427Y-65161289D01*
X48588833Y-65162686D01*
X48594123Y-65180896D01*
X48598067Y-65199942D01*
X48600626Y-65220197D01*
X48600627Y-65220200D01*
X48600628Y-65220204D01*
X48616938Y-65261400D01*
X48620721Y-65272449D01*
X48633081Y-65314992D01*
X48643472Y-65332562D01*
X48652032Y-65350035D01*
X48659547Y-65369017D01*
X48685591Y-65404863D01*
X48692005Y-65414627D01*
X48713612Y-65451163D01*
X48714558Y-65452762D01*
X48714562Y-65452766D01*
X48728989Y-65467193D01*
X48741626Y-65481988D01*
X48753628Y-65498507D01*
X48774007Y-65515366D01*
X48787768Y-65526750D01*
X48796409Y-65534613D01*
X58109512Y-74847717D01*
X58119416Y-74860078D01*
X58119626Y-74859905D01*
X58124597Y-74865913D01*
X58124600Y-74865918D01*
X58174285Y-74912575D01*
X58177049Y-74915254D01*
X58196823Y-74935029D01*
X58196827Y-74935032D01*
X58196830Y-74935035D01*
X58200112Y-74937581D01*
X58208972Y-74945149D01*
X58241279Y-74975486D01*
X58241281Y-74975487D01*
X58259162Y-74985317D01*
X58275429Y-74996002D01*
X58291560Y-75008515D01*
X58311547Y-75017163D01*
X58332225Y-75026110D01*
X58342704Y-75031244D01*
X58381540Y-75052595D01*
X58401316Y-75057672D01*
X58419723Y-75063974D01*
X58438455Y-75072081D01*
X58482230Y-75079013D01*
X58493645Y-75081378D01*
X58536570Y-75092400D01*
X58556984Y-75092400D01*
X58576383Y-75093927D01*
X58596543Y-75097120D01*
X58640657Y-75092950D01*
X58652326Y-75092400D01*
X60650391Y-75092400D01*
X60717430Y-75112085D01*
X60742540Y-75133427D01*
X60746447Y-75137766D01*
X60900948Y-75250018D01*
X61075412Y-75327694D01*
X61262213Y-75367400D01*
X61453187Y-75367400D01*
X61639988Y-75327694D01*
X61814452Y-75250018D01*
X61968953Y-75137766D01*
X62096740Y-74995844D01*
X62192227Y-74830456D01*
X62251242Y-74648828D01*
X62271204Y-74458900D01*
X62251242Y-74268972D01*
X62192227Y-74087344D01*
X62096740Y-73921956D01*
X61968953Y-73780034D01*
X61814452Y-73667782D01*
X61639988Y-73590106D01*
X61639986Y-73590105D01*
X61453187Y-73550400D01*
X61262213Y-73550400D01*
X61075414Y-73590105D01*
X61075412Y-73590106D01*
X60910400Y-73663574D01*
X60900946Y-73667783D01*
X60746445Y-73780035D01*
X60742540Y-73784373D01*
X60683054Y-73821021D01*
X60650391Y-73825400D01*
X58930366Y-73825400D01*
X58863327Y-73805715D01*
X58842685Y-73789081D01*
X58034067Y-72980463D01*
X58000582Y-72919140D01*
X58005566Y-72849448D01*
X58047438Y-72793515D01*
X58050585Y-72791234D01*
X58191003Y-72692913D01*
X58341913Y-72542003D01*
X58464326Y-72367180D01*
X58554521Y-72173755D01*
X58554523Y-72173746D01*
X58556375Y-72168661D01*
X58557708Y-72169146D01*
X58590590Y-72115200D01*
X58653436Y-72084671D01*
X58722812Y-72092965D01*
X58776690Y-72137451D01*
X58791040Y-72168873D01*
X58791625Y-72168661D01*
X58793481Y-72173761D01*
X58848384Y-72291500D01*
X58883674Y-72367180D01*
X59006087Y-72542003D01*
X59156997Y-72692913D01*
X59331820Y-72815326D01*
X59448188Y-72869589D01*
X59525238Y-72905518D01*
X59525240Y-72905518D01*
X59525245Y-72905521D01*
X59525250Y-72905522D01*
X59525252Y-72905523D01*
X59565850Y-72916401D01*
X59731392Y-72960758D01*
X59901478Y-72975638D01*
X59943999Y-72979359D01*
X59944000Y-72979359D01*
X59944001Y-72979359D01*
X59979434Y-72976258D01*
X60156608Y-72960758D01*
X60362755Y-72905521D01*
X60556180Y-72815326D01*
X60731003Y-72692913D01*
X60881913Y-72542003D01*
X61004326Y-72367180D01*
X61094521Y-72173755D01*
X61098623Y-72158444D01*
X61134986Y-72098783D01*
X61197832Y-72068252D01*
X61267208Y-72076544D01*
X61321087Y-72121028D01*
X61338174Y-72158440D01*
X61341494Y-72170831D01*
X61341497Y-72170838D01*
X61431062Y-72362912D01*
X61431063Y-72362914D01*
X61468733Y-72416712D01*
X61468734Y-72416713D01*
X62086046Y-71799400D01*
X62098835Y-71880148D01*
X62156359Y-71993045D01*
X62245955Y-72082641D01*
X62358852Y-72140165D01*
X62439597Y-72152953D01*
X61822285Y-72770265D01*
X61876087Y-72807937D01*
X62068161Y-72897502D01*
X62068170Y-72897506D01*
X62272868Y-72952354D01*
X62272879Y-72952356D01*
X62483998Y-72970827D01*
X62484002Y-72970827D01*
X62695120Y-72952356D01*
X62695127Y-72952355D01*
X62793941Y-72925878D01*
X62863791Y-72927541D01*
X62921654Y-72966703D01*
X62949158Y-73030932D01*
X62949356Y-73058614D01*
X62941325Y-73135030D01*
X62934496Y-73200000D01*
X62954458Y-73389928D01*
X62954459Y-73389931D01*
X63013470Y-73571549D01*
X63013473Y-73571556D01*
X63108960Y-73736944D01*
X63236747Y-73878866D01*
X63391248Y-73991118D01*
X63565712Y-74068794D01*
X63752513Y-74108500D01*
X63943487Y-74108500D01*
X64130288Y-74068794D01*
X64304752Y-73991118D01*
X64459253Y-73878866D01*
X64463160Y-73874527D01*
X64522646Y-73837879D01*
X64555309Y-73833500D01*
X77407500Y-73833500D01*
X77474539Y-73853185D01*
X77520294Y-73905989D01*
X77531500Y-73957500D01*
X77531500Y-74600537D01*
X77531501Y-74600553D01*
X77542113Y-74704427D01*
X77597884Y-74872735D01*
X77597886Y-74872740D01*
X77621522Y-74911060D01*
X77690970Y-75023652D01*
X77816348Y-75149030D01*
X77967262Y-75242115D01*
X78021502Y-75260088D01*
X78078947Y-75299858D01*
X78105772Y-75364374D01*
X78106500Y-75377794D01*
X78106500Y-77052205D01*
X78086815Y-77119244D01*
X78034011Y-77164999D01*
X78021511Y-77169908D01*
X77994344Y-77178911D01*
X77967262Y-77187885D01*
X77967259Y-77187886D01*
X77816346Y-77280971D01*
X77690971Y-77406346D01*
X77597886Y-77557259D01*
X77597884Y-77557264D01*
X77542113Y-77725572D01*
X77531500Y-77829447D01*
X77531500Y-77829455D01*
X77531500Y-78184240D01*
X77531501Y-78472500D01*
X77511817Y-78539539D01*
X77459013Y-78585294D01*
X77407501Y-78596500D01*
X75428366Y-78596500D01*
X75361327Y-78576815D01*
X75340685Y-78560181D01*
X75196451Y-78415947D01*
X75029587Y-78249082D01*
X75019680Y-78236716D01*
X75019471Y-78236890D01*
X75014503Y-78230884D01*
X74964831Y-78184240D01*
X74962033Y-78181528D01*
X74942266Y-78161761D01*
X74939004Y-78159231D01*
X74930119Y-78151643D01*
X74897821Y-78121314D01*
X74897819Y-78121312D01*
X74879931Y-78111478D01*
X74863670Y-78100797D01*
X74847539Y-78088284D01*
X74806875Y-78070688D01*
X74796385Y-78065549D01*
X74757560Y-78044205D01*
X74757556Y-78044204D01*
X74737787Y-78039128D01*
X74719381Y-78032826D01*
X74700644Y-78024718D01*
X74700645Y-78024718D01*
X74656883Y-78017787D01*
X74645447Y-78015419D01*
X74630693Y-78011631D01*
X74602532Y-78004400D01*
X74602530Y-78004400D01*
X74582116Y-78004400D01*
X74562717Y-78002873D01*
X74542558Y-77999680D01*
X74542557Y-77999680D01*
X74498443Y-78003850D01*
X74486774Y-78004400D01*
X72426762Y-78004400D01*
X72359723Y-77984715D01*
X72346426Y-77974000D01*
X69890080Y-77974000D01*
X69839597Y-78001566D01*
X69813239Y-78004400D01*
X69008667Y-78004400D01*
X68941628Y-77984715D01*
X68920986Y-77968081D01*
X68426905Y-77474000D01*
X69895000Y-77474000D01*
X70870000Y-77474000D01*
X70870000Y-76636500D01*
X71370000Y-76636500D01*
X71370000Y-77474000D01*
X72344999Y-77474000D01*
X72344999Y-77336528D01*
X72344998Y-77336513D01*
X72334505Y-77233802D01*
X72279358Y-77067380D01*
X72279356Y-77067375D01*
X72187315Y-76918154D01*
X72063345Y-76794184D01*
X71914124Y-76702143D01*
X71914119Y-76702141D01*
X71747697Y-76646994D01*
X71747690Y-76646993D01*
X71644986Y-76636500D01*
X71370000Y-76636500D01*
X70870000Y-76636500D01*
X70595029Y-76636500D01*
X70595012Y-76636501D01*
X70492302Y-76646994D01*
X70325880Y-76702141D01*
X70325875Y-76702143D01*
X70176654Y-76794184D01*
X70052684Y-76918154D01*
X69960643Y-77067375D01*
X69960641Y-77067380D01*
X69905494Y-77233802D01*
X69905493Y-77233809D01*
X69895000Y-77336513D01*
X69895000Y-77474000D01*
X68426905Y-77474000D01*
X68204888Y-77251983D01*
X68194987Y-77239623D01*
X68194777Y-77239798D01*
X68189801Y-77233784D01*
X68189800Y-77233782D01*
X68140115Y-77187125D01*
X68137350Y-77184445D01*
X68117566Y-77164661D01*
X68114304Y-77162131D01*
X68105419Y-77154543D01*
X68101375Y-77150746D01*
X68073121Y-77124214D01*
X68073119Y-77124212D01*
X68055231Y-77114378D01*
X68038970Y-77103697D01*
X68022839Y-77091184D01*
X67982175Y-77073588D01*
X67971685Y-77068449D01*
X67932860Y-77047105D01*
X67932856Y-77047104D01*
X67913087Y-77042028D01*
X67894681Y-77035726D01*
X67875944Y-77027618D01*
X67875945Y-77027618D01*
X67832183Y-77020687D01*
X67820747Y-77018319D01*
X67805993Y-77014531D01*
X67777832Y-77007300D01*
X67777830Y-77007300D01*
X67757416Y-77007300D01*
X67738017Y-77005773D01*
X67717858Y-77002580D01*
X67717857Y-77002580D01*
X67673743Y-77006750D01*
X67662074Y-77007300D01*
X58736532Y-77007300D01*
X58720777Y-77005560D01*
X58720752Y-77005832D01*
X58705222Y-77004363D01*
X58705279Y-77003751D01*
X58688780Y-77002277D01*
X58515287Y-76965400D01*
X58324313Y-76965400D01*
X58137514Y-77005105D01*
X58127025Y-77009775D01*
X58043183Y-77047104D01*
X57963046Y-77082783D01*
X57808545Y-77195035D01*
X57680759Y-77336957D01*
X57585273Y-77502343D01*
X57585270Y-77502350D01*
X57549516Y-77612391D01*
X57526258Y-77683972D01*
X57506296Y-77873900D01*
X57526258Y-78063828D01*
X57526259Y-78063831D01*
X57585270Y-78245449D01*
X57585273Y-78245456D01*
X57680760Y-78410844D01*
X57808547Y-78552766D01*
X57963048Y-78665018D01*
X58137512Y-78742694D01*
X58324313Y-78782400D01*
X58515287Y-78782400D01*
X58702088Y-78742694D01*
X58876552Y-78665018D01*
X59031053Y-78552766D01*
X59158840Y-78410844D01*
X59201878Y-78336299D01*
X59252445Y-78288085D01*
X59309265Y-78274300D01*
X59820289Y-78274300D01*
X59887328Y-78293985D01*
X59933083Y-78346789D01*
X59943027Y-78415947D01*
X59940064Y-78430394D01*
X59915885Y-78520627D01*
X59915884Y-78520634D01*
X59896693Y-78739997D01*
X59896693Y-78740002D01*
X59915884Y-78959365D01*
X59915886Y-78959375D01*
X59917771Y-78966410D01*
X59916106Y-79036260D01*
X59876942Y-79094121D01*
X59812712Y-79121624D01*
X59797995Y-79122500D01*
X56624814Y-79122500D01*
X56557775Y-79102815D01*
X56519276Y-79063597D01*
X56446032Y-78944851D01*
X56446029Y-78944847D01*
X56320651Y-78819469D01*
X56319963Y-78819045D01*
X56319590Y-78818630D01*
X56314985Y-78814989D01*
X56315607Y-78814202D01*
X56273238Y-78767098D01*
X56262015Y-78698135D01*
X56289858Y-78634053D01*
X56310423Y-78616242D01*
X56309677Y-78615298D01*
X56315344Y-78610816D01*
X56439315Y-78486845D01*
X56531356Y-78337624D01*
X56531358Y-78337619D01*
X56586505Y-78171197D01*
X56586506Y-78171190D01*
X56596999Y-78068486D01*
X56597000Y-78068473D01*
X56597000Y-77931000D01*
X54147001Y-77931000D01*
X54147001Y-78068486D01*
X54157494Y-78171197D01*
X54212641Y-78337619D01*
X54212643Y-78337624D01*
X54304684Y-78486845D01*
X54428655Y-78610816D01*
X54434323Y-78615298D01*
X54432592Y-78617486D01*
X54470749Y-78659890D01*
X54481987Y-78728850D01*
X54454158Y-78792938D01*
X54428894Y-78814836D01*
X54429015Y-78814989D01*
X54425627Y-78817667D01*
X54424043Y-78819041D01*
X54423350Y-78819468D01*
X54423347Y-78819470D01*
X54297971Y-78944846D01*
X54204886Y-79095759D01*
X54204884Y-79095764D01*
X54149113Y-79264072D01*
X54138500Y-79367947D01*
X54138500Y-80144037D01*
X54138501Y-80144053D01*
X54149113Y-80247927D01*
X54204884Y-80416235D01*
X54204886Y-80416240D01*
X54215255Y-80433050D01*
X54297970Y-80567152D01*
X54423348Y-80692530D01*
X54574262Y-80785615D01*
X54742574Y-80841387D01*
X54846455Y-80852000D01*
X55897544Y-80851999D01*
X56001426Y-80841387D01*
X56169738Y-80785615D01*
X56320652Y-80692530D01*
X56446030Y-80567152D01*
X56492753Y-80491403D01*
X56519276Y-80448403D01*
X56571224Y-80401678D01*
X56624814Y-80389500D01*
X60060366Y-80389500D01*
X60076113Y-80391238D01*
X60076139Y-80390968D01*
X60083905Y-80391701D01*
X60083909Y-80391702D01*
X60152017Y-80389560D01*
X60155913Y-80389500D01*
X60183858Y-80389500D01*
X60183860Y-80389499D01*
X60185262Y-80389322D01*
X60187949Y-80388983D01*
X60199608Y-80388064D01*
X60243889Y-80386673D01*
X60263481Y-80380980D01*
X60282538Y-80377032D01*
X60302797Y-80374474D01*
X60344006Y-80358157D01*
X60355043Y-80354379D01*
X60397593Y-80342018D01*
X60415165Y-80331625D01*
X60432632Y-80323068D01*
X60451617Y-80315552D01*
X60487461Y-80289508D01*
X60497230Y-80283092D01*
X60535362Y-80260542D01*
X60549802Y-80246100D01*
X60564592Y-80233470D01*
X60581107Y-80221472D01*
X60609359Y-80187319D01*
X60617203Y-80178699D01*
X60788394Y-80007508D01*
X60849715Y-79974025D01*
X60908168Y-79975416D01*
X60940629Y-79984115D01*
X61121614Y-79999948D01*
X61159998Y-80003307D01*
X61160000Y-80003307D01*
X61160002Y-80003307D01*
X61214842Y-79998509D01*
X61379371Y-79984115D01*
X61592076Y-79927120D01*
X61791654Y-79834056D01*
X61972038Y-79707749D01*
X62127749Y-79552038D01*
X62254056Y-79371654D01*
X62347120Y-79172076D01*
X62404115Y-78959371D01*
X62422033Y-78754563D01*
X62423307Y-78740002D01*
X62423307Y-78739997D01*
X62412005Y-78610816D01*
X62404115Y-78520629D01*
X62379936Y-78430393D01*
X62381599Y-78360544D01*
X62420761Y-78302681D01*
X62484990Y-78275177D01*
X62499711Y-78274300D01*
X64700289Y-78274300D01*
X64767328Y-78293985D01*
X64813083Y-78346789D01*
X64823027Y-78415947D01*
X64820064Y-78430394D01*
X64795885Y-78520627D01*
X64795884Y-78520634D01*
X64776693Y-78739997D01*
X64776693Y-78740002D01*
X64795884Y-78959365D01*
X64795885Y-78959372D01*
X64810162Y-79012652D01*
X64852880Y-79172076D01*
X64852881Y-79172079D01*
X64852882Y-79172081D01*
X64926972Y-79330969D01*
X64945944Y-79371654D01*
X65072251Y-79552038D01*
X65227962Y-79707749D01*
X65408346Y-79834056D01*
X65607924Y-79927120D01*
X65820629Y-79984115D01*
X65977322Y-79997823D01*
X66039998Y-80003307D01*
X66040000Y-80003307D01*
X66040002Y-80003307D01*
X66070405Y-80000646D01*
X66259371Y-79984115D01*
X66291830Y-79975417D01*
X66361678Y-79977078D01*
X66411606Y-80007510D01*
X66591910Y-80187814D01*
X66601816Y-80200178D01*
X66602026Y-80200005D01*
X66606997Y-80206013D01*
X66607000Y-80206018D01*
X66656701Y-80252690D01*
X66659465Y-80255369D01*
X66679230Y-80275134D01*
X66682504Y-80277673D01*
X66691370Y-80285247D01*
X66723678Y-80315586D01*
X66741567Y-80325420D01*
X66757833Y-80336104D01*
X66773959Y-80348613D01*
X66814616Y-80366207D01*
X66825107Y-80371346D01*
X66863940Y-80392695D01*
X66883718Y-80397773D01*
X66902119Y-80404073D01*
X66920855Y-80412181D01*
X66964630Y-80419113D01*
X66976045Y-80421478D01*
X67018970Y-80432500D01*
X67039384Y-80432500D01*
X67058783Y-80434027D01*
X67078943Y-80437220D01*
X67123057Y-80433050D01*
X67134726Y-80432500D01*
X69867186Y-80432500D01*
X69934225Y-80452185D01*
X69972724Y-80491403D01*
X70045967Y-80610148D01*
X70045970Y-80610152D01*
X70171348Y-80735530D01*
X70322262Y-80828615D01*
X70490574Y-80884387D01*
X70594455Y-80895000D01*
X71645544Y-80894999D01*
X71749426Y-80884387D01*
X71917738Y-80828615D01*
X72068652Y-80735530D01*
X72194030Y-80610152D01*
X72287115Y-80459238D01*
X72342887Y-80290926D01*
X72353500Y-80187045D01*
X72353499Y-79410956D01*
X72353198Y-79408009D01*
X72365963Y-79339315D01*
X72413841Y-79288428D01*
X72476555Y-79271400D01*
X74208734Y-79271400D01*
X74275773Y-79291085D01*
X74296414Y-79307718D01*
X74459349Y-79470654D01*
X74607513Y-79618818D01*
X74617422Y-79631185D01*
X74617632Y-79631012D01*
X74622601Y-79637020D01*
X74647088Y-79660014D01*
X74672286Y-79683675D01*
X74675051Y-79686356D01*
X74694823Y-79706129D01*
X74694827Y-79706132D01*
X74694830Y-79706135D01*
X74698112Y-79708681D01*
X74706972Y-79716249D01*
X74739279Y-79746586D01*
X74739281Y-79746587D01*
X74757162Y-79756417D01*
X74773429Y-79767102D01*
X74789560Y-79779615D01*
X74809757Y-79788354D01*
X74830225Y-79797210D01*
X74840704Y-79802344D01*
X74879540Y-79823695D01*
X74899316Y-79828772D01*
X74917723Y-79835074D01*
X74936455Y-79843181D01*
X74980230Y-79850113D01*
X74991645Y-79852478D01*
X75034570Y-79863500D01*
X75054984Y-79863500D01*
X75074383Y-79865027D01*
X75094543Y-79868220D01*
X75138657Y-79864050D01*
X75150326Y-79863500D01*
X77416000Y-79863500D01*
X77483039Y-79883185D01*
X77528794Y-79935989D01*
X77540000Y-79987500D01*
X77540000Y-80005000D01*
X78866000Y-80005000D01*
X78933039Y-80024685D01*
X78978794Y-80077489D01*
X78990000Y-80129000D01*
X78990000Y-80381000D01*
X78970315Y-80448039D01*
X78917511Y-80493794D01*
X78866000Y-80505000D01*
X77540001Y-80505000D01*
X77534488Y-80510512D01*
X77520316Y-80558779D01*
X77467512Y-80604534D01*
X77398354Y-80614478D01*
X77390221Y-80613030D01*
X77209888Y-80574700D01*
X77209887Y-80574700D01*
X77018913Y-80574700D01*
X76832114Y-80614405D01*
X76657646Y-80692083D01*
X76503145Y-80804335D01*
X76375359Y-80946257D01*
X76279873Y-81111643D01*
X76279870Y-81111650D01*
X76220859Y-81293268D01*
X76220858Y-81293272D01*
X76200896Y-81483200D01*
X76220858Y-81673128D01*
X76220859Y-81673131D01*
X76279870Y-81854749D01*
X76279873Y-81854756D01*
X76375360Y-82020144D01*
X76503147Y-82162066D01*
X76657648Y-82274318D01*
X76832112Y-82351994D01*
X77018913Y-82391700D01*
X77209887Y-82391700D01*
X77396688Y-82351994D01*
X77571152Y-82274318D01*
X77725653Y-82162066D01*
X77729560Y-82157727D01*
X77789046Y-82121079D01*
X77821709Y-82116700D01*
X79968166Y-82116700D01*
X79983913Y-82118438D01*
X79983939Y-82118168D01*
X79991705Y-82118901D01*
X79991709Y-82118902D01*
X80059817Y-82116760D01*
X80063713Y-82116700D01*
X80091658Y-82116700D01*
X80091660Y-82116699D01*
X80093062Y-82116522D01*
X80095749Y-82116183D01*
X80107408Y-82115264D01*
X80151689Y-82113873D01*
X80171281Y-82108180D01*
X80190338Y-82104232D01*
X80210597Y-82101674D01*
X80251806Y-82085357D01*
X80262843Y-82081579D01*
X80305393Y-82069218D01*
X80322965Y-82058825D01*
X80340432Y-82050268D01*
X80359417Y-82042752D01*
X80395261Y-82016708D01*
X80405030Y-82010292D01*
X80430045Y-81995499D01*
X80443162Y-81987742D01*
X80457602Y-81973300D01*
X80472392Y-81960670D01*
X80488907Y-81948672D01*
X80517159Y-81914519D01*
X80525003Y-81905899D01*
X81056085Y-81374818D01*
X81117408Y-81341333D01*
X81143766Y-81338499D01*
X81780537Y-81338499D01*
X81780544Y-81338499D01*
X81884426Y-81327887D01*
X82052738Y-81272115D01*
X82203652Y-81179030D01*
X82329030Y-81053652D01*
X82422115Y-80902738D01*
X82432294Y-80872016D01*
X82472066Y-80814573D01*
X82536582Y-80787750D01*
X82605358Y-80800065D01*
X82656558Y-80847608D01*
X82667704Y-80872014D01*
X82677885Y-80902738D01*
X82770970Y-81053652D01*
X82896348Y-81179030D01*
X83047262Y-81272115D01*
X83215574Y-81327887D01*
X83319455Y-81338500D01*
X84320544Y-81338499D01*
X84424426Y-81327887D01*
X84592738Y-81272115D01*
X84743652Y-81179030D01*
X84869030Y-81053652D01*
X84962115Y-80902738D01*
X84976772Y-80858503D01*
X85016542Y-80801061D01*
X85081057Y-80774237D01*
X85149833Y-80786551D01*
X85201034Y-80834093D01*
X85212183Y-80858504D01*
X85225642Y-80899121D01*
X85225643Y-80899124D01*
X85317684Y-81048345D01*
X85441654Y-81172315D01*
X85590875Y-81264356D01*
X85590880Y-81264358D01*
X85757302Y-81319505D01*
X85757309Y-81319506D01*
X85860019Y-81329999D01*
X86109999Y-81329999D01*
X86110000Y-81329998D01*
X86110000Y-80129000D01*
X86129685Y-80061961D01*
X86182489Y-80016206D01*
X86234000Y-80005000D01*
X86486000Y-80005000D01*
X86553039Y-80024685D01*
X86598794Y-80077489D01*
X86610000Y-80129000D01*
X86610000Y-81329999D01*
X86859972Y-81329999D01*
X86859986Y-81329998D01*
X86962697Y-81319505D01*
X87129119Y-81264358D01*
X87129124Y-81264356D01*
X87278345Y-81172315D01*
X87402315Y-81048345D01*
X87494356Y-80899124D01*
X87494356Y-80899122D01*
X87510801Y-80849495D01*
X87550573Y-80792049D01*
X87615089Y-80765225D01*
X87683865Y-80777539D01*
X87735065Y-80825081D01*
X87746214Y-80849492D01*
X87765642Y-80908121D01*
X87765643Y-80908124D01*
X87857684Y-81057345D01*
X87981654Y-81181315D01*
X88130875Y-81273356D01*
X88130880Y-81273358D01*
X88297302Y-81328505D01*
X88297309Y-81328506D01*
X88400019Y-81338999D01*
X88649999Y-81338999D01*
X88650000Y-81338998D01*
X88650000Y-80514000D01*
X89150000Y-80514000D01*
X89150000Y-81338999D01*
X89399972Y-81338999D01*
X89399986Y-81338998D01*
X89502697Y-81328505D01*
X89669119Y-81273358D01*
X89669124Y-81273356D01*
X89818345Y-81181315D01*
X89942315Y-81057345D01*
X90034356Y-80908124D01*
X90034358Y-80908119D01*
X90089505Y-80741697D01*
X90089506Y-80741690D01*
X90099385Y-80645000D01*
X91989341Y-80645000D01*
X92009936Y-80880403D01*
X92009938Y-80880413D01*
X92071094Y-81108655D01*
X92071096Y-81108659D01*
X92071097Y-81108663D01*
X92121031Y-81215746D01*
X92170964Y-81322828D01*
X92170965Y-81322830D01*
X92306505Y-81516402D01*
X92473597Y-81683494D01*
X92667169Y-81819034D01*
X92667171Y-81819035D01*
X92881337Y-81918903D01*
X93109592Y-81980063D01*
X93286032Y-81995499D01*
X93286033Y-81995500D01*
X93286034Y-81995500D01*
X93403967Y-81995500D01*
X93403967Y-81995499D01*
X93580408Y-81980063D01*
X93808663Y-81918903D01*
X94022829Y-81819035D01*
X94216401Y-81683495D01*
X94383495Y-81516401D01*
X94519035Y-81322830D01*
X94618903Y-81108663D01*
X94680063Y-80880408D01*
X94700659Y-80645000D01*
X94680063Y-80409592D01*
X94623905Y-80200005D01*
X94618905Y-80181344D01*
X94618904Y-80181343D01*
X94618903Y-80181337D01*
X94519035Y-79967171D01*
X94519034Y-79967169D01*
X94383494Y-79773597D01*
X94216402Y-79606505D01*
X94022830Y-79470965D01*
X94022828Y-79470964D01*
X93894140Y-79410956D01*
X93808663Y-79371097D01*
X93808659Y-79371096D01*
X93808655Y-79371094D01*
X93580413Y-79309938D01*
X93580403Y-79309936D01*
X93403967Y-79294500D01*
X93403966Y-79294500D01*
X93286034Y-79294500D01*
X93286033Y-79294500D01*
X93109596Y-79309936D01*
X93109586Y-79309938D01*
X92881344Y-79371094D01*
X92881335Y-79371098D01*
X92667171Y-79470964D01*
X92667169Y-79470965D01*
X92473597Y-79606505D01*
X92306506Y-79773597D01*
X92306501Y-79773604D01*
X92170967Y-79967165D01*
X92170965Y-79967169D01*
X92071098Y-80181335D01*
X92071094Y-80181344D01*
X92009938Y-80409586D01*
X92009936Y-80409596D01*
X91989341Y-80644999D01*
X91989341Y-80645000D01*
X90099385Y-80645000D01*
X90099999Y-80638986D01*
X90100000Y-80638973D01*
X90100000Y-80514000D01*
X89150000Y-80514000D01*
X88650000Y-80514000D01*
X88650000Y-80138000D01*
X88669685Y-80070961D01*
X88722489Y-80025206D01*
X88774000Y-80014000D01*
X90099999Y-80014000D01*
X90099999Y-79889028D01*
X90099998Y-79889013D01*
X90089505Y-79786302D01*
X90034358Y-79619880D01*
X90034356Y-79619875D01*
X89942315Y-79470654D01*
X89818344Y-79346683D01*
X89812677Y-79342202D01*
X89814404Y-79340016D01*
X89776240Y-79297589D01*
X89765015Y-79228627D01*
X89792855Y-79164543D01*
X89818106Y-79142664D01*
X89817985Y-79142511D01*
X89821401Y-79139809D01*
X89822969Y-79138451D01*
X89823652Y-79138030D01*
X89949030Y-79012652D01*
X90042115Y-78861738D01*
X90097887Y-78693426D01*
X90108500Y-78589545D01*
X90108499Y-77838456D01*
X90097887Y-77734574D01*
X90042115Y-77566262D01*
X89949030Y-77415348D01*
X89823652Y-77289970D01*
X89672738Y-77196885D01*
X89618493Y-77178910D01*
X89561051Y-77139138D01*
X89534228Y-77074622D01*
X89533500Y-77061205D01*
X89533500Y-75345794D01*
X89553185Y-75278755D01*
X89605989Y-75233000D01*
X89618488Y-75228091D01*
X89672738Y-75210115D01*
X89823652Y-75117030D01*
X89949030Y-74991652D01*
X90042115Y-74840738D01*
X90097887Y-74672426D01*
X90108500Y-74568545D01*
X90108499Y-73767456D01*
X90097887Y-73663574D01*
X90042115Y-73495262D01*
X89949030Y-73344348D01*
X89860363Y-73255681D01*
X89826878Y-73194358D01*
X89831862Y-73124666D01*
X89860363Y-73080319D01*
X89904105Y-73036577D01*
X89949030Y-72991652D01*
X90042115Y-72840738D01*
X90097887Y-72672426D01*
X90108500Y-72568545D01*
X90108499Y-71767456D01*
X90097887Y-71663574D01*
X90042115Y-71495262D01*
X89949030Y-71344348D01*
X89823652Y-71218970D01*
X89714425Y-71151598D01*
X89672740Y-71125886D01*
X89672735Y-71125884D01*
X89504427Y-71070113D01*
X89400546Y-71059500D01*
X88399462Y-71059500D01*
X88399446Y-71059501D01*
X88295572Y-71070113D01*
X88127264Y-71125884D01*
X88127259Y-71125886D01*
X87976346Y-71218971D01*
X87850971Y-71344346D01*
X87757886Y-71495259D01*
X87757885Y-71495262D01*
X87747282Y-71527262D01*
X87742404Y-71541982D01*
X87702631Y-71599426D01*
X87638115Y-71626249D01*
X87569339Y-71613934D01*
X87518139Y-71566391D01*
X87506993Y-71541983D01*
X87502115Y-71527262D01*
X87409030Y-71376348D01*
X87283652Y-71250970D01*
X87177783Y-71185669D01*
X87132740Y-71157886D01*
X87132735Y-71157884D01*
X86964427Y-71102113D01*
X86860552Y-71091500D01*
X86860545Y-71091500D01*
X86475566Y-71091500D01*
X86408527Y-71071815D01*
X86387889Y-71055185D01*
X86231317Y-70898613D01*
X86197835Y-70837292D01*
X86195682Y-70823912D01*
X86178242Y-70657972D01*
X86119227Y-70476344D01*
X86023740Y-70310956D01*
X85899038Y-70172460D01*
X85895954Y-70169035D01*
X85892884Y-70166804D01*
X85741452Y-70056782D01*
X85566988Y-69979106D01*
X85566986Y-69979105D01*
X85380187Y-69939400D01*
X85189213Y-69939400D01*
X85002414Y-69979105D01*
X84827946Y-70056783D01*
X84673445Y-70169035D01*
X84545659Y-70310957D01*
X84450173Y-70476343D01*
X84450170Y-70476350D01*
X84392277Y-70654528D01*
X84391158Y-70657972D01*
X84373719Y-70823895D01*
X84371196Y-70847900D01*
X84382404Y-70954539D01*
X84369834Y-71023269D01*
X84322102Y-71074292D01*
X84259083Y-71091500D01*
X83319462Y-71091500D01*
X83319446Y-71091501D01*
X83215572Y-71102113D01*
X83047264Y-71157884D01*
X83047259Y-71157886D01*
X82896346Y-71250971D01*
X82770971Y-71376346D01*
X82745876Y-71417031D01*
X82695078Y-71499389D01*
X82690015Y-71507597D01*
X82638067Y-71554322D01*
X82584476Y-71566500D01*
X82515524Y-71566500D01*
X82448485Y-71546815D01*
X82409985Y-71507597D01*
X82408411Y-71505045D01*
X82329030Y-71376348D01*
X82203652Y-71250970D01*
X82097783Y-71185669D01*
X82052740Y-71157886D01*
X82052735Y-71157884D01*
X81884427Y-71102113D01*
X81780546Y-71091500D01*
X80779462Y-71091500D01*
X80779446Y-71091501D01*
X80675572Y-71102113D01*
X80507264Y-71157884D01*
X80507259Y-71157886D01*
X80412850Y-71216119D01*
X80356348Y-71250970D01*
X80356346Y-71250971D01*
X80350201Y-71254762D01*
X80349044Y-71252887D01*
X80294207Y-71275006D01*
X80225566Y-71261961D01*
X80174874Y-71213876D01*
X80158100Y-71151598D01*
X80158100Y-65013147D01*
X80177785Y-64946108D01*
X80230589Y-64900353D01*
X80299747Y-64890409D01*
X80322363Y-64895866D01*
X80506506Y-64959083D01*
X80751707Y-65000000D01*
X81000293Y-65000000D01*
X81245493Y-64959083D01*
X81480603Y-64878369D01*
X81480614Y-64878364D01*
X81699228Y-64760057D01*
X81699231Y-64760055D01*
X81746056Y-64723609D01*
X81047568Y-64025121D01*
X81164458Y-63974349D01*
X81281739Y-63878934D01*
X81368928Y-63755415D01*
X81399354Y-63669802D01*
X82099434Y-64369882D01*
X82199731Y-64216369D01*
X82299587Y-63988717D01*
X82360612Y-63747738D01*
X82360614Y-63747729D01*
X82381141Y-63500005D01*
X85870859Y-63500005D01*
X85891385Y-63747729D01*
X85891387Y-63747738D01*
X85952412Y-63988717D01*
X86052266Y-64216364D01*
X86152564Y-64369882D01*
X86850070Y-63672376D01*
X86852884Y-63685915D01*
X86922442Y-63820156D01*
X87025638Y-63930652D01*
X87154819Y-64009209D01*
X87206002Y-64023549D01*
X86505942Y-64723609D01*
X86552768Y-64760055D01*
X86552770Y-64760056D01*
X86771385Y-64878364D01*
X86771396Y-64878369D01*
X87006506Y-64959083D01*
X87251707Y-65000000D01*
X87500293Y-65000000D01*
X87745493Y-64959083D01*
X87980603Y-64878369D01*
X87980614Y-64878364D01*
X88199228Y-64760057D01*
X88199231Y-64760055D01*
X88246056Y-64723609D01*
X87547568Y-64025121D01*
X87664458Y-63974349D01*
X87781739Y-63878934D01*
X87868928Y-63755415D01*
X87899354Y-63669802D01*
X88599434Y-64369882D01*
X88699731Y-64216369D01*
X88799587Y-63988717D01*
X88860612Y-63747738D01*
X88860614Y-63747729D01*
X88881141Y-63500005D01*
X88881141Y-63499994D01*
X88860614Y-63252270D01*
X88860612Y-63252261D01*
X88799587Y-63011282D01*
X88699731Y-62783630D01*
X88599434Y-62630116D01*
X87901929Y-63327622D01*
X87899116Y-63314085D01*
X87829558Y-63179844D01*
X87726362Y-63069348D01*
X87597181Y-62990791D01*
X87545997Y-62976450D01*
X88246057Y-62276390D01*
X88246056Y-62276389D01*
X88199229Y-62239943D01*
X87980614Y-62121635D01*
X87980603Y-62121630D01*
X87745493Y-62040916D01*
X87500293Y-62000000D01*
X87251707Y-62000000D01*
X87006506Y-62040916D01*
X86771396Y-62121630D01*
X86771390Y-62121632D01*
X86552761Y-62239949D01*
X86505942Y-62276388D01*
X86505942Y-62276390D01*
X87204431Y-62974878D01*
X87087542Y-63025651D01*
X86970261Y-63121066D01*
X86883072Y-63244585D01*
X86852645Y-63330197D01*
X86152564Y-62630116D01*
X86052267Y-62783632D01*
X85952412Y-63011282D01*
X85891387Y-63252261D01*
X85891385Y-63252270D01*
X85870859Y-63499994D01*
X85870859Y-63500005D01*
X82381141Y-63500005D01*
X82381141Y-63499994D01*
X82360614Y-63252270D01*
X82360612Y-63252261D01*
X82299587Y-63011282D01*
X82199731Y-62783630D01*
X82099434Y-62630116D01*
X81401929Y-63327622D01*
X81399116Y-63314085D01*
X81329558Y-63179844D01*
X81226362Y-63069348D01*
X81097181Y-62990791D01*
X81045996Y-62976449D01*
X81746057Y-62276389D01*
X81699229Y-62239943D01*
X81480614Y-62121635D01*
X81480603Y-62121630D01*
X81245493Y-62040916D01*
X81000293Y-62000000D01*
X80751707Y-62000000D01*
X80506506Y-62040916D01*
X80322363Y-62104133D01*
X80252564Y-62107283D01*
X80192143Y-62072197D01*
X80160282Y-62010014D01*
X80158100Y-61986852D01*
X80158100Y-60521004D01*
X80177785Y-60453965D01*
X80230589Y-60408210D01*
X80299747Y-60398266D01*
X80329551Y-60406442D01*
X80408406Y-60439105D01*
X80639289Y-60494535D01*
X80876000Y-60513165D01*
X81112711Y-60494535D01*
X81343594Y-60439105D01*
X81343596Y-60439104D01*
X81343597Y-60439104D01*
X81562959Y-60348242D01*
X81562960Y-60348241D01*
X81562963Y-60348240D01*
X81765416Y-60224176D01*
X81945969Y-60069969D01*
X82100176Y-59889416D01*
X82176419Y-59765000D01*
X82220719Y-59692710D01*
X82272531Y-59645835D01*
X82326446Y-59633500D01*
X85925554Y-59633500D01*
X85992593Y-59653185D01*
X86031281Y-59692710D01*
X86151820Y-59889410D01*
X86151821Y-59889413D01*
X86177565Y-59919555D01*
X86306031Y-60069969D01*
X86384799Y-60137243D01*
X86486586Y-60224178D01*
X86486589Y-60224179D01*
X86689037Y-60348240D01*
X86689040Y-60348242D01*
X86908403Y-60439104D01*
X86908404Y-60439104D01*
X86908406Y-60439105D01*
X87139289Y-60494535D01*
X87376000Y-60513165D01*
X87431461Y-60508800D01*
X89239396Y-60508800D01*
X89259358Y-60698728D01*
X89259359Y-60698731D01*
X89318370Y-60880349D01*
X89318373Y-60880356D01*
X89413860Y-61045744D01*
X89484988Y-61124740D01*
X89536524Y-61181977D01*
X89541647Y-61187666D01*
X89696148Y-61299918D01*
X89870612Y-61377594D01*
X90057413Y-61417300D01*
X90248387Y-61417300D01*
X90435188Y-61377594D01*
X90609652Y-61299918D01*
X90764153Y-61187666D01*
X90768060Y-61183327D01*
X90827546Y-61146679D01*
X90860209Y-61142300D01*
X91255511Y-61142300D01*
X91322550Y-61161985D01*
X91361047Y-61201200D01*
X91400400Y-61265000D01*
X91406971Y-61275653D01*
X91495637Y-61364319D01*
X91529122Y-61425642D01*
X91524138Y-61495334D01*
X91495637Y-61539681D01*
X91406971Y-61628346D01*
X91313886Y-61779259D01*
X91313884Y-61779264D01*
X91258113Y-61947572D01*
X91247500Y-62051447D01*
X91247500Y-62852537D01*
X91247501Y-62852553D01*
X91258113Y-62956427D01*
X91294749Y-63066989D01*
X91313885Y-63124738D01*
X91406970Y-63275652D01*
X91532348Y-63401030D01*
X91683262Y-63494115D01*
X91737502Y-63512088D01*
X91794947Y-63551858D01*
X91821772Y-63616374D01*
X91822500Y-63629794D01*
X91822500Y-63814241D01*
X91802815Y-63881280D01*
X91790650Y-63897213D01*
X91716963Y-63979050D01*
X91716958Y-63979057D01*
X91621473Y-64144443D01*
X91621470Y-64144450D01*
X91562459Y-64326068D01*
X91562458Y-64326072D01*
X91542496Y-64516000D01*
X91562458Y-64705928D01*
X91562459Y-64705931D01*
X91621470Y-64887549D01*
X91621473Y-64887556D01*
X91716960Y-65052944D01*
X91813695Y-65160379D01*
X91840600Y-65190261D01*
X91844747Y-65194866D01*
X91999248Y-65307118D01*
X92173712Y-65384794D01*
X92360513Y-65424500D01*
X92551487Y-65424500D01*
X92738288Y-65384794D01*
X92912752Y-65307118D01*
X93067253Y-65194866D01*
X93195040Y-65052944D01*
X93290527Y-64887556D01*
X93349542Y-64705928D01*
X93369504Y-64516000D01*
X93349542Y-64326072D01*
X93290527Y-64144444D01*
X93236000Y-64050000D01*
X93195041Y-63979057D01*
X93195036Y-63979050D01*
X93121350Y-63897213D01*
X93091120Y-63834221D01*
X93089500Y-63814241D01*
X93089500Y-63629794D01*
X93109185Y-63562755D01*
X93161989Y-63517000D01*
X93174488Y-63512091D01*
X93228738Y-63494115D01*
X93379652Y-63401030D01*
X93505030Y-63275652D01*
X93598115Y-63124738D01*
X93653887Y-62956426D01*
X93664500Y-62852545D01*
X93664499Y-62051456D01*
X93653887Y-61947574D01*
X93598115Y-61779262D01*
X93505030Y-61628348D01*
X93416363Y-61539681D01*
X93382878Y-61478358D01*
X93387862Y-61408666D01*
X93416363Y-61364319D01*
X93436759Y-61343923D01*
X93505030Y-61275652D01*
X93598115Y-61124738D01*
X93653887Y-60956426D01*
X93664500Y-60852545D01*
X93664499Y-60051456D01*
X93653887Y-59947574D01*
X93598115Y-59779262D01*
X93505030Y-59628348D01*
X93379652Y-59502970D01*
X93254981Y-59426072D01*
X93228740Y-59409886D01*
X93228735Y-59409884D01*
X93060427Y-59354113D01*
X92956546Y-59343500D01*
X91955462Y-59343500D01*
X91955446Y-59343501D01*
X91851572Y-59354113D01*
X91683264Y-59409884D01*
X91683259Y-59409886D01*
X91532346Y-59502971D01*
X91406971Y-59628346D01*
X91313883Y-59779264D01*
X91310227Y-59790301D01*
X91270456Y-59847747D01*
X91205941Y-59874572D01*
X91192520Y-59875300D01*
X90860209Y-59875300D01*
X90793170Y-59855615D01*
X90768060Y-59834273D01*
X90764154Y-59829935D01*
X90744270Y-59815488D01*
X90609652Y-59717682D01*
X90435188Y-59640006D01*
X90435186Y-59640005D01*
X90248387Y-59600300D01*
X90057413Y-59600300D01*
X89870614Y-59640005D01*
X89857520Y-59645835D01*
X89701474Y-59715311D01*
X89696146Y-59717683D01*
X89541645Y-59829935D01*
X89413859Y-59971857D01*
X89318373Y-60137243D01*
X89318370Y-60137250D01*
X89283039Y-60245989D01*
X89259358Y-60318872D01*
X89239396Y-60508800D01*
X87431461Y-60508800D01*
X87612711Y-60494535D01*
X87843594Y-60439105D01*
X87843596Y-60439104D01*
X87843597Y-60439104D01*
X88062959Y-60348242D01*
X88062960Y-60348241D01*
X88062963Y-60348240D01*
X88265416Y-60224176D01*
X88445969Y-60069969D01*
X88600176Y-59889416D01*
X88724240Y-59686963D01*
X88725067Y-59684968D01*
X88815104Y-59467597D01*
X88815104Y-59467596D01*
X88815105Y-59467594D01*
X88870535Y-59236711D01*
X88889165Y-59000000D01*
X88870535Y-58763289D01*
X88815105Y-58532406D01*
X88815104Y-58532403D01*
X88815104Y-58532402D01*
X88724242Y-58313040D01*
X88724240Y-58313037D01*
X88651872Y-58194944D01*
X88600178Y-58110588D01*
X88600178Y-58110586D01*
X88501992Y-57995626D01*
X88445969Y-57930031D01*
X88326596Y-57828076D01*
X88265413Y-57775821D01*
X88265410Y-57775820D01*
X88062962Y-57651759D01*
X88062959Y-57651757D01*
X87843596Y-57560895D01*
X87612714Y-57505465D01*
X87376000Y-57486835D01*
X87139285Y-57505465D01*
X86908404Y-57560895D01*
X86908402Y-57560895D01*
X86689040Y-57651757D01*
X86689037Y-57651759D01*
X86486589Y-57775820D01*
X86486586Y-57775821D01*
X86306031Y-57930031D01*
X86151821Y-58110586D01*
X86151820Y-58110589D01*
X86031281Y-58307290D01*
X85979469Y-58354165D01*
X85925554Y-58366500D01*
X82326446Y-58366500D01*
X82259407Y-58346815D01*
X82220719Y-58307290D01*
X82100179Y-58110589D01*
X82100178Y-58110586D01*
X82001992Y-57995626D01*
X81945969Y-57930031D01*
X81826596Y-57828076D01*
X81765413Y-57775821D01*
X81765410Y-57775820D01*
X81562962Y-57651759D01*
X81562959Y-57651757D01*
X81343596Y-57560895D01*
X81112714Y-57505465D01*
X80994355Y-57496150D01*
X80876000Y-57486835D01*
X80875998Y-57486835D01*
X80875997Y-57486835D01*
X80873230Y-57486835D01*
X80872216Y-57486537D01*
X80871143Y-57486453D01*
X80871160Y-57486227D01*
X80806191Y-57467150D01*
X80760436Y-57414346D01*
X80750492Y-57345188D01*
X80779517Y-57281632D01*
X80785549Y-57275154D01*
X82620164Y-55440539D01*
X84462815Y-53597887D01*
X84475180Y-53587983D01*
X84475006Y-53587773D01*
X84481009Y-53582805D01*
X84481018Y-53582800D01*
X84527677Y-53533111D01*
X84530356Y-53530346D01*
X84550134Y-53510570D01*
X84552660Y-53507312D01*
X84560246Y-53498429D01*
X84590586Y-53466121D01*
X84600423Y-53448224D01*
X84611097Y-53431974D01*
X84623613Y-53415841D01*
X84641207Y-53375180D01*
X84646341Y-53364700D01*
X84667695Y-53325860D01*
X84672774Y-53306074D01*
X84679072Y-53287682D01*
X84687181Y-53268945D01*
X84694113Y-53225172D01*
X84696478Y-53213753D01*
X84707500Y-53170830D01*
X84707500Y-53150415D01*
X84709027Y-53131014D01*
X84712220Y-53110857D01*
X84708050Y-53066742D01*
X84707500Y-53055073D01*
X84707500Y-50816500D01*
X84727185Y-50749461D01*
X84779989Y-50703706D01*
X84831500Y-50692500D01*
X84931487Y-50692500D01*
X85118288Y-50652794D01*
X85292752Y-50575118D01*
X85447253Y-50462866D01*
X85575040Y-50320944D01*
X85670527Y-50155556D01*
X85729542Y-49973928D01*
X85749504Y-49784000D01*
X85729542Y-49594072D01*
X85670527Y-49412444D01*
X85575040Y-49247056D01*
X85447253Y-49105134D01*
X85292752Y-48992882D01*
X85118288Y-48915206D01*
X85118286Y-48915205D01*
X84931487Y-48875500D01*
X84740513Y-48875500D01*
X84553713Y-48915205D01*
X84553706Y-48915207D01*
X84467005Y-48953808D01*
X84397755Y-48963092D01*
X84334479Y-48933462D01*
X84328891Y-48928209D01*
X84272363Y-48871681D01*
X84238878Y-48810358D01*
X84243862Y-48740666D01*
X84272363Y-48696319D01*
X84315438Y-48653244D01*
X84361030Y-48607652D01*
X84454115Y-48456738D01*
X84509887Y-48288426D01*
X84520500Y-48184545D01*
X84520499Y-47383456D01*
X84509887Y-47279574D01*
X84454115Y-47111262D01*
X84361030Y-46960348D01*
X84235652Y-46834970D01*
X84102188Y-46752648D01*
X84084740Y-46741886D01*
X84084735Y-46741884D01*
X83960496Y-46700716D01*
X83903051Y-46660944D01*
X83876228Y-46596428D01*
X83875500Y-46583010D01*
X83875500Y-45242983D01*
X83895185Y-45175944D01*
X83947989Y-45130189D01*
X84017147Y-45120245D01*
X84073809Y-45143715D01*
X84120796Y-45178889D01*
X84235297Y-45221596D01*
X84252463Y-45227999D01*
X84257799Y-45229989D01*
X84285050Y-45232918D01*
X84318345Y-45236499D01*
X84318362Y-45236500D01*
X85165638Y-45236500D01*
X85165654Y-45236499D01*
X85192692Y-45233591D01*
X85226201Y-45229989D01*
X85231537Y-45227999D01*
X85240768Y-45224555D01*
X85363204Y-45178889D01*
X85424781Y-45132792D01*
X85490244Y-45108376D01*
X85558517Y-45123227D01*
X85573402Y-45132794D01*
X85624906Y-45171350D01*
X85624913Y-45171354D01*
X85759620Y-45221596D01*
X85759627Y-45221598D01*
X85819155Y-45227999D01*
X85819172Y-45228000D01*
X85992000Y-45228000D01*
X85992000Y-43478000D01*
X86492000Y-43478000D01*
X86492000Y-45228000D01*
X86664828Y-45228000D01*
X86664844Y-45227999D01*
X86724372Y-45221598D01*
X86724379Y-45221596D01*
X86859086Y-45171354D01*
X86859093Y-45171350D01*
X86974187Y-45085190D01*
X86974190Y-45085187D01*
X87060350Y-44970093D01*
X87060354Y-44970086D01*
X87064862Y-44958000D01*
X91989341Y-44958000D01*
X92009936Y-45193403D01*
X92009938Y-45193413D01*
X92071094Y-45421655D01*
X92071096Y-45421659D01*
X92071097Y-45421663D01*
X92103151Y-45490403D01*
X92170964Y-45635828D01*
X92170965Y-45635830D01*
X92306505Y-45829402D01*
X92473597Y-45996494D01*
X92667169Y-46132034D01*
X92667171Y-46132035D01*
X92881337Y-46231903D01*
X93109592Y-46293063D01*
X93286032Y-46308499D01*
X93286033Y-46308500D01*
X93286034Y-46308500D01*
X93403967Y-46308500D01*
X93403967Y-46308499D01*
X93580408Y-46293063D01*
X93808663Y-46231903D01*
X94022829Y-46132035D01*
X94216401Y-45996495D01*
X94383495Y-45829401D01*
X94519035Y-45635830D01*
X94618903Y-45421663D01*
X94680063Y-45193408D01*
X94700659Y-44958000D01*
X94680063Y-44722592D01*
X94618903Y-44494337D01*
X94519035Y-44280171D01*
X94519034Y-44280169D01*
X94383494Y-44086597D01*
X94216402Y-43919505D01*
X94022830Y-43783965D01*
X94022828Y-43783964D01*
X93915746Y-43734031D01*
X93808663Y-43684097D01*
X93808659Y-43684096D01*
X93808655Y-43684094D01*
X93580413Y-43622938D01*
X93580403Y-43622936D01*
X93403967Y-43607500D01*
X93403966Y-43607500D01*
X93286034Y-43607500D01*
X93286033Y-43607500D01*
X93109596Y-43622936D01*
X93109586Y-43622938D01*
X92881344Y-43684094D01*
X92881335Y-43684098D01*
X92667171Y-43783964D01*
X92667169Y-43783965D01*
X92473597Y-43919505D01*
X92306506Y-44086597D01*
X92306501Y-44086604D01*
X92170967Y-44280165D01*
X92170965Y-44280169D01*
X92071098Y-44494335D01*
X92071094Y-44494344D01*
X92009938Y-44722586D01*
X92009936Y-44722596D01*
X91989341Y-44957999D01*
X91989341Y-44958000D01*
X87064862Y-44958000D01*
X87110596Y-44835379D01*
X87110598Y-44835372D01*
X87116999Y-44775844D01*
X87117000Y-44775827D01*
X87117000Y-43478000D01*
X86492000Y-43478000D01*
X85992000Y-43478000D01*
X85992000Y-41228000D01*
X86492000Y-41228000D01*
X86492000Y-42978000D01*
X87117000Y-42978000D01*
X87117000Y-41680172D01*
X87116999Y-41680155D01*
X87110598Y-41620627D01*
X87110596Y-41620620D01*
X87060354Y-41485913D01*
X87060350Y-41485906D01*
X86974190Y-41370812D01*
X86974187Y-41370809D01*
X86859093Y-41284649D01*
X86859086Y-41284645D01*
X86724379Y-41234403D01*
X86724372Y-41234401D01*
X86664844Y-41228000D01*
X86492000Y-41228000D01*
X85992000Y-41228000D01*
X85819155Y-41228000D01*
X85759627Y-41234401D01*
X85759620Y-41234403D01*
X85624913Y-41284645D01*
X85624910Y-41284647D01*
X85573401Y-41323207D01*
X85507936Y-41347624D01*
X85439663Y-41332772D01*
X85424785Y-41323210D01*
X85405315Y-41308635D01*
X85363446Y-41252702D01*
X85361491Y-41246473D01*
X85360474Y-41243905D01*
X85360474Y-41243903D01*
X85339770Y-41191612D01*
X85337151Y-41184338D01*
X85319764Y-41130825D01*
X85315250Y-41123712D01*
X85304652Y-41102913D01*
X85304533Y-41102613D01*
X85301552Y-41095083D01*
X85268516Y-41049613D01*
X85264139Y-41043172D01*
X85234004Y-40995687D01*
X85233997Y-40995679D01*
X85227852Y-40989908D01*
X85212421Y-40972405D01*
X85211667Y-40971367D01*
X85207472Y-40965593D01*
X85173183Y-40937227D01*
X85164155Y-40929758D01*
X85158311Y-40924606D01*
X85117324Y-40886116D01*
X85117319Y-40886112D01*
X85109933Y-40882052D01*
X85090633Y-40868935D01*
X85084143Y-40863566D01*
X85040752Y-40843148D01*
X85033263Y-40839624D01*
X85026330Y-40836091D01*
X84977063Y-40809006D01*
X84977060Y-40809005D01*
X84968892Y-40806907D01*
X84946944Y-40799005D01*
X84939320Y-40795417D01*
X84939311Y-40795414D01*
X84884104Y-40784883D01*
X84876505Y-40783185D01*
X84822034Y-40769200D01*
X84822030Y-40769200D01*
X84813605Y-40769200D01*
X84790374Y-40767004D01*
X84782096Y-40765425D01*
X84782091Y-40765424D01*
X84725985Y-40768955D01*
X84718199Y-40769200D01*
X81299334Y-40769200D01*
X81283586Y-40767461D01*
X81283561Y-40767732D01*
X81275794Y-40766998D01*
X81275791Y-40766998D01*
X81207683Y-40769139D01*
X81203787Y-40769200D01*
X81175836Y-40769200D01*
X81171740Y-40769718D01*
X81160102Y-40770634D01*
X81115811Y-40772026D01*
X81115808Y-40772027D01*
X81096205Y-40777722D01*
X81077159Y-40781666D01*
X81056903Y-40784226D01*
X81056901Y-40784226D01*
X81056899Y-40784227D01*
X81015698Y-40800539D01*
X81004651Y-40804321D01*
X80962106Y-40816682D01*
X80944531Y-40827075D01*
X80927073Y-40835628D01*
X80908083Y-40843148D01*
X80872235Y-40869192D01*
X80862476Y-40875602D01*
X80824337Y-40898157D01*
X80809901Y-40912594D01*
X80795115Y-40925223D01*
X80785410Y-40932275D01*
X80778590Y-40937230D01*
X80750349Y-40971367D01*
X80742488Y-40980006D01*
X80603277Y-41119216D01*
X80590921Y-41129116D01*
X80591094Y-41129325D01*
X80585086Y-41134295D01*
X80570835Y-41149471D01*
X80542243Y-41179919D01*
X80541806Y-41180384D01*
X80481564Y-41215779D01*
X80451414Y-41219500D01*
X79818345Y-41219500D01*
X79757797Y-41226011D01*
X79757795Y-41226011D01*
X79620793Y-41277111D01*
X79566309Y-41317898D01*
X79500845Y-41342314D01*
X79432572Y-41327462D01*
X79417691Y-41317898D01*
X79363206Y-41277111D01*
X79226203Y-41226011D01*
X79165654Y-41219500D01*
X79165638Y-41219500D01*
X78318362Y-41219500D01*
X78318345Y-41219500D01*
X78257797Y-41226011D01*
X78257795Y-41226011D01*
X78120793Y-41277111D01*
X78066309Y-41317898D01*
X78000845Y-41342314D01*
X77932572Y-41327462D01*
X77917691Y-41317898D01*
X77863206Y-41277111D01*
X77726203Y-41226011D01*
X77665654Y-41219500D01*
X77665638Y-41219500D01*
X76818362Y-41219500D01*
X76818345Y-41219500D01*
X76757797Y-41226011D01*
X76757795Y-41226011D01*
X76620793Y-41277111D01*
X76566309Y-41317898D01*
X76500845Y-41342314D01*
X76432572Y-41327462D01*
X76417691Y-41317898D01*
X76363206Y-41277111D01*
X76226203Y-41226011D01*
X76165654Y-41219500D01*
X76165638Y-41219500D01*
X75318362Y-41219500D01*
X75318345Y-41219500D01*
X75257797Y-41226011D01*
X75257795Y-41226011D01*
X75120793Y-41277111D01*
X75066309Y-41317898D01*
X75000845Y-41342314D01*
X74932572Y-41327462D01*
X74917691Y-41317898D01*
X74863206Y-41277111D01*
X74726203Y-41226011D01*
X74665654Y-41219500D01*
X74665638Y-41219500D01*
X73818362Y-41219500D01*
X73818345Y-41219500D01*
X73757797Y-41226011D01*
X73757795Y-41226011D01*
X73620793Y-41277111D01*
X73566309Y-41317898D01*
X73500845Y-41342314D01*
X73432572Y-41327462D01*
X73417691Y-41317898D01*
X73363206Y-41277111D01*
X73226203Y-41226011D01*
X73165654Y-41219500D01*
X73165638Y-41219500D01*
X72318362Y-41219500D01*
X72318345Y-41219500D01*
X72257797Y-41226011D01*
X72257795Y-41226011D01*
X72120795Y-41277111D01*
X72066309Y-41317899D01*
X72000844Y-41342315D01*
X71932571Y-41327463D01*
X71917689Y-41317898D01*
X71905319Y-41308638D01*
X71863447Y-41252705D01*
X71861491Y-41246473D01*
X71860474Y-41243905D01*
X71860474Y-41243903D01*
X71839770Y-41191612D01*
X71837151Y-41184338D01*
X71819764Y-41130825D01*
X71815250Y-41123712D01*
X71804652Y-41102913D01*
X71804533Y-41102613D01*
X71801552Y-41095083D01*
X71768516Y-41049613D01*
X71764139Y-41043172D01*
X71734004Y-40995687D01*
X71733997Y-40995679D01*
X71727852Y-40989908D01*
X71712421Y-40972405D01*
X71711667Y-40971367D01*
X71707472Y-40965593D01*
X71673183Y-40937227D01*
X71664155Y-40929758D01*
X71658311Y-40924606D01*
X71617324Y-40886116D01*
X71617319Y-40886112D01*
X71609933Y-40882052D01*
X71590633Y-40868935D01*
X71584143Y-40863566D01*
X71540752Y-40843148D01*
X71533263Y-40839624D01*
X71526330Y-40836091D01*
X71477063Y-40809006D01*
X71477060Y-40809005D01*
X71468892Y-40806907D01*
X71446944Y-40799005D01*
X71439320Y-40795417D01*
X71439311Y-40795414D01*
X71384104Y-40784883D01*
X71376505Y-40783185D01*
X71322034Y-40769200D01*
X71322030Y-40769200D01*
X71313605Y-40769200D01*
X71290374Y-40767004D01*
X71282096Y-40765425D01*
X71282091Y-40765424D01*
X71225985Y-40768955D01*
X71218199Y-40769200D01*
X64787032Y-40769200D01*
X64771280Y-40767460D01*
X64771255Y-40767732D01*
X64763493Y-40766998D01*
X64763492Y-40766998D01*
X64695370Y-40769139D01*
X64691475Y-40769200D01*
X64663544Y-40769200D01*
X64663541Y-40769200D01*
X64663525Y-40769201D01*
X64659432Y-40769718D01*
X64647804Y-40770633D01*
X64603513Y-40772025D01*
X64603507Y-40772026D01*
X64583900Y-40777722D01*
X64564861Y-40781665D01*
X64544611Y-40784224D01*
X64544605Y-40784225D01*
X64544603Y-40784226D01*
X64542944Y-40784883D01*
X64503406Y-40800536D01*
X64492360Y-40804317D01*
X64449813Y-40816679D01*
X64449807Y-40816681D01*
X64432233Y-40827074D01*
X64414772Y-40835628D01*
X64395786Y-40843146D01*
X64395785Y-40843146D01*
X64359935Y-40869192D01*
X64350176Y-40875602D01*
X64312037Y-40898157D01*
X64297601Y-40912594D01*
X64282815Y-40925223D01*
X64273110Y-40932275D01*
X64266290Y-40937230D01*
X64238049Y-40971367D01*
X64230188Y-40980005D01*
X64125478Y-41084715D01*
X64113120Y-41094615D01*
X64113294Y-41094825D01*
X64107284Y-41099796D01*
X64060636Y-41149471D01*
X64057931Y-41152262D01*
X64038173Y-41172021D01*
X64035594Y-41174947D01*
X64034792Y-41174240D01*
X63981910Y-41212415D01*
X63940597Y-41219500D01*
X63318345Y-41219500D01*
X63257797Y-41226011D01*
X63257795Y-41226011D01*
X63120793Y-41277111D01*
X63066309Y-41317898D01*
X63000845Y-41342314D01*
X62932572Y-41327462D01*
X62917691Y-41317898D01*
X62863206Y-41277111D01*
X62726203Y-41226011D01*
X62665654Y-41219500D01*
X62665638Y-41219500D01*
X61818362Y-41219500D01*
X61818345Y-41219500D01*
X61757797Y-41226011D01*
X61757795Y-41226011D01*
X61620793Y-41277111D01*
X61566309Y-41317898D01*
X61500845Y-41342314D01*
X61432572Y-41327462D01*
X61417691Y-41317898D01*
X61363206Y-41277111D01*
X61226203Y-41226011D01*
X61165654Y-41219500D01*
X61165638Y-41219500D01*
X60318362Y-41219500D01*
X60318345Y-41219500D01*
X60257797Y-41226011D01*
X60257795Y-41226011D01*
X60120793Y-41277111D01*
X60066309Y-41317898D01*
X60000845Y-41342314D01*
X59932572Y-41327462D01*
X59917691Y-41317898D01*
X59863206Y-41277111D01*
X59726203Y-41226011D01*
X59665654Y-41219500D01*
X59665638Y-41219500D01*
X58818362Y-41219500D01*
X58818345Y-41219500D01*
X58757797Y-41226011D01*
X58757795Y-41226011D01*
X58620795Y-41277111D01*
X58573810Y-41312284D01*
X58508345Y-41336700D01*
X58440072Y-41321848D01*
X58390667Y-41272442D01*
X58375500Y-41213016D01*
X58375500Y-40213566D01*
X58395185Y-40146527D01*
X58411819Y-40125885D01*
X59144990Y-39392714D01*
X62110817Y-36426886D01*
X62123178Y-36416985D01*
X62123004Y-36416775D01*
X62129013Y-36411802D01*
X62129018Y-36411800D01*
X62175690Y-36362097D01*
X62178339Y-36359364D01*
X62198135Y-36339570D01*
X62200672Y-36336298D01*
X62208249Y-36327425D01*
X62238586Y-36295121D01*
X62238588Y-36295116D01*
X62239298Y-36294361D01*
X62299538Y-36258966D01*
X62369352Y-36261758D01*
X62388703Y-36270186D01*
X62411383Y-36282460D01*
X62444418Y-36300338D01*
X62444426Y-36300342D01*
X62657365Y-36373444D01*
X62879431Y-36410500D01*
X63104569Y-36410500D01*
X63326635Y-36373444D01*
X63539574Y-36300342D01*
X63737576Y-36193189D01*
X63915240Y-36054906D01*
X64067722Y-35889268D01*
X64161749Y-35745347D01*
X64214894Y-35699994D01*
X64284125Y-35690570D01*
X64347461Y-35720072D01*
X64367131Y-35742049D01*
X64417072Y-35813373D01*
X64417073Y-35813373D01*
X65048923Y-35181523D01*
X65072507Y-35261844D01*
X65150239Y-35382798D01*
X65258900Y-35476952D01*
X65389685Y-35536680D01*
X65399466Y-35538086D01*
X64770625Y-36166925D01*
X64854421Y-36225599D01*
X65068507Y-36325429D01*
X65068516Y-36325433D01*
X65296673Y-36386567D01*
X65296684Y-36386569D01*
X65531998Y-36407157D01*
X65532002Y-36407157D01*
X65767315Y-36386569D01*
X65767326Y-36386567D01*
X65995483Y-36325433D01*
X65995492Y-36325429D01*
X66209578Y-36225600D01*
X66209582Y-36225598D01*
X66293373Y-36166926D01*
X66293373Y-36166925D01*
X65664533Y-35538086D01*
X65674315Y-35536680D01*
X65805100Y-35476952D01*
X65913761Y-35382798D01*
X65991493Y-35261844D01*
X66015076Y-35181524D01*
X66646925Y-35813373D01*
X66646926Y-35813373D01*
X66705598Y-35729582D01*
X66705600Y-35729578D01*
X66799595Y-35528004D01*
X74228569Y-35528004D01*
X74248264Y-35790823D01*
X74306910Y-36047768D01*
X74306913Y-36047780D01*
X74403204Y-36293124D01*
X74534985Y-36521376D01*
X74596924Y-36599045D01*
X74699317Y-36727442D01*
X74812733Y-36832676D01*
X74892519Y-36906706D01*
X75110285Y-37055176D01*
X75347746Y-37169532D01*
X75599600Y-37247218D01*
X75599601Y-37247218D01*
X75599604Y-37247219D01*
X75860211Y-37286499D01*
X75860216Y-37286499D01*
X75860219Y-37286500D01*
X75860220Y-37286500D01*
X76123780Y-37286500D01*
X76123781Y-37286500D01*
X76123788Y-37286499D01*
X76384395Y-37247219D01*
X76384396Y-37247218D01*
X76384400Y-37247218D01*
X76636254Y-37169532D01*
X76873716Y-37055176D01*
X77091481Y-36906706D01*
X77258349Y-36751875D01*
X77284682Y-36727442D01*
X77284682Y-36727440D01*
X77284686Y-36727438D01*
X77449015Y-36521376D01*
X77580796Y-36293124D01*
X77677087Y-36047780D01*
X77735735Y-35790826D01*
X77744176Y-35678186D01*
X77755431Y-35528004D01*
X77755431Y-35527995D01*
X77735735Y-35265176D01*
X77735735Y-35265174D01*
X77677087Y-35008220D01*
X77580796Y-34762876D01*
X77449015Y-34534624D01*
X77284686Y-34328562D01*
X77284685Y-34328561D01*
X77284682Y-34328557D01*
X77091481Y-34149294D01*
X76944512Y-34049092D01*
X76873716Y-34000824D01*
X76873712Y-34000822D01*
X76873711Y-34000821D01*
X76741334Y-33937072D01*
X76636254Y-33886468D01*
X76636248Y-33886466D01*
X76636240Y-33886463D01*
X76384405Y-33808783D01*
X76384395Y-33808780D01*
X76123788Y-33769500D01*
X76123781Y-33769500D01*
X75860219Y-33769500D01*
X75860211Y-33769500D01*
X75599604Y-33808780D01*
X75599598Y-33808782D01*
X75347745Y-33886468D01*
X75110288Y-34000822D01*
X75110284Y-34000824D01*
X74892521Y-34149292D01*
X74699317Y-34328557D01*
X74534985Y-34534624D01*
X74403204Y-34762875D01*
X74306915Y-35008214D01*
X74306910Y-35008231D01*
X74248264Y-35265176D01*
X74228569Y-35527995D01*
X74228569Y-35528004D01*
X66799595Y-35528004D01*
X66805429Y-35515492D01*
X66805433Y-35515483D01*
X66866567Y-35287326D01*
X66866569Y-35287315D01*
X66887157Y-35052001D01*
X66887157Y-35051998D01*
X66866569Y-34816684D01*
X66866567Y-34816673D01*
X66805433Y-34588516D01*
X66805429Y-34588507D01*
X66705600Y-34374423D01*
X66705599Y-34374421D01*
X66646925Y-34290626D01*
X66646925Y-34290625D01*
X66015076Y-34922475D01*
X65991493Y-34842156D01*
X65913761Y-34721202D01*
X65805100Y-34627048D01*
X65674315Y-34567320D01*
X65664533Y-34565913D01*
X66293373Y-33937073D01*
X66293373Y-33937072D01*
X66222199Y-33887236D01*
X66178574Y-33832659D01*
X66171380Y-33763161D01*
X66202903Y-33700806D01*
X66234305Y-33676606D01*
X66241070Y-33672945D01*
X66277576Y-33653189D01*
X66455240Y-33514906D01*
X66607722Y-33349268D01*
X66730860Y-33160791D01*
X66821296Y-32954616D01*
X66876564Y-32736368D01*
X66895156Y-32512000D01*
X66876564Y-32287632D01*
X66821296Y-32069384D01*
X66730860Y-31863209D01*
X66714706Y-31838484D01*
X66607723Y-31674734D01*
X66607715Y-31674723D01*
X66455243Y-31509097D01*
X66455238Y-31509092D01*
X66277577Y-31370812D01*
X66277572Y-31370808D01*
X66079580Y-31263661D01*
X66079577Y-31263659D01*
X66079574Y-31263658D01*
X66079571Y-31263657D01*
X66079569Y-31263656D01*
X65866637Y-31190556D01*
X65644569Y-31153500D01*
X65419431Y-31153500D01*
X65197362Y-31190556D01*
X64984430Y-31263656D01*
X64984419Y-31263661D01*
X64786427Y-31370808D01*
X64786422Y-31370812D01*
X64608761Y-31509092D01*
X64608756Y-31509097D01*
X64456284Y-31674723D01*
X64456276Y-31674734D01*
X64365808Y-31813206D01*
X64312662Y-31858562D01*
X64243431Y-31867986D01*
X64180095Y-31838484D01*
X64158192Y-31813206D01*
X64067723Y-31674734D01*
X64067715Y-31674723D01*
X63915243Y-31509097D01*
X63915238Y-31509092D01*
X63737577Y-31370812D01*
X63737572Y-31370808D01*
X63539580Y-31263661D01*
X63539577Y-31263659D01*
X63539574Y-31263658D01*
X63539571Y-31263657D01*
X63539569Y-31263656D01*
X63326637Y-31190556D01*
X63104569Y-31153500D01*
X62879431Y-31153500D01*
X62657362Y-31190556D01*
X62444430Y-31263656D01*
X62444419Y-31263661D01*
X62246427Y-31370808D01*
X62246422Y-31370812D01*
X62068761Y-31509092D01*
X61953182Y-31634643D01*
X61893294Y-31670633D01*
X61823456Y-31668532D01*
X61765841Y-31629007D01*
X61747526Y-31595636D01*
X61747165Y-31595805D01*
X61744599Y-31590303D01*
X61744247Y-31589661D01*
X61744115Y-31589262D01*
X61651030Y-31438348D01*
X61525652Y-31312970D01*
X61374738Y-31219885D01*
X61374735Y-31219884D01*
X61206427Y-31164113D01*
X61102545Y-31153500D01*
X59801462Y-31153500D01*
X59801446Y-31153501D01*
X59697572Y-31164113D01*
X59529264Y-31219884D01*
X59529259Y-31219886D01*
X59378346Y-31312971D01*
X59252971Y-31438346D01*
X59159886Y-31589259D01*
X59159884Y-31589264D01*
X59104113Y-31757572D01*
X59093500Y-31861447D01*
X59093500Y-32923232D01*
X59073815Y-32990271D01*
X59057181Y-33010913D01*
X55853179Y-36214914D01*
X55840820Y-36224818D01*
X55840993Y-36225027D01*
X55834982Y-36230000D01*
X55788338Y-36279669D01*
X55785633Y-36282460D01*
X55765873Y-36302221D01*
X55765858Y-36302238D01*
X55763317Y-36305513D01*
X55755753Y-36314367D01*
X55725420Y-36346671D01*
X55725412Y-36346681D01*
X55715579Y-36364567D01*
X55704903Y-36380820D01*
X55692386Y-36396957D01*
X55692385Y-36396960D01*
X55674785Y-36437629D01*
X55669648Y-36448115D01*
X55648303Y-36486941D01*
X55648303Y-36486942D01*
X55643225Y-36506720D01*
X55636925Y-36525122D01*
X55628818Y-36543857D01*
X55621888Y-36587609D01*
X55619520Y-36599045D01*
X55608500Y-36641965D01*
X55608500Y-36662384D01*
X55606973Y-36681783D01*
X55603780Y-36701941D01*
X55603780Y-36701942D01*
X55607950Y-36746057D01*
X55608500Y-36757726D01*
X55608500Y-40674682D01*
X55588815Y-40741721D01*
X55536011Y-40787476D01*
X55466853Y-40797420D01*
X55445248Y-40791310D01*
X55445137Y-40791695D01*
X55437645Y-40789518D01*
X55393883Y-40782587D01*
X55382447Y-40780219D01*
X55363966Y-40775474D01*
X55339532Y-40769200D01*
X55339530Y-40769200D01*
X55319116Y-40769200D01*
X55299717Y-40767673D01*
X55279558Y-40764480D01*
X55279557Y-40764480D01*
X55235443Y-40768650D01*
X55223774Y-40769200D01*
X47313605Y-40769200D01*
X47290374Y-40767004D01*
X47282096Y-40765425D01*
X47282091Y-40765424D01*
X47225985Y-40768955D01*
X47218199Y-40769200D01*
X47202144Y-40769200D01*
X47196068Y-40769967D01*
X47186209Y-40771212D01*
X47178467Y-40771943D01*
X47122351Y-40775474D01*
X47122349Y-40775475D01*
X47114329Y-40778081D01*
X47091563Y-40783169D01*
X47089776Y-40783395D01*
X47083206Y-40784225D01*
X47083203Y-40784225D01*
X47083203Y-40784226D01*
X47069834Y-40789519D01*
X47030938Y-40804918D01*
X47023616Y-40807554D01*
X46970128Y-40824934D01*
X46970119Y-40824939D01*
X46963003Y-40829455D01*
X46942221Y-40840044D01*
X46934383Y-40843148D01*
X46934380Y-40843149D01*
X46934378Y-40843151D01*
X46888905Y-40876188D01*
X46882467Y-40880563D01*
X46834987Y-40910696D01*
X46834978Y-40910703D01*
X46829207Y-40916849D01*
X46811710Y-40932275D01*
X46804893Y-40937227D01*
X46804893Y-40937228D01*
X46769052Y-40980551D01*
X46763903Y-40986391D01*
X46725417Y-41027375D01*
X46725413Y-41027379D01*
X46721355Y-41034762D01*
X46708241Y-41054058D01*
X46702866Y-41060555D01*
X46678925Y-41111430D01*
X46675392Y-41118365D01*
X46648305Y-41167639D01*
X46648302Y-41167645D01*
X46646207Y-41175807D01*
X46638309Y-41197748D01*
X46634717Y-41205383D01*
X46634715Y-41205387D01*
X46630080Y-41229684D01*
X46598180Y-41291847D01*
X46582588Y-41305712D01*
X46566311Y-41317897D01*
X46500847Y-41342314D01*
X46432574Y-41327463D01*
X46417691Y-41317898D01*
X46363206Y-41277111D01*
X46226203Y-41226011D01*
X46165654Y-41219500D01*
X46165638Y-41219500D01*
X45318362Y-41219500D01*
X45318345Y-41219500D01*
X45257797Y-41226011D01*
X45257795Y-41226011D01*
X45120793Y-41277111D01*
X45066309Y-41317898D01*
X45000845Y-41342314D01*
X44932572Y-41327462D01*
X44917691Y-41317898D01*
X44863206Y-41277111D01*
X44726203Y-41226011D01*
X44665654Y-41219500D01*
X44665638Y-41219500D01*
X43818362Y-41219500D01*
X43818345Y-41219500D01*
X43757797Y-41226011D01*
X43757795Y-41226011D01*
X43620793Y-41277111D01*
X43566309Y-41317898D01*
X43500845Y-41342314D01*
X43432572Y-41327462D01*
X43417691Y-41317898D01*
X43363206Y-41277111D01*
X43226203Y-41226011D01*
X43165654Y-41219500D01*
X43165638Y-41219500D01*
X42318362Y-41219500D01*
X42318345Y-41219500D01*
X42257797Y-41226011D01*
X42257795Y-41226011D01*
X42120795Y-41277111D01*
X42059218Y-41323207D01*
X41993753Y-41347623D01*
X41925480Y-41332771D01*
X41910597Y-41323206D01*
X41859088Y-41284646D01*
X41859086Y-41284645D01*
X41724379Y-41234403D01*
X41724372Y-41234401D01*
X41664844Y-41228000D01*
X41492000Y-41228000D01*
X41492000Y-45228000D01*
X41664828Y-45228000D01*
X41664844Y-45227999D01*
X41724372Y-45221598D01*
X41724379Y-45221596D01*
X41859086Y-45171354D01*
X41859089Y-45171352D01*
X41910596Y-45132794D01*
X41976060Y-45108376D01*
X42044333Y-45123227D01*
X42059218Y-45132793D01*
X42078680Y-45147362D01*
X42120552Y-45203295D01*
X42122508Y-45209526D01*
X42139838Y-45253300D01*
X42143621Y-45264349D01*
X42155981Y-45306893D01*
X42159501Y-45312845D01*
X42176680Y-45380570D01*
X42160155Y-45437958D01*
X42135973Y-45479844D01*
X42135970Y-45479850D01*
X42085288Y-45635834D01*
X42076958Y-45661472D01*
X42056996Y-45851400D01*
X42076958Y-46041328D01*
X42076959Y-46041331D01*
X42135970Y-46222949D01*
X42135973Y-46222956D01*
X42204372Y-46341427D01*
X42220845Y-46409328D01*
X42197992Y-46475354D01*
X42143071Y-46518545D01*
X42089692Y-46526056D01*
X42089636Y-46527161D01*
X42086474Y-46527000D01*
X41949000Y-46527000D01*
X41949000Y-47502000D01*
X42786499Y-47502000D01*
X42786499Y-47227028D01*
X42786498Y-47227013D01*
X42776005Y-47124302D01*
X42720858Y-46957880D01*
X42720853Y-46957869D01*
X42709184Y-46938951D01*
X42690743Y-46871559D01*
X42711665Y-46804896D01*
X42765307Y-46760126D01*
X42834637Y-46751464D01*
X42840462Y-46752556D01*
X42875013Y-46759900D01*
X42875016Y-46759900D01*
X43065987Y-46759900D01*
X43252788Y-46720194D01*
X43427252Y-46642518D01*
X43427254Y-46642516D01*
X43433189Y-46639874D01*
X43434313Y-46642400D01*
X43490375Y-46628787D01*
X43556406Y-46651626D01*
X43599608Y-46706538D01*
X43608500Y-46752648D01*
X43608500Y-54358066D01*
X43606761Y-54373813D01*
X43607032Y-54373839D01*
X43606298Y-54381605D01*
X43608439Y-54449716D01*
X43608500Y-54453612D01*
X43608500Y-54481559D01*
X43609018Y-54485658D01*
X43609934Y-54497298D01*
X43611326Y-54541589D01*
X43611327Y-54541591D01*
X43617022Y-54561195D01*
X43620967Y-54580242D01*
X43623526Y-54600497D01*
X43623527Y-54600500D01*
X43623528Y-54600504D01*
X43639838Y-54641700D01*
X43643621Y-54652749D01*
X43655981Y-54695292D01*
X43666372Y-54712862D01*
X43674932Y-54730335D01*
X43682447Y-54749317D01*
X43708491Y-54785163D01*
X43714905Y-54794927D01*
X43725327Y-54812550D01*
X43737458Y-54833062D01*
X43737462Y-54833066D01*
X43751889Y-54847493D01*
X43764526Y-54862288D01*
X43776528Y-54878807D01*
X43784280Y-54885220D01*
X43810668Y-54907050D01*
X43819309Y-54914913D01*
X45311442Y-56407046D01*
X45344927Y-56468369D01*
X45339943Y-56538061D01*
X45298071Y-56593994D01*
X45274204Y-56608003D01*
X45263250Y-56612880D01*
X45263248Y-56612881D01*
X45108745Y-56725135D01*
X44980958Y-56867057D01*
X44980954Y-56867063D01*
X44979671Y-56869286D01*
X44978592Y-56870314D01*
X44977138Y-56872316D01*
X44976771Y-56872049D01*
X44929100Y-56917497D01*
X44860492Y-56930713D01*
X44812873Y-56916114D01*
X44809205Y-56914111D01*
X44672203Y-56863011D01*
X44611654Y-56856500D01*
X44611638Y-56856500D01*
X42764362Y-56856500D01*
X42764345Y-56856500D01*
X42703797Y-56863011D01*
X42703795Y-56863011D01*
X42566795Y-56914111D01*
X42449739Y-57001739D01*
X42362111Y-57118795D01*
X42311011Y-57255795D01*
X42311011Y-57255797D01*
X42304500Y-57316345D01*
X42304500Y-57863644D01*
X42308596Y-57901748D01*
X42308596Y-57928252D01*
X42304500Y-57966355D01*
X42304500Y-58513654D01*
X42311840Y-58581912D01*
X42311249Y-58581975D01*
X42313285Y-58614509D01*
X42313000Y-58617156D01*
X42313000Y-58665000D01*
X42335288Y-58687288D01*
X42364719Y-58714688D01*
X42449739Y-58828261D01*
X42534528Y-58891733D01*
X42576399Y-58947667D01*
X42581383Y-59017359D01*
X42547898Y-59078682D01*
X42486575Y-59112166D01*
X42460217Y-59115000D01*
X42313000Y-59115000D01*
X42313000Y-59162835D01*
X42317183Y-59201748D01*
X42317183Y-59228252D01*
X42313000Y-59267164D01*
X42313000Y-59315000D01*
X42460217Y-59315000D01*
X42527256Y-59334685D01*
X42573011Y-59387489D01*
X42582955Y-59456647D01*
X42553930Y-59520203D01*
X42534530Y-59538264D01*
X42449739Y-59601739D01*
X42387435Y-59684968D01*
X42364720Y-59715311D01*
X42348266Y-59727628D01*
X42349319Y-59728681D01*
X42313000Y-59765000D01*
X42313000Y-59812838D01*
X42313285Y-59815488D01*
X42311249Y-59848024D01*
X42311840Y-59848088D01*
X42304500Y-59916345D01*
X42304500Y-60463644D01*
X42308596Y-60501748D01*
X42308596Y-60528252D01*
X42304500Y-60566355D01*
X42304500Y-61113644D01*
X42308596Y-61151748D01*
X42308596Y-61178252D01*
X42304500Y-61216355D01*
X42304500Y-61763654D01*
X42311840Y-61831912D01*
X42311249Y-61831975D01*
X42313285Y-61864509D01*
X42313000Y-61867156D01*
X42313000Y-62032500D01*
X42293315Y-62099539D01*
X42240511Y-62145294D01*
X42189000Y-62156500D01*
X40124131Y-62156500D01*
X40057092Y-62136815D01*
X40031981Y-62115472D01*
X39981258Y-62059138D01*
X39981255Y-62059136D01*
X39981254Y-62059135D01*
X39981253Y-62059134D01*
X39826752Y-61946882D01*
X39652288Y-61869206D01*
X39652286Y-61869205D01*
X39465487Y-61829500D01*
X39274513Y-61829500D01*
X39087714Y-61869205D01*
X38913246Y-61946883D01*
X38758745Y-62059135D01*
X38630959Y-62201057D01*
X38535473Y-62366443D01*
X38535470Y-62366450D01*
X38477454Y-62545006D01*
X38476458Y-62548072D01*
X38456496Y-62738000D01*
X38476458Y-62927928D01*
X38476459Y-62927931D01*
X38535470Y-63109549D01*
X38535473Y-63109556D01*
X38630960Y-63274944D01*
X38758747Y-63416866D01*
X38913248Y-63529118D01*
X39087712Y-63606794D01*
X39274513Y-63646500D01*
X39465487Y-63646500D01*
X39652288Y-63606794D01*
X39826752Y-63529118D01*
X39843431Y-63517000D01*
X39939528Y-63447182D01*
X40005334Y-63423702D01*
X40012413Y-63423500D01*
X42180500Y-63423500D01*
X42247539Y-63443185D01*
X42293294Y-63495989D01*
X42304500Y-63547500D01*
X42304500Y-63713654D01*
X42311840Y-63781912D01*
X42311249Y-63781975D01*
X42313285Y-63814509D01*
X42313000Y-63817156D01*
X42313000Y-63865000D01*
X42335288Y-63887288D01*
X42364719Y-63914688D01*
X42412905Y-63979057D01*
X42440328Y-64015689D01*
X42464745Y-64081154D01*
X42449893Y-64149427D01*
X42440329Y-64164308D01*
X42364720Y-64265311D01*
X42348266Y-64277628D01*
X42349319Y-64278681D01*
X42313000Y-64315000D01*
X42313000Y-64362838D01*
X42313285Y-64365488D01*
X42311249Y-64398024D01*
X42311840Y-64398088D01*
X42304500Y-64466345D01*
X42304500Y-64678474D01*
X42284815Y-64745513D01*
X42232011Y-64791268D01*
X42223437Y-64794350D01*
X42068627Y-64858475D01*
X42068625Y-64858476D01*
X42068623Y-64858477D01*
X42065445Y-64860602D01*
X42057448Y-64863105D01*
X42057342Y-64863150D01*
X42057338Y-64863140D01*
X41998767Y-64881480D01*
X41996553Y-64881500D01*
X40086704Y-64881500D01*
X40070519Y-64880439D01*
X40038700Y-64876250D01*
X40038696Y-64876250D01*
X40002854Y-64880968D01*
X40002839Y-64880969D01*
X40002840Y-64880970D01*
X39879850Y-64897162D01*
X39879849Y-64897162D01*
X39731824Y-64958476D01*
X39728435Y-64960740D01*
X39725377Y-64963423D01*
X39638268Y-65030264D01*
X39638262Y-65030269D01*
X39636628Y-65031523D01*
X39636625Y-65031525D01*
X39628689Y-65037615D01*
X39604710Y-65056015D01*
X39585167Y-65081483D01*
X39574475Y-65093674D01*
X39002670Y-65665479D01*
X38990479Y-65676171D01*
X38965013Y-65695713D01*
X38940520Y-65727631D01*
X38867476Y-65822823D01*
X38867474Y-65822825D01*
X38807356Y-65967967D01*
X38807349Y-65967985D01*
X38806161Y-65970850D01*
X38789970Y-66093839D01*
X38789968Y-66093850D01*
X38789969Y-66093851D01*
X38785250Y-66129700D01*
X38786993Y-66142943D01*
X38789439Y-66161518D01*
X38790500Y-66177704D01*
X38790500Y-67609195D01*
X38789439Y-67625380D01*
X38785250Y-67657197D01*
X38789969Y-67693047D01*
X38789988Y-67693200D01*
X38801110Y-67777674D01*
X38801110Y-67777675D01*
X38806162Y-67816052D01*
X38867473Y-67964071D01*
X38867476Y-67964077D01*
X38902133Y-68009242D01*
X38940523Y-68059272D01*
X38940525Y-68059274D01*
X38965013Y-68091187D01*
X38990481Y-68110729D01*
X39002673Y-68121422D01*
X41402181Y-70520930D01*
X41435666Y-70582253D01*
X41438500Y-70608611D01*
X41438500Y-70723233D01*
X41418815Y-70790272D01*
X41366011Y-70836027D01*
X41296853Y-70845971D01*
X41233297Y-70816946D01*
X41226819Y-70810914D01*
X41147088Y-70731183D01*
X41137187Y-70718823D01*
X41136977Y-70718998D01*
X41132001Y-70712984D01*
X41132000Y-70712982D01*
X41082315Y-70666325D01*
X41079550Y-70663645D01*
X41059766Y-70643861D01*
X41056504Y-70641331D01*
X41047619Y-70633743D01*
X41043524Y-70629898D01*
X41015321Y-70603414D01*
X41015319Y-70603412D01*
X40997431Y-70593578D01*
X40981170Y-70582897D01*
X40965039Y-70570384D01*
X40924375Y-70552788D01*
X40913885Y-70547649D01*
X40875060Y-70526305D01*
X40875056Y-70526304D01*
X40855287Y-70521228D01*
X40836881Y-70514926D01*
X40818144Y-70506818D01*
X40818145Y-70506818D01*
X40774383Y-70499887D01*
X40762947Y-70497519D01*
X40748193Y-70493731D01*
X40720032Y-70486500D01*
X40720030Y-70486500D01*
X40699616Y-70486500D01*
X40680217Y-70484973D01*
X40660058Y-70481780D01*
X40660057Y-70481780D01*
X40615943Y-70485950D01*
X40604274Y-70486500D01*
X36151629Y-70486500D01*
X36135886Y-70484761D01*
X36135861Y-70485033D01*
X36128093Y-70484298D01*
X36060001Y-70486439D01*
X36056106Y-70486500D01*
X36028143Y-70486500D01*
X36024031Y-70487019D01*
X36012402Y-70487934D01*
X35968111Y-70489326D01*
X35968108Y-70489327D01*
X35948505Y-70495022D01*
X35929459Y-70498966D01*
X35909203Y-70501526D01*
X35909201Y-70501526D01*
X35868007Y-70517835D01*
X35856964Y-70521616D01*
X35814404Y-70533982D01*
X35814403Y-70533983D01*
X35796824Y-70544378D01*
X35779364Y-70552932D01*
X35760384Y-70560447D01*
X35760382Y-70560448D01*
X35724545Y-70586485D01*
X35714785Y-70592896D01*
X35676638Y-70615456D01*
X35662196Y-70629898D01*
X35647408Y-70642527D01*
X35630897Y-70654523D01*
X35630892Y-70654528D01*
X35602652Y-70688663D01*
X35594792Y-70697301D01*
X35171179Y-71120914D01*
X35158820Y-71130818D01*
X35158993Y-71131027D01*
X35152982Y-71136000D01*
X35106338Y-71185669D01*
X35103633Y-71188460D01*
X35083873Y-71208221D01*
X35083858Y-71208238D01*
X35081317Y-71211513D01*
X35073753Y-71220367D01*
X35043420Y-71252671D01*
X35043412Y-71252681D01*
X35033579Y-71270567D01*
X35022903Y-71286820D01*
X35010386Y-71302957D01*
X35010385Y-71302960D01*
X34992785Y-71343629D01*
X34987648Y-71354115D01*
X34966303Y-71392941D01*
X34966303Y-71392942D01*
X34961225Y-71412720D01*
X34954925Y-71431122D01*
X34946818Y-71449857D01*
X34939888Y-71493609D01*
X34937520Y-71505045D01*
X34926500Y-71547965D01*
X34926500Y-71568384D01*
X34924973Y-71587783D01*
X34921780Y-71607941D01*
X34921780Y-71607942D01*
X34925950Y-71652057D01*
X34926500Y-71663726D01*
X34926500Y-74362233D01*
X34906815Y-74429272D01*
X34890181Y-74449914D01*
X34773914Y-74566181D01*
X34712591Y-74599666D01*
X34686233Y-74602500D01*
X34456227Y-74602500D01*
X34389188Y-74582815D01*
X34343433Y-74530011D01*
X34338519Y-74517499D01*
X34337114Y-74513258D01*
X34244032Y-74362351D01*
X34244029Y-74362347D01*
X34118652Y-74236970D01*
X34118648Y-74236967D01*
X33967747Y-74143889D01*
X33967741Y-74143886D01*
X33967739Y-74143885D01*
X33967736Y-74143884D01*
X33799428Y-74088113D01*
X33695553Y-74077500D01*
X33695546Y-74077500D01*
X32344454Y-74077500D01*
X32344446Y-74077500D01*
X32240571Y-74088113D01*
X32072263Y-74143884D01*
X32072252Y-74143889D01*
X31921351Y-74236967D01*
X31921347Y-74236970D01*
X31795970Y-74362347D01*
X31795967Y-74362351D01*
X31702889Y-74513252D01*
X31702884Y-74513263D01*
X31647113Y-74681571D01*
X31636500Y-74785446D01*
X31636500Y-75686553D01*
X29870500Y-75686553D01*
X29870500Y-71403561D01*
X29890185Y-71336522D01*
X29942989Y-71290767D01*
X30012147Y-71280823D01*
X30075703Y-71309848D01*
X30112431Y-71365243D01*
X30153470Y-71491549D01*
X30153473Y-71491556D01*
X30248960Y-71656944D01*
X30376747Y-71798866D01*
X30531248Y-71911118D01*
X30705712Y-71988794D01*
X30892513Y-72028500D01*
X31083487Y-72028500D01*
X31270288Y-71988794D01*
X31444752Y-71911118D01*
X31444756Y-71911114D01*
X31450385Y-71907866D01*
X31451937Y-71910555D01*
X31504873Y-71891403D01*
X31572996Y-71906926D01*
X31621912Y-71956816D01*
X31636500Y-72015168D01*
X31636500Y-72586553D01*
X31647113Y-72690428D01*
X31702884Y-72858736D01*
X31702889Y-72858747D01*
X31795967Y-73009648D01*
X31795970Y-73009652D01*
X31921347Y-73135029D01*
X31921351Y-73135032D01*
X32072252Y-73228110D01*
X32072255Y-73228111D01*
X32072261Y-73228115D01*
X32240573Y-73283887D01*
X32344454Y-73294500D01*
X32344459Y-73294500D01*
X33695541Y-73294500D01*
X33695546Y-73294500D01*
X33799427Y-73283887D01*
X33967739Y-73228115D01*
X34118652Y-73135030D01*
X34244030Y-73009652D01*
X34337115Y-72858739D01*
X34392887Y-72690427D01*
X34403500Y-72586546D01*
X34403500Y-71685454D01*
X34392887Y-71581573D01*
X34337115Y-71413261D01*
X34337111Y-71413255D01*
X34337110Y-71413252D01*
X34244032Y-71262351D01*
X34244029Y-71262347D01*
X34113545Y-71131863D01*
X34115147Y-71130260D01*
X34081109Y-71082173D01*
X34077982Y-71012374D01*
X34113088Y-70951964D01*
X34133308Y-70936410D01*
X34143652Y-70930030D01*
X34269030Y-70804652D01*
X34362115Y-70653739D01*
X34417887Y-70485427D01*
X34428500Y-70381546D01*
X34428500Y-69630454D01*
X34417887Y-69526573D01*
X34362115Y-69358261D01*
X34362111Y-69358255D01*
X34362110Y-69358252D01*
X34269032Y-69207351D01*
X34269029Y-69207347D01*
X34143652Y-69081970D01*
X34143648Y-69081967D01*
X33992747Y-68988889D01*
X33992741Y-68988886D01*
X33992739Y-68988885D01*
X33992736Y-68988884D01*
X33824428Y-68933113D01*
X33720553Y-68922500D01*
X33720546Y-68922500D01*
X32319454Y-68922500D01*
X32319446Y-68922500D01*
X32215571Y-68933113D01*
X32047263Y-68988884D01*
X32047252Y-68988889D01*
X31896351Y-69081967D01*
X31896347Y-69081970D01*
X31770969Y-69207348D01*
X31705785Y-69313027D01*
X31653837Y-69359751D01*
X31604148Y-69371868D01*
X31590119Y-69372309D01*
X31585994Y-69372439D01*
X31582106Y-69372500D01*
X31554143Y-69372500D01*
X31550031Y-69373019D01*
X31538402Y-69373934D01*
X31494111Y-69375326D01*
X31494108Y-69375327D01*
X31474505Y-69381022D01*
X31455459Y-69384966D01*
X31435203Y-69387526D01*
X31435201Y-69387526D01*
X31394007Y-69403835D01*
X31382964Y-69407616D01*
X31340404Y-69419982D01*
X31340403Y-69419983D01*
X31322824Y-69430378D01*
X31305364Y-69438932D01*
X31286384Y-69446447D01*
X31286382Y-69446448D01*
X31250545Y-69472485D01*
X31240785Y-69478896D01*
X31202638Y-69501456D01*
X31188196Y-69515898D01*
X31173408Y-69528527D01*
X31156897Y-69540523D01*
X31156892Y-69540528D01*
X31128652Y-69574663D01*
X31120792Y-69583301D01*
X30599179Y-70104914D01*
X30586820Y-70114818D01*
X30586993Y-70115027D01*
X30580982Y-70120000D01*
X30534338Y-70169669D01*
X30531633Y-70172460D01*
X30511873Y-70192221D01*
X30511858Y-70192238D01*
X30509317Y-70195513D01*
X30501753Y-70204367D01*
X30471420Y-70236671D01*
X30471412Y-70236681D01*
X30461579Y-70254567D01*
X30450903Y-70270820D01*
X30438386Y-70286957D01*
X30438385Y-70286960D01*
X30420785Y-70327629D01*
X30415648Y-70338115D01*
X30394304Y-70376941D01*
X30389225Y-70396720D01*
X30382924Y-70415123D01*
X30375035Y-70433354D01*
X30353383Y-70467081D01*
X30248959Y-70583056D01*
X30153473Y-70748443D01*
X30153470Y-70748450D01*
X30112431Y-70874756D01*
X30072993Y-70932432D01*
X30008635Y-70959630D01*
X29939788Y-70947715D01*
X29888313Y-70900471D01*
X29870500Y-70836438D01*
X29870500Y-67306000D01*
X31620001Y-67306000D01*
X31620001Y-67430986D01*
X31630494Y-67533696D01*
X31630494Y-67533698D01*
X31685640Y-67700119D01*
X31685645Y-67700130D01*
X31777680Y-67849340D01*
X31777683Y-67849344D01*
X31901655Y-67973316D01*
X31901659Y-67973319D01*
X32050869Y-68065354D01*
X32050880Y-68065359D01*
X32217302Y-68120505D01*
X32320019Y-68130999D01*
X32769999Y-68130999D01*
X32770000Y-68130998D01*
X32770000Y-67306000D01*
X33270000Y-67306000D01*
X33270000Y-68130999D01*
X33719972Y-68130999D01*
X33719986Y-68130998D01*
X33822696Y-68120505D01*
X33822698Y-68120505D01*
X33989119Y-68065359D01*
X33989130Y-68065354D01*
X34138340Y-67973319D01*
X34138344Y-67973316D01*
X34262316Y-67849344D01*
X34262319Y-67849340D01*
X34354354Y-67700130D01*
X34354359Y-67700119D01*
X34409505Y-67533697D01*
X34419999Y-67430986D01*
X34420000Y-67430973D01*
X34420000Y-67306000D01*
X33270000Y-67306000D01*
X32770000Y-67306000D01*
X31620001Y-67306000D01*
X29870500Y-67306000D01*
X29870500Y-66806000D01*
X31620000Y-66806000D01*
X32770000Y-66806000D01*
X32770000Y-65981000D01*
X33270000Y-65981000D01*
X33270000Y-66806000D01*
X34419999Y-66806000D01*
X34419999Y-66681028D01*
X34419998Y-66681013D01*
X34409505Y-66578303D01*
X34409505Y-66578301D01*
X34354359Y-66411880D01*
X34354354Y-66411869D01*
X34262319Y-66262659D01*
X34262316Y-66262655D01*
X34138344Y-66138683D01*
X34138340Y-66138680D01*
X33989130Y-66046645D01*
X33989119Y-66046640D01*
X33822697Y-65991494D01*
X33719986Y-65981000D01*
X33270000Y-65981000D01*
X32770000Y-65981000D01*
X32320028Y-65981000D01*
X32320012Y-65981001D01*
X32217303Y-65991494D01*
X32217301Y-65991494D01*
X32050880Y-66046640D01*
X32050869Y-66046645D01*
X31901659Y-66138680D01*
X31901655Y-66138683D01*
X31777683Y-66262655D01*
X31777680Y-66262659D01*
X31685645Y-66411869D01*
X31685640Y-66411880D01*
X31630494Y-66578302D01*
X31620000Y-66681013D01*
X31620000Y-66806000D01*
X29870500Y-66806000D01*
X29870500Y-61718000D01*
X32303001Y-61718000D01*
X32303001Y-61855486D01*
X32313494Y-61958197D01*
X32368641Y-62124619D01*
X32368643Y-62124624D01*
X32460684Y-62273845D01*
X32584654Y-62397815D01*
X32733875Y-62489856D01*
X32733880Y-62489858D01*
X32900302Y-62545005D01*
X32900309Y-62545006D01*
X33003019Y-62555499D01*
X33277999Y-62555499D01*
X33278000Y-62555498D01*
X33278000Y-61718000D01*
X33778000Y-61718000D01*
X33778000Y-62555499D01*
X34052972Y-62555499D01*
X34052986Y-62555498D01*
X34155697Y-62545005D01*
X34322119Y-62489858D01*
X34322124Y-62489856D01*
X34471345Y-62397815D01*
X34595315Y-62273845D01*
X34687356Y-62124624D01*
X34687358Y-62124619D01*
X34742505Y-61958197D01*
X34742506Y-61958190D01*
X34752999Y-61855486D01*
X34753000Y-61855473D01*
X34753000Y-61718000D01*
X33778000Y-61718000D01*
X33278000Y-61718000D01*
X32303001Y-61718000D01*
X29870500Y-61718000D01*
X29870500Y-57687561D01*
X29890185Y-57620522D01*
X29942989Y-57574767D01*
X30012147Y-57564823D01*
X30075703Y-57593848D01*
X30112431Y-57649243D01*
X30153470Y-57775549D01*
X30153473Y-57775556D01*
X30248960Y-57940944D01*
X30376747Y-58082866D01*
X30531248Y-58195118D01*
X30705712Y-58272794D01*
X30892513Y-58312500D01*
X31083487Y-58312500D01*
X31270288Y-58272794D01*
X31444752Y-58195118D01*
X31599253Y-58082866D01*
X31603160Y-58078527D01*
X31662646Y-58041879D01*
X31695309Y-58037500D01*
X32706234Y-58037500D01*
X32773273Y-58057185D01*
X32793915Y-58073819D01*
X32853415Y-58133319D01*
X32886900Y-58194642D01*
X32881916Y-58264334D01*
X32840044Y-58320267D01*
X32804740Y-58338705D01*
X32780267Y-58346815D01*
X32730262Y-58363385D01*
X32730259Y-58363386D01*
X32579346Y-58456471D01*
X32453971Y-58581846D01*
X32360886Y-58732759D01*
X32360884Y-58732764D01*
X32305113Y-58901072D01*
X32294500Y-59004947D01*
X32294500Y-59781037D01*
X32294501Y-59781053D01*
X32305113Y-59884927D01*
X32360884Y-60053235D01*
X32360885Y-60053238D01*
X32453970Y-60204152D01*
X32579348Y-60329530D01*
X32580031Y-60329951D01*
X32580401Y-60330363D01*
X32585015Y-60334011D01*
X32584391Y-60334798D01*
X32626759Y-60381897D01*
X32637984Y-60450859D01*
X32610144Y-60514942D01*
X32589582Y-60532764D01*
X32590323Y-60533702D01*
X32584655Y-60538183D01*
X32460684Y-60662154D01*
X32368643Y-60811375D01*
X32368641Y-60811380D01*
X32313494Y-60977802D01*
X32313493Y-60977809D01*
X32303000Y-61080513D01*
X32303000Y-61218000D01*
X34752999Y-61218000D01*
X34752999Y-61080528D01*
X34752998Y-61080513D01*
X34742505Y-60977802D01*
X34687358Y-60811380D01*
X34687356Y-60811375D01*
X34595315Y-60662154D01*
X34471344Y-60538183D01*
X34465677Y-60533702D01*
X34467404Y-60531516D01*
X34429240Y-60489089D01*
X34418015Y-60420127D01*
X34445855Y-60356043D01*
X34471106Y-60334164D01*
X34470985Y-60334011D01*
X34474401Y-60331309D01*
X34475969Y-60329951D01*
X34476652Y-60329530D01*
X34596363Y-60209819D01*
X34657686Y-60176334D01*
X34684044Y-60173500D01*
X34980500Y-60173500D01*
X35047539Y-60193185D01*
X35093294Y-60245989D01*
X35104500Y-60297500D01*
X35104500Y-60463644D01*
X35108596Y-60501748D01*
X35108596Y-60528252D01*
X35104500Y-60566355D01*
X35104500Y-61113654D01*
X35111840Y-61181912D01*
X35111249Y-61181975D01*
X35113285Y-61214509D01*
X35113000Y-61217156D01*
X35113000Y-61265000D01*
X35135288Y-61287288D01*
X35164719Y-61314688D01*
X35235070Y-61408666D01*
X35240328Y-61415689D01*
X35264745Y-61481154D01*
X35249893Y-61549427D01*
X35240328Y-61564311D01*
X35164720Y-61665311D01*
X35148266Y-61677628D01*
X35149319Y-61678681D01*
X35113000Y-61715000D01*
X35113000Y-61762838D01*
X35113285Y-61765488D01*
X35111249Y-61798024D01*
X35111840Y-61798088D01*
X35104500Y-61866345D01*
X35104500Y-62413644D01*
X35108596Y-62451748D01*
X35108596Y-62478252D01*
X35104500Y-62516355D01*
X35104500Y-63063644D01*
X35108596Y-63101748D01*
X35108596Y-63128252D01*
X35104500Y-63166355D01*
X35104500Y-63713644D01*
X35108596Y-63751748D01*
X35108596Y-63778252D01*
X35104500Y-63816355D01*
X35104500Y-64363644D01*
X35108596Y-64401748D01*
X35108596Y-64428252D01*
X35104500Y-64466355D01*
X35104500Y-65013644D01*
X35108596Y-65051748D01*
X35108596Y-65078252D01*
X35104500Y-65116355D01*
X35104500Y-65663644D01*
X35108596Y-65701748D01*
X35108596Y-65728252D01*
X35104500Y-65766355D01*
X35104500Y-66313654D01*
X35111011Y-66374202D01*
X35111011Y-66374204D01*
X35143906Y-66462396D01*
X35162111Y-66511204D01*
X35249739Y-66628261D01*
X35366796Y-66715889D01*
X35503799Y-66766989D01*
X35531050Y-66769918D01*
X35564345Y-66773499D01*
X35564362Y-66773500D01*
X37411638Y-66773500D01*
X37411654Y-66773499D01*
X37438692Y-66770591D01*
X37472201Y-66766989D01*
X37609204Y-66715889D01*
X37726261Y-66628261D01*
X37813889Y-66511204D01*
X37864989Y-66374201D01*
X37871375Y-66314804D01*
X37871499Y-66313654D01*
X37871500Y-66313637D01*
X37871500Y-65766362D01*
X37871498Y-65766343D01*
X37867404Y-65728255D01*
X37867404Y-65701745D01*
X37871498Y-65663656D01*
X37871500Y-65663637D01*
X37871500Y-65116362D01*
X37871498Y-65116343D01*
X37867404Y-65078255D01*
X37867404Y-65051745D01*
X37871498Y-65013656D01*
X37871500Y-65013637D01*
X37871500Y-64466362D01*
X37871498Y-64466343D01*
X37867404Y-64428255D01*
X37867404Y-64401745D01*
X37871498Y-64363656D01*
X37871500Y-64363637D01*
X37871500Y-63816362D01*
X37871498Y-63816343D01*
X37867404Y-63778255D01*
X37867404Y-63751745D01*
X37871498Y-63713656D01*
X37871500Y-63713637D01*
X37871500Y-63166362D01*
X37871498Y-63166343D01*
X37867404Y-63128255D01*
X37867404Y-63101745D01*
X37871498Y-63063656D01*
X37871500Y-63063637D01*
X37871500Y-62516362D01*
X37871498Y-62516343D01*
X37867404Y-62478255D01*
X37867404Y-62451745D01*
X37871498Y-62413656D01*
X37871500Y-62413637D01*
X37871500Y-61866362D01*
X37871499Y-61866345D01*
X37864160Y-61798086D01*
X37864753Y-61798022D01*
X37862717Y-61765452D01*
X37862999Y-61762823D01*
X37863000Y-61762822D01*
X37863000Y-61715000D01*
X37840710Y-61692710D01*
X37811281Y-61665311D01*
X37735672Y-61564311D01*
X37711254Y-61498847D01*
X37726105Y-61430574D01*
X37735672Y-61415689D01*
X37740930Y-61408666D01*
X37809412Y-61317185D01*
X37811281Y-61314689D01*
X37827734Y-61302372D01*
X37826681Y-61301319D01*
X37863000Y-61265000D01*
X37863000Y-61217178D01*
X37862999Y-61217171D01*
X37862717Y-61214545D01*
X37864753Y-61181977D01*
X37864160Y-61181914D01*
X37871499Y-61113654D01*
X37871500Y-61113637D01*
X37871500Y-60947500D01*
X37891185Y-60880461D01*
X37943989Y-60834706D01*
X37995500Y-60823500D01*
X38786366Y-60823500D01*
X38802113Y-60825238D01*
X38802139Y-60824968D01*
X38809905Y-60825701D01*
X38809909Y-60825702D01*
X38878017Y-60823560D01*
X38881913Y-60823500D01*
X38909858Y-60823500D01*
X38909860Y-60823499D01*
X38911262Y-60823322D01*
X38913949Y-60822983D01*
X38925608Y-60822064D01*
X38969889Y-60820673D01*
X38989481Y-60814980D01*
X39008538Y-60811032D01*
X39028797Y-60808474D01*
X39070006Y-60792157D01*
X39081043Y-60788379D01*
X39123593Y-60776018D01*
X39141165Y-60765625D01*
X39158632Y-60757068D01*
X39177617Y-60749552D01*
X39213461Y-60723508D01*
X39223230Y-60717092D01*
X39254278Y-60698731D01*
X39261362Y-60694542D01*
X39275802Y-60680100D01*
X39290592Y-60667470D01*
X39307107Y-60655472D01*
X39335359Y-60621319D01*
X39343203Y-60612699D01*
X40266815Y-59689087D01*
X40279180Y-59679183D01*
X40279006Y-59678973D01*
X40285009Y-59674005D01*
X40285018Y-59674000D01*
X40331677Y-59624311D01*
X40334356Y-59621546D01*
X40354134Y-59601770D01*
X40356660Y-59598512D01*
X40364246Y-59589629D01*
X40394586Y-59557321D01*
X40404423Y-59539424D01*
X40415097Y-59523174D01*
X40427613Y-59507041D01*
X40445207Y-59466380D01*
X40450341Y-59455900D01*
X40471695Y-59417060D01*
X40476774Y-59397274D01*
X40483072Y-59378882D01*
X40491181Y-59360145D01*
X40498113Y-59316372D01*
X40500478Y-59304953D01*
X40511500Y-59262030D01*
X40511500Y-59241615D01*
X40513027Y-59222214D01*
X40513341Y-59220233D01*
X40516220Y-59202057D01*
X40512050Y-59157942D01*
X40511500Y-59146273D01*
X40511500Y-58359756D01*
X40531185Y-58292717D01*
X40543346Y-58276788D01*
X40617040Y-58194944D01*
X40712527Y-58029556D01*
X40771542Y-57847928D01*
X40791504Y-57658000D01*
X40771542Y-57468072D01*
X40715184Y-57294621D01*
X40712529Y-57286450D01*
X40712528Y-57286449D01*
X40712527Y-57286444D01*
X40617040Y-57121056D01*
X40489253Y-56979134D01*
X40334752Y-56866882D01*
X40160288Y-56789206D01*
X40160286Y-56789205D01*
X39973487Y-56749500D01*
X39830500Y-56749500D01*
X39763461Y-56729815D01*
X39717706Y-56677011D01*
X39706500Y-56625500D01*
X39706500Y-55100814D01*
X39726185Y-55033775D01*
X39765403Y-54995276D01*
X39833917Y-54953014D01*
X39884152Y-54922030D01*
X40009530Y-54796652D01*
X40009949Y-54795971D01*
X40010359Y-54795602D01*
X40014011Y-54790985D01*
X40014799Y-54791608D01*
X40061889Y-54749244D01*
X40130850Y-54738014D01*
X40194936Y-54765850D01*
X40212761Y-54786420D01*
X40213702Y-54785677D01*
X40218183Y-54791344D01*
X40342154Y-54915315D01*
X40491375Y-55007356D01*
X40491380Y-55007358D01*
X40657802Y-55062505D01*
X40657809Y-55062506D01*
X40760519Y-55072999D01*
X40897999Y-55072999D01*
X40898000Y-55072998D01*
X40898000Y-54098000D01*
X41398000Y-54098000D01*
X41398000Y-55072999D01*
X41535472Y-55072999D01*
X41535486Y-55072998D01*
X41638197Y-55062505D01*
X41804619Y-55007358D01*
X41804624Y-55007356D01*
X41953845Y-54915315D01*
X42077815Y-54791345D01*
X42169856Y-54642124D01*
X42169858Y-54642119D01*
X42225005Y-54475697D01*
X42225006Y-54475690D01*
X42235499Y-54372986D01*
X42235500Y-54372973D01*
X42235500Y-54098000D01*
X41398000Y-54098000D01*
X40898000Y-54098000D01*
X40898000Y-52623000D01*
X41398000Y-52623000D01*
X41398000Y-53598000D01*
X42235499Y-53598000D01*
X42235499Y-53323028D01*
X42235498Y-53323013D01*
X42225005Y-53220302D01*
X42169858Y-53053880D01*
X42169856Y-53053875D01*
X42077815Y-52904654D01*
X41953845Y-52780684D01*
X41804624Y-52688643D01*
X41804619Y-52688641D01*
X41638197Y-52633494D01*
X41638190Y-52633493D01*
X41535486Y-52623000D01*
X41398000Y-52623000D01*
X40898000Y-52623000D01*
X40760527Y-52623000D01*
X40760512Y-52623001D01*
X40657802Y-52633494D01*
X40491380Y-52688641D01*
X40491375Y-52688643D01*
X40342154Y-52780684D01*
X40218183Y-52904655D01*
X40213702Y-52910323D01*
X40211521Y-52908598D01*
X40169056Y-52946775D01*
X40100091Y-52957980D01*
X40036016Y-52930121D01*
X40014163Y-52904894D01*
X40014011Y-52905015D01*
X40011316Y-52901606D01*
X40009951Y-52900031D01*
X40009529Y-52899347D01*
X39884153Y-52773971D01*
X39884152Y-52773970D01*
X39790398Y-52716142D01*
X39733240Y-52680886D01*
X39733235Y-52680884D01*
X39564927Y-52625113D01*
X39461046Y-52614500D01*
X38684962Y-52614500D01*
X38684946Y-52614501D01*
X38581072Y-52625113D01*
X38412764Y-52680884D01*
X38412759Y-52680886D01*
X38261846Y-52773971D01*
X38136471Y-52899346D01*
X38043382Y-53050266D01*
X38017127Y-53129503D01*
X37977355Y-53186948D01*
X37912840Y-53213772D01*
X37899421Y-53214500D01*
X37283309Y-53214500D01*
X37216270Y-53194815D01*
X37191160Y-53173473D01*
X37187254Y-53169135D01*
X37161489Y-53150415D01*
X37032752Y-53056882D01*
X36858288Y-52979206D01*
X36858286Y-52979205D01*
X36671487Y-52939500D01*
X36480513Y-52939500D01*
X36293714Y-52979205D01*
X36293712Y-52979206D01*
X36163718Y-53037083D01*
X36119246Y-53056883D01*
X35964745Y-53169135D01*
X35836959Y-53311057D01*
X35741473Y-53476443D01*
X35741470Y-53476450D01*
X35683293Y-53655501D01*
X35682458Y-53658072D01*
X35662496Y-53848000D01*
X35682458Y-54037928D01*
X35682459Y-54037931D01*
X35741470Y-54219549D01*
X35741473Y-54219556D01*
X35836960Y-54384944D01*
X35964747Y-54526866D01*
X36119248Y-54639118D01*
X36293712Y-54716794D01*
X36480513Y-54756500D01*
X36671487Y-54756500D01*
X36858288Y-54716794D01*
X37032752Y-54639118D01*
X37187253Y-54526866D01*
X37191160Y-54522527D01*
X37250646Y-54485879D01*
X37283309Y-54481500D01*
X37899421Y-54481500D01*
X37966460Y-54501185D01*
X38012215Y-54553989D01*
X38017127Y-54566497D01*
X38043382Y-54645733D01*
X38043384Y-54645737D01*
X38043385Y-54645738D01*
X38135822Y-54795602D01*
X38136471Y-54796653D01*
X38261847Y-54922029D01*
X38261851Y-54922032D01*
X38380597Y-54995276D01*
X38427322Y-55047224D01*
X38439500Y-55100814D01*
X38439500Y-56371500D01*
X38419815Y-56438539D01*
X38367011Y-56484294D01*
X38315500Y-56495500D01*
X38252513Y-56495500D01*
X38065714Y-56535205D01*
X37978480Y-56574044D01*
X37891253Y-56612880D01*
X37891246Y-56612883D01*
X37736744Y-56725136D01*
X37633749Y-56839523D01*
X37574262Y-56876171D01*
X37504405Y-56874840D01*
X37498268Y-56872732D01*
X37472206Y-56863012D01*
X37472202Y-56863011D01*
X37411654Y-56856500D01*
X37411638Y-56856500D01*
X35564362Y-56856500D01*
X35564345Y-56856500D01*
X35503797Y-56863011D01*
X35503795Y-56863011D01*
X35366795Y-56914111D01*
X35249739Y-57001739D01*
X35162111Y-57118795D01*
X35111011Y-57255795D01*
X35111011Y-57255797D01*
X35104500Y-57316345D01*
X35104500Y-57863644D01*
X35108596Y-57901748D01*
X35108596Y-57928252D01*
X35104500Y-57966355D01*
X35104500Y-58513644D01*
X35108596Y-58551748D01*
X35108596Y-58578252D01*
X35104500Y-58616355D01*
X35104500Y-58782500D01*
X35084815Y-58849539D01*
X35032011Y-58895294D01*
X34980500Y-58906500D01*
X34842226Y-58906500D01*
X34775187Y-58886815D01*
X34729432Y-58834011D01*
X34724520Y-58821503D01*
X34721011Y-58810913D01*
X34695115Y-58732762D01*
X34602030Y-58581848D01*
X34476652Y-58456470D01*
X34382898Y-58398642D01*
X34325740Y-58363386D01*
X34325735Y-58363384D01*
X34275733Y-58346815D01*
X34246495Y-58337126D01*
X34189051Y-58297354D01*
X34162228Y-58232838D01*
X34161500Y-58219421D01*
X34161500Y-57995626D01*
X34163238Y-57979881D01*
X34162967Y-57979856D01*
X34163701Y-57972093D01*
X34161561Y-57903999D01*
X34161500Y-57900104D01*
X34161500Y-57872150D01*
X34161500Y-57872144D01*
X34160980Y-57868031D01*
X34160064Y-57856389D01*
X34159798Y-57847931D01*
X34158673Y-57812110D01*
X34152977Y-57792508D01*
X34149032Y-57773457D01*
X34146474Y-57753203D01*
X34130165Y-57712011D01*
X34126380Y-57700958D01*
X34124973Y-57696115D01*
X34114018Y-57658406D01*
X34103625Y-57640833D01*
X34095063Y-57623355D01*
X34093941Y-57620522D01*
X34087552Y-57604383D01*
X34087550Y-57604380D01*
X34087549Y-57604378D01*
X34061512Y-57568541D01*
X34055098Y-57558778D01*
X34054078Y-57557053D01*
X34032542Y-57520637D01*
X34018108Y-57506203D01*
X34005469Y-57491406D01*
X34001932Y-57486537D01*
X33993472Y-57474893D01*
X33992316Y-57473937D01*
X33959336Y-57446653D01*
X33950696Y-57438791D01*
X33527088Y-57015183D01*
X33517187Y-57002823D01*
X33516977Y-57002998D01*
X33512001Y-56996984D01*
X33512000Y-56996982D01*
X33462315Y-56950325D01*
X33459550Y-56947645D01*
X33439766Y-56927861D01*
X33436504Y-56925331D01*
X33427619Y-56917743D01*
X33395321Y-56887414D01*
X33395319Y-56887412D01*
X33377431Y-56877578D01*
X33361170Y-56866897D01*
X33345039Y-56854384D01*
X33304375Y-56836788D01*
X33293885Y-56831649D01*
X33255060Y-56810305D01*
X33255056Y-56810304D01*
X33235287Y-56805228D01*
X33216881Y-56798926D01*
X33198144Y-56790818D01*
X33198145Y-56790818D01*
X33154383Y-56783887D01*
X33142947Y-56781519D01*
X33128193Y-56777731D01*
X33100032Y-56770500D01*
X33100030Y-56770500D01*
X33079616Y-56770500D01*
X33060217Y-56768973D01*
X33040058Y-56765780D01*
X33040057Y-56765780D01*
X32995943Y-56769950D01*
X32984274Y-56770500D01*
X31695309Y-56770500D01*
X31628270Y-56750815D01*
X31603160Y-56729473D01*
X31599254Y-56725135D01*
X31533018Y-56677011D01*
X31444752Y-56612882D01*
X31270288Y-56535206D01*
X31270286Y-56535205D01*
X31083487Y-56495500D01*
X30892513Y-56495500D01*
X30705714Y-56535205D01*
X30618480Y-56574044D01*
X30531253Y-56612880D01*
X30531246Y-56612883D01*
X30376745Y-56725135D01*
X30248959Y-56867057D01*
X30153473Y-57032443D01*
X30153470Y-57032450D01*
X30112431Y-57158756D01*
X30072993Y-57216432D01*
X30008635Y-57243630D01*
X29939788Y-57231715D01*
X29888313Y-57184471D01*
X29870500Y-57120438D01*
X29870500Y-47752000D01*
X36678496Y-47752000D01*
X36698458Y-47941928D01*
X36698459Y-47941931D01*
X36757470Y-48123549D01*
X36757473Y-48123556D01*
X36852960Y-48288944D01*
X36980747Y-48430866D01*
X37135248Y-48543118D01*
X37309712Y-48620794D01*
X37496513Y-48660500D01*
X37687487Y-48660500D01*
X37874288Y-48620794D01*
X38048752Y-48543118D01*
X38203253Y-48430866D01*
X38207160Y-48426527D01*
X38266646Y-48389879D01*
X38299309Y-48385500D01*
X38450421Y-48385500D01*
X38517460Y-48405185D01*
X38563215Y-48457989D01*
X38568127Y-48470497D01*
X38594382Y-48549733D01*
X38594384Y-48549737D01*
X38594385Y-48549738D01*
X38687470Y-48700652D01*
X38812848Y-48826030D01*
X38963762Y-48919115D01*
X39132074Y-48974887D01*
X39235955Y-48985500D01*
X40012044Y-48985499D01*
X40115926Y-48974887D01*
X40284238Y-48919115D01*
X40435152Y-48826030D01*
X40560530Y-48700652D01*
X40560949Y-48699971D01*
X40561359Y-48699602D01*
X40565011Y-48694985D01*
X40565799Y-48695608D01*
X40612889Y-48653244D01*
X40681850Y-48642014D01*
X40745936Y-48669850D01*
X40763761Y-48690420D01*
X40764702Y-48689677D01*
X40769183Y-48695344D01*
X40893154Y-48819315D01*
X41042375Y-48911356D01*
X41042380Y-48911358D01*
X41208802Y-48966505D01*
X41208809Y-48966506D01*
X41311519Y-48976999D01*
X41448999Y-48976999D01*
X41449000Y-48976998D01*
X41449000Y-48002000D01*
X41949000Y-48002000D01*
X41949000Y-48976999D01*
X42086472Y-48976999D01*
X42086486Y-48976998D01*
X42189197Y-48966505D01*
X42355619Y-48911358D01*
X42355624Y-48911356D01*
X42504845Y-48819315D01*
X42628815Y-48695345D01*
X42720856Y-48546124D01*
X42720858Y-48546119D01*
X42776005Y-48379697D01*
X42776006Y-48379690D01*
X42786499Y-48276986D01*
X42786500Y-48276973D01*
X42786500Y-48002000D01*
X41949000Y-48002000D01*
X41449000Y-48002000D01*
X41449000Y-46527000D01*
X41311527Y-46527000D01*
X41311512Y-46527001D01*
X41208802Y-46537494D01*
X41042380Y-46592641D01*
X41042375Y-46592643D01*
X40893154Y-46684684D01*
X40769183Y-46808655D01*
X40764702Y-46814323D01*
X40762521Y-46812598D01*
X40720056Y-46850775D01*
X40651091Y-46861980D01*
X40587016Y-46834121D01*
X40565163Y-46808894D01*
X40565011Y-46809015D01*
X40562316Y-46805606D01*
X40560951Y-46804031D01*
X40560529Y-46803347D01*
X40435152Y-46677970D01*
X40435146Y-46677965D01*
X40434398Y-46677504D01*
X40433992Y-46677053D01*
X40429485Y-46673489D01*
X40430094Y-46672718D01*
X40387676Y-46625554D01*
X40375500Y-46571969D01*
X40375500Y-45232366D01*
X40395185Y-45165327D01*
X40447989Y-45119572D01*
X40517147Y-45109628D01*
X40573812Y-45133100D01*
X40624910Y-45171352D01*
X40624913Y-45171354D01*
X40759620Y-45221596D01*
X40759627Y-45221598D01*
X40819155Y-45227999D01*
X40819172Y-45228000D01*
X40992000Y-45228000D01*
X40992000Y-41228000D01*
X40819155Y-41228000D01*
X40759627Y-41234401D01*
X40759620Y-41234403D01*
X40624913Y-41284645D01*
X40624906Y-41284649D01*
X40573401Y-41323206D01*
X40507937Y-41347623D01*
X40439664Y-41332771D01*
X40424781Y-41323206D01*
X40363206Y-41277112D01*
X40363206Y-41277111D01*
X40226203Y-41226011D01*
X40165654Y-41219500D01*
X40165638Y-41219500D01*
X39318362Y-41219500D01*
X39318345Y-41219500D01*
X39257797Y-41226011D01*
X39257795Y-41226011D01*
X39120795Y-41277111D01*
X39003739Y-41364739D01*
X38916111Y-41481795D01*
X38865011Y-41618795D01*
X38865011Y-41618797D01*
X38858500Y-41679345D01*
X38858500Y-44776654D01*
X38865011Y-44837202D01*
X38865011Y-44837204D01*
X38910067Y-44957999D01*
X38916111Y-44974204D01*
X39003739Y-45091261D01*
X39058812Y-45132488D01*
X39100681Y-45188419D01*
X39108500Y-45231753D01*
X39108500Y-46447382D01*
X39088815Y-46514421D01*
X39036011Y-46560176D01*
X39023505Y-46565087D01*
X38963770Y-46584881D01*
X38963759Y-46584886D01*
X38812846Y-46677971D01*
X38687471Y-46803346D01*
X38594382Y-46954266D01*
X38568127Y-47033503D01*
X38528355Y-47090948D01*
X38463840Y-47117772D01*
X38450421Y-47118500D01*
X38299309Y-47118500D01*
X38232270Y-47098815D01*
X38207160Y-47077473D01*
X38203254Y-47073135D01*
X38148706Y-47033503D01*
X38048752Y-46960882D01*
X37874288Y-46883206D01*
X37874286Y-46883205D01*
X37687487Y-46843500D01*
X37496513Y-46843500D01*
X37309714Y-46883205D01*
X37309712Y-46883206D01*
X37136448Y-46960348D01*
X37135246Y-46960883D01*
X36980745Y-47073135D01*
X36852959Y-47215057D01*
X36757473Y-47380443D01*
X36757470Y-47380450D01*
X36703383Y-47546914D01*
X36698458Y-47562072D01*
X36678496Y-47752000D01*
X29870500Y-47752000D01*
X29870500Y-44958000D01*
X31029341Y-44958000D01*
X31049936Y-45193403D01*
X31049938Y-45193413D01*
X31111094Y-45421655D01*
X31111096Y-45421659D01*
X31111097Y-45421663D01*
X31143151Y-45490403D01*
X31210964Y-45635828D01*
X31210965Y-45635830D01*
X31346505Y-45829402D01*
X31513597Y-45996494D01*
X31707169Y-46132034D01*
X31707171Y-46132035D01*
X31921337Y-46231903D01*
X32149592Y-46293063D01*
X32326032Y-46308499D01*
X32326033Y-46308500D01*
X32326034Y-46308500D01*
X32443967Y-46308500D01*
X32443967Y-46308499D01*
X32620408Y-46293063D01*
X32848663Y-46231903D01*
X33062829Y-46132035D01*
X33256401Y-45996495D01*
X33423495Y-45829401D01*
X33559035Y-45635830D01*
X33658903Y-45421663D01*
X33720063Y-45193408D01*
X33740659Y-44958000D01*
X33720063Y-44722592D01*
X33658903Y-44494337D01*
X33559035Y-44280171D01*
X33559034Y-44280169D01*
X33423494Y-44086597D01*
X33256402Y-43919505D01*
X33062830Y-43783965D01*
X33062828Y-43783964D01*
X32955746Y-43734031D01*
X32848663Y-43684097D01*
X32848659Y-43684096D01*
X32848655Y-43684094D01*
X32620413Y-43622938D01*
X32620403Y-43622936D01*
X32443967Y-43607500D01*
X32443966Y-43607500D01*
X32326034Y-43607500D01*
X32326033Y-43607500D01*
X32149596Y-43622936D01*
X32149586Y-43622938D01*
X31921344Y-43684094D01*
X31921335Y-43684098D01*
X31707171Y-43783964D01*
X31707169Y-43783965D01*
X31513597Y-43919505D01*
X31346506Y-44086597D01*
X31346501Y-44086604D01*
X31210967Y-44280165D01*
X31210965Y-44280169D01*
X31111098Y-44494335D01*
X31111094Y-44494344D01*
X31049938Y-44722586D01*
X31049936Y-44722596D01*
X31029341Y-44957999D01*
X31029341Y-44958000D01*
X29870500Y-44958000D01*
X29870500Y-35528004D01*
X48228569Y-35528004D01*
X48248264Y-35790823D01*
X48306910Y-36047768D01*
X48306913Y-36047780D01*
X48403204Y-36293124D01*
X48534985Y-36521376D01*
X48596924Y-36599045D01*
X48699317Y-36727442D01*
X48812733Y-36832676D01*
X48892519Y-36906706D01*
X49110285Y-37055176D01*
X49347746Y-37169532D01*
X49599600Y-37247218D01*
X49599601Y-37247218D01*
X49599604Y-37247219D01*
X49860211Y-37286499D01*
X49860216Y-37286499D01*
X49860219Y-37286500D01*
X49860220Y-37286500D01*
X50123780Y-37286500D01*
X50123781Y-37286500D01*
X50123788Y-37286499D01*
X50384395Y-37247219D01*
X50384396Y-37247218D01*
X50384400Y-37247218D01*
X50636254Y-37169532D01*
X50873716Y-37055176D01*
X51091481Y-36906706D01*
X51258349Y-36751875D01*
X51284682Y-36727442D01*
X51284682Y-36727440D01*
X51284686Y-36727438D01*
X51449015Y-36521376D01*
X51580796Y-36293124D01*
X51677087Y-36047780D01*
X51735735Y-35790826D01*
X51744176Y-35678186D01*
X51755431Y-35528004D01*
X51755431Y-35527995D01*
X51735735Y-35265176D01*
X51735735Y-35265174D01*
X51677087Y-35008220D01*
X51580796Y-34762876D01*
X51449015Y-34534624D01*
X51284686Y-34328562D01*
X51284685Y-34328561D01*
X51284682Y-34328557D01*
X51091481Y-34149294D01*
X50944512Y-34049092D01*
X50873716Y-34000824D01*
X50873712Y-34000822D01*
X50873711Y-34000821D01*
X50741334Y-33937072D01*
X50636254Y-33886468D01*
X50636248Y-33886466D01*
X50636240Y-33886463D01*
X50384405Y-33808783D01*
X50384395Y-33808780D01*
X50123788Y-33769500D01*
X50123781Y-33769500D01*
X49860219Y-33769500D01*
X49860211Y-33769500D01*
X49599604Y-33808780D01*
X49599598Y-33808782D01*
X49347745Y-33886468D01*
X49110288Y-34000822D01*
X49110284Y-34000824D01*
X48892521Y-34149292D01*
X48699317Y-34328557D01*
X48534985Y-34534624D01*
X48403204Y-34762875D01*
X48306915Y-35008214D01*
X48306910Y-35008231D01*
X48248264Y-35265176D01*
X48228569Y-35527995D01*
X48228569Y-35528004D01*
X29870500Y-35528004D01*
X29870500Y-24133750D01*
X29870726Y-24126263D01*
X29888381Y-23834397D01*
X29890186Y-23819532D01*
X29942216Y-23535612D01*
X29945800Y-23521074D01*
X30031671Y-23245503D01*
X30036973Y-23231522D01*
X30155446Y-22968285D01*
X30162397Y-22955040D01*
X30311735Y-22708005D01*
X30320222Y-22695709D01*
X30498253Y-22468470D01*
X30508168Y-22457279D01*
X30712279Y-22253168D01*
X30723470Y-22243253D01*
X30950709Y-22065222D01*
X30963005Y-22056735D01*
X31210040Y-21907397D01*
X31223285Y-21900446D01*
X31486522Y-21781973D01*
X31500503Y-21776671D01*
X31776086Y-21690796D01*
X31790604Y-21687217D01*
X32032816Y-21642831D01*
X32055167Y-21640800D01*
X46973798Y-21640800D01*
X47040837Y-21660485D01*
G37*
%TD.AperFunction*%
%TD*%
M02*
