%TF.GenerationSoftware,KiCad,Pcbnew,7.0.10*%
%TF.CreationDate,2024-03-24T11:08:13+01:00*%
%TF.ProjectId,dmg-gbc-cartridge-reader.kicad_pro,646d672d-6762-4632-9d63-617274726964,rev?*%
%TF.SameCoordinates,Original*%
%TF.FileFunction,Legend,Bot*%
%TF.FilePolarity,Positive*%
%FSLAX46Y46*%
G04 Gerber Fmt 4.6, Leading zero omitted, Abs format (unit mm)*
G04 Created by KiCad (PCBNEW 7.0.10) date 2024-03-24 11:08:13*
%MOMM*%
%LPD*%
G01*
G04 APERTURE LIST*
%ADD10C,0.100000*%
%ADD11C,0.150000*%
%ADD12C,0.120000*%
G04 APERTURE END LIST*
D10*
X61385333Y-36191533D02*
X61152000Y-36891533D01*
X61152000Y-36891533D02*
X60918666Y-36191533D01*
X60285333Y-36824866D02*
X60318666Y-36858200D01*
X60318666Y-36858200D02*
X60418666Y-36891533D01*
X60418666Y-36891533D02*
X60485333Y-36891533D01*
X60485333Y-36891533D02*
X60585333Y-36858200D01*
X60585333Y-36858200D02*
X60652000Y-36791533D01*
X60652000Y-36791533D02*
X60685333Y-36724866D01*
X60685333Y-36724866D02*
X60718666Y-36591533D01*
X60718666Y-36591533D02*
X60718666Y-36491533D01*
X60718666Y-36491533D02*
X60685333Y-36358200D01*
X60685333Y-36358200D02*
X60652000Y-36291533D01*
X60652000Y-36291533D02*
X60585333Y-36224866D01*
X60585333Y-36224866D02*
X60485333Y-36191533D01*
X60485333Y-36191533D02*
X60418666Y-36191533D01*
X60418666Y-36191533D02*
X60318666Y-36224866D01*
X60318666Y-36224866D02*
X60285333Y-36258200D01*
X59585333Y-36824866D02*
X59618666Y-36858200D01*
X59618666Y-36858200D02*
X59718666Y-36891533D01*
X59718666Y-36891533D02*
X59785333Y-36891533D01*
X59785333Y-36891533D02*
X59885333Y-36858200D01*
X59885333Y-36858200D02*
X59952000Y-36791533D01*
X59952000Y-36791533D02*
X59985333Y-36724866D01*
X59985333Y-36724866D02*
X60018666Y-36591533D01*
X60018666Y-36591533D02*
X60018666Y-36491533D01*
X60018666Y-36491533D02*
X59985333Y-36358200D01*
X59985333Y-36358200D02*
X59952000Y-36291533D01*
X59952000Y-36291533D02*
X59885333Y-36224866D01*
X59885333Y-36224866D02*
X59785333Y-36191533D01*
X59785333Y-36191533D02*
X59718666Y-36191533D01*
X59718666Y-36191533D02*
X59618666Y-36224866D01*
X59618666Y-36224866D02*
X59585333Y-36258200D01*
X64091999Y-36891533D02*
X64091999Y-36191533D01*
X64091999Y-36191533D02*
X63858666Y-36691533D01*
X63858666Y-36691533D02*
X63625332Y-36191533D01*
X63625332Y-36191533D02*
X63625332Y-36891533D01*
X63158666Y-36191533D02*
X63025332Y-36191533D01*
X63025332Y-36191533D02*
X62958666Y-36224866D01*
X62958666Y-36224866D02*
X62891999Y-36291533D01*
X62891999Y-36291533D02*
X62858666Y-36424866D01*
X62858666Y-36424866D02*
X62858666Y-36658200D01*
X62858666Y-36658200D02*
X62891999Y-36791533D01*
X62891999Y-36791533D02*
X62958666Y-36858200D01*
X62958666Y-36858200D02*
X63025332Y-36891533D01*
X63025332Y-36891533D02*
X63158666Y-36891533D01*
X63158666Y-36891533D02*
X63225332Y-36858200D01*
X63225332Y-36858200D02*
X63291999Y-36791533D01*
X63291999Y-36791533D02*
X63325332Y-36658200D01*
X63325332Y-36658200D02*
X63325332Y-36424866D01*
X63325332Y-36424866D02*
X63291999Y-36291533D01*
X63291999Y-36291533D02*
X63225332Y-36224866D01*
X63225332Y-36224866D02*
X63158666Y-36191533D01*
X62591999Y-36858200D02*
X62491999Y-36891533D01*
X62491999Y-36891533D02*
X62325333Y-36891533D01*
X62325333Y-36891533D02*
X62258666Y-36858200D01*
X62258666Y-36858200D02*
X62225333Y-36824866D01*
X62225333Y-36824866D02*
X62191999Y-36758200D01*
X62191999Y-36758200D02*
X62191999Y-36691533D01*
X62191999Y-36691533D02*
X62225333Y-36624866D01*
X62225333Y-36624866D02*
X62258666Y-36591533D01*
X62258666Y-36591533D02*
X62325333Y-36558200D01*
X62325333Y-36558200D02*
X62458666Y-36524866D01*
X62458666Y-36524866D02*
X62525333Y-36491533D01*
X62525333Y-36491533D02*
X62558666Y-36458200D01*
X62558666Y-36458200D02*
X62591999Y-36391533D01*
X62591999Y-36391533D02*
X62591999Y-36324866D01*
X62591999Y-36324866D02*
X62558666Y-36258200D01*
X62558666Y-36258200D02*
X62525333Y-36224866D01*
X62525333Y-36224866D02*
X62458666Y-36191533D01*
X62458666Y-36191533D02*
X62291999Y-36191533D01*
X62291999Y-36191533D02*
X62191999Y-36224866D01*
X61891999Y-36891533D02*
X61891999Y-36191533D01*
X66065332Y-36224866D02*
X66131999Y-36191533D01*
X66131999Y-36191533D02*
X66231999Y-36191533D01*
X66231999Y-36191533D02*
X66331999Y-36224866D01*
X66331999Y-36224866D02*
X66398666Y-36291533D01*
X66398666Y-36291533D02*
X66431999Y-36358200D01*
X66431999Y-36358200D02*
X66465332Y-36491533D01*
X66465332Y-36491533D02*
X66465332Y-36591533D01*
X66465332Y-36591533D02*
X66431999Y-36724866D01*
X66431999Y-36724866D02*
X66398666Y-36791533D01*
X66398666Y-36791533D02*
X66331999Y-36858200D01*
X66331999Y-36858200D02*
X66231999Y-36891533D01*
X66231999Y-36891533D02*
X66165332Y-36891533D01*
X66165332Y-36891533D02*
X66065332Y-36858200D01*
X66065332Y-36858200D02*
X66031999Y-36824866D01*
X66031999Y-36824866D02*
X66031999Y-36591533D01*
X66031999Y-36591533D02*
X66165332Y-36591533D01*
X65731999Y-36891533D02*
X65731999Y-36191533D01*
X65731999Y-36191533D02*
X65331999Y-36891533D01*
X65331999Y-36891533D02*
X65331999Y-36191533D01*
X64998666Y-36891533D02*
X64998666Y-36191533D01*
X64998666Y-36191533D02*
X64831999Y-36191533D01*
X64831999Y-36191533D02*
X64731999Y-36224866D01*
X64731999Y-36224866D02*
X64665333Y-36291533D01*
X64665333Y-36291533D02*
X64631999Y-36358200D01*
X64631999Y-36358200D02*
X64598666Y-36491533D01*
X64598666Y-36491533D02*
X64598666Y-36591533D01*
X64598666Y-36591533D02*
X64631999Y-36724866D01*
X64631999Y-36724866D02*
X64665333Y-36791533D01*
X64665333Y-36791533D02*
X64731999Y-36858200D01*
X64731999Y-36858200D02*
X64831999Y-36891533D01*
X64831999Y-36891533D02*
X64998666Y-36891533D01*
X61551999Y-31354333D02*
X61551999Y-30654333D01*
X61551999Y-30654333D02*
X61318666Y-31154333D01*
X61318666Y-31154333D02*
X61085332Y-30654333D01*
X61085332Y-30654333D02*
X61085332Y-31354333D01*
X60751999Y-31354333D02*
X60751999Y-30654333D01*
X60451999Y-31321000D02*
X60351999Y-31354333D01*
X60351999Y-31354333D02*
X60185333Y-31354333D01*
X60185333Y-31354333D02*
X60118666Y-31321000D01*
X60118666Y-31321000D02*
X60085333Y-31287666D01*
X60085333Y-31287666D02*
X60051999Y-31221000D01*
X60051999Y-31221000D02*
X60051999Y-31154333D01*
X60051999Y-31154333D02*
X60085333Y-31087666D01*
X60085333Y-31087666D02*
X60118666Y-31054333D01*
X60118666Y-31054333D02*
X60185333Y-31021000D01*
X60185333Y-31021000D02*
X60318666Y-30987666D01*
X60318666Y-30987666D02*
X60385333Y-30954333D01*
X60385333Y-30954333D02*
X60418666Y-30921000D01*
X60418666Y-30921000D02*
X60451999Y-30854333D01*
X60451999Y-30854333D02*
X60451999Y-30787666D01*
X60451999Y-30787666D02*
X60418666Y-30721000D01*
X60418666Y-30721000D02*
X60385333Y-30687666D01*
X60385333Y-30687666D02*
X60318666Y-30654333D01*
X60318666Y-30654333D02*
X60151999Y-30654333D01*
X60151999Y-30654333D02*
X60051999Y-30687666D01*
X59618666Y-30654333D02*
X59485332Y-30654333D01*
X59485332Y-30654333D02*
X59418666Y-30687666D01*
X59418666Y-30687666D02*
X59351999Y-30754333D01*
X59351999Y-30754333D02*
X59318666Y-30887666D01*
X59318666Y-30887666D02*
X59318666Y-31121000D01*
X59318666Y-31121000D02*
X59351999Y-31254333D01*
X59351999Y-31254333D02*
X59418666Y-31321000D01*
X59418666Y-31321000D02*
X59485332Y-31354333D01*
X59485332Y-31354333D02*
X59618666Y-31354333D01*
X59618666Y-31354333D02*
X59685332Y-31321000D01*
X59685332Y-31321000D02*
X59751999Y-31254333D01*
X59751999Y-31254333D02*
X59785332Y-31121000D01*
X59785332Y-31121000D02*
X59785332Y-30887666D01*
X59785332Y-30887666D02*
X59751999Y-30754333D01*
X59751999Y-30754333D02*
X59685332Y-30687666D01*
X59685332Y-30687666D02*
X59618666Y-30654333D01*
X63891999Y-31321000D02*
X63791999Y-31354333D01*
X63791999Y-31354333D02*
X63625333Y-31354333D01*
X63625333Y-31354333D02*
X63558666Y-31321000D01*
X63558666Y-31321000D02*
X63525333Y-31287666D01*
X63525333Y-31287666D02*
X63491999Y-31221000D01*
X63491999Y-31221000D02*
X63491999Y-31154333D01*
X63491999Y-31154333D02*
X63525333Y-31087666D01*
X63525333Y-31087666D02*
X63558666Y-31054333D01*
X63558666Y-31054333D02*
X63625333Y-31021000D01*
X63625333Y-31021000D02*
X63758666Y-30987666D01*
X63758666Y-30987666D02*
X63825333Y-30954333D01*
X63825333Y-30954333D02*
X63858666Y-30921000D01*
X63858666Y-30921000D02*
X63891999Y-30854333D01*
X63891999Y-30854333D02*
X63891999Y-30787666D01*
X63891999Y-30787666D02*
X63858666Y-30721000D01*
X63858666Y-30721000D02*
X63825333Y-30687666D01*
X63825333Y-30687666D02*
X63758666Y-30654333D01*
X63758666Y-30654333D02*
X63591999Y-30654333D01*
X63591999Y-30654333D02*
X63491999Y-30687666D01*
X62791999Y-31287666D02*
X62825332Y-31321000D01*
X62825332Y-31321000D02*
X62925332Y-31354333D01*
X62925332Y-31354333D02*
X62991999Y-31354333D01*
X62991999Y-31354333D02*
X63091999Y-31321000D01*
X63091999Y-31321000D02*
X63158666Y-31254333D01*
X63158666Y-31254333D02*
X63191999Y-31187666D01*
X63191999Y-31187666D02*
X63225332Y-31054333D01*
X63225332Y-31054333D02*
X63225332Y-30954333D01*
X63225332Y-30954333D02*
X63191999Y-30821000D01*
X63191999Y-30821000D02*
X63158666Y-30754333D01*
X63158666Y-30754333D02*
X63091999Y-30687666D01*
X63091999Y-30687666D02*
X62991999Y-30654333D01*
X62991999Y-30654333D02*
X62925332Y-30654333D01*
X62925332Y-30654333D02*
X62825332Y-30687666D01*
X62825332Y-30687666D02*
X62791999Y-30721000D01*
X62491999Y-31354333D02*
X62491999Y-30654333D01*
X62091999Y-31354333D02*
X62391999Y-30954333D01*
X62091999Y-30654333D02*
X62491999Y-31054333D01*
X65915333Y-31354333D02*
X66148666Y-31021000D01*
X66315333Y-31354333D02*
X66315333Y-30654333D01*
X66315333Y-30654333D02*
X66048666Y-30654333D01*
X66048666Y-30654333D02*
X65982000Y-30687666D01*
X65982000Y-30687666D02*
X65948666Y-30721000D01*
X65948666Y-30721000D02*
X65915333Y-30787666D01*
X65915333Y-30787666D02*
X65915333Y-30887666D01*
X65915333Y-30887666D02*
X65948666Y-30954333D01*
X65948666Y-30954333D02*
X65982000Y-30987666D01*
X65982000Y-30987666D02*
X66048666Y-31021000D01*
X66048666Y-31021000D02*
X66315333Y-31021000D01*
X65648666Y-31321000D02*
X65548666Y-31354333D01*
X65548666Y-31354333D02*
X65382000Y-31354333D01*
X65382000Y-31354333D02*
X65315333Y-31321000D01*
X65315333Y-31321000D02*
X65282000Y-31287666D01*
X65282000Y-31287666D02*
X65248666Y-31221000D01*
X65248666Y-31221000D02*
X65248666Y-31154333D01*
X65248666Y-31154333D02*
X65282000Y-31087666D01*
X65282000Y-31087666D02*
X65315333Y-31054333D01*
X65315333Y-31054333D02*
X65382000Y-31021000D01*
X65382000Y-31021000D02*
X65515333Y-30987666D01*
X65515333Y-30987666D02*
X65582000Y-30954333D01*
X65582000Y-30954333D02*
X65615333Y-30921000D01*
X65615333Y-30921000D02*
X65648666Y-30854333D01*
X65648666Y-30854333D02*
X65648666Y-30787666D01*
X65648666Y-30787666D02*
X65615333Y-30721000D01*
X65615333Y-30721000D02*
X65582000Y-30687666D01*
X65582000Y-30687666D02*
X65515333Y-30654333D01*
X65515333Y-30654333D02*
X65348666Y-30654333D01*
X65348666Y-30654333D02*
X65248666Y-30687666D01*
X65048666Y-30654333D02*
X64648666Y-30654333D01*
X64848666Y-31354333D02*
X64848666Y-30654333D01*
D11*
X53806819Y-33448666D02*
X54521104Y-33448666D01*
X54521104Y-33448666D02*
X54663961Y-33401047D01*
X54663961Y-33401047D02*
X54759200Y-33305809D01*
X54759200Y-33305809D02*
X54806819Y-33162952D01*
X54806819Y-33162952D02*
X54806819Y-33067714D01*
X54806819Y-34448666D02*
X54806819Y-33877238D01*
X54806819Y-34162952D02*
X53806819Y-34162952D01*
X53806819Y-34162952D02*
X53949676Y-34067714D01*
X53949676Y-34067714D02*
X54044914Y-33972476D01*
X54044914Y-33972476D02*
X54092533Y-33877238D01*
D12*
%TO.C,J1*%
X55242000Y-29222000D02*
X55242000Y-38342000D01*
X55242000Y-38342000D02*
X70742000Y-38342000D01*
X70742000Y-38342000D02*
X70742000Y-29222000D01*
X70742000Y-29222000D02*
X55242000Y-29222000D01*
X60942000Y-29222000D02*
X60942000Y-30532000D01*
X60942000Y-30532000D02*
X56542000Y-30532000D01*
X56542000Y-30532000D02*
X56542000Y-37032000D01*
X56542000Y-37032000D02*
X69442000Y-37032000D01*
X69442000Y-37032000D02*
X69442000Y-30532000D01*
X69442000Y-30532000D02*
X65042000Y-30532000D01*
X65042000Y-30532000D02*
X65042000Y-30532000D01*
X65042000Y-30532000D02*
X65042000Y-29222000D01*
X60452000Y-28832000D02*
X59952000Y-27832000D01*
X59952000Y-27832000D02*
X60952000Y-27832000D01*
X60952000Y-27832000D02*
X60452000Y-28832000D01*
%TD*%
M02*
